<?xml version="1.0" encoding="UTF-8" standalone="no"?>
<!-- Created with Inkscape (http://www.inkscape.org/) -->

<svg
   xmlns:dc="http://purl.org/dc/elements/1.1/"
   xmlns:cc="http://creativecommons.org/ns#"
   xmlns:rdf="http://www.w3.org/1999/02/22-rdf-syntax-ns#"
   xmlns:svg="http://www.w3.org/2000/svg"
   xmlns="http://www.w3.org/2000/svg"
   xmlns:sodipodi="http://sodipodi.sourceforge.net/DTD/sodipodi-0.dtd"
   xmlns:inkscape="http://www.inkscape.org/namespaces/inkscape"
   id="svg2"
   version="1.1"
   inkscape:version="0.48.5 r10040"
   width="160"
   height="18"
   sodipodi:docname="pw_q(x).svg">
  <metadata
     id="metadata8">
    <rdf:RDF>
      <cc:Work
         rdf:about="">
        <dc:format>image/svg+xml</dc:format>
        <dc:type
           rdf:resource="http://purl.org/dc/dcmitype/StillImage" />
        <dc:title></dc:title>
      </cc:Work>
    </rdf:RDF>
  </metadata>
  <defs
     id="defs6" />
  <sodipodi:namedview
     pagecolor="#ffffff"
     bordercolor="#666666"
     borderopacity="1"
     objecttolerance="10"
     gridtolerance="10"
     guidetolerance="10"
     inkscape:pageopacity="0"
     inkscape:pageshadow="2"
     inkscape:window-width="640"
     inkscape:window-height="748"
     id="namedview4"
     showgrid="false"
     inkscape:zoom="2.9412633"
     inkscape:cx="78.877212"
     inkscape:cy="8.5950693"
     inkscape:window-x="590"
     inkscape:window-y="24"
     inkscape:window-maximized="0"
     inkscape:current-layer="svg2"
     showguides="true"
     inkscape:guide-bbox="true" />
  <g
     style="font-size:34.42548751999999723px;font-style:normal;font-weight:normal;line-height:125%;letter-spacing:0px;word-spacing:0px;fill:#ffffff;fill-opacity:1;stroke:none;font-family:Sans"
     id="text2990">
    <path
       d="m 1.4884648,4.0083153 1.7145507,0 2.6390632,10.6066807 2.6306586,-10.6066807 1.9078577,0 2.639063,10.6066807 2.630659,-10.6066807 1.722955,0 -3.151747,12.5481577 -2.134784,0 L 9.4392732,5.6640334 6.7665913,16.556473 l -2.1347836,0 L 1.4884648,4.0083153"
       style="font-size:17.21274375999999862px;fill:#ffffff"
       id="path2999" />
    <path
       d="m 23.264939,3.4956311 c -0.750821,1.2887263 -1.308329,2.5634318 -1.672527,3.8241203 -0.364205,1.260707 -0.546306,2.538214 -0.546303,3.8325246 -3e-6,1.294322 0.182098,2.577432 0.546303,3.849335 0.369801,1.266302 0.927309,2.541008 1.672527,3.82412 l -1.344745,0 C 21.079724,17.509 20.449376,16.214684 20.029145,14.942778 19.614513,13.670876 19.407199,12.407376 19.4072,11.152276 c -1e-6,-1.2494858 0.207313,-2.507382 0.621945,-3.773692 0.414627,-1.2662917 1.044976,-2.560608 1.891049,-3.8829529 l 1.344745,0"
       style="font-size:17.21274375999999862px;fill:#ffffff"
       id="path3001" />
    <path
       d="m 34.098546,7.1432535 -3.403887,4.5805395 3.580385,4.83268 -1.823811,0 -2.739919,-3.698051 -2.73992,3.698051 -1.823811,0 3.656027,-4.925131 -3.345054,-4.4880885 1.823811,0 2.496184,3.3534595 2.496184,-3.3534595 1.823811,0"
       style="font-size:17.21274375999999862px;fill:#ffffff"
       id="path3003" />
    <path
       d="m 36.21652,3.4956311 1.344745,0 c 0.840463,1.3223449 1.46801,2.6166612 1.882644,3.8829529 0.420228,1.26631 0.630344,2.5242062 0.63035,3.773692 -6e-6,1.2551 -0.210122,2.5186 -0.63035,3.790502 -0.414634,1.271906 -1.042181,2.566222 -1.882644,3.882953 l -1.344745,0 c 0.745211,-1.283112 1.299918,-2.557818 1.664122,-3.82412 0.369802,-1.271903 0.554704,-2.555013 0.554708,-3.849335 -4e-6,-1.2943106 -0.184906,-2.5718176 -0.554708,-3.8325246 C 37.516438,6.0590629 36.961731,4.7843574 36.21652,3.4956311"
       style="font-size:17.21274375999999862px;fill:#ffffff"
       id="path3005" />
    <path
       d="m 43.385695,8.7401389 10.774774,0 0,1.4119831 -10.774774,0 0,-1.4119831 m 0,3.4291011 10.774774,0 0,1.428792 -10.774774,0 0,-1.428792"
       style="font-size:17.21274375999999862px;fill:#ffffff"
       id="path3007" />
    <path
       d="m 65.431119,7.1432535 -3.403887,4.5805395 3.580385,4.83268 -1.823811,0 -2.739919,-3.698051 -2.73992,3.698051 -1.823811,0 3.656027,-4.925131 -3.345054,-4.4880885 1.823811,0 2.496184,3.3534595 2.496184,-3.3534595 1.823811,0"
       style="font-size:17.21274375999999862px;fill:#ffffff"
       id="path3009" />
    <path
       d="m 70.710574,5.2735745 c 0.528095,0.1129085 0.939649,0.3478218 1.234662,0.7047407 0.298644,0.3569263 0.447968,0.7976165 0.447975,1.3220718 -7e-6,0.8048993 -0.276804,1.4276928 -0.830393,1.8683825 -0.553599,0.4406906 -1.340286,0.6610357 -2.360062,0.6610359 -0.342357,-2e-7 -0.695638,-0.0346 -1.059842,-0.1037991 -0.360567,-0.065557 -0.733879,-0.1657141 -1.119937,-0.3004708 l 0,-1.0653058 c 0.305933,0.1784626 0.641003,0.3132191 1.005211,0.4042699 0.364205,0.091053 0.744801,0.1365784 1.14179,0.1365777 0.691989,7e-7 1.218268,-0.1365768 1.578837,-0.409733 C 71.113018,8.2181904 71.295121,7.821205 71.295126,7.300387 71.295121,6.8196365 71.125765,6.4445036 70.787057,6.1749871 70.451982,5.9018355 69.983977,5.765258 69.383039,5.7652541 l -0.950581,0 0,-0.9068757 0.994286,0 c 0.542664,4.8e-6 0.95786,-0.1074362 1.245588,-0.3223233 0.287719,-0.2185189 0.43158,-0.5317367 0.431585,-0.9396543 -5e-6,-0.4188317 -0.149329,-0.7393336 -0.447974,-0.9615068 -0.295012,-0.2258011 -0.719313,-0.3387052 -1.272904,-0.3387126 -0.302295,7.4e-6 -0.626439,0.032786 -0.972433,0.098336 -0.345999,0.065565 -0.726595,0.1675424 -1.141789,0.305934 l 0,-0.9833592 c 0.418836,-0.1165382 0.810358,-0.2039478 1.174567,-0.2622291 0.367847,-0.058265 0.713843,-0.087401 1.037991,-0.08741 0.837672,8.3e-6 1.500528,0.1912168 1.988571,0.5736262 0.488031,0.3787827 0.73205,0.8923142 0.732056,1.540596 -6e-6,0.4516226 -0.1293,0.8340397 -0.387881,1.1472524 -0.258592,0.3095808 -0.626441,0.5244628 -1.103547,0.6446466"
       style="font-size:11.18844222999999971px;baseline-shift:super;fill:#ffffff"
       id="path3011" />
    <path
       d="m 74.135084,11.152276 4.530112,0 0,1.378365 -4.530112,0 0,-1.378365"
       style="font-size:17.21274375999999862px;fill:#ffffff"
       id="path3013" />
    <path
       d="m 82.817102,15.127681 5.925285,0 0,1.428792 -7.967618,0 0,-1.428792 c 0.644356,-0.666768 1.521241,-1.560463 2.630659,-2.681087 1.115013,-1.126219 1.815401,-1.851821 2.101165,-2.176807 0.543495,-0.6107317 0.921704,-1.126217 1.134629,-1.5464574 0.218514,-0.4258278 0.327774,-0.8432589 0.327782,-1.2522943 -8e-6,-0.66676 -0.235338,-1.2102608 -0.705992,-1.6305041 -0.465064,-0.4202218 -1.073,-0.6303381 -1.823811,-0.6303495 -0.5323,1.14e-5 -1.095411,0.092462 -1.689337,0.2773538 -0.588329,0.1849134 -1.218677,0.4650685 -1.891048,0.840466 l 0,-1.7145506 c 0.683577,-0.27454 1.32233,-0.4818548 1.916262,-0.6219449 0.593926,-0.1400649 1.137427,-0.2101037 1.630504,-0.2101165 1.299915,1.28e-5 2.336489,0.3249927 3.109725,0.9749406 0.773219,0.6499715 1.159833,1.5184522 1.159843,2.6054446 -1e-5,0.5154945 -0.09806,1.0057658 -0.294164,1.4708155 -0.190514,0.459462 -0.540708,1.0029628 -1.050582,1.6305038 -0.140085,0.162496 -0.585532,0.633157 -1.336341,1.411983 -0.750822,0.773233 -1.809808,1.857433 -3.176961,3.252604"
       style="font-size:17.21274375999999862px;fill:#ffffff"
       id="path3015" />
    <path
       d="m 99.920587,7.1432535 -3.403888,4.5805395 3.580381,4.83268 -1.823807,0 -2.739919,-3.698051 -2.739919,3.698051 -1.823811,0 3.656027,-4.925131 -3.345055,-4.4880885 1.823811,0 2.496184,3.3534595 2.496184,-3.3534595 1.823812,0"
       style="font-size:17.21274375999999862px;fill:#ffffff"
       id="path3017" />
    <path
       d="m 102.8072,8.7426472 3.85149,0 0,0.9287281 -5.17903,0 0,-0.9287281 c 0.41884,-0.4334051 0.98882,-1.0143149 1.70995,-1.742731 0.72477,-0.7320529 1.18003,-1.2037006 1.36578,-1.4149446 0.35328,-0.3969813 0.59912,-0.7320515 0.73752,-1.0052116 0.14204,-0.2767921 0.21306,-0.5481261 0.21306,-0.8140029 0,-0.4334001 -0.15297,-0.7866807 -0.4589,-1.0598427 -0.3023,-0.2731481 -0.69746,-0.4097256 -1.18549,-0.409733 -0.346,7.4e-6 -0.71203,0.060102 -1.09809,0.1802825 -0.38242,0.1201955 -0.79215,0.3022988 -1.2292,0.5463107 l 0,-1.1144737 c 0.44433,-0.1784536 0.85953,-0.3132101 1.24559,-0.4042699 0.38606,-0.091043 0.73934,-0.1365694 1.05984,-0.1365777 0.84496,8.3e-6 1.51874,0.2112482 2.02135,0.6337204 0.5026,0.4224875 0.75391,0.9870079 0.75391,1.693563 0,0.3350762 -0.0637,0.6537571 -0.19121,0.9560436 -0.12383,0.2986546 -0.35146,0.6519351 -0.68288,1.0598427 -0.0911,0.1056239 -0.38061,0.4115576 -0.86864,0.9178019 -0.48804,0.5026084 -1.17639,1.2073484 -2.06505,2.1142223"
       style="font-size:11.18844222999999971px;baseline-shift:super;fill:#ffffff"
       id="path3019" />
    <path
       d="m 115.70127,5.7648893 0,4.6813957 4.6814,0 0,1.428792 -4.6814,0 0,4.681396 -1.41198,0 0,-4.681396 -4.6814,0 0,-1.428792 4.6814,0 0,-4.6813957 1.41198,0"
       style="font-size:17.21274375999999862px;fill:#ffffff"
       id="path3021" />
    <path
       d="m 129.19076,9.7907214 c 0.81244,0.1737029 1.44559,0.5351026 1.89945,1.0842016 0.45944,0.549109 0.68917,1.227084 0.68918,2.033927 -1e-5,1.238289 -0.42584,2.19642 -1.27751,2.874394 -0.85168,0.677976 -2.06195,1.016964 -3.63081,1.016964 -0.5267,0 -1.0702,-0.05323 -1.6305,-0.159689 -0.55471,-0.100856 -1.12903,-0.254941 -1.72296,-0.462256 l 0,-1.638909 c 0.47066,0.274554 0.98614,0.481869 1.54646,0.621945 0.56031,0.140079 1.14583,0.210118 1.75657,0.210117 1.06459,10e-7 1.87423,-0.210115 2.42895,-0.63035 0.5603,-0.420231 0.84046,-1.030969 0.84046,-1.832216 0,-0.739605 -0.26055,-1.316725 -0.78163,-1.73136 -0.51549,-0.420227 -1.23549,-0.630343 -2.16,-0.630349 l -1.46241,0 0,-1.3951737 1.52965,0 c 0.83486,7.4e-6 1.47361,-0.1652841 1.91626,-0.495875 0.44264,-0.3361781 0.66396,-0.8180448 0.66397,-1.4456015 -1e-5,-0.6443473 -0.22973,-1.1374202 -0.68918,-1.4792202 -0.45386,-0.3473814 -1.10662,-0.5210775 -1.95829,-0.5210889 -0.46506,1.14e-5 -0.96373,0.050439 -1.49603,0.1512839 -0.53229,0.100867 -1.11782,0.2577539 -1.75657,0.470661 l 0,-1.5128388 c 0.64436,-0.179287 1.24669,-0.3137615 1.807,-0.4034237 0.56591,-0.089637 1.09821,-0.1344618 1.59689,-0.1344746 1.28871,1.28e-5 2.30847,0.2941756 3.05929,0.8824893 0.75081,0.5827344 1.12622,1.3727717 1.12623,2.3701142 -1e-5,0.694794 -0.19892,1.2831196 -0.59673,1.7649786 -0.39783,0.4762713 -0.96374,0.8068543 -1.69774,0.9917498"
       style="font-size:17.21274375999999862px;fill:#ffffff"
       id="path3023" />
    <path
       d="m 142.61299,7.1432535 -3.40388,4.5805395 3.58038,4.83268 -1.82381,0 -2.73992,-3.698051 -2.73992,3.698051 -1.82381,0 3.65603,-4.925131 -3.34506,-4.4880885 1.82381,0 2.49619,3.3534595 2.49618,-3.3534595 1.82381,0"
       style="font-size:17.21274375999999862px;fill:#ffffff"
       id="path3025" />
    <path
       d="m 144.19307,11.152276 4.53011,0 0,1.378365 -4.53011,0 0,-1.378365"
       style="font-size:17.21274375999999862px;fill:#ffffff"
       id="path3027" />
    <path
       d="m 152.87508,15.127681 5.92529,0 0,1.428792 -7.96762,0 0,-1.428792 c 0.64436,-0.666768 1.52124,-1.560463 2.63066,-2.681087 1.11501,-1.126219 1.8154,-1.851821 2.10117,-2.176807 0.54349,-0.6107317 0.9217,-1.126217 1.13463,-1.5464574 0.21851,-0.4258278 0.32777,-0.8432589 0.32778,-1.2522943 -1e-5,-0.66676 -0.23534,-1.2102608 -0.70599,-1.6305041 -0.46507,-0.4202218 -1.07301,-0.6303381 -1.82382,-0.6303495 -0.5323,1.14e-5 -1.09541,0.092462 -1.68933,0.2773538 -0.58833,0.1849134 -1.21868,0.4650685 -1.89105,0.840466 l 0,-1.7145506 c 0.68358,-0.27454 1.32233,-0.4818548 1.91626,-0.6219449 0.59393,-0.1400649 1.13743,-0.2101037 1.63051,-0.2101165 1.29991,1.28e-5 2.33648,0.3249927 3.10972,0.9749406 0.77322,0.6499715 1.15983,1.5184522 1.15984,2.6054446 -10e-6,0.5154945 -0.0981,1.0057658 -0.29416,1.4708155 -0.19051,0.459462 -0.54071,1.0029628 -1.05058,1.6305038 -0.14009,0.162496 -0.58553,0.633157 -1.33634,1.411983 -0.75083,0.773233 -1.80981,1.857433 -3.17697,3.252604"
       style="font-size:17.21274375999999862px;fill:#ffffff"
       id="path3029" />
  </g>
</svg>
