<?xml version="1.0" encoding="UTF-8" standalone="no"?>
<!-- Created with Inkscape (http://www.inkscape.org/) -->

<svg
   xmlns:dc="http://purl.org/dc/elements/1.1/"
   xmlns:cc="http://creativecommons.org/ns#"
   xmlns:rdf="http://www.w3.org/1999/02/22-rdf-syntax-ns#"
   xmlns:svg="http://www.w3.org/2000/svg"
   xmlns="http://www.w3.org/2000/svg"
   xmlns:sodipodi="http://sodipodi.sourceforge.net/DTD/sodipodi-0.dtd"
   xmlns:inkscape="http://www.inkscape.org/namespaces/inkscape"
   id="svg2"
   version="1.1"
   inkscape:version="0.48.5 r10040"
   width="290"
   height="18"
   sodipodi:docname="bezout_rown.svg">
  <metadata
     id="metadata8">
    <rdf:RDF>
      <cc:Work
         rdf:about="">
        <dc:format>image/svg+xml</dc:format>
        <dc:type
           rdf:resource="http://purl.org/dc/dcmitype/StillImage" />
        <dc:title></dc:title>
      </cc:Work>
    </rdf:RDF>
  </metadata>
  <defs
     id="defs6" />
  <sodipodi:namedview
     pagecolor="#ffffff"
     bordercolor="#666666"
     borderopacity="1"
     objecttolerance="10"
     gridtolerance="10"
     guidetolerance="10"
     inkscape:pageopacity="0"
     inkscape:pageshadow="2"
     inkscape:window-width="640"
     inkscape:window-height="748"
     id="namedview4"
     showgrid="false"
     inkscape:zoom="1.4706317"
     inkscape:cx="158.58784"
     inkscape:cy="65.450191"
     inkscape:window-x="590"
     inkscape:window-y="24"
     inkscape:window-maximized="0"
     inkscape:current-layer="svg2"
     showguides="true"
     inkscape:guide-bbox="true">
    <sodipodi:guide
       orientation="0,1"
       position="148.09207,7.8132993"
       id="guide3029" />
  </sodipodi:namedview>
  <g
     style="font-size:16.83992957999999973px;font-style:normal;font-weight:normal;line-height:125%;letter-spacing:0px;word-spacing:0px;fill:#ffffff;fill-opacity:1;stroke:none;font-family:Sans"
     id="text2998">
    <path
       d="m 1.3207041,2.6509527 1.6774149,0 2.5819032,10.3769493 2.5736807,-10.3769493 1.8665351,0 2.581903,10.3769493 2.573681,-10.3769493 1.685637,0 -3.083483,12.2763743 -2.088546,0 L 9.0993044,4.2708092 6.4845106,14.927327 l -2.0885459,0 L 1.3207041,2.6509527"
       style="fill:#ffffff"
       id="path3034" />
    <path
       d="m 22.625516,2.1493728 c -0.734558,1.2608135 -1.279992,2.5079099 -1.636301,3.7412929 -0.356317,1.2334011 -0.534474,2.4832384 -0.534471,3.7495156 -3e-6,1.2662877 0.178154,2.5216067 0.534471,3.7659607 0.361791,1.238875 0.907224,2.485972 1.636301,3.741293 l -1.315619,0 c -0.822265,-1.288212 -1.438961,-2.554494 -1.85009,-3.798851 -0.405651,-1.244354 -0.608475,-2.480487 -0.608474,-3.7084027 -1e-6,-1.2224233 0.202823,-2.4530745 0.608474,-3.6919572 0.405647,-1.2388648 1.022343,-2.5051473 1.85009,-3.7988513 l 1.315619,0"
       style="fill:#ffffff"
       id="path3036" />
    <path
       d="m 26.070796,13.529481 2.713465,0 0,-9.3655659 -2.951921,0.5920288 0,-1.5129624 2.935476,-0.5920288 1.660969,0 0,10.8785283 2.713466,0 0,1.397846 -7.071455,0 0,-1.397846"
       style="fill:#ffffff"
       id="path3038" />
    <path
       d="m 36.053058,2.1493728 1.315619,0 c 0.822259,1.293704 1.436214,2.5599865 1.841867,3.7988513 0.411126,1.2388827 0.616692,2.4695339 0.616697,3.6919572 -5e-6,1.2279157 -0.205571,2.4640487 -0.616697,3.7084027 -0.405653,1.244357 -1.019608,2.510639 -1.841867,3.798851 l -1.315619,0 c 0.72907,-1.255321 1.271762,-2.502418 1.628079,-3.741293 0.361792,-1.244354 0.542689,-2.499673 0.542693,-3.7659607 -4e-6,-1.2662772 -0.180901,-2.5161145 -0.542693,-3.7495156 C 37.32482,4.6572827 36.782128,3.4101863 36.053058,2.1493728"
       style="fill:#ffffff"
       id="path3040" />
    <path
       d="m 43.066955,7.2802888 10.541401,0 0,1.3814005 -10.541401,0 0,-1.3814005 m 0,3.3548302 10.541401,0 0,1.397845 -10.541401,0 0,-1.397845"
       style="fill:#ffffff"
       id="path3042" />
    <path
       d="m 57.481208,13.529481 2.713465,0 0,-9.3655659 -2.951921,0.5920288 0,-1.5129624 2.935476,-0.5920288 1.660969,0 0,10.8785283 2.713465,0 0,1.397846 -7.071454,0 0,-1.397846"
       style="fill:#ffffff"
       id="path3044" />
    <path
       d="m 72.947958,8.3081166 c 0.794846,0.1699406 1.414283,0.523513 1.858313,1.0607182 0.449494,0.5372163 0.674245,1.2005072 0.674255,1.9898742 -1e-5,1.211469 -0.416622,2.148847 -1.249839,2.812137 -0.833233,0.663292 -2.017289,0.994937 -3.552173,0.994937 -0.515288,0 -1.047017,-0.05208 -1.595188,-0.15623 -0.542696,-0.09867 -1.104574,-0.249419 -1.685638,-0.452244 l 0,-1.603411 c 0.460465,0.268607 0.964786,0.471432 1.512963,0.608474 0.548171,0.137045 1.121013,0.205567 1.718528,0.205565 1.041526,2e-6 1.833638,-0.205564 2.376337,-0.616696 0.548168,-0.411129 0.822255,-1.008639 0.822263,-1.792532 -8e-6,-0.723586 -0.254909,-1.288206 -0.764704,-1.6938598 C 72.558748,9.2537237 71.854344,9.0481584 70.949861,9.0481525 l -1.430736,0 0,-1.3649552 1.496517,0 c 0.816775,7.2e-6 1.441693,-0.1617042 1.874758,-0.4851347 0.433051,-0.3288968 0.649579,-0.8003267 0.649587,-1.414291 -8e-6,-0.6303912 -0.224759,-1.1127845 -0.674255,-1.4471814 -0.444028,-0.3398574 -1.082651,-0.5097915 -1.915871,-0.5098026 -0.454989,1.11e-5 -0.942865,0.049347 -1.463627,0.1480072 -0.520769,0.098682 -1.093611,0.2521711 -1.718528,0.4604669 l 0,-1.480072 c 0.630399,-0.1754038 1.219686,-0.3069656 1.767864,-0.3946858 0.553653,-0.087696 1.074418,-0.1315495 1.562298,-0.131562 1.260796,1.25e-5 2.258473,0.287804 2.993035,0.8633753 0.734545,0.5701129 1.101822,1.3430385 1.101831,2.3187794 -9e-6,0.6797454 -0.194611,1.2553283 -0.583806,1.7267506 -0.389212,0.4659557 -0.942868,0.7893785 -1.66097,0.9702694"
       style="fill:#ffffff"
       id="path3046" />
    <path
       d="m 77.659527,9.6401813 4.431993,0 0,1.3485097 -4.431993,0 0,-1.3485097"
       style="fill:#ffffff"
       id="path3048" />
    <path
       d="m 86.153495,13.529481 5.796948,0 0,1.397846 -7.795045,0 0,-1.397846 c 0.630399,-0.652326 1.488291,-1.526663 2.57368,-2.623016 1.090863,-1.1018261 1.776081,-1.8117118 2.055656,-2.129659 0.531723,-0.5975038 0.90174,-1.1018241 1.110054,-1.5129624 0.213781,-0.4166048 0.320675,-0.8249946 0.320682,-1.2251707 -7e-6,-0.6523184 -0.230241,-1.1840475 -0.6907,-1.5951886 -0.454992,-0.4111202 -1.049761,-0.6166856 -1.784309,-0.6166967 -0.520771,1.11e-5 -1.071686,0.09046 -1.652747,0.2713466 -0.575586,0.1809083 -1.192282,0.4549954 -1.85009,0.8222621 l 0,-1.6774148 c 0.668771,-0.2685937 1.29369,-0.4714182 1.874758,-0.608474 0.581061,-0.1370313 1.11279,-0.2055531 1.595188,-0.2055656 1.27176,1.25e-5 2.285882,0.3179536 3.04237,0.9538242 0.756473,0.6358936 1.134713,1.4855637 1.134722,2.5490127 -9e-6,0.5043293 -0.09594,0.9839818 -0.287792,1.4389589 -0.186388,0.4495104 -0.528996,0.9812394 -1.027827,1.5951886 -0.137052,0.1589765 -0.57285,0.6194429 -1.307397,1.3814007 -0.73456,0.756485 -1.770609,1.817202 -3.108151,3.182154"
       style="fill:#ffffff"
       id="path3050" />
    <path
       d="m 101.09399,13.529481 2.71347,0 0,-9.3655659 -2.95192,0.5920288 0,-1.5129624 2.93547,-0.5920288 1.66097,0 0,10.8785283 2.71347,0 0,1.397846 -7.07146,0 0,-1.397846"
       style="fill:#ffffff"
       id="path3052" />
    <path
       d="m 112.95924,13.529481 5.79694,0 0,1.397846 -7.79504,0 0,-1.397846 c 0.6304,-0.652326 1.48829,-1.526663 2.57368,-2.623016 1.09086,-1.1018261 1.77608,-1.8117118 2.05565,-2.129659 0.53173,-0.5975038 0.90174,-1.1018241 1.11006,-1.5129624 0.21378,-0.4166048 0.32067,-0.8249946 0.32068,-1.2251707 -1e-5,-0.6523184 -0.23024,-1.1840475 -0.6907,-1.5951886 -0.45499,-0.4111202 -1.04976,-0.6166856 -1.78431,-0.6166967 -0.52077,1.11e-5 -1.07168,0.09046 -1.65275,0.2713466 -0.57558,0.1809083 -1.19228,0.4549954 -1.85009,0.8222621 l 0,-1.6774148 c 0.66878,-0.2685937 1.29369,-0.4714182 1.87476,-0.608474 0.58106,-0.1370313 1.11279,-0.2055531 1.59519,-0.2055656 1.27176,1.25e-5 2.28588,0.3179536 3.04237,0.9538242 0.75647,0.6358936 1.13471,1.4855637 1.13472,2.5490127 -1e-5,0.5043293 -0.0959,0.9839818 -0.28779,1.4389589 -0.18639,0.4495104 -0.529,0.9812394 -1.02783,1.5951886 -0.13705,0.1589765 -0.57285,0.6194429 -1.30739,1.3814007 -0.73456,0.756485 -1.77061,1.817202 -3.10815,3.182154"
       style="fill:#ffffff"
       id="path3054" />
    <path
       d="m 128.19575,4.3694807 0,4.5800004 4.58,0 0,1.3978459 -4.58,0 0,4.58 -1.3814,0 0,-4.58 -4.58,0 0,-1.3978459 4.58,0 0,-4.5800004 1.3814,0"
       style="fill:#ffffff"
       id="path3056" />
    <path
       d="m 141.39306,8.3081166 c 0.79484,0.1699406 1.41428,0.523513 1.85831,1.0607182 0.44949,0.5372163 0.67425,1.2005072 0.67425,1.9898742 0,1.211469 -0.41662,2.148847 -1.24983,2.812137 -0.83324,0.663292 -2.01729,0.994937 -3.55218,0.994937 -0.51528,0 -1.04701,-0.05208 -1.59519,-0.15623 -0.54269,-0.09867 -1.10457,-0.249419 -1.68563,-0.452244 l 0,-1.603411 c 0.46046,0.268607 0.96478,0.471432 1.51296,0.608474 0.54817,0.137045 1.12101,0.205567 1.71853,0.205565 1.04152,2e-6 1.83364,-0.205564 2.37634,-0.616696 0.54816,-0.411129 0.82225,-1.008639 0.82226,-1.792532 -10e-6,-0.723586 -0.25491,-1.288206 -0.76471,-1.6938598 -0.50432,-0.4111255 -1.20873,-0.6166908 -2.11321,-0.6166967 l -1.43074,0 0,-1.3649552 1.49652,0 c 0.81678,7.2e-6 1.44169,-0.1617042 1.87476,-0.4851347 0.43305,-0.3288968 0.64958,-0.8003267 0.64959,-1.414291 -1e-5,-0.6303912 -0.22476,-1.1127845 -0.67426,-1.4471814 -0.44403,-0.3398574 -1.08265,-0.5097915 -1.91587,-0.5098026 -0.45499,1.11e-5 -0.94286,0.049347 -1.46363,0.1480072 -0.52077,0.098682 -1.09361,0.2521711 -1.71852,0.4604669 l 0,-1.480072 c 0.63039,-0.1754038 1.21968,-0.3069656 1.76786,-0.3946858 0.55365,-0.087696 1.07442,-0.1315495 1.5623,-0.131562 1.26079,1.25e-5 2.25847,0.287804 2.99303,0.8633753 0.73455,0.5701129 1.10182,1.3430385 1.10183,2.3187794 -1e-5,0.6797454 -0.19461,1.2553283 -0.5838,1.7267506 -0.38922,0.4659557 -0.94287,0.7893785 -1.66097,0.9702694"
       style="fill:#ffffff"
       id="path3058" />
    <path
       d="m 152.73205,13.529481 2.71347,0 0,-9.3655659 -2.95192,0.5920288 0,-1.5129624 2.93547,-0.5920288 1.66097,0 0,10.8785283 2.71347,0 0,1.397846 -7.07146,0 0,-1.397846"
       style="fill:#ffffff"
       id="path3060" />
    <path
       d="m 162.18808,9.6401813 4.43199,0 0,1.3485097 -4.43199,0 0,-1.3485097"
       style="fill:#ffffff"
       id="path3062" />
    <path
       d="m 170.68204,13.529481 5.79694,0 0,1.397846 -7.79504,0 0,-1.397846 c 0.6304,-0.652326 1.48829,-1.526663 2.57368,-2.623016 1.09086,-1.1018261 1.77608,-1.8117118 2.05566,-2.129659 0.53172,-0.5975038 0.90174,-1.1018241 1.11005,-1.5129624 0.21378,-0.4166048 0.32067,-0.8249946 0.32068,-1.2251707 -1e-5,-0.6523184 -0.23024,-1.1840475 -0.6907,-1.5951886 -0.45499,-0.4111202 -1.04976,-0.6166856 -1.78431,-0.6166967 -0.52077,1.11e-5 -1.07168,0.09046 -1.65274,0.2713466 -0.57559,0.1809083 -1.19229,0.4549954 -1.85009,0.8222621 l 0,-1.6774148 c 0.66877,-0.2685937 1.29369,-0.4714182 1.87475,-0.608474 0.58106,-0.1370313 1.11279,-0.2055531 1.59519,-0.2055656 1.27176,1.25e-5 2.28588,0.3179536 3.04237,0.9538242 0.75647,0.6358936 1.13471,1.4855637 1.13472,2.5490127 -1e-5,0.5043293 -0.0959,0.9839818 -0.28779,1.4389589 -0.18639,0.4495104 -0.52899,0.9812394 -1.02783,1.5951886 -0.13705,0.1589765 -0.57285,0.6194429 -1.30739,1.3814007 -0.73456,0.756485 -1.77061,1.817202 -3.10815,3.182154"
       style="fill:#ffffff"
       id="path3064" />
    <path
       d="m 179.95716,7.2802888 10.5414,0 0,1.3814005 -10.5414,0 0,-1.3814005 m 0,3.3548302 10.5414,0 0,1.397845 -10.5414,0 0,-1.397845"
       style="fill:#ffffff"
       id="path3066" />
    <path
       d="m 194.37141,13.529481 2.71347,0 0,-9.3655659 -2.95192,0.5920288 0,-1.5129624 2.93547,-0.5920288 1.66097,0 0,10.8785283 2.71347,0 0,1.397846 -7.07146,0 0,-1.397846"
       style="fill:#ffffff"
       id="path3068" />
    <path
       d="m 203.82743,9.6401813 4.432,0 0,1.3485097 -4.432,0 0,-1.3485097"
       style="fill:#ffffff"
       id="path3070" />
    <path
       d="m 212.32139,13.529481 5.79695,0 0,1.397846 -7.79504,0 0,-1.397846 c 0.6304,-0.652326 1.48829,-1.526663 2.57368,-2.623016 1.09086,-1.1018261 1.77608,-1.8117118 2.05565,-2.129659 0.53173,-0.5975038 0.90174,-1.1018241 1.11006,-1.5129624 0.21378,-0.4166048 0.32067,-0.8249946 0.32068,-1.2251707 -1e-5,-0.6523184 -0.23024,-1.1840475 -0.6907,-1.5951886 -0.45499,-0.4111202 -1.04976,-0.6166856 -1.78431,-0.6166967 -0.52077,1.11e-5 -1.07168,0.09046 -1.65275,0.2713466 -0.57558,0.1809083 -1.19228,0.4549954 -1.85009,0.8222621 l 0,-1.6774148 c 0.66878,-0.2685937 1.29369,-0.4714182 1.87476,-0.608474 0.58106,-0.1370313 1.11279,-0.2055531 1.59519,-0.2055656 1.27176,1.25e-5 2.28588,0.3179536 3.04237,0.9538242 0.75647,0.6358936 1.13471,1.4855637 1.13472,2.5490127 -1e-5,0.5043293 -0.0959,0.9839818 -0.28779,1.4389589 -0.18639,0.4495104 -0.529,0.9812394 -1.02783,1.5951886 -0.13705,0.1589765 -0.57285,0.6194429 -1.30739,1.3814007 -0.73456,0.756485 -1.77061,1.817202 -3.10816,3.182154"
       style="fill:#ffffff"
       id="path3072" />
    <path
       d="m 227.55792,4.3694807 0,4.5800004 4.58,0 0,1.3978459 -4.58,0 0,4.58 -1.3814,0 0,-4.58 -4.58,0 0,-1.3978459 4.58,0 0,-4.5800004 1.3814,0"
       style="fill:#ffffff"
       id="path3074" />
    <path
       d="m 240.75522,8.3081166 c 0.79485,0.1699406 1.41429,0.523513 1.85832,1.0607182 0.44949,0.5372163 0.67424,1.2005072 0.67425,1.9898742 -1e-5,1.211469 -0.41662,2.148847 -1.24984,2.812137 -0.83323,0.663292 -2.01729,0.994937 -3.55217,0.994937 -0.51529,0 -1.04702,-0.05208 -1.59519,-0.15623 -0.54269,-0.09867 -1.10457,-0.249419 -1.68564,-0.452244 l 0,-1.603411 c 0.46047,0.268607 0.96479,0.471432 1.51297,0.608474 0.54817,0.137045 1.12101,0.205567 1.71852,0.205565 1.04153,2e-6 1.83364,-0.205564 2.37634,-0.616696 0.54817,-0.411129 0.82226,-1.008639 0.82226,-1.792532 0,-0.723586 -0.2549,-1.288206 -0.7647,-1.6938598 -0.50433,-0.4111255 -1.20873,-0.6166908 -2.11321,-0.6166967 l -1.43074,0 0,-1.3649552 1.49652,0 c 0.81677,7.2e-6 1.44169,-0.1617042 1.87476,-0.4851347 0.43305,-0.3288968 0.64958,-0.8003267 0.64958,-1.414291 0,-0.6303912 -0.22476,-1.1127845 -0.67425,-1.4471814 -0.44403,-0.3398574 -1.08265,-0.5097915 -1.91587,-0.5098026 -0.45499,1.11e-5 -0.94287,0.049347 -1.46363,0.1480072 -0.52077,0.098682 -1.09361,0.2521711 -1.71853,0.4604669 l 0,-1.480072 c 0.6304,-0.1754038 1.21969,-0.3069656 1.76787,-0.3946858 0.55365,-0.087696 1.07441,-0.1315495 1.56229,-0.131562 1.2608,1.25e-5 2.25848,0.287804 2.99304,0.8633753 0.73454,0.5701129 1.10182,1.3430385 1.10183,2.3187794 -1e-5,0.6797454 -0.19461,1.2553283 -0.58381,1.7267506 -0.38921,0.4659557 -0.94286,0.7893785 -1.66097,0.9702694"
       style="fill:#ffffff"
       id="path3076" />
    <path
       d="m 245.46679,9.6401813 4.432,0 0,1.3485097 -4.432,0 0,-1.3485097"
       style="fill:#ffffff"
       id="path3078" />
    <path
       d="m 253.96075,13.529481 5.79695,0 0,1.397846 -7.79504,0 0,-1.397846 c 0.6304,-0.652326 1.48829,-1.526663 2.57368,-2.623016 1.09086,-1.1018261 1.77608,-1.8117118 2.05565,-2.129659 0.53173,-0.5975038 0.90174,-1.1018241 1.11006,-1.5129624 0.21378,-0.4166048 0.32067,-0.8249946 0.32068,-1.2251707 -1e-5,-0.6523184 -0.23024,-1.1840475 -0.6907,-1.5951886 -0.45499,-0.4111202 -1.04976,-0.6166856 -1.78431,-0.6166967 -0.52077,1.11e-5 -1.07169,0.09046 -1.65275,0.2713466 -0.57558,0.1809083 -1.19228,0.4549954 -1.85009,0.8222621 l 0,-1.6774148 c 0.66877,-0.2685937 1.29369,-0.4714182 1.87476,-0.608474 0.58106,-0.1370313 1.11279,-0.2055531 1.59519,-0.2055656 1.27176,1.25e-5 2.28588,0.3179536 3.04237,0.9538242 0.75647,0.6358936 1.13471,1.4855637 1.13472,2.5490127 -10e-6,0.5043293 -0.0959,0.9839818 -0.28779,1.4389589 -0.18639,0.4495104 -0.529,0.9812394 -1.02783,1.5951886 -0.13705,0.1589765 -0.57285,0.6194429 -1.3074,1.3814007 -0.73456,0.756485 -1.7706,1.817202 -3.10815,3.182154"
       style="fill:#ffffff"
       id="path3080" />
    <path
       d="m 263.23588,7.2802888 10.5414,0 0,1.3814005 -10.5414,0 0,-1.3814005 m 0,3.3548302 10.5414,0 0,1.397845 -10.5414,0 0,-1.397845"
       style="fill:#ffffff"
       id="path3082" />
    <path
       d="m 280.91451,3.7445614 c -0.85516,1.12e-5 -1.49926,0.4221054 -1.93232,1.2662838 -0.42757,0.8387165 -0.64136,2.1022581 -0.64136,3.7906287 0,1.6829011 0.21379,2.9464431 0.64136,3.7906291 0.43306,0.838708 1.07716,1.258062 1.93232,1.258061 0.86063,1e-6 1.50473,-0.419353 1.93232,-1.258061 0.43305,-0.844186 0.64958,-2.107728 0.64958,-3.7906291 0,-1.6883706 -0.21653,-2.9519122 -0.64958,-3.7906287 -0.42759,-0.8441784 -1.07169,-1.2662726 -1.93232,-1.2662838 m 0,-1.3156195 c 1.37591,1.25e-5 2.42567,0.5454459 3.14927,1.6363018 0.72906,1.0853958 1.09359,2.6641377 1.0936,4.7362302 -10e-6,2.0666231 -0.36454,3.6453651 -1.0936,4.7362301 -0.7236,1.085386 -1.77336,1.628079 -3.14927,1.628079 -1.37592,0 -2.42842,-0.542693 -3.15749,-1.628079 -0.72359,-1.090865 -1.08538,-2.669607 -1.08538,-4.7362301 0,-2.0720925 0.36179,-3.6508344 1.08538,-4.7362302 0.72907,-1.0908559 1.78157,-1.6362893 3.15749,-1.6363018"
       style="fill:#ffffff"
       id="path3084" />
  </g>
  <path
     transform="matrix(0.69087635,0,0,0.69087635,80.271479,-20.932544)"
     style="fill:#ffffff;fill-opacity:1;fill-rule:nonzero;stroke:none"
     d="m 101.99698,44.689213 c 0,1.032742 -0.8372,1.869945 -1.86994,1.869945 -1.032745,0 -1.869948,-0.837203 -1.869948,-1.869945 0,-1.032742 0.837203,-1.869945 1.869948,-1.869945 1.03274,0 1.86994,0.837203 1.86994,1.869945 z"
     id="path3002" />
  <path
     transform="matrix(0.69087635,0,0,0.69087635,26.961617,-21.026826)"
     style="fill:#ffffff;fill-opacity:1;fill-rule:nonzero;stroke:none"
     d="m 101.99698,44.689213 c 0,1.032742 -0.8372,1.869945 -1.86994,1.869945 -1.032745,0 -1.869948,-0.837203 -1.869948,-1.869945 0,-1.032742 0.837203,-1.869945 1.869948,-1.869945 1.03274,0 1.86994,0.837203 1.86994,1.869945 z"
     id="path3002-6" />
</svg>
