<?xml version="1.0" encoding="UTF-8" standalone="no"?>
<!-- Created with Inkscape (http://www.inkscape.org/) -->

<svg
   xmlns:dc="http://purl.org/dc/elements/1.1/"
   xmlns:cc="http://creativecommons.org/ns#"
   xmlns:rdf="http://www.w3.org/1999/02/22-rdf-syntax-ns#"
   xmlns:svg="http://www.w3.org/2000/svg"
   xmlns="http://www.w3.org/2000/svg"
   xmlns:sodipodi="http://sodipodi.sourceforge.net/DTD/sodipodi-0.dtd"
   xmlns:inkscape="http://www.inkscape.org/namespaces/inkscape"
   id="svg2"
   version="1.1"
   inkscape:version="0.48.5 r10040"
   width="29"
   height="18"
   sodipodi:docname="bezout_rown.svg">
  <metadata
     id="metadata8">
    <rdf:RDF>
      <cc:Work
         rdf:about="">
        <dc:format>image/svg+xml</dc:format>
        <dc:type
           rdf:resource="http://purl.org/dc/dcmitype/StillImage" />
        <dc:title></dc:title>
      </cc:Work>
    </rdf:RDF>
  </metadata>
  <defs
     id="defs6" />
  <sodipodi:namedview
     pagecolor="#ffffff"
     bordercolor="#666666"
     borderopacity="1"
     objecttolerance="10"
     gridtolerance="10"
     guidetolerance="10"
     inkscape:pageopacity="0"
     inkscape:pageshadow="2"
     inkscape:window-width="640"
     inkscape:window-height="748"
     id="namedview4"
     showgrid="false"
     inkscape:zoom="2.9412633"
     inkscape:cx="78.877212"
     inkscape:cy="-32.203726"
     inkscape:window-x="601"
     inkscape:window-y="35"
     inkscape:window-maximized="0"
     inkscape:current-layer="svg2"
     showguides="true"
     inkscape:guide-bbox="true" />
  <g
     style="font-size:16.88514328px;font-style:normal;font-weight:normal;line-height:125%;letter-spacing:0px;word-spacing:0px;fill:#ffffff;fill-opacity:1;stroke:none;font-family:Sans"
     id="text3050">
    <path
       d="m 11.967172,5.7060265 -3.3391035,4.4933605 3.5122415,4.740702 -1.789099,0 -2.6877723,-3.627667 -2.6877718,3.627667 -1.7890997,0 3.586444,-4.831393 -3.2813901,-4.4026695 1.7890996,0 2.4486756,3.2896348 2.4486757,-3.2896348 1.7891,0"
       style=""
       id="path3055" />
    <path
       d="m 13.517175,9.6387479 4.443892,0 0,1.3521301 -4.443892,0 0,-1.3521301"
       style=""
       id="path3057" />
    <path
       d="m 20.887934,13.53849 2.720751,0 0,-9.3907116 -2.959847,0.5936183 0,-1.5170246 2.943358,-0.5936183 1.665429,0 0,10.9077362 2.72075,0 0,1.401599 -7.090441,0 0,-1.401599"
       style=""
       id="path3059" />
  </g>
</svg>
