<?xml version="1.0" encoding="UTF-8" standalone="no"?>
<!-- Created with Inkscape (http://www.inkscape.org/) -->

<svg
   xmlns:dc="http://purl.org/dc/elements/1.1/"
   xmlns:cc="http://creativecommons.org/ns#"
   xmlns:rdf="http://www.w3.org/1999/02/22-rdf-syntax-ns#"
   xmlns:svg="http://www.w3.org/2000/svg"
   xmlns="http://www.w3.org/2000/svg"
   version="1.1"
   width="136"
   height="18"
   id="svg2">
  <metadata
     id="metadata8">
    <rdf:RDF>
      <cc:Work
         rdf:about="">
        <dc:format>image/svg+xml</dc:format>
        <dc:type
           rdf:resource="http://purl.org/dc/dcmitype/StillImage" />
        <dc:title></dc:title>
      </cc:Work>
    </rdf:RDF>
  </metadata>
  <defs
     id="defs6" />
  <g
     id="g3023"
     style="fill:#ffffff">
    <g
       transform="matrix(0.67918077,0,0,0.67918077,-25.189893,31.842232)"
       id="text2987"
       style="font-size:28px;font-style:normal;font-weight:normal;line-height:125%;letter-spacing:0px;word-spacing:0px;fill:#ffffff;fill-opacity:1;stroke:none;font-family:Sans">
      <path
         d="m 41.335854,-42.925188 0,7.669922 3.472656,0 c 1.285146,10e-6 2.278634,-0.332672 2.980469,-0.998047 0.70181,-0.665353 1.052721,-1.613268 1.052734,-2.84375 -1.3e-5,-1.221339 -0.350924,-2.164697 -1.052734,-2.830078 -0.701835,-0.665347 -1.695323,-0.998029 -2.980469,-0.998047 l -3.472656,0 m -2.761719,-2.269531 6.234375,0 c 2.287749,2e-5 4.014961,0.519551 5.18164,1.558593 1.175766,1.029966 1.763656,2.542985 1.763672,4.539063 -1.6e-5,2.014335 -0.587906,3.536469 -1.763672,4.566406 -1.166679,1.029957 -2.893891,1.54493 -5.18164,1.544922 l -3.472656,0 0,8.203125 -2.761719,0 0,-20.412109"
         id="path2992"
         style="fill:#ffffff" />
      <path
         d="m 61.406166,-46.028704 c -1.221362,2.096374 -2.128262,4.169939 -2.720703,6.220703 -0.592453,2.050795 -0.888677,4.128918 -0.888672,6.234375 -5e-6,2.105476 0.296219,4.192713 0.888672,6.261719 0.601556,2.059896 1.508456,4.133462 2.720703,6.220703 l -2.1875,0 c -1.367193,-2.141928 -2.392582,-4.247395 -3.076172,-6.316406 -0.674482,-2.069006 -1.011721,-4.124342 -1.011719,-6.166016 -2e-6,-2.032541 0.337237,-4.078763 1.011719,-6.138671 0.674475,-2.059879 1.699865,-4.165346 3.076172,-6.316407 l 2.1875,0"
         id="path2994"
         style="fill:#ffffff" />
      <path
         d="m 79.029213,-40.09511 -5.537109,7.451172 5.824218,7.861328 -2.966797,0 -4.457031,-6.015625 -4.457031,6.015625 -2.966797,0 5.947266,-8.011719 -5.441407,-7.300781 2.966797,0 4.060547,5.455078 4.060547,-5.455078 2.966797,0"
         id="path2996"
         style="fill:#ffffff" />
      <path
         d="m 82.474525,-46.028704 2.1875,0 c 1.367182,2.151061 2.388014,4.256528 3.0625,6.316407 0.683586,2.059908 1.025383,4.10613 1.025391,6.138671 -8e-6,2.041674 -0.341805,4.09701 -1.025391,6.166016 -0.674486,2.069011 -1.695318,4.174478 -3.0625,6.316406 l -2.1875,0 c 1.212237,-2.087241 2.114579,-4.160807 2.707032,-6.220703 0.601557,-2.069006 0.902338,-4.156243 0.902343,-6.261719 -5e-6,-2.105457 -0.300786,-4.18358 -0.902343,-6.234375 -0.592453,-2.050764 -1.494795,-4.124329 -2.707032,-6.220703"
         id="path2998"
         style="fill:#ffffff" />
      <path
         d="m 94.136635,-37.497454 17.527345,0 0,2.296875 -17.527345,0 0,-2.296875 m 0,5.578125 17.527345,0 0,2.324219 -17.527345,0 0,-2.324219"
         id="path3000"
         style="fill:#ffffff" />
      <path
         d="m 125.66398,-43.321672 c -2.00522,1.8e-5 -3.60027,0.747413 -4.78516,2.242187 -1.17578,1.494807 -1.76367,3.531914 -1.76367,6.111328 0,2.57032 0.58789,4.60287 1.76367,6.097656 1.18489,1.494795 2.77994,2.24219 4.78516,2.242188 2.00519,2e-6 3.59113,-0.747393 4.75781,-2.242188 1.17577,-1.494786 1.76366,-3.527336 1.76367,-6.097656 -1e-5,-2.579414 -0.5879,-4.616521 -1.76367,-6.111328 -1.16668,-1.494774 -2.75262,-2.242169 -4.75781,-2.242187 m 3.86914,18.169921 3.63672,3.978516 -3.33594,0 -3.02148,-3.267578 c -0.3008,0.01823 -0.53322,0.0319 -0.69727,0.04102 -0.15496,0.0091 -0.30535,0.01367 -0.45117,0.01367 -2.8711,0 -5.16798,-0.95703 -6.89063,-2.871093 -1.71354,-1.923173 -2.57031,-4.493483 -2.57031,-7.710938 0,-3.226549 0.85677,-5.796859 2.57031,-7.710937 1.72265,-1.923158 4.01953,-2.884745 6.89063,-2.884766 2.86196,2.1e-5 5.14972,0.961608 6.86328,2.884766 1.71352,1.914078 2.57029,4.484388 2.57031,7.710937 -2e-5,2.3698 -0.47853,4.397792 -1.43554,6.083985 -0.94794,1.6862 -2.32424,2.930339 -4.12891,3.732421"
         id="path3002"
         style="fill:#ffffff" />
      <path
         d="m 145.35148,-46.028704 c -1.22136,2.096374 -2.12826,4.169939 -2.7207,6.220703 -0.59246,2.050795 -0.88868,4.128918 -0.88868,6.234375 0,2.105476 0.29622,4.192713 0.88868,6.261719 0.60155,2.059896 1.50845,4.133462 2.7207,6.220703 l -2.1875,0 c -1.36719,-2.141928 -2.39258,-4.247395 -3.07617,-6.316406 -0.67449,-2.069006 -1.01172,-4.124342 -1.01172,-6.166016 0,-2.032541 0.33723,-4.078763 1.01172,-6.138671 0.67447,-2.059879 1.69986,-4.165346 3.07617,-6.316407 l 2.1875,0"
         id="path3004"
         style="fill:#ffffff" />
      <path
         d="m 162.97453,-40.09511 -5.53711,7.451172 5.82421,7.861328 -2.96679,0 -4.45703,-6.015625 -4.45703,6.015625 -2.9668,0 5.94726,-8.011719 -5.4414,-7.300781 2.96679,0 4.06055,5.455078 4.06055,-5.455078 2.9668,0"
         id="path3006"
         style="fill:#ffffff" />
      <path
         d="m 166.41984,-46.028704 2.1875,0 c 1.36718,2.151061 2.38801,4.256528 3.0625,6.316407 0.68358,2.059908 1.02538,4.10613 1.02539,6.138671 -1e-5,2.041674 -0.34181,4.09701 -1.02539,6.166016 -0.67449,2.069011 -1.69532,4.174478 -3.0625,6.316406 l -2.1875,0 c 1.21223,-2.087241 2.11458,-4.160807 2.70703,-6.220703 0.60156,-2.069006 0.90234,-4.156243 0.90234,-6.261719 0,-2.105457 -0.30078,-4.18358 -0.90234,-6.234375 -0.59245,-2.050764 -1.4948,-4.124329 -2.70703,-6.220703"
         id="path3008"
         style="fill:#ffffff" />
      <path
         d="m 199.01359,-44.524797 0,2.693359 c -1.04819,-0.501285 -2.03712,-0.874982 -2.9668,-1.121094 -0.9297,-0.246075 -1.82748,-0.369122 -2.69336,-0.36914 -1.50391,1.8e-5 -2.66602,0.291684 -3.48633,0.875 -0.8112,0.58335 -1.2168,1.412776 -1.21679,2.488281 -1e-5,0.902358 0.26887,1.585951 0.80664,2.050781 0.54687,0.455742 1.57681,0.824882 3.08984,1.107422 l 1.66797,0.341797 c 2.05988,0.391938 3.57746,1.084646 4.55273,2.078125 0.98436,0.984383 1.47655,2.305997 1.47657,3.964844 -2e-5,1.977868 -0.66538,3.477215 -1.9961,4.498046 -1.32162,1.020834 -3.26303,1.53125 -5.82422,1.53125 -0.96615,0 -1.9961,-0.109375 -3.08984,-0.328125 -1.08464,-0.218749 -2.21029,-0.542317 -3.37695,-0.970703 l 0,-2.84375 c 1.12109,0.62891 2.21939,1.102868 3.29492,1.421875 1.07551,0.319013 2.1328,0.478518 3.17187,0.478516 1.57682,2e-6 2.79361,-0.309894 3.65039,-0.929688 0.85676,-0.619788 1.28515,-1.503902 1.28516,-2.652343 -10e-6,-1.002598 -0.30991,-1.786451 -0.92969,-2.351563 -0.61069,-0.565096 -1.61785,-0.988923 -3.02148,-1.271484 l -1.68164,-0.328125 c -2.0599,-0.410147 -3.55014,-1.052724 -4.4707,-1.927735 -0.92058,-0.874987 -1.38087,-2.091783 -1.38086,-3.65039 -1e-5,-1.804671 0.63346,-3.226545 1.90039,-4.265625 1.27603,-1.039042 3.03059,-1.558573 5.26367,-1.558594 0.95702,2.1e-5 1.93228,0.08661 2.92578,0.259766 0.99348,0.173197 2.00975,0.432962 3.04883,0.779297"
         id="path3010"
         style="fill:#ffffff" />
      <path
         d="m 210.48429,-46.028704 c -1.22136,2.096374 -2.12826,4.169939 -2.7207,6.220703 -0.59246,2.050795 -0.88868,4.128918 -0.88867,6.234375 -1e-5,2.105476 0.29621,4.192713 0.88867,6.261719 0.60155,2.059896 1.50845,4.133462 2.7207,6.220703 l -2.1875,0 c -1.36719,-2.141928 -2.39258,-4.247395 -3.07617,-6.316406 -0.67448,-2.069006 -1.01172,-4.124342 -1.01172,-6.166016 0,-2.032541 0.33724,-4.078763 1.01172,-6.138671 0.67447,-2.059879 1.69986,-4.165346 3.07617,-6.316407 l 2.1875,0"
         id="path3012"
         style="fill:#ffffff" />
      <path
         d="m 228.10734,-40.09511 -5.53711,7.451172 5.82422,7.861328 -2.9668,0 -4.45703,-6.015625 -4.45703,6.015625 -2.9668,0 5.94727,-8.011719 -5.44141,-7.300781 2.9668,0 4.06054,5.455078 4.06055,-5.455078 2.9668,0"
         id="path3014"
         style="fill:#ffffff" />
      <path
         d="m 231.55265,-46.028704 2.1875,0 c 1.36718,2.151061 2.38801,4.256528 3.0625,6.316407 0.68359,2.059908 1.02538,4.10613 1.02539,6.138671 -10e-6,2.041674 -0.3418,4.09701 -1.02539,6.166016 -0.67449,2.069011 -1.69532,4.174478 -3.0625,6.316406 l -2.1875,0 c 1.21224,-2.087241 2.11458,-4.160807 2.70703,-6.220703 0.60156,-2.069006 0.90234,-4.156243 0.90235,-6.261719 -10e-6,-2.105457 -0.30079,-4.18358 -0.90235,-6.234375 -0.59245,-2.050764 -1.49479,-4.124329 -2.70703,-6.220703"
         id="path3016"
         style="fill:#ffffff" />
    </g>
    <path
       d="m 63.999999,46 c 0,0.672347 -0.545044,1.217391 -1.217391,1.217391 -0.672347,0 -1.217391,-0.545044 -1.217391,-1.217391 0,-0.672347 0.545044,-1.217391 1.217391,-1.217391 0.672347,0 1.217391,0.545044 1.217391,1.217391 z"
       transform="translate(34.086957,-36.521739)"
       id="path3020"
       style="fill:#ffffff;fill-opacity:1;fill-rule:nonzero;stroke:none" />
  </g>
</svg>
