<?xml version="1.0" encoding="UTF-8" standalone="no"?>
<!-- Created with Inkscape (http://www.inkscape.org/) -->

<svg
   xmlns:dc="http://purl.org/dc/elements/1.1/"
   xmlns:cc="http://creativecommons.org/ns#"
   xmlns:rdf="http://www.w3.org/1999/02/22-rdf-syntax-ns#"
   xmlns:svg="http://www.w3.org/2000/svg"
   xmlns="http://www.w3.org/2000/svg"
   version="1.1"
   width="33"
   height="18"
   id="svg2">
  <metadata
     id="metadata8">
    <rdf:RDF>
      <cc:Work
         rdf:about="">
        <dc:format>image/svg+xml</dc:format>
        <dc:type
           rdf:resource="http://purl.org/dc/dcmitype/StillImage" />
        <dc:title></dc:title>
      </cc:Work>
    </rdf:RDF>
  </metadata>
  <defs
     id="defs6" />
  <g
     transform="matrix(0.6411715,0,0,0.6411715,-7.5116737,17.900477)"
     id="text2987"
     style="font-size:40px;font-style:normal;font-weight:normal;line-height:125%;letter-spacing:0px;word-spacing:0px;fill:#ffffff;fill-opacity:1;stroke:none;font-family:Sans">
    <path
       d="m 15.131249,-22.508307 0,7.669922 3.472657,0 c 1.285146,1e-5 2.278634,-0.332672 2.980468,-0.998047 0.701811,-0.665352 1.052722,-1.613268 1.052735,-2.84375 -1.3e-5,-1.221339 -0.350924,-2.164697 -1.052735,-2.830078 -0.701834,-0.665347 -1.695322,-0.998029 -2.980468,-0.998047 l -3.472657,0 m -2.761718,-2.269531 6.234375,0 c 2.287749,2e-5 4.014961,0.519551 5.18164,1.558594 1.175766,1.029965 1.763656,2.542985 1.763672,4.539062 -1.6e-5,2.014335 -0.587906,3.536469 -1.763672,4.566406 -1.166679,1.029957 -2.893891,1.54493 -5.18164,1.544922 l -3.472657,0 0,8.2031251 -2.761718,0 0,-20.4121091"
       id="path3001"
       style="font-size:28px;fill:#ffffff" />
    <path
       d="m 35.201562,-25.611823 c -1.221362,2.096374 -2.128262,4.169939 -2.720703,6.220704 -0.592453,2.050794 -0.888677,4.128917 -0.888672,6.234375 -5e-6,2.105475 0.296219,4.1927125 0.888672,6.2617183 0.601556,2.0598963 1.508456,4.1334619 2.720703,6.22070309 l -2.1875,0 C 31.646869,-2.8162512 30.62148,-4.9217179 29.93789,-6.9907289 c -0.674482,-2.0690057 -1.011721,-4.1243421 -1.011719,-6.1660151 -2e-6,-2.032542 0.337237,-4.078764 1.011719,-6.138672 0.674475,-2.059879 1.699865,-4.165346 3.076172,-6.316407 l 2.1875,0"
       id="path3003"
       style="font-size:28px;fill:#ffffff" />
    <path
       d="m 52.824609,-19.678229 -5.53711,7.451172 5.824219,7.8613281 -2.966797,0 -4.457031,-6.0156251 -4.457031,6.0156251 -2.966797,0 5.947266,-8.0117191 -5.441407,-7.300781 2.966797,0 4.060547,5.455078 4.060547,-5.455078 2.966797,0"
       id="path3005"
       style="font-size:28px;fill:#ffffff" />
    <path
       d="m 56.269921,-25.611823 2.1875,0 c 1.367182,2.151061 2.388014,4.256528 3.0625,6.316407 0.683586,2.059908 1.025382,4.10613 1.025391,6.138672 -9e-6,2.041673 -0.341805,4.0970094 -1.025391,6.1660151 -0.674486,2.069011 -1.695318,4.1744777 -3.0625,6.31640629 l -2.1875,0 c 1.212236,-2.08724119 2.114579,-4.16080679 2.707032,-6.22070309 0.601557,-2.0690058 0.902337,-4.1562433 0.902343,-6.2617183 -6e-6,-2.105458 -0.300786,-4.183581 -0.902343,-6.234375 -0.592453,-2.050765 -1.494796,-4.12433 -2.707032,-6.220704"
       id="path3007"
       style="font-size:28px;fill:#ffffff" />
  </g>
</svg>
