<?xml version="1.0" encoding="UTF-8" standalone="no"?>
<!-- Created with Inkscape (http://www.inkscape.org/) -->

<svg
   xmlns:dc="http://purl.org/dc/elements/1.1/"
   xmlns:cc="http://creativecommons.org/ns#"
   xmlns:rdf="http://www.w3.org/1999/02/22-rdf-syntax-ns#"
   xmlns:svg="http://www.w3.org/2000/svg"
   xmlns="http://www.w3.org/2000/svg"
   xmlns:sodipodi="http://sodipodi.sourceforge.net/DTD/sodipodi-0.dtd"
   xmlns:inkscape="http://www.inkscape.org/namespaces/inkscape"
   id="svg2"
   version="1.1"
   inkscape:version="0.48.5 r10040"
   width="90"
   height="18"
   sodipodi:docname="pw_q(x).png">
  <metadata
     id="metadata8">
    <rdf:RDF>
      <cc:Work
         rdf:about="">
        <dc:format>image/svg+xml</dc:format>
        <dc:type
           rdf:resource="http://purl.org/dc/dcmitype/StillImage" />
        <dc:title></dc:title>
      </cc:Work>
    </rdf:RDF>
  </metadata>
  <defs
     id="defs6" />
  <sodipodi:namedview
     pagecolor="#ffffff"
     bordercolor="#666666"
     borderopacity="1"
     objecttolerance="10"
     gridtolerance="10"
     guidetolerance="10"
     inkscape:pageopacity="0"
     inkscape:pageshadow="2"
     inkscape:window-width="640"
     inkscape:window-height="748"
     id="namedview4"
     showgrid="false"
     inkscape:zoom="2.9412633"
     inkscape:cx="76.324817"
     inkscape:cy="-6.292002"
     inkscape:window-x="154"
     inkscape:window-y="24"
     inkscape:window-maximized="0"
     inkscape:current-layer="svg2" />
  <g
     style="font-size:17.43625258999999872px;font-style:normal;font-weight:normal;line-height:125%;letter-spacing:0px;word-spacing:0px;fill:#ffffff;fill-opacity:1;stroke:none;font-family:Sans"
     id="text2987"
     transform="translate(0.33998996,0)">
    <path
       d="M 7.5292221,2.7669249 C 6.2805265,2.7669364 5.2872514,3.2323568 4.5493938,4.1631873 3.8172042,5.0940381 3.4511114,6.3625924 3.4511142,7.9688538 c -2.8e-6,1.6005982 0.36609,2.8663142 1.0982796,3.7971522 0.7378576,0.930844 1.7311327,1.396264 2.9798283,1.396263 1.2486818,10e-7 2.2362811,-0.465419 2.9628009,-1.396263 0.732176,-0.930838 1.098268,-2.196554 1.098279,-3.7971522 C 11.590291,6.3625924 11.224199,5.0940381 10.492023,4.1631873 9.7655032,3.2323568 8.7779039,2.7669364 7.5292221,2.7669249 m 2.409404,11.3148341 2.2646699,2.477514 -2.077366,0 -1.8815491,-2.034797 c -0.1873109,0.01135 -0.3320453,0.01986 -0.4342036,0.02554 -0.096497,0.0057 -0.1901483,0.0085 -0.2809552,0.0085 -1.7879021,0 -3.2182182,-0.595965 -4.2909528,-1.787897 C 2.1712055,11.57303 1.6376748,9.9724379 1.6376758,7.9688538 1.6376748,5.9596065 2.1712055,4.3590146 3.2382693,3.1670733 4.3110039,1.9694784 5.74132,1.3706754 7.5292221,1.3706625 c 1.7822125,1.29e-5 3.2068529,0.5988159 4.2739249,1.7964108 1.06705,1.1919413 1.600581,2.7925332 1.600594,4.8017805 -1.3e-5,1.4757293 -0.297995,2.7386082 -0.893949,3.7886392 -0.590301,1.050036 -1.447355,1.82479 -2.5711659,2.324266"
       id="path2992"
       inkscape:connector-curvature="0"
       style="fill:#ffffff" />
    <path
       d="m 19.789087,1.0811934 c -0.760571,1.3054606 -1.325318,2.5967182 -1.694245,3.8737769 -0.368935,1.2770773 -0.5534,2.5711729 -0.553397,3.8822906 -3e-6,1.3111291 0.184462,2.6109001 0.553397,3.8993181 0.374602,1.282746 0.93935,2.574003 1.694245,3.873777 l -1.362207,0 C 17.575497,15.276527 16.936963,13.965404 16.511276,12.676983 16.09126,11.388564 15.881253,10.108659 15.881255,8.8372609 15.881253,7.5715501 16.09126,6.29732 16.511276,5.0145668 16.931287,3.7318323 17.569821,2.4207091 18.42688,1.0811934 l 1.362207,0"
       id="path2994"
       inkscape:connector-curvature="0"
       style="fill:#ffffff" />
    <path
       d="m 30.76337,4.7761806 -3.448087,4.6400184 3.626876,4.895432 -1.847493,0 -2.775497,-3.74607 -2.775498,3.74607 -1.847493,0 3.703501,-4.9890838 -3.388491,-4.5463666 1.847494,0 2.528597,3.3970043 2.528597,-3.3970043 1.847494,0"
       id="path2996"
       inkscape:connector-curvature="0"
       style="fill:#ffffff" />
    <path
       d="m 32.908844,1.0811934 1.362207,0 c 0.851376,1.3395157 1.487072,2.6506389 1.907091,3.9333734 0.425684,1.2827532 0.638529,2.5569833 0.638534,3.8226941 -5e-6,1.2713981 -0.21285,2.5513031 -0.638534,3.8397221 -0.420019,1.288421 -1.055715,2.599544 -1.907091,3.933373 l -1.362207,0 c 0.754888,-1.299774 1.316798,-2.591031 1.685732,-3.873777 0.374603,-1.288418 0.561907,-2.588189 0.56191,-3.8993181 -3e-6,-1.3111177 -0.187307,-2.6052133 -0.56191,-3.8822906 C 34.225642,3.6779116 33.663732,2.386654 32.908844,1.0811934"
       id="path2998"
       inkscape:connector-curvature="0"
       style="fill:#ffffff" />
    <path
       d="m 40.171114,6.3938017 10.914686,0 0,1.4303176 -10.914686,0 0,-1.4303176 m 0,3.4736284 10.914686,0 0,1.4473449 -10.914686,0 0,-1.4473449"
       id="path3000"
       inkscape:connector-curvature="0"
       style="fill:#ffffff" />
    <path
       d="m 62.502799,4.7761806 -3.448087,4.6400184 3.626877,4.895432 -1.847494,0 -2.775497,-3.74607 -2.775497,3.74607 -1.847494,0 3.703501,-4.9890838 -3.38849,-4.5463666 1.847493,0 2.528597,3.3970043 2.528598,-3.3970043 1.847493,0"
       id="path3002"
       inkscape:connector-curvature="0"
       style="fill:#ffffff" />
    <path
       d="m 71.272006,3.3799182 0,4.7421839 4.742184,0 0,1.4473452 -4.742184,0 0,4.7421837 -1.430317,0 0,-4.7421837 -4.742184,0 0,-1.4473452 4.742184,0 0,-4.7421839 1.430317,0"
       id="path3004"
       inkscape:connector-curvature="0"
       style="fill:#ffffff" />
    <path
       d="m 80.024188,12.864286 2.809552,0 0,-9.6972127 -3.056452,0.6129932 0,-1.5665383 3.039425,-0.6129932 1.719786,0 0,11.263751 2.809553,0 0,1.447345 -7.321864,0 0,-1.447345"
       id="path3006"
       inkscape:connector-curvature="0"
       style="fill:#ffffff" />
  </g>
</svg>
