<?xml version="1.0" encoding="UTF-8" standalone="no"?>
<!-- Created with Inkscape (http://www.inkscape.org/) -->

<svg
   xmlns:dc="http://purl.org/dc/elements/1.1/"
   xmlns:cc="http://creativecommons.org/ns#"
   xmlns:rdf="http://www.w3.org/1999/02/22-rdf-syntax-ns#"
   xmlns:svg="http://www.w3.org/2000/svg"
   xmlns="http://www.w3.org/2000/svg"
   xmlns:sodipodi="http://sodipodi.sourceforge.net/DTD/sodipodi-0.dtd"
   xmlns:inkscape="http://www.inkscape.org/namespaces/inkscape"
   id="svg2"
   version="1.1"
   inkscape:version="0.48.5 r10040"
   width="150"
   height="19"
   sodipodi:docname="pw_rownanie.png">
  <metadata
     id="metadata8">
    <rdf:RDF>
      <cc:Work
         rdf:about="">
        <dc:format>image/svg+xml</dc:format>
        <dc:type
           rdf:resource="http://purl.org/dc/dcmitype/StillImage" />
        <dc:title></dc:title>
      </cc:Work>
    </rdf:RDF>
  </metadata>
  <defs
     id="defs6" />
  <sodipodi:namedview
     pagecolor="#ffffff"
     bordercolor="#666666"
     borderopacity="1"
     objecttolerance="10"
     gridtolerance="10"
     guidetolerance="10"
     inkscape:pageopacity="0"
     inkscape:pageshadow="2"
     inkscape:window-width="893"
     inkscape:window-height="606"
     id="namedview4"
     showgrid="false"
     inkscape:zoom="2.1966292"
     inkscape:cx="89"
     inkscape:cy="9.5"
     inkscape:window-x="0"
     inkscape:window-y="24"
     inkscape:window-maximized="0"
     inkscape:current-layer="svg2" />
  <g
     transform="matrix(0.63130964,0,0,0.59924961,1.4684214,-15.954808)"
     style="font-size:28px;font-style:normal;font-weight:normal;line-height:125%;letter-spacing:0px;word-spacing:0px;fill:#ffffff;fill-opacity:1;stroke:none;font-family:Sans"
     id="flowRoot2987">
    <path
       d="m 5.5097656,36.047648 0,7.669922 3.4726563,0 c 1.2851461,1.1e-5 2.2786341,-0.332671 2.9804691,-0.998047 0.70181,-0.665352 1.052721,-1.613268 1.052734,-2.84375 -1.3e-5,-1.221338 -0.350924,-2.164697 -1.052734,-2.830078 -0.701835,-0.665347 -1.695323,-0.998028 -2.9804691,-0.998047 l -3.4726563,0 m -2.7617187,-2.269531 6.234375,0 c 2.2877491,2.1e-5 4.0149611,0.519551 5.1816411,1.558594 1.175765,1.029966 1.763655,2.542985 1.763671,4.539062 -1.6e-5,2.014336 -0.587906,3.536469 -1.763671,4.566407 -1.16668,1.029956 -2.893892,1.54493 -5.1816411,1.544922 l -3.4726563,0 0,8.203125 -2.7617187,0 0,-20.41211"
       style=""
       id="path3000" />
    <path
       d="m 25.580078,32.944133 c -1.221362,2.096373 -2.128262,4.169939 -2.720703,6.220703 -0.592453,2.050794 -0.888677,4.128917 -0.888672,6.234375 -5e-6,2.105475 0.296219,4.192713 0.888672,6.261719 0.601556,2.059896 1.508456,4.133462 2.720703,6.220703 l -2.1875,0 c -1.367193,-2.141929 -2.392582,-4.247396 -3.076172,-6.316406 -0.674482,-2.069006 -1.011721,-4.124343 -1.011719,-6.166016 -2e-6,-2.032541 0.337237,-4.078763 1.011719,-6.138672 0.674475,-2.059879 1.699865,-4.165345 3.076172,-6.316406 l 2.1875,0"
       style=""
       id="path3002" />
    <path
       d="m 43.203125,38.877727 -5.537109,7.451171 5.824218,7.861329 -2.966797,0 -4.457031,-6.015625 -4.457031,6.015625 -2.966797,0 5.947266,-8.011719 -5.441407,-7.300781 2.966797,0 4.060547,5.455078 4.060547,-5.455078 2.966797,0"
       style=""
       id="path3004" />
    <path
       d="m 46.648437,32.944133 2.1875,0 c 1.367182,2.151061 2.388015,4.256527 3.0625,6.316406 0.683586,2.059909 1.025383,4.106131 1.025391,6.138672 -8e-6,2.041673 -0.341805,4.09701 -1.025391,6.166016 -0.674485,2.06901 -1.695318,4.174477 -3.0625,6.316406 l -2.1875,0 c 1.212237,-2.087241 2.114579,-4.160807 2.707032,-6.220703 0.601557,-2.069006 0.902338,-4.156244 0.902343,-6.261719 -5e-6,-2.105458 -0.300786,-4.183581 -0.902343,-6.234375 -0.592453,-2.050764 -1.494795,-4.12433 -2.707032,-6.220703"
       style=""
       id="path3006" />
    <path
       d="m 58.310547,41.475383 17.527344,0 0,2.296875 -17.527344,0 0,-2.296875 m 0,5.578125 17.527344,0 0,2.324219 -17.527344,0 0,-2.324219"
       style=""
       id="path3008" />
    <path
       d="m 94.171875,38.877727 -5.537109,7.451171 5.824218,7.861329 -2.966797,0 -4.457031,-6.015625 -4.457031,6.015625 -2.966797,0 5.947266,-8.011719 -5.441407,-7.300781 2.966797,0 4.060547,5.455078 4.060547,-5.455078 2.966797,0"
       style=""
       id="path3010" />
    <path
       d="m 102.75997,35.836317 c 0.85905,0.183669 1.52853,0.565803 2.00842,1.146403 0.48581,0.580613 0.72872,1.297484 0.72873,2.150616 -10e-6,1.309331 -0.45028,2.322431 -1.35081,3.039301 -0.90054,0.716872 -2.18024,1.075308 -3.83911,1.075308 -0.556915,0 -1.131597,-0.05628 -1.724049,-0.16885 -0.586535,-0.106642 -1.193802,-0.269567 -1.821803,-0.488776 l 0,-1.732935 c 0.497661,0.290306 1.04272,0.509514 1.635179,0.657627 0.592453,0.148115 1.211569,0.222172 1.857353,0.222171 1.12566,1e-6 1.98176,-0.22217 2.5683,-0.666514 0.59244,-0.444339 0.88867,-1.090116 0.88868,-1.937332 -1e-5,-0.782037 -0.2755,-1.392267 -0.82648,-1.830689 -0.54506,-0.444336 -1.30637,-0.666507 -2.28392,-0.666514 l -1.546307,0 0,-1.475216 1.617407,0 c 0.88275,8e-6 1.55815,-0.174766 2.0262,-0.524324 0.46803,-0.355465 0.70205,-0.864977 0.70206,-1.528537 -1e-5,-0.681314 -0.24291,-1.202675 -0.72872,-1.564084 -0.4799,-0.367311 -1.17011,-0.550973 -2.07064,-0.550985 -0.49174,1.2e-5 -1.019025,0.05333 -1.581854,0.159964 -0.562837,0.106653 -1.181953,0.272541 -1.85735,0.497663 l 0,-1.599632 c 0.681322,-0.189573 1.318212,-0.331762 1.910671,-0.426569 0.598377,-0.09478 1.161213,-0.142176 1.688503,-0.142189 1.36264,1.3e-5 2.44091,0.311053 3.23481,0.933119 0.79388,0.616166 1.19083,1.451529 1.19084,2.50609 -1e-5,0.734655 -0.21034,1.356733 -0.63097,1.866237 -0.42065,0.503595 -1.01903,0.853144 -1.79514,1.048647"
       style="font-size:65.00091553%;baseline-shift:super;fill:#ffffff"
       id="path3012" />
    <path
       d="m 119.84235,36.635539 0,7.615234 7.61524,0 0,2.324219 -7.61524,0 0,7.615235 -2.29687,0 0,-7.615235 -7.61524,0 0,-2.324219 7.61524,0 0,-7.615234 2.29687,0"
       style=""
       id="path3014" />
    <path
       d="m 145.79156,38.877727 -5.5371,7.451171 5.82421,7.861329 -2.96679,0 -4.45703,-6.015625 -4.45704,6.015625 -2.96679,0 5.94726,-8.011719 -5.4414,-7.300781 2.96679,0 4.06055,5.455078 4.06055,-5.455078 2.96679,0"
       style=""
       id="path3016" />
    <path
       d="m 150.48722,41.479463 6.26522,0 0,1.510764 -8.42472,0 0,-1.510764 c 0.68132,-0.705021 1.60851,-1.649987 2.78158,-2.834903 1.17898,-1.190832 1.91955,-1.958062 2.22171,-2.301693 0.57468,-0.64577 0.97458,-1.190829 1.19972,-1.635179 0.23105,-0.450258 0.34658,-0.891637 0.34659,-1.32414 -1e-5,-0.705012 -0.24884,-1.279694 -0.74649,-1.724047 -0.49175,-0.444331 -1.13456,-0.666502 -1.92845,-0.666514 -0.56284,1.2e-5 -1.15826,0.09777 -1.78626,0.293266 -0.62208,0.195522 -1.28859,0.49175 -1.99954,0.888685 l 0,-1.812917 c 0.7228,-0.29029 1.3982,-0.509499 2.02621,-0.657626 0.62799,-0.148101 1.20268,-0.222158 1.72404,-0.222171 1.3745,1.3e-5 2.47054,0.343638 3.28814,1.030874 0.81758,0.687261 1.22637,1.605567 1.22638,2.754921 -1e-5,0.545069 -0.10369,1.063468 -0.31104,1.555198 -0.20144,0.485822 -0.57173,1.060504 -1.11086,1.724048 -0.14812,0.171818 -0.61912,0.669481 -1.413,1.49299 -0.7939,0.817593 -1.91364,1.963995 -3.35923,3.439208"
       style="font-size:65.00091553%;baseline-shift:super;fill:#ffffff"
       id="path3018" />
    <path
       d="m 159.95033,45.399211 7.36914,0 0,2.242187 -7.36914,0 0,-2.242187"
       style=""
       id="path3020" />
    <path
       d="m 179.28236,36.184367 -6.97265,10.896485 6.97265,0 0,-10.896485 m -0.72461,-2.40625 3.47266,0 0,13.302735 2.91211,0 0,2.296875 -2.91211,0 0,4.8125 -2.74805,0 0,-4.8125 -9.21484,0 0,-2.666016 8.49023,-12.933594"
       style=""
       id="path3022" />
    <path
       d="m 201.89565,38.877727 -5.53711,7.451171 5.82421,7.861329 -2.96679,0 -4.45703,-6.015625 -4.45703,6.015625 -2.9668,0 5.94726,-8.011719 -5.4414,-7.300781 2.96679,0 4.06055,5.455078 4.06055,-5.455078 2.9668,0"
       style=""
       id="path3024" />
    <path
       d="m 204.46596,45.399211 7.36914,0 0,2.242187 -7.36914,0 0,-2.242187"
       style=""
       id="path3026" />
    <path
       d="m 223.79799,36.184367 -6.97266,10.896485 6.97266,0 0,-10.896485 m -0.72461,-2.40625 3.47266,0 0,13.302735 2.91211,0 0,2.296875 -2.91211,0 0,4.8125 -2.74805,0 0,-4.8125 -9.21484,0 0,-2.666016 8.49023,-12.933594"
       style=""
       id="path3028" />
  </g>
</svg>
