<?xml version="1.0" encoding="UTF-8" standalone="no"?>
<!-- Created with Inkscape (http://www.inkscape.org/) -->

<svg
   xmlns:dc="http://purl.org/dc/elements/1.1/"
   xmlns:cc="http://creativecommons.org/ns#"
   xmlns:rdf="http://www.w3.org/1999/02/22-rdf-syntax-ns#"
   xmlns:svg="http://www.w3.org/2000/svg"
   xmlns="http://www.w3.org/2000/svg"
   xmlns:sodipodi="http://sodipodi.sourceforge.net/DTD/sodipodi-0.dtd"
   xmlns:inkscape="http://www.inkscape.org/namespaces/inkscape"
   id="svg2"
   version="1.1"
   inkscape:version="0.48.5 r10040"
   width="90"
   height="18"
   sodipodi:docname="pw_s(x).png">
  <metadata
     id="metadata8">
    <rdf:RDF>
      <cc:Work
         rdf:about="">
        <dc:format>image/svg+xml</dc:format>
        <dc:type
           rdf:resource="http://purl.org/dc/dcmitype/StillImage" />
        <dc:title></dc:title>
      </cc:Work>
    </rdf:RDF>
  </metadata>
  <defs
     id="defs6" />
  <sodipodi:namedview
     pagecolor="#ffffff"
     bordercolor="#666666"
     borderopacity="1"
     objecttolerance="10"
     gridtolerance="10"
     guidetolerance="10"
     inkscape:pageopacity="0"
     inkscape:pageshadow="2"
     inkscape:window-width="1280"
     inkscape:window-height="666"
     id="namedview4"
     showgrid="false"
     inkscape:zoom="3.8712871"
     inkscape:cx="50.5"
     inkscape:cy="9.5"
     inkscape:window-x="0"
     inkscape:window-y="24"
     inkscape:window-maximized="0"
     inkscape:current-layer="svg2" />
  <g
     transform="scale(1.0217277,0.97873438)"
     style="font-size:17.77109718000000171px;font-style:normal;font-weight:normal;line-height:125%;letter-spacing:0px;word-spacing:0px;fill:#ffffff;fill-opacity:1;stroke:none;font-family:Sans"
     id="text2987">
    <path
       d="m 10.145332,3.3309624 0,1.7094269 C 9.4800643,4.722233 8.8524074,4.4850538 8.2623596,4.3288512 7.6722966,4.1726716 7.1024882,4.094576 6.5529328,4.0945643 5.5984255,4.094576 4.8608563,4.2796914 4.3402229,4.649911 3.825367,5.0201531 3.5679409,5.546575 3.5679438,6.2291785 c -2.9e-6,0.5727104 0.1706503,1.0065747 0.5119603,1.301594 0.347088,0.2892512 1.0007768,0.5235379 1.9610684,0.7028608 L 7.0996023,8.4505656 C 8.4069734,8.6993219 9.370152,9.138971 9.989141,9.7695142 c 0.624755,0.6247708 0.937137,1.4635748 0.937148,2.5164148 -1.1e-5,1.255318 -0.422305,2.206927 -1.2668851,2.85483 -0.8388133,0.647905 -2.0709877,0.971857 -3.6965271,0.971857 -0.6132001,0 -1.2668889,-0.06942 -1.9610683,-0.208255 C 3.3134072,15.765524 2.5989774,15.560162 1.858517,15.288273 l 0,-1.804877 c 0.7115361,0.399157 1.4086113,0.69997 2.0912277,0.902438 0.6826098,0.202472 1.3536531,0.303707 2.0131321,0.303706 1.0007749,1e-6 1.7730532,-0.196684 2.3168374,-0.590056 0.5437689,-0.393369 0.8156571,-0.9545 0.8156656,-1.683395 C 9.0953713,11.779758 8.8986862,11.28226 8.5053238,10.923594 8.1177306,10.564938 7.4785039,10.295942 6.587642,10.116606 L 5.5203349,9.9083509 C 4.2129524,9.6480383 3.2671283,9.240206 2.6828599,8.6848525 2.0985873,8.1295135 1.806452,7.3572351 1.8064532,6.3680152 1.806452,5.2226231 2.2084996,4.3201854 3.012597,3.6606996 3.8224746,3.0012381 4.9360595,2.6715013 6.353355,2.6714881 c 0.6074043,1.32e-5 1.2263839,0.054969 1.8569409,0.1648686 0.6305417,0.1099253 1.2755533,0.2747937 1.9350361,0.4946057"
       style="fill:#ffffff"
       id="path2994" />
    <path
       d="M 17.425581,2.3764601 C 16.650405,3.7069906 16.074812,5.0230455 15.6988,6.3246287 15.32278,7.626231 15.134773,8.9451783 15.134776,10.281475 c -3e-6,1.336307 0.188004,2.661039 0.564024,3.9742 0.381797,1.307379 0.95739,2.623434 1.726781,3.948169 l -1.388367,0 c -0.867732,-1.359444 -1.518529,-2.695746 -1.952391,-4.00891 -0.428081,-1.313161 -0.642121,-2.617646 -0.642119,-3.913459 -2e-6,-1.2900179 0.214038,-2.5887182 0.642119,-3.8961052 0.428078,-1.3073682 1.078874,-2.64367 1.952391,-4.0089097 l 1.388367,0"
       style="fill:#ffffff"
       id="path2996" />
    <path
       d="m 28.610613,6.1424055 -3.514304,4.7291255 3.696527,4.989443 -1.882972,0 -2.828798,-3.818009 -2.828798,3.818009 -1.882972,0 3.774622,-5.084894 -3.453562,-4.6336745 1.882972,0 2.577156,3.4622402 2.577157,-3.4622402 1.882972,0"
       style="fill:#ffffff"
       id="path2998" />
    <path
       d="m 30.797292,2.3764601 1.388366,0 c 0.867726,1.3652397 1.51563,2.7015415 1.943714,4.0089097 0.43386,1.307387 0.650792,2.6060873 0.650797,3.8961052 -5e-6,1.295813 -0.216937,2.600298 -0.650797,3.913459 -0.428084,1.313164 -1.075988,2.649466 -1.943714,4.00891 l -1.388366,0 c 0.769384,-1.324735 1.342085,-2.64079 1.718104,-3.948169 0.381797,-1.313161 0.572697,-2.637893 0.572701,-3.9742 -4e-6,-1.3362967 -0.190904,-2.655244 -0.572701,-3.9568463 -0.376019,-1.3015832 -0.94872,-2.6176381 -1.718104,-3.9481686"
       style="fill:#ffffff"
       id="path3000" />
    <path
       d="m 38.199022,7.7910913 11.12429,0 0,1.4577853 -11.12429,0 0,-1.4577853 m 0,3.5403357 11.12429,0 0,1.47514 -11.12429,0 0,-1.47514"
       style="fill:#ffffff"
       id="path3002" />
    <path
       d="m 60.959563,6.1424055 -3.514304,4.7291255 3.696527,4.989443 -1.882973,0 -2.828798,-3.818009 -2.828797,3.818009 -1.882973,0 3.774623,-5.084894 -3.453563,-4.6336745 1.882973,0 2.577156,3.4622402 2.577156,-3.4622402 1.882973,0"
       style="fill:#ffffff"
       id="path3004" />
    <path
       d="m 63.93981,7.793681 3.976426,0 0,0.9588543 -5.347023,0 0,-0.9588543 c 0.432423,-0.4474639 1.020896,-1.0472173 1.76542,-1.7992619 0.748279,-0.7557993 1.218305,-1.2427464 1.41008,-1.4608428 0.364736,-0.4098586 0.61855,-0.7557978 0.761443,-1.0378188 0.146643,-0.2857706 0.219967,-0.5659062 0.219972,-0.8404076 -5e-6,-0.4474588 -0.157934,-0.8121991 -0.473787,-1.094222 -0.312102,-0.2820085 -0.720084,-0.4230163 -1.223949,-0.4230239 -0.357223,7.6e-6 -0.735124,0.062051 -1.133704,0.1861305 -0.394824,0.1240943 -0.817848,0.3121048 -1.269072,0.564032 l 0,-1.15062524 c 0.458745,-0.18424223 0.887408,-0.32336998 1.285993,-0.41738364 0.39858,-0.0939968 0.76332,-0.14099942 1.094222,-0.14100799 0.872365,8.57e-6 1.568004,0.21810071 2.086918,0.65427707 0.518904,0.4361922 0.778358,1.0190246 0.778364,1.7484991 -6e-6,0.3459454 -0.06581,0.6749637 -0.197411,0.9870559 -0.127853,0.3083423 -0.362866,0.6730826 -0.70504,1.094222 -0.09401,0.1090501 -0.392947,0.4249077 -0.896811,0.9475737 -0.503872,0.518912 -1.214552,1.2465125 -2.132041,2.1828036"
       style="font-size:11.55137444000000002px;baseline-shift:super;fill:#ffffff"
       id="path3006" />
    <path
       d="m 69.945871,10.281475 4.677061,0 0,1.423076 -4.677061,0 0,-1.423076"
       style="fill:#ffffff"
       id="path3008" />
    <path
       d="m 82.215563,4.4329787 -4.42542,6.9158033 4.42542,0 0,-6.9158033 m -0.459897,-1.5272037 2.204033,0 0,8.443007 1.848263,0 0,1.457785 -1.848263,0 0,3.054407 -1.744136,0 0,-3.054407 -5.848496,0 0,-1.692072 5.388599,-8.20872"
       style="fill:#ffffff"
       id="path3010" />
  </g>
</svg>
