<?xml version="1.0" encoding="UTF-8" standalone="no"?>
<!-- Created with Inkscape (http://www.inkscape.org/) -->

<svg
   xmlns:dc="http://purl.org/dc/elements/1.1/"
   xmlns:cc="http://creativecommons.org/ns#"
   xmlns:rdf="http://www.w3.org/1999/02/22-rdf-syntax-ns#"
   xmlns:svg="http://www.w3.org/2000/svg"
   xmlns="http://www.w3.org/2000/svg"
   xmlns:sodipodi="http://sodipodi.sourceforge.net/DTD/sodipodi-0.dtd"
   xmlns:inkscape="http://www.inkscape.org/namespaces/inkscape"
   id="svg2"
   version="1.1"
   inkscape:version="0.48.5 r10040"
   width="33"
   height="15"
   sodipodi:docname="q(x).svg">
  <metadata
     id="metadata8">
    <rdf:RDF>
      <cc:Work
         rdf:about="">
        <dc:format>image/svg+xml</dc:format>
        <dc:type
           rdf:resource="http://purl.org/dc/dcmitype/StillImage" />
        <dc:title></dc:title>
      </cc:Work>
    </rdf:RDF>
  </metadata>
  <defs
     id="defs6" />
  <sodipodi:namedview
     pagecolor="#ffffff"
     bordercolor="#666666"
     borderopacity="1"
     objecttolerance="10"
     gridtolerance="10"
     guidetolerance="10"
     inkscape:pageopacity="0"
     inkscape:pageshadow="2"
     inkscape:window-width="1280"
     inkscape:window-height="776"
     id="namedview4"
     showgrid="false"
     inkscape:zoom="4.189072"
     inkscape:cx="38.562902"
     inkscape:cy="27.952233"
     inkscape:window-x="0"
     inkscape:window-y="24"
     inkscape:window-maximized="1"
     inkscape:current-layer="svg2" />
  <g
     style="font-size:40px;font-style:normal;font-weight:normal;line-height:125%;letter-spacing:0px;word-spacing:0px;fill:#ffffff;fill-opacity:1;stroke:none;font-family:Sans"
     id="text2987"
     transform="matrix(0.40223975,0,0,0.40223975,-2.4423828,15.240827)">
    <path
       d="m 19.81287,-32.79128 c -2.864597,2.6e-5 -5.14324,1.067733 -6.835938,3.203125 -1.679695,2.135438 -2.519538,5.045591 -2.519531,8.730468 -7e-6,3.671886 0.839836,6.575529 2.519531,8.710938 1.692698,2.13542 3.971341,3.2031276 6.835938,3.203125 2.864564,2.6e-6 5.130187,-1.067705 6.796875,-3.203125 1.679663,-2.135409 2.519506,-5.039052 2.519531,-8.710938 -2.5e-5,-3.684877 -0.839868,-6.59503 -2.519531,-8.730468 -1.666688,-2.135392 -3.932311,-3.203099 -6.796875,-3.203125 m 5.527343,25.957031 5.195313,5.6835937 -4.765625,0 -4.316406,-4.6679687 c -0.429705,0.026041 -0.761736,0.045572 -0.996094,0.058594 -0.221371,0.01302 -0.436214,0.019531 -0.644531,0.019531 -4.101575,-6e-7 -7.382821,-1.3671867 -9.8437505,-4.1015625 -2.4479201,-2.7473895 -3.6718772,-6.4192605 -3.671875,-11.0156255 -2.2e-6,-4.609355 1.2239549,-8.281227 3.671875,-11.015625 2.4609295,-2.747367 5.7421755,-4.121064 9.8437505,-4.121093 4.088521,2.9e-5 7.356747,1.373726 9.804687,4.121093 2.447889,2.734398 3.671846,6.40627 3.671875,11.015625 -2.9e-5,3.385428 -0.683622,6.282561 -2.050781,8.691407 -1.354193,2.4088573 -3.320337,4.1861993 -5.898438,5.332031"
       id="path2992"
       inkscape:connector-curvature="0"
       style="fill:#ffffff" />
    <path
       d="m 47.93787,-36.658468 c -1.744803,2.994819 -3.040374,5.957056 -3.886719,8.886719 -0.846362,2.929706 -1.269539,5.898453 -1.269531,8.90625 -8e-6,3.007822 0.423169,5.98959 1.269531,8.9453125 0.859365,2.942709 2.154937,5.9049456 3.886719,8.8867187 l -3.125,0 c -1.953133,-3.059898 -3.417975,-6.0677075 -4.394532,-9.0234372 -0.963545,-2.955723 -1.445316,-5.891918 -1.445312,-8.808594 -4e-6,-2.90363 0.481767,-5.826805 1.445312,-8.769531 0.963536,-2.942684 2.428378,-5.950494 4.394532,-9.023438 l 3.125,0"
       id="path2994"
       inkscape:connector-curvature="0"
       style="fill:#ffffff" />
    <path
       d="m 73.113651,-28.181905 -7.910156,10.644531 8.320312,11.2304687 -4.238281,0 -6.367188,-8.5937497 -6.367187,8.5937497 -4.238281,0 8.496093,-11.4453127 -7.773437,-10.429687 4.238281,0 5.800781,7.792968 5.800782,-7.792968 4.238281,0"
       id="path2996"
       inkscape:connector-curvature="0"
       style="fill:#ffffff" />
    <path
       d="m 78.035526,-36.658468 3.125,0 c 1.953117,3.072944 3.411448,6.080754 4.375,9.023438 0.976551,2.942726 1.464831,5.865901 1.464844,8.769531 -1.3e-5,2.916676 -0.488293,5.852871 -1.464844,8.808594 -0.963552,2.9557297 -2.421883,5.9635392 -4.375,9.0234372 l -3.125,0 c 1.731766,-2.9817731 3.020827,-5.9440097 3.867187,-8.8867187 0.859367,-2.9557225 1.289054,-5.9374905 1.289063,-8.9453125 -9e-6,-3.007797 -0.429696,-5.976544 -1.289063,-8.90625 -0.84636,-2.929663 -2.135421,-5.8919 -3.867187,-8.886719"
       id="path2998"
       inkscape:connector-curvature="0"
       style="fill:#ffffff" />
  </g>
</svg>
