<?xml version="1.0" encoding="UTF-8" standalone="no"?>
<!-- Created with Inkscape (http://www.inkscape.org/) -->

<svg
   xmlns:dc="http://purl.org/dc/elements/1.1/"
   xmlns:cc="http://creativecommons.org/ns#"
   xmlns:rdf="http://www.w3.org/1999/02/22-rdf-syntax-ns#"
   xmlns:svg="http://www.w3.org/2000/svg"
   xmlns="http://www.w3.org/2000/svg"
   version="1.1"
   width="31"
   height="15"
   id="svg2">
  <metadata
     id="metadata8">
    <rdf:RDF>
      <cc:Work
         rdf:about="">
        <dc:format>image/svg+xml</dc:format>
        <dc:type
           rdf:resource="http://purl.org/dc/dcmitype/StillImage" />
        <dc:title></dc:title>
      </cc:Work>
    </rdf:RDF>
  </metadata>
  <defs
     id="defs6" />
  <g
     transform="matrix(0.40406301,0,0,0.40406301,-2.5747163,10.231553)"
     id="text2987"
     style="font-size:40px;font-style:normal;font-weight:normal;line-height:125%;letter-spacing:0px;word-spacing:0px;fill:#ffffff;fill-opacity:1;stroke:none;font-family:Sans">
    <path
       d="m 26.559703,-21.857856 0,3.847656 c -1.497416,-0.716121 -2.910175,-1.249974 -4.238281,-1.601563 -1.328141,-0.351536 -2.610692,-0.527317 -3.847657,-0.527343 -2.148448,2.6e-5 -3.808603,0.416692 -4.980468,1.25 -1.158862,0.833357 -1.738288,2.018252 -1.738282,3.554687 -6e-6,1.289083 0.384108,2.265645 1.152344,2.929688 0.781242,0.651059 2.252594,1.178403 4.414063,1.582031 l 2.382812,0.488281 c 2.942691,0.5599122 5.110658,1.5494945 6.503906,2.9687502 1.406228,1.4062623 2.109352,3.2942813 2.109375,5.6640625 -2.3e-5,2.8255261 -0.950543,4.967451 -2.851562,6.4257813 -1.888039,1.4583335 -4.661474,2.1874994 -8.320313,2.1875 -1.380219,-6e-7 -2.851571,-0.1562504 -4.414062,-0.46875 C 11.182093,6.1304252 9.5740214,5.6681861 7.9073591,5.0562062 l 0,-4.06249997 C 9.5089173,1.8921482 11.077926,2.5692308 12.61439,3.0249562 c 1.53645,0.4557321 3.046865,0.6835964 4.53125,0.6835938 2.25259,2.6e-6 3.99087,-0.4427053 5.214844,-1.328125 1.22394,-0.8854118 1.835919,-2.14843141 1.835938,-3.7890625 -1.9e-5,-1.4322825 -0.442727,-2.5520731 -1.328125,-3.359375 -0.872413,-0.8072798 -2.311214,-1.4127479 -4.316407,-1.8164063 l -2.402343,-0.46875 C 13.20683,-7.6390923 11.077926,-8.5570601 9.7628279,-9.807075 8.4477204,-11.057058 7.790169,-12.795337 7.7901716,-15.021919 c -2.6e-6,-2.578101 0.9049444,-4.609349 2.7148434,-6.09375 1.82291,-1.484346 4.329418,-2.226533 7.519532,-2.226562 1.367173,2.9e-5 2.760401,0.123727 4.179687,0.371093 1.419252,0.247425 2.871074,0.618519 4.355469,1.113282"
       id="path2992"
       style="fill:#ffffff" />
    <path
       d="m 42.946422,-24.006294 c -1.744803,2.994819 -3.040374,5.957056 -3.886719,8.886719 -0.846362,2.929706 -1.269539,5.898453 -1.269531,8.90625 -8e-6,3.007822 0.423169,5.98958988 1.269531,8.9453125 0.859365,2.942709 2.154937,5.9049456 3.886719,8.8867185 l -3.125,0 C 37.868289,8.5588082 36.403447,5.5509987 35.42689,2.5952687 34.463345,-0.36045373 33.981574,-3.2966487 33.981578,-6.213325 c -4e-6,-2.9036304 0.481767,-5.826805 1.445312,-8.769531 0.963536,-2.942684 2.428378,-5.950494 4.394532,-9.023438 l 3.125,0"
       id="path2994"
       style="fill:#ffffff" />
    <path
       d="m 68.122203,-15.529731 -7.910156,10.644531 8.320312,11.2304687 -4.238281,0 -6.367188,-8.59375 -6.367187,8.59375 -4.238281,0 8.496093,-11.4453125 -7.773437,-10.4296872 4.238281,0 5.800781,7.7929685 5.800782,-7.7929685 4.238281,0"
       id="path2996"
       style="fill:#ffffff" />
    <path
       d="m 73.044078,-24.006294 3.125,0 c 1.953117,3.072944 3.411448,6.080754 4.375,9.023438 0.976551,2.942726 1.464831,5.8659006 1.464844,8.769531 -1.3e-5,2.9166763 -0.488293,5.85287127 -1.464844,8.8085937 -0.963552,2.95573 -2.421883,5.9635395 -4.375,9.0234373 l -3.125,0 c 1.731766,-2.9817729 3.020827,-5.9440095 3.867187,-8.8867185 0.859367,-2.95572262 1.289055,-5.9374905 1.289063,-8.9453125 -8e-6,-3.007797 -0.429696,-5.976544 -1.289063,-8.90625 -0.84636,-2.929663 -2.135421,-5.8919 -3.867187,-8.886719"
       id="path2998"
       style="fill:#ffffff" />
  </g>
</svg>
