<?xml version="1.0" encoding="UTF-8" standalone="no"?>
<!-- Created with Inkscape (http://www.inkscape.org/) -->

<svg
   xmlns:dc="http://purl.org/dc/elements/1.1/"
   xmlns:cc="http://creativecommons.org/ns#"
   xmlns:rdf="http://www.w3.org/1999/02/22-rdf-syntax-ns#"
   xmlns:svg="http://www.w3.org/2000/svg"
   xmlns="http://www.w3.org/2000/svg"
   xmlns:sodipodi="http://sodipodi.sourceforge.net/DTD/sodipodi-0.dtd"
   xmlns:inkscape="http://www.inkscape.org/namespaces/inkscape"
   id="svg2"
   version="1.1"
   inkscape:version="0.48.5 r10040"
   width="470"
   height="22"
   sodipodi:docname="wynik1.svg">
  <metadata
     id="metadata8">
    <rdf:RDF>
      <cc:Work
         rdf:about="">
        <dc:format>image/svg+xml</dc:format>
        <dc:type
           rdf:resource="http://purl.org/dc/dcmitype/StillImage" />
        <dc:title></dc:title>
      </cc:Work>
    </rdf:RDF>
  </metadata>
  <defs
     id="defs6" />
  <sodipodi:namedview
     pagecolor="#ffffff"
     bordercolor="#666666"
     borderopacity="1"
     objecttolerance="10"
     gridtolerance="10"
     guidetolerance="10"
     inkscape:pageopacity="0"
     inkscape:pageshadow="2"
     inkscape:window-width="914"
     inkscape:window-height="729"
     id="namedview4"
     showgrid="false"
     inkscape:zoom="1.4864449"
     inkscape:cx="214.17355"
     inkscape:cy="78.753551"
     inkscape:window-x="10"
     inkscape:window-y="34"
     inkscape:window-maximized="0"
     inkscape:current-layer="text2998"
     showguides="true"
     inkscape:guide-bbox="true">
    <sodipodi:guide
       orientation="0,1"
       position="254.02558,92.286447"
       id="guide3032" />
  </sodipodi:namedview>
  <g
     style="font-size:17.49541092px;font-style:normal;font-weight:normal;line-height:125%;letter-spacing:0px;word-spacing:0px;fill:#000000;fill-opacity:1;stroke:none;font-family:Sans"
     id="text2998"
     transform="translate(0,-20)">
    <path
       d="m 10.050784,27.806424 c -1.2529317,1.1e-5 -2.2495769,0.467011 -2.9899379,1.400999 -0.7346738,0.934009 -1.1020087,2.206868 -1.1020059,3.818579 -2.8e-6,1.606029 0.3673321,2.87604 1.1020059,3.810036 0.740361,0.934001 1.7370062,1.401001 2.9899379,1.401 1.252919,1e-6 2.243869,-0.466999 2.972853,-1.401 0.73466,-0.933996 1.101995,-2.204007 1.102006,-3.810036 -1.1e-5,-1.611711 -0.367346,-2.88457 -1.102006,-3.818579 -0.728984,-0.933988 -1.719934,-1.400988 -2.972853,-1.400999 m 2.417579,11.353223 2.272353,2.48592 -2.084414,0 -1.887932,-2.0417 c -0.187947,0.01139 -0.333172,0.01993 -0.435677,0.02563 -0.09682,0.0057 -0.190794,0.0085 -0.281909,0.0085 -1.7939677,0 -3.2291367,-0.597987 -4.3055108,-1.793963 -1.0706842,-1.201627 -1.6060251,-2.80765 -1.6060241,-4.818032 -1e-6,-2.016065 0.5353399,-3.622087 1.6060241,-4.818072 1.0763741,-1.201658 2.5115431,-1.802493 4.3055108,-1.802506 1.78826,1.3e-5 3.217734,0.600848 4.288426,1.802506 1.070671,1.195985 1.606012,2.802007 1.606024,4.818072 -1.2e-5,1.480736 -0.299006,2.747899 -0.896981,3.801493 -0.592304,1.053599 -1.452266,1.830982 -2.57989,2.332152"
       style="fill:#ffffff"
       id="path3025"
       inkscape:connector-curvature="0" />
    <path
       d="m 22.352245,26.114973 c -0.763151,1.309889 -1.329815,2.605528 -1.699994,3.88692 -0.370186,1.28141 -0.555277,2.579896 -0.555274,3.895463 -3e-6,1.315577 0.185088,2.619758 0.555274,3.912548 0.375874,1.287097 0.942538,2.582736 1.699994,3.886919 l -1.366829,0 c -0.854271,-1.338354 -1.494972,-2.653925 -1.922103,-3.946718 -0.421441,-1.29279 -0.63216,-2.577038 -0.632159,-3.852749 -1e-6,-1.270006 0.210718,-2.548559 0.632159,-3.835665 0.421436,-1.287086 1.062136,-2.602658 1.922103,-3.946718 l 1.366829,0"
       style="fill:#ffffff"
       id="path3027"
       inkscape:connector-curvature="0" />
    <path
       d="m 33.363761,29.822496 -3.459786,4.655762 3.639182,4.912042 -1.853762,0 -2.784914,-3.75878 -2.784914,3.75878 -1.853762,0 3.716066,-5.006012 -3.399987,-4.561792 1.853762,0 2.537176,3.40853 2.537177,-3.40853 1.853762,0"
       style="fill:#ffffff"
       id="path3029"
       inkscape:connector-curvature="0" />
    <path
       d="m 35.516516,26.114973 1.366829,0 c 0.854264,1.34406 1.492117,2.659632 1.91356,3.946718 0.427129,1.287106 0.640696,2.565659 0.640702,3.835665 -6e-6,1.275711 -0.213573,2.559959 -0.640702,3.852749 -0.421443,1.292793 -1.059296,2.608364 -1.91356,3.946718 l -1.366829,0 c 0.757449,-1.304183 1.321265,-2.599822 1.691451,-3.886919 0.375874,-1.29279 0.563813,-2.596971 0.563817,-3.912548 -4e-6,-1.315567 -0.187943,-2.614053 -0.563817,-3.895463 -0.370186,-1.281392 -0.934002,-2.577031 -1.691451,-3.88692"
       style="fill:#ffffff"
       id="path3031"
       inkscape:connector-curvature="0" />
    <path
       d="m 55.882267,27.054668 0,1.682908 c -0.654947,-0.313221 -1.272867,-0.546721 -1.853761,-0.7005 -0.58091,-0.153757 -1.141879,-0.230641 -1.682909,-0.230652 -0.939699,1.1e-5 -1.665827,0.182255 -2.178383,0.546731 -0.506869,0.364499 -0.760302,0.882754 -0.760299,1.554768 -3e-6,0.563826 0.168003,0.99096 0.504018,1.281402 0.341704,0.284764 0.985252,0.515416 1.930646,0.691957 l 1.042207,0.213568 c 1.28709,0.244897 2.235327,0.677726 2.844713,1.298487 0.615063,0.615079 0.922599,1.44087 0.92261,2.477378 -1.1e-5,1.235843 -0.415754,2.17269 -1.247232,2.810542 -0.8258,0.637854 -2.03886,0.95678 -3.639182,0.95678 -0.603687,0 -1.247235,-0.06834 -1.930646,-0.205024 -0.677722,-0.136683 -1.381069,-0.338859 -2.110042,-0.60653 l 0,-1.776878 c 0.700498,0.392965 1.386759,0.689111 2.058786,0.888439 0.67202,0.19933 1.332654,0.298995 1.981902,0.298994 0.98525,1e-6 1.745548,-0.193633 2.280896,-0.580903 0.535333,-0.387266 0.803004,-0.939692 0.803012,-1.65728 -8e-6,-0.626459 -0.193642,-1.116239 -0.580902,-1.469341 -0.381581,-0.353092 -1.010891,-0.617915 -1.887933,-0.794469 l -1.05075,-0.205025 c -1.287101,-0.256274 -2.218252,-0.65778 -2.793456,-1.204518 -0.575209,-0.546724 -0.862812,-1.307022 -0.862811,-2.280896 -10e-7,-1.127623 0.395809,-2.016061 1.187432,-2.665316 0.797314,-0.649232 1.893624,-0.973853 3.288933,-0.973866 0.597981,1.3e-5 1.207358,0.05412 1.828133,0.162311 0.620761,0.10822 1.255766,0.270531 1.905018,0.486933"
       style="fill:#ffffff"
       id="path3033"
       inkscape:connector-curvature="0" />
    <path
       d="m 63.049579,26.114973 c -0.763151,1.309889 -1.329815,2.605528 -1.699993,3.88692 -0.370187,1.28141 -0.555278,2.579896 -0.555275,3.895463 -3e-6,1.315577 0.185088,2.619758 0.555275,3.912548 0.375873,1.287097 0.942537,2.582736 1.699993,3.886919 l -1.366829,0 c -0.854271,-1.338354 -1.494972,-2.653925 -1.922103,-3.946718 -0.421441,-1.29279 -0.63216,-2.577038 -0.632158,-3.852749 -2e-6,-1.270006 0.210717,-2.548559 0.632158,-3.835665 0.421436,-1.287086 1.062137,-2.602658 1.922103,-3.946718 l 1.366829,0"
       style="fill:#ffffff"
       id="path3035"
       inkscape:connector-curvature="0" />
    <path
       d="m 74.061095,29.822496 -3.459786,4.655762 3.639182,4.912042 -1.853762,0 -2.784914,-3.75878 -2.784914,3.75878 -1.853762,0 3.716067,-5.006012 -3.399987,-4.561792 1.853761,0 2.537177,3.40853 2.537176,-3.40853 1.853762,0"
       style="fill:#ffffff"
       id="path3037"
       inkscape:connector-curvature="0" />
    <path
       d="m 76.213846,26.114973 1.366829,0 c 0.854265,1.34406 1.492118,2.659632 1.913561,3.946718 0.427129,1.287106 0.640696,2.565659 0.640701,3.835665 -5e-6,1.275711 -0.213572,2.559959 -0.640701,3.852749 -0.421443,1.292793 -1.059296,2.608364 -1.913561,3.946718 l -1.366829,0 c 0.757449,-1.304183 1.321266,-2.599822 1.691451,-3.886919 0.375875,-1.29279 0.563814,-2.596971 0.563817,-3.912548 -3e-6,-1.315567 -0.187942,-2.614053 -0.563817,-3.895463 -0.370185,-1.281392 -0.934002,-2.577031 -1.691451,-3.88692"
       style="fill:#ffffff"
       id="path3039"
       inkscape:connector-curvature="0" />
    <path
       d="m 83.500761,31.445606 10.951717,0 0,1.435171 -10.951717,0 0,-1.435171 m 0,3.485414 10.951717,0 0,1.452256 -10.951717,0 0,-1.452256"
       style="fill:#ffffff"
       id="path3041"
       inkscape:connector-curvature="0" />
    <path
       d="m 101.73084,26.114973 c -0.76315,1.309889 -1.32981,2.605528 -1.69999,3.88692 -0.370188,1.28141 -0.555279,2.579896 -0.555276,3.895463 -3e-6,1.315577 0.185088,2.619758 0.555276,3.912548 0.37587,1.287097 0.94254,2.582736 1.69999,3.886919 l -1.36683,0 c -0.854268,-1.338354 -1.494969,-2.653925 -1.9221,-3.946718 -0.421441,-1.29279 -0.63216,-2.577038 -0.632159,-3.852749 -1e-6,-1.270006 0.210718,-2.548559 0.632159,-3.835665 0.421436,-1.287086 1.062137,-2.602658 1.9221,-3.946718 l 1.36683,0"
       style="fill:#ffffff"
       id="path3043"
       inkscape:connector-curvature="0" />
    <path
       d="m 112.74236,29.822496 -3.45979,4.655762 3.63918,4.912042 -1.85376,0 -2.78491,-3.75878 -2.78492,3.75878 -1.85376,0 3.71607,-5.006012 -3.39999,-4.561792 1.85376,0 2.53718,3.40853 2.53718,-3.40853 1.85376,0"
       style="fill:#ffffff"
       id="path3045"
       inkscape:connector-curvature="0" />
    <path
       d="m 121.54132,28.421497 0,4.758273 4.75827,0 0,1.452256 -4.75827,0 0,4.758274 -1.43517,0 0,-4.758274 -4.75827,0 0,-1.452256 4.75827,0 0,-4.758273 1.43517,0"
       style="fill:#ffffff"
       id="path3047"
       inkscape:connector-curvature="0" />
    <path
       d="m 130.3232,37.938044 2.81908,0 0,-9.730114 -3.06682,0.615073 0,-1.571854 3.04973,-0.615073 1.72563,0 0,11.301968 2.81908,0 0,1.452256 -7.3467,0 0,-1.452256"
       style="fill:#ffffff"
       id="path3049"
       inkscape:connector-curvature="0" />
    <path
       d="m 140.69401,26.114973 1.36683,0 c 0.85426,1.34406 1.49212,2.659632 1.91356,3.946718 0.42713,1.287106 0.6407,2.565659 0.6407,3.835665 0,1.275711 -0.21357,2.559959 -0.6407,3.852749 -0.42144,1.292793 -1.0593,2.608364 -1.91356,3.946718 l -1.36683,0 c 0.75745,-1.304183 1.32127,-2.599822 1.69145,-3.886919 0.37588,-1.29279 0.56381,-2.596971 0.56382,-3.912548 -10e-6,-1.315567 -0.18794,-2.614053 -0.56382,-3.895463 -0.37018,-1.281392 -0.934,-2.577031 -1.69145,-3.88692"
       style="fill:#ffffff"
       id="path3051"
       inkscape:connector-curvature="0" />
    <path
       d="m 151.55175,26.114973 c -0.76315,1.309889 -1.32982,2.605528 -1.69999,3.88692 -0.37019,1.28141 -0.55528,2.579896 -0.55528,3.895463 0,1.315577 0.18509,2.619758 0.55528,3.912548 0.37587,1.287097 0.94253,2.582736 1.69999,3.886919 l -1.36683,0 c -0.85427,-1.338354 -1.49497,-2.653925 -1.9221,-3.946718 -0.42144,-1.29279 -0.63216,-2.577038 -0.63216,-3.852749 0,-1.270006 0.21072,-2.548559 0.63216,-3.835665 0.42143,-1.287086 1.06213,-2.602658 1.9221,-3.946718 l 1.36683,0"
       style="fill:#ffffff"
       id="path3053"
       inkscape:connector-curvature="0" />
    <path
       d="m 162.56327,29.822496 -3.45978,4.655762 3.63918,4.912042 -1.85376,0 -2.78492,-3.75878 -2.78491,3.75878 -1.85376,0 3.71606,-5.006012 -3.39998,-4.561792 1.85376,0 2.53717,3.40853 2.53718,-3.40853 1.85376,0"
       style="fill:#ffffff"
       id="path3055"
       inkscape:connector-curvature="0" />
    <path
       d="m 165.49729,31.448155 3.91474,0 0,0.94398 -5.26408,0 0,-0.94398 c 0.42572,-0.440522 1.00506,-1.030971 1.73803,-1.77135 0.73668,-0.744074 1.19941,-1.223467 1.38821,-1.43818 0.35908,-0.403501 0.60896,-0.744074 0.74963,-1.021719 0.14437,-0.281338 0.21656,-0.557128 0.21656,-0.827371 0,-0.440517 -0.15548,-0.799599 -0.46644,-1.077247 -0.30726,-0.277634 -0.70891,-0.416454 -1.20496,-0.416462 -0.35168,8e-6 -0.72372,0.06109 -1.11612,0.183243 -0.38869,0.12217 -0.80516,0.307263 -1.24938,0.555282 l 0,-1.132775 c 0.45163,-0.181384 0.87364,-0.318354 1.26604,-0.410909 0.3924,-0.09254 0.75148,-0.138812 1.07725,-0.13882 0.85883,8e-6 1.54368,0.214717 2.05454,0.644127 0.51086,0.429425 0.76629,1.003216 0.76629,1.721374 0,0.340579 -0.0648,0.664494 -0.19434,0.971744 -0.12587,0.303559 -0.35724,0.662641 -0.69411,1.077248 -0.0926,0.107358 -0.38685,0.418316 -0.8829,0.932874 -0.49605,0.510862 -1.19571,1.227175 -2.09896,2.148941"
       style="font-size:11.37217807999999941px;baseline-shift:super;fill:#ffffff"
       id="path3057"
       inkscape:connector-curvature="0" />
    <path
       d="m 171.41017,33.897356 4.60451,0 0,1.400999 -4.60451,0 0,-1.400999"
       style="fill:#ffffff"
       id="path3059"
       inkscape:connector-curvature="0" />
    <path
       d="m 183.48952,28.139588 -4.35677,6.808517 4.35677,0 0,-6.808517 m -0.45276,-1.503512 2.16984,0 0,8.312029 1.81959,0 0,1.435171 -1.81959,0 0,3.007024 -1.71708,0 0,-3.007024 -5.75777,0 0,-1.665823 5.30501,-8.081377"
       style="fill:#ffffff"
       id="path3061"
       inkscape:connector-curvature="0" />
    <path
       d="m 189.41815,26.114973 1.36683,0 c 0.85426,1.34406 1.49211,2.659632 1.91356,3.946718 0.42712,1.287106 0.64069,2.565659 0.6407,3.835665 -1e-5,1.275711 -0.21358,2.559959 -0.6407,3.852749 -0.42145,1.292793 -1.0593,2.608364 -1.91356,3.946718 l -1.36683,0 c 0.75745,-1.304183 1.32126,-2.599822 1.69145,-3.886919 0.37587,-1.29279 0.56381,-2.596971 0.56381,-3.912548 0,-1.315567 -0.18794,-2.614053 -0.56381,-3.895463 -0.37019,-1.281392 -0.934,-2.577031 -1.69145,-3.88692"
       style="fill:#ffffff"
       id="path3063"
       inkscape:connector-curvature="0" />
    <path
       d="m 196.70505,31.445606 10.95171,0 0,1.435171 -10.95171,0 0,-1.435171 m 0,3.485414 10.95171,0 0,1.452256 -10.95171,0 0,-1.452256"
       style="fill:#ffffff"
       id="path3065"
       inkscape:connector-curvature="0" />
    <path
       d="m 221.11688,29.333703 -3.45978,4.655762 3.63918,4.912041 -1.85376,0 -2.78492,-3.75878 -2.78491,3.75878 -1.85376,0 3.71606,-5.006011 -3.39999,-4.561792 1.85377,0 2.53717,3.40853 2.53718,-3.40853 1.85376,0"
       style="fill:#ffffff"
       id="path3067"
       inkscape:connector-curvature="0" />
    <path
       d="m 226.48303,27.433321 c 0.53677,0.114763 0.95508,0.353534 1.25494,0.716314 0.30355,0.362788 0.45532,0.810715 0.45533,1.343783 -1e-5,0.818117 -0.28135,1.451138 -0.84403,1.899064 -0.56269,0.447928 -1.3623,0.671892 -2.39882,0.671892 -0.34798,0 -0.70706,-0.03517 -1.07724,-0.105504 -0.36649,-0.06663 -0.74594,-0.168435 -1.13833,-0.305405 l 0,-1.0828 c 0.31095,0.181393 0.65153,0.318363 1.02172,0.410909 0.37018,0.09255 0.75703,0.138821 1.16054,0.13882 0.70335,10e-7 1.23827,-0.138819 1.60476,-0.416461 0.37018,-0.27764 0.55528,-0.681145 0.55528,-1.210515 0,-0.488646 -0.17214,-0.869939 -0.51641,-1.143882 -0.34058,-0.277637 -0.81627,-0.416457 -1.42707,-0.416461 l -0.9662,0 0,-0.921769 1.01062,0 c 0.55157,5e-6 0.97359,-0.1092 1.26604,-0.327616 0.29245,-0.222107 0.43867,-0.540469 0.43867,-0.955085 0,-0.42571 -0.15178,-0.751475 -0.45533,-0.977297 -0.29985,-0.229509 -0.73112,-0.344267 -1.2938,-0.344275 -0.30726,8e-6 -0.63673,0.03333 -0.98841,0.09995 -0.35168,0.06664 -0.73852,0.170294 -1.16054,0.310958 l 0,-0.999508 c 0.42572,-0.118452 0.82367,-0.207297 1.19386,-0.266535 0.37389,-0.05922 0.72557,-0.08884 1.05504,-0.08884 0.85142,8e-6 1.52517,0.194357 2.02122,0.583046 0.49605,0.385003 0.74408,0.906968 0.74408,1.565895 0,0.45904 -0.13142,0.847737 -0.39425,1.166093 -0.26284,0.314665 -0.63673,0.533075 -1.12167,0.655233"
       style="font-size:11.37217807999999941px;baseline-shift:super;fill:#ffffff"
       id="path3069"
       inkscape:connector-curvature="0" />
    <path
       d="m 229.96378,33.408562 4.60451,0 0,1.401 -4.60451,0 0,-1.401"
       style="fill:#ffffff"
       id="path3071"
       inkscape:connector-curvature="0" />
    <path
       d="m 242.04314,27.650795 -4.35677,6.808517 4.35677,0 0,-6.808517 m -0.45277,-1.503512 2.16984,0 0,8.312029 1.8196,0 0,1.43517 -1.8196,0 0,3.007024 -1.71707,0 0,-3.007024 -5.75777,0 0,-1.665822 5.305,-8.081377"
       style="fill:#ffffff"
       id="path3073"
       inkscape:connector-curvature="0" />
    <path
       d="m 256.17273,29.333703 -3.45979,4.655762 3.63918,4.912041 -1.85376,0 -2.78491,-3.75878 -2.78492,3.75878 -1.85376,0 3.71607,-5.006011 -3.39999,-4.561792 1.85376,0 2.53718,3.40853 2.53718,-3.40853 1.85376,0"
       style="fill:#ffffff"
       id="path3075"
       inkscape:connector-curvature="0" />
    <path
       d="m 264.97169,27.932704 0,4.758273 4.75827,0 0,1.452256 -4.75827,0 0,4.758273 -1.43517,0 0,-4.758273 -4.75827,0 0,-1.452256 4.75827,0 0,-4.758273 1.43517,0"
       style="fill:#ffffff"
       id="path3077"
       inkscape:connector-curvature="0" />
    <path
       d="m 281.1857,29.333703 -3.45979,4.655762 3.63918,4.912041 -1.85376,0 -2.78491,-3.75878 -2.78492,3.75878 -1.85376,0 3.71607,-5.006011 -3.39999,-4.561792 1.85376,0 2.53718,3.40853 2.53718,-3.40853 1.85376,0"
       style="fill:#ffffff"
       id="path3079"
       inkscape:connector-curvature="0" />
    <path
       d="m 284.11971,30.959362 3.91474,0 0,0.94398 -5.26407,0 0,-0.94398 c 0.42571,-0.440522 1.00506,-1.030971 1.73803,-1.77135 0.73667,-0.744074 1.19941,-1.223467 1.38821,-1.43818 0.35907,-0.403501 0.60895,-0.744074 0.74963,-1.021719 0.14436,-0.281338 0.21655,-0.557128 0.21656,-0.827371 -1e-5,-0.440517 -0.15549,-0.799599 -0.46644,-1.077247 -0.30726,-0.277634 -0.70891,-0.416454 -1.20496,-0.416462 -0.35168,8e-6 -0.72372,0.06109 -1.11612,0.183243 -0.3887,0.12217 -0.80516,0.307263 -1.24938,0.555282 l 0,-1.132775 c 0.45162,-0.181384 0.87364,-0.318354 1.26604,-0.410909 0.3924,-0.09254 0.75148,-0.138812 1.07725,-0.13882 0.85883,8e-6 1.54368,0.214717 2.05454,0.644127 0.51085,0.429425 0.76628,1.003216 0.76629,1.721374 -10e-6,0.340579 -0.0648,0.664494 -0.19435,0.971744 -0.12587,0.303559 -0.35724,0.662641 -0.6941,1.077248 -0.0925,0.107358 -0.38685,0.418316 -0.8829,0.932874 -0.49606,0.510862 -1.19571,1.227175 -2.09897,2.148941"
       style="font-size:11.37217807999999941px;baseline-shift:super;fill:#ffffff"
       id="path3081"
       inkscape:connector-curvature="0" />
    <path
       d="m 290.0326,33.408562 4.60451,0 0,1.401 -4.60451,0 0,-1.401"
       style="fill:#ffffff"
       id="path3083"
       inkscape:connector-curvature="0" />
    <path
       d="m 302.11195,27.650795 -4.35677,6.808517 4.35677,0 0,-6.808517 m -0.45276,-1.503512 2.16984,0 0,8.312029 1.81959,0 0,1.43517 -1.81959,0 0,3.007024 -1.71708,0 0,-3.007024 -5.75777,0 0,-1.665822 5.30501,-8.081377"
       style="fill:#ffffff"
       id="path3085"
       inkscape:connector-curvature="0" />
    <path
       d="m 308.49334,30.956813 10.95171,0 0,1.43517 -10.95171,0 0,-1.43517 m 0,3.485414 10.95171,0 0,1.452255 -10.95171,0 0,-1.452255"
       style="fill:#ffffff"
       id="path3087"
       inkscape:connector-curvature="0" />
    <path
       d="m 330.90079,29.333703 -3.45979,4.655762 3.63919,4.912041 -1.85377,0 -2.78491,-3.75878 -2.78491,3.75878 -1.85377,0 3.71607,-5.006011 -3.39999,-4.561792 1.85377,0 2.53717,3.40853 2.53718,-3.40853 1.85376,0"
       style="fill:#ffffff"
       id="path3089"
       inkscape:connector-curvature="0" />
    <path
       d="m 336.26694,27.433321 c 0.53677,0.114763 0.95508,0.353534 1.25494,0.716314 0.30355,0.362788 0.45532,0.810715 0.45533,1.343783 -1e-5,0.818117 -0.28135,1.451138 -0.84403,1.899064 -0.56269,0.447928 -1.3623,0.671892 -2.39882,0.671892 -0.34798,0 -0.70706,-0.03517 -1.07725,-0.105504 -0.36648,-0.06663 -0.74593,-0.168435 -1.13832,-0.305405 l 0,-1.0828 c 0.31095,0.181393 0.65152,0.318363 1.02171,0.410909 0.37019,0.09255 0.75704,0.138821 1.16054,0.13882 0.70336,10e-7 1.23828,-0.138819 1.60477,-0.416461 0.37018,-0.27764 0.55528,-0.681145 0.55528,-1.210515 0,-0.488646 -0.17214,-0.869939 -0.51641,-1.143882 -0.34058,-0.277637 -0.81627,-0.416457 -1.42708,-0.416461 l -0.96619,0 0,-0.921769 1.01062,0 c 0.55157,5e-6 0.97359,-0.1092 1.26604,-0.327616 0.29244,-0.222107 0.43867,-0.540469 0.43867,-0.955085 0,-0.42571 -0.15178,-0.751475 -0.45533,-0.977297 -0.29986,-0.229509 -0.73112,-0.344267 -1.29381,-0.344275 -0.30726,8e-6 -0.63672,0.03333 -0.9884,0.09995 -0.35168,0.06664 -0.73852,0.170294 -1.16054,0.310958 l 0,-0.999508 c 0.42572,-0.118452 0.82367,-0.207297 1.19386,-0.266535 0.37389,-0.05922 0.72556,-0.08884 1.05503,-0.08884 0.85143,8e-6 1.52517,0.194357 2.02123,0.583046 0.49605,0.385003 0.74407,0.906968 0.74408,1.565895 -1e-5,0.45904 -0.13142,0.847737 -0.39425,1.166093 -0.26284,0.314665 -0.63673,0.533075 -1.12167,0.655233"
       style="font-size:11.37217807999999941px;baseline-shift:super;fill:#ffffff"
       id="path3091"
       inkscape:connector-curvature="0" />
    <path
       d="m 346.94063,27.932704 0,4.758273 4.75828,0 0,1.452256 -4.75828,0 0,4.758273 -1.43517,0 0,-4.758273 -4.75827,0 0,-1.452256 4.75827,0 0,-4.758273 1.43517,0"
       style="fill:#ffffff"
       id="path3093"
       inkscape:connector-curvature="0" />
    <path
       d="m 363.15463,29.333703 -3.45978,4.655762 3.63918,4.912041 -1.85376,0 -2.78491,-3.75878 -2.78492,3.75878 -1.85376,0 3.71607,-5.006011 -3.39999,-4.561792 1.85376,0 2.53718,3.40853 2.53717,-3.40853 1.85376,0"
       style="fill:#ffffff"
       id="path3095"
       inkscape:connector-curvature="0" />
    <path
       d="m 366.08865,30.959362 3.91474,0 0,0.94398 -5.26408,0 0,-0.94398 c 0.42572,-0.440522 1.00506,-1.030971 1.73804,-1.77135 0.73667,-0.744074 1.1994,-1.223467 1.3882,-1.43818 0.35908,-0.403501 0.60896,-0.744074 0.74963,-1.021719 0.14437,-0.281338 0.21656,-0.557128 0.21656,-0.827371 0,-0.440517 -0.15548,-0.799599 -0.46643,-1.077247 -0.30726,-0.277634 -0.70892,-0.416454 -1.20497,-0.416462 -0.35168,8e-6 -0.72372,0.06109 -1.11611,0.183243 -0.3887,0.12217 -0.80516,0.307263 -1.24939,0.555282 l 0,-1.132775 c 0.45163,-0.181384 0.87364,-0.318354 1.26604,-0.410909 0.3924,-0.09254 0.75148,-0.138812 1.07725,-0.13882 0.85883,8e-6 1.54368,0.214717 2.05455,0.644127 0.51085,0.429425 0.76628,1.003216 0.76629,1.721374 -1e-5,0.340579 -0.0648,0.664494 -0.19435,0.971744 -0.12587,0.303559 -0.35724,0.662641 -0.69411,1.077248 -0.0925,0.107358 -0.38685,0.418316 -0.88289,0.932874 -0.49606,0.510862 -1.19572,1.227175 -2.09897,2.148941"
       style="font-size:11.37217807999999941px;baseline-shift:super;fill:#ffffff"
       id="path3097"
       inkscape:connector-curvature="0" />
    <path
       d="m 372.00155,33.408562 4.6045,0 0,1.401 -4.6045,0 0,-1.401"
       style="fill:#ffffff"
       id="path3099"
       inkscape:connector-curvature="0" />
    <path
       d="m 384.08089,27.650795 -4.35676,6.808517 4.35676,0 0,-6.808517 m -0.45276,-1.503512 2.16984,0 0,8.312029 1.81959,0 0,1.43517 -1.81959,0 0,3.007024 -1.71708,0 0,-3.007024 -5.75776,0 0,-1.665822 5.305,-8.081377"
       style="fill:#ffffff"
       id="path3101"
       inkscape:connector-curvature="0" />
    <path
       d="m 398.2105,29.333703 -3.45979,4.655762 3.63918,4.912041 -1.85376,0 -2.78491,-3.75878 -2.78492,3.75878 -1.85376,0 3.71607,-5.006011 -3.39999,-4.561792 1.85376,0 2.53718,3.40853 2.53718,-3.40853 1.85376,0"
       style="fill:#ffffff"
       id="path3103"
       inkscape:connector-curvature="0" />
    <path
       d="m 399.81652,33.408562 4.60451,0 0,1.401 -4.60451,0 0,-1.401"
       style="fill:#ffffff"
       id="path3105"
       inkscape:connector-curvature="0" />
    <path
       d="m 411.89587,27.650795 -4.35677,6.808517 4.35677,0 0,-6.808517 m -0.45277,-1.503512 2.16985,0 0,8.312029 1.81959,0 0,1.43517 -1.81959,0 0,3.007024 -1.71708,0 0,-3.007024 -5.75777,0 0,-1.665822 5.305,-8.081377"
       style="fill:#ffffff"
       id="path3107"
       inkscape:connector-curvature="0" />
    <path
       d="m 418.27724,30.956813 10.95172,0 0,1.43517 -10.95172,0 0,-1.43517 m 0,3.485414 10.95172,0 0,1.452255 -10.95172,0 0,-1.452255"
       style="fill:#ffffff"
       id="path3109"
       inkscape:connector-curvature="0" />
    <path
       d="m 434.52542,27.565368 0,4.792444 2.16984,0 c 0.80301,7e-6 1.42378,-0.207865 1.86231,-0.623615 0.43851,-0.415737 0.65778,-1.008028 0.65778,-1.776878 0,-0.763136 -0.21927,-1.352581 -0.65778,-1.768335 -0.43853,-0.415733 -1.0593,-0.623604 -1.86231,-0.623616 l -2.16984,0 m -1.72562,-1.418085 3.89546,0 c 1.42947,1.3e-5 2.50869,0.324635 3.23768,0.973866 0.73466,0.64356 1.10199,1.588949 1.102,2.83617 -1e-5,1.258629 -0.36734,2.209714 -1.102,2.853256 -0.72899,0.643554 -1.80821,0.965328 -3.23768,0.965323 l -2.16984,0 0,5.125608 -1.72562,0 0,-12.754223"
       style="fill:#ffffff"
       id="path3111"
       inkscape:connector-curvature="0" />
    <path
       d="m 447.06608,25.62618 c -0.76315,1.309889 -1.32981,2.605528 -1.69999,3.88692 -0.37018,1.28141 -0.55528,2.579896 -0.55527,3.895462 -10e-6,1.315577 0.18509,2.619759 0.55527,3.912548 0.37588,1.287098 0.94254,2.582736 1.69999,3.88692 l -1.36682,0 c -0.85428,-1.338354 -1.49498,-2.653926 -1.92211,-3.946719 -0.42144,-1.292789 -0.63216,-2.577038 -0.63216,-3.852749 0,-1.270005 0.21072,-2.548558 0.63216,-3.835664 0.42144,-1.287086 1.06214,-2.602658 1.92211,-3.946718 l 1.36682,0"
       style="fill:#ffffff"
       id="path3113"
       inkscape:connector-curvature="0" />
    <path
       d="m 458.07759,29.333703 -3.45978,4.655762 3.63918,4.912041 -1.85376,0 -2.78492,-3.75878 -2.78491,3.75878 -1.85376,0 3.71606,-5.006011 -3.39998,-4.561792 1.85376,0 2.53717,3.40853 2.53718,-3.40853 1.85376,0"
       style="fill:#ffffff"
       id="path3115"
       inkscape:connector-curvature="0" />
    <path
       d="m 460.23035,25.62618 1.36683,0 c 0.85426,1.34406 1.49211,2.659632 1.91356,3.946718 0.42713,1.287106 0.64069,2.565659 0.6407,3.835664 -10e-6,1.275711 -0.21357,2.55996 -0.6407,3.852749 -0.42145,1.292793 -1.0593,2.608365 -1.91356,3.946719 l -1.36683,0 c 0.75745,-1.304184 1.32126,-2.599822 1.69145,-3.88692 0.37587,-1.292789 0.56381,-2.596971 0.56382,-3.912548 -10e-6,-1.315566 -0.18795,-2.614052 -0.56382,-3.895462 -0.37019,-1.281392 -0.934,-2.577031 -1.69145,-3.88692"
       style="fill:#ffffff"
       id="path3117"
       inkscape:connector-curvature="0" />
  </g>
  <path
     sodipodi:type="arc"
     style="fill:#ffffff;fill-opacity:1;fill-rule:nonzero;stroke:none"
     id="path3030"
     sodipodi:cx="96.56778"
     sodipodi:cy="-37.918159"
     sodipodi:rx="1.9028133"
     sodipodi:ry="1.9028133"
     d="m 98.470593,-37.918159 a 1.9028133,1.9028133 0 1 1 -3.805627,0 1.9028133,1.9028133 0 1 1 3.805627,0 z"
     transform="translate(-53.278773,51.831203)" />
</svg>
