<?xml version="1.0" encoding="UTF-8" standalone="no"?>
<!-- Created with Inkscape (http://www.inkscape.org/) -->

<svg
   xmlns:dc="http://purl.org/dc/elements/1.1/"
   xmlns:cc="http://creativecommons.org/ns#"
   xmlns:rdf="http://www.w3.org/1999/02/22-rdf-syntax-ns#"
   xmlns:svg="http://www.w3.org/2000/svg"
   xmlns="http://www.w3.org/2000/svg"
   xmlns:sodipodi="http://sodipodi.sourceforge.net/DTD/sodipodi-0.dtd"
   xmlns:inkscape="http://www.inkscape.org/namespaces/inkscape"
   id="svg2"
   version="1.1"
   inkscape:version="0.48.5 r10040"
   width="400"
   height="400"
   xml:space="preserve"
   sodipodi:docname="about_website.svg"><metadata
     id="metadata8"><rdf:RDF><cc:Work
         rdf:about=""><dc:format>image/svg+xml</dc:format><dc:type
           rdf:resource="http://purl.org/dc/dcmitype/StillImage" /><dc:title></dc:title></cc:Work></rdf:RDF></metadata><defs
     id="defs6" /><sodipodi:namedview
     pagecolor="#ffffff"
     bordercolor="#666666"
     borderopacity="1"
     objecttolerance="10"
     gridtolerance="10"
     guidetolerance="10"
     inkscape:pageopacity="0"
     inkscape:pageshadow="2"
     inkscape:window-width="987"
     inkscape:window-height="658"
     id="namedview4"
     showgrid="false"
     showguides="true"
     inkscape:guide-bbox="true"
     inkscape:zoom="0.47204719"
     inkscape:cx="549.07655"
     inkscape:cy="482.82291"
     inkscape:window-x="0"
     inkscape:window-y="24"
     inkscape:window-maximized="0"
     inkscape:current-layer="g12"><sodipodi:guide
       orientation="0,1"
       position="885.50468,1067.6899"
       id="guide3592" /></sodipodi:namedview><g
     id="g10"
     inkscape:groupmode="layer"
     inkscape:label="ink_ext_XXXXXX"
     transform="matrix(1.25,0,0,-1.25,0,399.99998)"><g
       id="g12"
       transform="scale(0.1,0.1)"><path
         d="m 2050,7119.96 c 13.33,-1.78 20.74,14.71 9.89,23.59 -1.91,1.33 -3.7,2.22 -6.06,2.53 l -4.72,0.71 -7.73,1.1 -7.75,1.07 -6.19,0.8 c -14,1.86 -20.86,-17.18 -8.16,-24.59 1.53,-0.85 3.1,-1.37 4.83,-1.6 l 6.03,-0.78 7.57,-1.04 7.57,-1.08 4.72,-0.71 z m 152.98,-33.25 c 14.91,-4.11 23.87,16.47 9.7,24.41 -0.8,0.4 -1.61,0.74 -2.48,0.98 l -2.6,0.75 -7.38,2.06 -7.39,2.03 -7.41,1.98 -1,0.26 c -14.98,3.62 -23.29,-16.7 -9.38,-24.5 0.95,-0.47 1.78,-0.78 2.81,-1.07 l 0.83,-0.21 7.26,-1.94 7.23,-1.98 7.22,-2.03 2.59,-0.74 0,0 z m 147.41,-52.8 c 13.38,-5.74 25.04,11.47 14.16,21.83 -1.13,1.02 -2.33,1.81 -3.73,2.42 l -2.92,1.27 -6.95,2.96 -6.98,2.92 -6.99,2.89 -0.79,0.32 c -13.82,5.43 -24.83,-12.5 -13.38,-22.39 1.07,-0.88 2.24,-1.6 3.54,-2.11 l 0.65,-0.26 6.84,-2.83 6.82,-2.86 6.81,-2.9 2.92,-1.26 0,0 z m 139.35,-71.43 c 12.98,-7.49 26.4,8.77 16.62,20.09 -0.94,1.03 -1.98,1.94 -3.18,2.63 l -4.6,2.73 -6.46,3.79 -6.48,3.76 -5.48,3.13 c -12.08,6.97 -25.73,-7.69 -16.98,-19.53 1.11,-1.44 2.4,-2.54 3.96,-3.44 l 5.34,-3.05 6.35,-3.67 6.32,-3.71 4.59,-2.73 0,0 z m 128.96,-88.75 c 10.95,-8.67 26.51,3.71 19.75,16.7 -0.9,1.61 -1.97,2.9 -3.44,4.06 l -0.89,0.71 -5.87,4.58 -5.91,4.56 -5.93,4.51 -2.56,1.93 c -11.64,8.74 -27.25,-5.34 -18.69,-18.18 0.85,-1.15 1.71,-2.08 2.88,-2.96 l 2.44,-1.83 5.8,-4.42 5.78,-4.46 5.75,-4.5 0.89,-0.7 0,0 z m 116.6,-104.59 c 2.21,-2.22 4.93,-3.52 8.04,-3.85 12.24,-1.31 19.43,13.72 10.74,22.41 l -3.35,3.41 -5.25,5.28 -5.28,5.25 -4.97,4.88 c -10.51,10.03 -27.44,-1.47 -20.99,-15.44 0.69,-1.33 1.47,-2.38 2.55,-3.45 l 4.85,-4.77 5.17,-5.14 5.14,-5.17 3.35,-3.41 0,0 z m 102.21,-118.58 c 1.36,-1.79 3.25,-3.28 5.29,-4.14 12.5,-5.29 23.86,9.28 15.76,20.08 l -0.62,0.82 -4.52,5.94 -4.55,5.9 -4.59,5.87 -2.06,2.61 c -9.01,11.37 -27.56,1.75 -22.78,-12.62 0.54,-1.44 1.18,-2.62 2.12,-3.82 l 1.97,-2.48 4.49,-5.75 4.46,-5.78 4.42,-5.8 0.61,-0.83 0,0 z m 2.48,-1460.4 c -8.63,-11.5 5.05,-26.92 17.78,-18.96 1.31,0.88 2.4,1.87 3.36,3.16 l 1.3,1.71 4.45,6 4.41,6.01 4.38,6.04 1.27,1.77 c 8.97,13.2 -8.09,27.86 -19.75,17.31 -0.7,-0.67 -1.19,-1.25 -1.77,-2.01 l -1.17,-1.64 -4.28,-5.92 -4.33,-5.89 -4.35,-5.85 -1.3,-1.73 0,0 z m -101.86,-118.98 c -4.25,-4.45 -4.97,-11.27 -1.54,-16.41 4.67,-7.01 14.67,-8.05 20.53,-1.91 l 4.01,4.12 5.15,5.38 5.12,5.4 4.1,4.37 c 8.75,9.63 0.13,24.6 -12.57,21.87 -2.78,-0.72 -4.75,-1.78 -6.75,-3.88 l -3.99,-4.26 -5.02,-5.29 -5.04,-5.26 -4,-4.13 0,0 z m -116.2,-104.92 c -11.38,-9.01 -1.75,-27.56 12.62,-22.78 1.44,0.53 2.61,1.17 3.81,2.13 l 1.61,1.26 5.82,4.66 5.79,4.69 5.76,4.73 1.78,1.47 c 10.83,8.95 1.73,26.93 -12.47,22.72 -1.7,-0.57 -3.08,-1.32 -4.45,-2.45 l -1.66,-1.39 -5.65,-4.62 -5.66,-4.59 -5.69,-4.56 -1.61,-1.27 0,0 z m -128.73,-89.22 c -12.59,-7.75 -4.92,-27.3 9.81,-24.14 1.41,0.35 2.67,0.83 3.9,1.58 l 4.52,2.73 6.39,3.91 6.35,3.94 5.41,3.4 c 11.93,7.63 5.2,26.24 -9.13,24.19 -1.81,-0.32 -3.41,-0.88 -4.98,-1.88 l -5.27,-3.31 -6.23,-3.87 -6.25,-3.82 -4.52,-2.73 0,0 z m -139.04,-71.87 c -13.04,-5.59 -9.11,-25.81 6.1,-25.27 1.6,0.12 2.99,0.45 4.48,1.09 l 0.08,0.04 6.91,3.04 6.89,3.09 6.86,3.13 3.62,1.68 c 13.27,6.38 7.93,26.16 -6.63,25.12 -1.6,-0.17 -3.07,-0.5 -4.54,-1.21 l -3.47,-1.61 -6.72,-3.06 -6.74,-3.02 -6.75,-2.98 -0.09,-0.04 0,0 z m -147.23,-53.3 c -12.62,-3.48 -12.94,-22.11 0.89,-25.57 2.36,-0.44 4.15,-0.42 6.48,0.22 l 0.65,0.19 7.34,2.16 7.31,2.2 7.3,2.25 2.99,0.93 c 13.32,4.13 11.91,24.15 -2.95,25.75 -1.77,0.12 -3.36,-0.06 -5.05,-0.59 l -2.83,-0.89 -7.14,-2.2 -7.16,-2.15 -7.18,-2.11 -0.65,-0.19 0,0 z m -152.94,-33.78 c -14.4,-2.4 -14.94,-22.89 -0.54,-25.98 1.6,-0.28 3.08,-0.36 4.69,-0.09 l 6.37,0.99 7.68,1.24 7.67,1.3 4.57,0.8 c 5.68,0.95 10.19,5.81 10.8,11.51 0.92,8.87 -6.67,15.94 -15.44,14.48 l -4.41,-0.77 -7.5,-1.27 -7.52,-1.22 -6.37,-0.99 0,0 z m -155.93,-13.81 c -6.38,-0.21 -11.6,-4.73 -12.68,-11.03 -1.41,-8.1 5.13,-15.64 13.35,-15.36 l 1.1,0.02 7.99,0.23 7.96,0.28 7.95,0.33 1.72,0.08 c 15.77,1.05 16.98,23.53 1.33,26.23 -0.94,0.13 -1.72,0.17 -2.67,0.14 l -1.55,-0.08 -7.78,-0.32 -7.8,-0.27 -7.81,-0.23 -1.11,-0.02 0,0 z m -156.5,6.11 c -14.3,1.43 -20.46,-18.07 -7.17,-24.97 1.52,-0.71 2.85,-1.13 4.51,-1.29 l 2.02,-0.21 7.83,-0.77 7.84,-0.73 7.86,-0.67 1.06,-0.08 c 4.97,-0.34 9.36,1.9 12.1,6 5.42,8.32 -0.2,19.65 -10.1,20.32 l -0.89,0.07 -7.69,0.66 -7.68,0.7 -7.67,0.76 -2.02,0.21 0,0 z m -154.43,26.1 c -12.92,3.12 -22.16,-13.3 -11.53,-22.91 1.73,-1.42 3.37,-2.28 5.59,-2.81 l 6.31,-1.48 7.53,-1.71 7.52,-1.66 4.63,-1 c 3.86,-0.79 7.73,0.1 10.84,2.5 8.85,6.84 5.56,21.07 -5.38,23.33 l -4.47,0.96 -7.37,1.63 -7.35,1.67 -6.32,1.48 0,0 z m -149.7,45.86 c -5.16,1.85 -10.73,0.55 -14.43,-3.54 -6.18,-7.15 -3.6,-17.74 5.2,-21.2 l 5.72,-2.15 7.12,-2.63 7.14,-2.59 5.03,-1.79 c 13.46,-4.81 24.24,12.75 12.79,22.63 -1.21,1 -2.51,1.73 -4.01,2.27 l -4.89,1.73 -6.99,2.54 -6.97,2.58 -5.71,2.15 0,0 z m -142.45,64.82 c -9.93,5.15 -21.16,-3.12 -19.19,-14.15 0.87,-3.92 3.11,-7.25 6.72,-9.12 l 0.26,-0.14 6.63,-3.52 6.65,-3.49 6.68,-3.44 3.47,-1.77 c 13.49,-6.5 25.62,10.28 15.36,21.04 -1.07,1.08 -2.13,1.84 -3.46,2.53 l -3.33,1.69 -6.54,3.38 -6.51,3.4 -6.49,3.45 -0.25,0.14 0,0 z m -133,82.71 c -13.2,8.97 -27.86,-8.09 -17.31,-19.75 0.66,-0.7 1.25,-1.19 2.01,-1.76 l 2.6,-1.86 6.09,-4.31 6.13,-4.27 6.15,-4.23 0.93,-0.64 c 3.49,-2.37 8.08,-2.93 12.03,-1.42 10.03,3.86 11.61,17.27 2.75,23.3 l -0.81,0.54 -6.02,4.15 -5.99,4.18 -5.96,4.22 -2.6,1.85 0,0 z m -121.3,99.1 c -6.11,5.55 -15.91,4.31 -20.21,-2.85 -3.22,-5.39 -2.34,-12.33 2.34,-16.58 l 4.94,-4.57 5.49,-5.02 5.52,-5 3.75,-3.34 c 11.76,-10.22 28.64,4.64 19.33,17.79 -0.58,0.74 -1.1,1.32 -1.81,1.96 l -3.62,3.23 -5.41,4.89 -5.38,4.92 -4.94,4.57 0,0 z m -107.571,113.74 c -8.945,10.83 -26.918,1.73 -22.711,-12.47 0.571,-1.7 1.317,-3.08 2.45,-4.45 l 1.941,-2.34 4.797,-5.71 4.828,-5.67 4.859,-5.65 0.868,-0.99 c 1.988,-2.28 4.894,-3.92 7.882,-4.34 12.247,-1.82 20.04,12.46 11.965,21.74 l -0.765,0.88 -4.754,5.53 -4.723,5.55 -4.691,5.58 -1.946,2.34 0,0 z m -92.175,126.63 c -7.914,12.37 -27.59,4.37 -23.844,-10.62 0.398,-1.34 0.875,-2.46 1.621,-3.63 l 3.437,-5.39 4.051,-6.28 4.09,-6.26 2.926,-4.41 c 8.332,-12.26 27.5,-3.78 23.687,10.89 -0.375,1.32 -0.961,2.63 -1.726,3.75 l -2.832,4.29 -4.004,6.12 -3.969,6.15 -3.437,5.39 0,0 z m -75.079,137.34 c -2.73,5.67 -8.687,8.62 -14.859,7.3 -8.125,-1.74 -12.68,-10.95 -9.066,-18.46 l 0.609,-1.32 3.215,-6.82 3.246,-6.79 3.285,-6.78 1.188,-2.4 c 1.238,-2.58 3.343,-4.59 5.863,-5.9 11.562,-5.56 23.277,6.22 17.777,17.65 l -1.113,2.26 -3.219,6.63 -3.179,6.65 -3.137,6.66 -0.61,1.32 0,0 z m -56.73,145.94 c -4.129,13.32 -24.148,11.92 -25.742,-2.94 -0.125,-1.77 0.058,-3.36 0.582,-5.05 l 0.723,-2.29 2.328,-7.26 2.379,-7.24 2.418,-7.22 0.472,-1.39 c 5.242,-14.67 27.231,-10.01 25.57,6.02 -0.117,0.87 -0.312,1.76 -0.613,2.6 l -0.422,1.23 -2.367,7.06 -2.324,7.09 -2.285,7.1 -0.719,2.29 0,0 z m -37.332,152.05 c -0.949,5.68 -5.813,10.18 -11.512,10.79 -8.871,0.92 -15.941,-6.66 -14.48,-15.44 l 0.176,-1.01 1.39,-7.63 1.438,-7.62 1.476,-7.6 0.485,-2.4 c 2.863,-13.84 22.718,-14.16 25.859,-0.03 0.34,1.89 0.387,3.42 0.008,5.32 l -0.457,2.23 -1.446,7.45 -1.402,7.45 -1.359,7.47 -0.176,1.02 0,0 z m -17.414,155.65 c -1.051,15.76 -23.535,16.99 -26.234,1.33 -0.125,-0.94 -0.161,-1.72 -0.133,-2.67 l 0.195,-4.14 0.43,-7.92 0.472,-7.92 0.446,-6.63 c 0.953,-14.22 21.105,-17.02 25.738,-3.13 0.504,1.7 0.719,3.17 0.602,4.97 l -0.434,6.47 -0.465,7.74 -0.422,7.76 -0.195,4.14 0,0 z m 2.531,156.59 c 0.332,4.98 -1.898,9.36 -6.012,12.1 -8.308,5.42 -19.652,-0.2 -20.312,-10.09 l -0.371,-4.73 -0.574,-7.88 -0.532,-7.9 -0.363,-6.08 c -0.41,-6.12 3.551,-11.52 9.313,-13.38 8.281,-2.45 16.468,3.28 17.043,11.88 l 0.359,5.91 0.512,7.73 0.558,7.72 0.379,4.72 0,0 z m 22.488,154.92 c 0.797,3.85 -0.097,7.73 -2.496,10.83 -6.839,8.85 -21.074,5.57 -23.332,-5.37 l -0.187,-0.88 -1.57,-7.57 -1.532,-7.58 -1.476,-7.6 -0.489,-2.58 c -0.273,-1.66 -0.308,-3.12 -0.015,-4.77 3.129,-14.61 23.144,-14.2 25.972,-0.04 l 0.457,2.42 1.446,7.44 1.496,7.42 1.543,7.4 0.183,0.88 0,0 z m 42.332,150.73 c 4.801,13.46 -12.753,24.23 -22.636,12.78 -0.996,-1.21 -1.731,-2.51 -2.262,-4.01 l -0.055,-0.15 -2.504,-7.18 -2.46,-7.2 -2.418,-7.22 -1.168,-3.55 c -1.528,-4.92 -0.243,-10.3 3.613,-13.79 6.89,-6.54 18.687,-3.42 21.5,5.64 l 1.113,3.39 2.367,7.07 2.41,7.04 2.45,7.03 0.05,0.15 0,0 z m 61.516,143.99 c 6.5,13.49 -10.273,25.62 -21.039,15.36 -1.074,-1.07 -1.836,-2.13 -2.527,-3.46 l -0.696,-1.37 -3.371,-6.73 -3.328,-6.75 -3.285,-6.76 -1.129,-2.36 c -6.047,-12.57 9.492,-25.13 20.774,-15.46 1.367,1.3 2.273,2.46 3.078,4.14 l 1.058,2.21 3.219,6.63 3.254,6.6 3.301,6.59 0.691,1.36 0,0 z m 79.602,134.88 c 2.371,3.49 2.933,8.08 1.422,12.03 -3.86,10.03 -17.266,11.61 -23.297,2.75 l -2.387,-3.52 -4.168,-6.21 -4.129,-6.23 -4.074,-6.22 c -3.344,-5.22 -2.703,-11.87 1.562,-16.35 5.817,-6.11 16.039,-5.12 20.578,1.97 l 3.989,6.09 4.039,6.1 4.078,6.07 2.387,3.52 0,0 z m 96.211,123.49 c 3.265,3.75 4.16,8.59 2.539,13.27 -3.496,9.44 -15.52,11.69 -22.282,4.25 l -0.222,-0.24 -4.93,-5.59 -4.891,-5.61 -4.859,-5.65 -2.617,-3.07 c -9,-10.9 2.738,-26.45 15.906,-20.38 1.738,0.91 2.942,1.82 4.254,3.33 l 2.512,2.95 4.754,5.53 4.793,5.49 4.824,5.47 0.219,0.25 0,0 z m 111.291,110.23 c 2.28,1.98 3.91,4.89 4.33,7.88 1.82,12.24 -12.46,20.04 -21.74,11.97 l -3.03,-2.65 -5.59,-4.92 -5.56,-4.96 -5.52,-4.99 -0.25,-0.24 c -10.18,-9.25 -0.85,-26.38 12.85,-22.32 1.97,0.66 3.48,1.5 5.02,2.89 l 0.14,0.13 5.41,4.89 5.44,4.85 5.46,4.83 3.04,2.64 0,0 z m 124.4,95.04 c 12.26,8.33 3.79,27.49 -10.9,23.69 -1.32,-0.38 -2.62,-0.97 -3.75,-1.73 l -0.07,-0.05 -6.21,-4.16 -6.17,-4.2 -6.16,-4.24 -3.45,-2.42 c -3.02,-2.05 -5.13,-5.63 -5.52,-9.23 -1.23,-11.43 11.2,-18.83 20.69,-12.37 l 3.33,2.32 6.02,4.15 6.04,4.11 6.07,4.08 0.08,0.05 0,0 z m 135.63,78.29 c 11.83,5.69 8.75,24.01 -5.24,25.01 -2.38,0.08 -4.37,-0.34 -6.51,-1.37 l -2.47,-1.22 -6.73,-3.36 -6.7,-3.41 -6.68,-3.44 -1.25,-0.66 c -12.37,-6.42 -7.46,-25.88 7.46,-24.82 1.76,0.19 3.29,0.65 4.86,1.47 l 1.11,0.58 6.54,3.37 6.56,3.34 6.58,3.29 2.47,1.22 0,0 z m 144.59,60.12 c 14.72,5.26 9.93,27.28 -6.02,25.57 -0.87,-0.12 -1.76,-0.32 -2.6,-0.61 l -3.84,-1.32 -7.17,-2.5 -7.16,-2.55 -6.95,-2.52 c -12.91,-4.61 -10.95,-24.06 3.42,-25.55 2.02,-0.15 3.75,0.07 5.66,0.76 l 6.79,2.47 7.01,2.49 7.02,2.45 3.84,1.31 0,0 z m 151.12,40.87 c 14.08,2.91 14.13,23.35 -0.61,25.98 -1.61,0.24 -3.08,0.21 -4.68,-0.11 l -3.13,-0.63 -7.57,-1.58 -7.55,-1.62 -7.52,-1.66 -0.37,-0.08 c -15.17,-3.67 -12.78,-26.06 3.28,-26.06 0.9,0.03 1.8,0.13 2.66,0.33 l 0.2,0.05 7.37,1.63 7.4,1.59 7.4,1.54 3.12,0.62 0,0 z m 155.21,21.02 c 13.47,0.9 17.18,19.8 3.8,25.46 -1.97,0.73 -3.69,1 -5.8,0.86 l -6.98,-0.51 -7.87,-0.61 -7.86,-0.68 -3.85,-0.36 c -15.36,-1.53 -16.27,-24.04 -0.18,-26.27 0.88,-0.09 1.8,-0.1 2.68,-0.01 l 3.69,0.34 7.69,0.66 7.71,0.61 6.97,0.51 0,0 z m 1135.84,-599.3 -2.85,4.86 -3.72,6.26 6.57,-11.25 0,0.13 z m 0,30.25 0,-15.13 -6.57,-4 -0.03,0.04 c -0.74,1.22 -1.21,2.46 -1.56,3.86 -1.6,7.45 2.61,13.09 8.16,15.23 l 0,0 z m -1049.33,598.49 c -14.54,0 -18.49,-20.44 -4.39,-25.66 1.47,-0.49 2.83,-0.74 4.39,-0.74 l 7.86,-0.03 7.84,-0.07 7.84,-0.13 2.61,-0.06 c 16.13,0 18.46,22.91 2.66,26.18 -0.74,0.14 -1.41,0.2 -2.17,0.22 l -2.6,0.06 -8,0.13 -8.02,0.07 -8.02,0.03 0,0 z m 1055.92,-640.13 c 7.3,-12.66 27.06,-5.78 24.39,9.14 -0.31,1.45 -0.77,2.73 -1.51,4.01 l -22.88,-13.15 z m 68.64,-140.75 c 5.52,-12.88 24.41,-9.64 25.36,4.27 0.08,2.21 -0.17,3.79 -0.98,5.86 l -2.35,5.69 -2.93,6.98 -2.96,6.95 -2.14,4.92 c -5.58,13.04 -25.81,9.11 -25.27,-6.1 0.12,-1.59 0.45,-3 1.09,-4.48 l 2.07,-4.78 2.9,-6.8 2.86,-6.82 2.35,-5.69 0,0 z m 49.84,-148.43 c 3.93,-14.24 24.85,-12.35 25.92,2.71 0.05,1.47 -0.05,2.77 -0.44,4.19 l -1.66,6.22 -2.03,7.38 -2.07,7.38 -1.35,4.69 c -3.49,12.63 -22.12,12.94 -25.58,-0.88 -0.43,-2.36 -0.41,-4.15 0.23,-6.48 l 1.31,-4.55 2.02,-7.21 1.98,-7.23 1.67,-6.22 0,0 z m 30.18,-153.61 c 1.93,-14.4 22.83,-15.76 26.08,-0.64 0.24,1.39 0.28,2.73 0.09,4.13 l -0.52,4.03 -1.06,7.75 -1.11,7.73 -1.03,6.88 c -1.92,11.57 -16.41,15.24 -23.59,5.95 -2.21,-2.85 -2.98,-6.38 -2.5,-9.94 l 1.01,-6.72 1.07,-7.56 1.04,-7.58 0.52,-4.03 0,0 z m 10.23,-156.29 c 0,-3.84 1.67,-7.28 4.5,-9.85 8.67,-7.43 21.89,-1.37 21.89,10.02 l -0.02,5.84 -0.07,8.02 -0.13,8 -0.1,4.79 c -0.22,6.38 -4.73,11.6 -11.03,12.69 -8.1,1.4 -15.64,-5.14 -15.37,-13.36 l 0.11,-4.62 0.12,-7.84 0.08,-7.84 0.02,-5.85 0,0 z m -9.7,-156.32 c -1.76,-13.13 15.55,-20.47 23.82,-9.28 1.34,1.93 2.07,3.77 2.39,6.12 l 0.88,7.17 0.92,7.79 0.87,7.8 0.39,3.72 c 1.42,14.3 -18.08,20.45 -24.98,7.17 -0.7,-1.52 -1.13,-2.85 -1.29,-4.51 l -0.37,-3.55 -0.85,-7.63 -0.9,-7.62 -0.88,-7.18 0,0 z m -29.69,-153.7 c -3.62,-14.99 16.71,-23.29 24.5,-9.38 0.47,0.95 0.79,1.77 1.07,2.8 l 1.14,4.4 1.9,7.45 1.84,7.46 1.57,6.54 c 3.33,13.77 -14.87,22.51 -23.53,10.79 -1.04,-1.49 -1.71,-2.89 -2.14,-4.69 l -1.55,-6.38 -1.8,-7.31 -1.85,-7.28 -1.15,-4.4 0,0 z m -49.34,-148.59 c -5.35,-13.61 12.07,-24.8 22.28,-13.51 0.93,1.15 1.67,2.28 2.22,3.67 l 1.73,4.28 2.8,7.03 2.76,7.07 2.46,6.42 c 4.88,12.41 -10.31,23.8 -21.19,14.48 -1.6,-1.45 -2.7,-3.11 -3.48,-5.1 l -2.41,-6.27 -2.7,-6.91 -2.73,-6.88 -1.74,-4.28 0,0 z m -68.16,-140.98 c -1.46,-2.54 -1.88,-5.3 -1.57,-8.18 1.8,-12.56 18.23,-15.75 24.6,-4.7 l 3.2,5.68 3.65,6.55 3.59,6.58 2.44,4.51 c 5.14,9.93 -3.12,21.16 -14.16,19.19 -3.92,-0.87 -7.24,-3.11 -9.12,-6.73 l -2.35,-4.36 -3.53,-6.44 -3.56,-6.42 -3.19,-5.68 0,0 z m -8.59,1225.18 0,15.13 c 5.44,2.08 12.15,0.81 15.99,-5.42 l 0.05,-0.1 3.84,-6.43 3.79,-6.46 3.76,-6.49 2.04,-3.59 -13.48,23.07 -15.99,-9.71 0,0 z m 0,-15.25 0,0.13 0.86,-1.46 3.68,-6.35 2.05,-3.58 -6.59,11.26 0,0"
         style="fill:#fcd7dc;fill-opacity:1;fill-rule:nonzero;stroke:none"
         id="path74"
         inkscape:connector-curvature="0" /><path
         d="m 1690.4332,2680.4735 -29.8558,55.9339 118.0141,63.0059 29.8975,-55.9423 c 35.3767,11.2335 72.6549,17.1463 110.6252,17.1129 l 0,-95.8306 c -116.0459,0.042 -223.3853,-75.1651 -258.8787,-191.9449 -43.4662,-142.983 37.203,-294.1137 180.1693,-337.5799 l 0,0 c 26.2031,-7.9643 52.6814,-11.7422 78.7094,-11.7505 l 0,-95.8474 c -13.5269,0.01 -27.1455,0.7589 -40.7891,2.3101 l -18.4556,-60.6958 -128.005,38.9127 18.4473,60.7041 c -46.4434,24.0265 -86.1484,57.1849 -117.5471,96.5646 l -55.9756,-29.8475 -62.9809,118.0307 55.9423,29.8726 c -15.2449,47.9862 -20.674,99.4417 -14.8029,151.4143 l -60.6958,18.4473 38.9211,128.0216 60.6958,-18.4472 c 24.0265,46.4267 57.1848,86.1483 96.5645,117.5554 z m 228.681,80.1104 c 13.5269,-0.01 27.1372,-0.7672 40.7725,-2.31 l 18.4556,60.6875 128.0133,-38.9128 -18.4556,-60.6958 c 46.4267,-24.0181 86.165,-57.1932 117.5721,-96.5645 l 55.9339,29.8475 63.0059,-118.0308 -55.9423,-29.8559 c 15.2282,-48.0029 20.674,-99.4584 14.8112,-151.4309 l 60.6708,-18.4473 -38.9127,-128.005 -60.6791,18.4473 c -24.0515,-46.4434 -57.2099,-86.1651 -96.5729,-117.5721 l 29.8475,-55.9506 -118.0391,-62.9892 -29.8559,55.9339 c -35.385,-11.2251 -72.6715,-17.1379 -110.6252,-17.1046 l 0,95.8474 c 116.046,-0.042 223.3853,75.1567 258.8871,191.9282 43.4662,142.9913 -37.2197,294.1304 -180.1943,337.5882 -26.1865,7.9643 -52.6565,11.7422 -78.6928,11.7589 l 0,95.8306"
         style="fill:#f9a50d;fill-opacity:1;fill-rule:nonzero;stroke:none"
         id="path470"
         inkscape:connector-curvature="0" /><path
         d="m 2635.1131,1881.8039 -28.4215,-2.4853 -3.7945,43.191 c -29.1637,3.7862 -57.6185,12.7596 -83.6632,26.4199 l -27.9044,-33.2167 -82.212,68.9854 27.8794,33.2334 c -18.1304,23.4427 -31.724,49.5791 -40.5306,77.8671 l -43.1993,-3.7945 -9.3487,106.9391 43.1826,3.7612 c 3.8028,29.3971 12.6845,57.46 26.4366,83.7131 l -33.2168,27.8878 68.9771,82.212 33.2251,-27.8793 c 23.451,18.1053 49.6041,31.7072 77.8588,40.5222 l -3.7779,43.1993 78.5093,6.8635 0,-121.0497 c -48.7451,0.01 -95.9641,-21.2744 -128.3803,-59.9036 -59.4115,-70.8118 -50.1462,-176.7417 20.6323,-236.1449 17.4632,-14.6527 37.2865,-25.4275 58.9028,-31.9992 16.1205,-4.9037 32.5746,-7.2805 48.8452,-7.2805 l 0,-121.0413 z m 221.6006,172.7971 33.2168,-27.8711 -69.0355,-82.2204 -33.2001,27.8961 c -23.4593,-18.122 -49.5624,-31.7406 -77.8337,-40.5556 l 3.7528,-43.1826 -78.5009,-6.8635 0,121.0413 c 48.7451,-0.017 95.9558,21.2744 128.4053,59.9203 59.3781,70.8034 50.1461,176.7084 -20.649,236.1282 l 0,0 c -17.4882,14.6611 -37.3115,25.4359 -58.8944,31.9909 -16.1289,4.9037 -32.583,7.2804 -48.8619,7.2888 l 0,121.0497 28.4131,2.4769 3.7695,-43.1826 c 29.172,-3.7862 57.6519,-12.7597 83.7299,-26.4366 l 27.871,33.225 82.2371,-68.9854 -27.8794,-33.2334 c 18.1054,-23.4594 31.7156,-49.5708 40.514,-77.8671 l 43.2076,3.7945 9.3487,-106.9391 -43.2326,-3.7444 c -3.7529,-29.3972 -12.6262,-57.4851 -26.3783,-83.7299"
         style="fill:#badaf3;fill-opacity:1;fill-rule:nonzero;stroke:none"
         id="path472"
         inkscape:connector-curvature="0" /><path
         d="m 298.79099,2178.8364 c -1.87642,-9.0234 -3.50265,-18.1387 -4.87034,-27.3456 -1.44276,-9.1819 -2.63533,-18.464 -3.56937,-27.7877 -1.89309,-18.6557 -2.83547,-37.6033 -2.83547,-56.7762 0,-19.1561 0.94238,-38.1037 2.83547,-56.7761 0.93404,-9.3321 2.12661,-18.6058 3.56937,-27.7877 1.36769,-9.1986 2.99392,-18.3055 4.87034,-27.3456 1.84306,-9.0402 3.90295,-17.997 6.17966,-26.862 4.57012,-17.7384 9.99922,-35.1348 16.21224,-52.1644 3.12736,-8.498 6.42986,-16.8877 9.96586,-25.2107 3.48597,-8.2896 7.20544,-16.5124 11.11673,-24.6102 1.93479,-4.028 3.9363,-8.0478 5.95449,-12.0424 4.1031,-7.9894 8.38133,-15.8453 12.83469,-23.6095 13.38511,-23.2509 28.37976,-45.4427 44.85887,-66.4335 8.25623,-10.4829 16.87107,-20.6573 25.84451,-30.5231 5.95449,-6.5883 12.11748,-13.0098 18.3722,-19.2895 6.29642,-6.2714 12.72627,-12.401 19.28956,-18.3889 29.57233,-26.8953 62.05518,-50.6299 96.97321,-70.67 7.74752,-4.4701 15.62013,-8.7566 23.59281,-12.843 15.95371,-8.1645 32.37444,-15.5868 49.1788,-22.2335 8.40634,-3.3192 16.89608,-6.4298 25.5276,-9.3237 55.90887,-18.9226 115.78741,-29.1887 178.05942,-29.1887 42.50709,0 83.87165,4.7786 123.56829,13.8188 18.58069,4.2031 36.79447,9.332 54.56617,15.3365 8.5898,2.9273 17.0796,6.0379 25.5193,9.3571 16.8043,6.63 33.2334,14.0439 49.1871,22.2335 7.9643,4.0864 15.837,8.3729 23.5845,12.818 34.8846,20.0568 67.3675,43.7997 96.9899,70.695 6.5799,5.9712 13.0181,12.1175 19.2645,18.3805 6.2714,6.2881 12.4261,12.7096 18.3889,19.2813 8.9651,9.8658 17.5549,20.0401 25.8028,30.5397 13.0515,16.6042 25.1523,33.9506 36.2357,52.0143 2.9272,4.7619 5.8377,9.5655 8.6565,14.4192 4.4701,7.7642 8.74,15.6201 12.8014,23.6011 2.0599,4.003 4.053,8.0061 6.0295,12.0508 3.8696,8.0894 7.5891,16.2956 11.1167,24.6102 3.5027,8.298 6.8135,16.7043 9.9325,25.2107 6.2131,17.0296 11.6505,34.426 16.1706,52.1644 2.3184,8.865 4.3783,17.8218 6.2214,26.8536 1.8513,9.0485 3.4692,18.1554 4.9037,27.354 1.376,9.1819 2.5602,18.4473 3.5276,27.771 1.8764,18.6724 2.8522,37.62 2.8522,56.7928 0,19.1562 -0.9758,38.1038 -2.8522,56.7762 -0.9674,9.3071 -2.1349,18.6058 -3.5276,27.7877 -1.4345,9.2069 -3.0524,18.3222 -4.9037,27.3456 -1.8431,9.0319 -3.903,17.997 -6.2214,26.8536 -4.5201,17.7468 -9.9575,35.1599 -16.1706,52.1728 -1.5511,4.2448 -3.1607,8.473 -4.8369,12.6762 -4.9705,12.6012 -10.3662,24.9855 -16.2456,37.128 -1.9432,4.0364 -3.9697,8.0644 -5.9962,12.0508 -4.1031,7.981 -8.373,15.8536 -12.8014,23.5928 -13.3684,23.2676 -28.3964,45.4593 -44.8922,66.4418 -8.2479,10.4829 -16.8627,20.6823 -25.8028,30.5397 -5.9962,6.5717 -12.1175,13.0015 -18.3889,19.2896 -6.2797,6.2798 -12.7179,12.4094 -19.2645,18.3889 -12.7597,11.5587 -26.028,22.5587 -39.7967,32.9165 -18.2055,13.7104 -37.3199,26.3366 -57.1932,37.7785 -7.7475,4.4367 -15.6202,8.7233 -23.5845,12.818 -3.6444,1.8431 -7.2972,3.6778 -10.9916,5.4375 -4.42,2.1266 -8.8317,4.2282 -13.3017,6.238 -1.8765,0.8423 -3.7529,1.6429 -5.6209,2.4936 -6.3799,2.7937 -12.7764,5.4874 -19.2729,8.0394 -0.1084,0.05 -0.1835,0.075 -0.2836,0.1334 -6.9302,2.702 -13.9355,5.2456 -20.9575,7.7058 -1.4344,0.5087 -2.8521,1.0258 -4.3115,1.5178 -16.4208,5.5626 -33.2001,10.3495 -50.32136,14.3776 -5.32902,1.2676 -10.68306,2.4518 -16.0788,3.5693 -3.91129,0.7923 -7.81424,1.5262 -11.73386,2.235 -29.1887,5.3207 -59.19469,8.3146 -89.80947,8.8734 -3.36921,0.05 -6.7551,0.1168 -10.15767,0.1168 -5.746,0 -11.45031,-0.1168 -17.17963,-0.3003 -56.11737,-1.7096 -110.14983,-11.7088 -160.90481,-28.8884 -8.6065,-2.9106 -17.12126,-6.0213 -25.50258,-9.3488 -2.56861,-1.0174 -5.17891,-2.0932 -7.7642,-3.144 -5.75434,-2.3768 -11.50035,-4.8203 -17.15462,-7.3806 -8.21453,-3.7028 -16.27061,-7.5974 -24.29334,-11.7088 -7.97268,-4.0781 -15.83695,-8.3563 -23.57613,-12.8097 -31.19021,-17.9385 -60.47899,-38.8126 -87.46603,-62.247 -3.19408,-2.7854 -6.37148,-5.5875 -9.4905,-8.423 -6.5883,-5.9962 -13.00982,-12.1258 -19.31458,-18.4056 -6.27974,-6.2714 -12.42605,-12.7096 -18.36386,-19.2729 -8.95676,-9.8574 -17.5716,-20.0568 -25.82783,-30.5397 -16.47911,-20.9825 -31.47376,-43.1826 -44.87555,-66.4418 -4.47838,-7.7392 -8.71491,-15.6368 -12.81801,-23.5928 -2.05989,-3.9864 -4.03638,-8.0144 -5.99619,-12.0508 -5.83774,-12.1425 -11.23348,-24.5268 -16.22892,-37.1447 -1.65125,-4.1865 -3.28581,-8.4313 -4.81197,-12.6762 -6.23804,-17.0129 -11.6588,-34.4093 -16.22058,-52.1727 -2.26837,-8.8234 -4.32826,-17.8051 -6.17132,-26.837"
         style="fill:#5284bf;fill-opacity:1;fill-rule:nonzero;stroke:none"
         id="path474"
         inkscape:connector-curvature="0" /><path
         d="m 377.46705,1822.4257 0,-56.7845 c -1.63457,2.21 -3.02728,4.3783 -4.0614,6.4465 -7.82257,15.6118 -9.30702,42.5988 4.0614,50.338 z m 0,88.8004 c -8.39801,1.9348 -17.02952,9.5405 -22.85892,19.2478 -8.04775,13.4268 5.37906,28.188 -14.76115,28.188 -20.13186,0 -6.00453,45.0006 -6.00453,58.4191 0,12.7346 -27.22889,-10.2161 -41.48132,-24.0598 0.4837,-3.5611 1.00076,-7.1221 1.55952,-10.6581 1.36769,-9.1986 2.99392,-18.3055 4.87034,-27.3456 0.67551,-3.3359 1.38438,-6.6467 2.1266,-9.9576 7.35556,-4.3032 14.8779,-7.8726 24.15991,-7.8726 22.81723,0 24.15991,-30.8733 30.87331,-41.6064 3.15238,-5.0454 12.22589,-5.354 21.51624,-5.3707 l 0,21.0159 z m 0,113.0103 0,-13.8688 c -12.35933,3.7695 -18.93096,16.1705 -4.11978,14.3191 1.42608,0 2.81046,-0.1584 4.11978,-0.4503 l 0,0 z m -78.67606,154.6 c -1.87642,-9.0234 -3.50265,-18.1387 -4.87034,-27.3456 -1.44276,-9.1819 -2.63533,-18.464 -3.56937,-27.7877 -1.53449,-15.0697 -2.43517,-30.3312 -2.72705,-45.7512 6.46321,-0.3752 12.9431,-0.7839 18.66409,1.5179 13.4268,5.3623 38.92938,12.0757 55.03321,-9.3988 7.16374,-9.5489 12.46774,-15.3866 16.14552,-17.2714 l 0,249.0047 c -4.1448,6.3965 -8.08944,17.313 -8.08944,23.3009 0,5.0455 -4.47004,8.9234 -11.62544,12.4177 -3.28582,-5.8711 -6.44654,-11.8173 -9.5322,-17.8051 -2.05989,-3.9864 -4.03638,-8.0144 -5.99619,-12.0508 -5.83774,-12.1425 -11.23348,-24.5268 -16.22892,-37.1447 -1.65125,-4.1865 -3.28581,-8.4313 -4.81197,-12.6762 -6.23804,-17.0129 -11.6588,-34.4093 -16.22058,-52.1727 -2.26837,-8.8234 -4.32826,-17.8051 -6.17132,-26.837 l 0,0 z m 78.67606,-168.4688 0,13.8688 c 12.13416,-2.6437 18.70579,-16.0872 4.91204,-14.8362 -1.70128,0.1584 -3.35253,0.492 -4.91204,0.9674 z m 34.10074,-98.6995 0,-194.647 -0.66717,0.8256 c 0.05,1.5512 0.0917,3.0774 0.0917,4.5785 0,10.533 -22.42526,28.188 -33.52531,43.216 l 0,56.7845 c 0.42532,0.2502 0.85898,0.467 1.30098,0.6672 14.76949,6.7134 8.05608,26.8452 22.82557,30.8733 14.76114,4.028 5.36238,20.1402 0,30.8733 -2.85216,5.696 -13.62696,5.3457 -24.12655,5.3707 l 0,21.0159 c 3.21076,-0.7423 6.38816,-0.6505 9.35706,0.4586 6.49658,2.4269 15.9287,0.4504 24.74368,-0.017 l 0,0 z m 0,95.9307 0,-10.7831 c -10.93325,2.4268 -17.5299,11.1918 -5.55419,11.1918 1.92646,0.1 3.79453,-0.067 5.55419,-0.4087 l 0,0 z m 0,36.9112 0,-14.8862 c -6.1046,-0.9341 -10.89155,-4.9371 -15.97873,-2.16 -7.64744,4.1782 -5.55419,17.3715 6.93858,19.4564 3.14404,0 6.20468,-0.9341 9.04015,-2.4102 l 0,0 z m -34.10074,8.2896 c 4.60348,-2.3434 6.6717,1.4595 6.6717,11.9007 0,18.7975 -5.37072,29.5306 1.34268,40.2637 4.61182,7.3806 18.10534,13.4935 26.08636,20.5155 l 0,291.3449 c -1.89309,-2.3517 -3.78619,-4.7035 -5.65426,-7.072 -4.11978,-5.2456 -8.13948,-10.5663 -12.07579,-15.9537 0.55876,-4.7202 1.46778,-9.3987 2.3768,-13.6686 4.03638,-18.7892 13.43514,-32.216 2.6937,-32.216 -10.74145,0 -10.74145,-16.1122 -12.08413,-41.6064 -0.67551,-12.8848 -5.12053,-11.0417 -9.35706,-4.5034 l 0,-249.0047 z m 34.10074,-23.1758 0,14.8862 c 12.20088,-6.3548 20.01511,-22.6921 10.42454,-17.0462 -3.95298,2.3184 -7.35555,2.6353 -10.42454,2.16 z m 0,-32.8081 0,10.7831 c 10.9416,-2.1266 17.53824,-11.4002 5.56254,-11.4002 -1.92646,0 -3.80287,0.2251 -5.56254,0.6171 l 0,0 z m 45.73453,-80.5358 0,-249.038 c -1.44275,1.3927 -2.87717,2.7938 -4.31159,4.2032 -5.90445,7.072 -12.65955,16.2872 -20.24862,21.0242 l -0.98407,1.0924 c -6.94691,7.6308 -13.677,15.4534 -20.19025,23.4594 l 0,194.647 c 5.77103,-0.3003 11.28352,0.042 15.52005,2.702 10.74145,6.7051 21.48289,20.1319 26.85361,6.7051 0.79227,-1.9849 1.94313,-3.5527 3.36087,-4.7953 l 0,0 z m 0,74.8899 0,-18.4056 c -11.10005,1.8347 -21.24937,16.6876 0,18.4056 l 0,0 z m 0,475.4506 0,-33.2585 c -8.42302,2.7438 -17.22967,5.329 -25.34413,7.1721 5.8711,6.4799 11.95069,12.8347 18.14703,19.031 2.38514,2.3768 4.77861,4.7203 7.1971,7.0554 l 0,0 z m -45.73453,-341.1409 c 3.63608,3.1941 6.12963,6.58 6.12963,10.3578 0,12.0925 8.05608,45.6428 22.81723,45.6428 8.91506,0 12.9431,5.8628 16.78767,12.5845 l 0,219.5741 c -10.43288,7.464 -24.3684,13.9355 -35.9438,14.8946 -3.31917,-3.8613 -6.57997,-7.7642 -9.79073,-11.7089 l 0,-291.3449 z m 45.73453,-152.7153 0,18.4056 c 1.31766,0.1 2.74374,0.1584 4.30325,0.1584 11.80891,0.6922 10.42454,-18.7558 -2.08491,-18.7558 -0.74222,0 -1.47611,0.067 -2.21834,0.1918 z m 21.633,-60.6374 0,-264.7166 c -3.20242,2.7855 -6.37148,5.6126 -9.51552,8.4731 -4.09476,3.7278 -8.13114,7.514 -12.11748,11.3586 l 0,249.038 c 4.97042,-4.345 13.30171,-4.6202 21.633,-4.1531 l 0,0 z m 0,574.2918 0,-60.6374 c -6.33812,2.3601 -13.82711,5.0455 -21.633,7.5807 l 0,33.2585 c 3.98634,3.8362 8.01438,7.614 12.11748,11.3502 3.11902,2.8355 6.29642,5.6376 9.4905,8.423 l 0.025,0.025 0,0 z m -21.633,-292.354 c 2.53525,4.4117 4.99544,9.1903 8.71491,12.9181 3.51099,3.5026 7.95601,5.7043 12.91809,8.0644 l 0,165.6084 c -4.13646,2.4768 -6.21302,7.5306 -6.21302,14.2357 0,5.0788 -6.3965,12.2843 -15.41998,18.7475 l 0,-219.5741 z m 47.35242,-280.6452 0,-287.025 c -8.78997,6.7551 -17.35477,13.7687 -25.71942,21.0158 l 0,264.7166 c 5.39574,0.2918 10.78314,0.9006 15.26986,0.9006 3.18574,0 6.6717,0.2252 10.44956,0.392 z m 0,61.4547 0,-3.536 c -1.17589,-0.6505 -3.38589,-1.0091 -6.91356,-0.859 -15.98707,0.6922 -26.4116,10.4246 -6.24638,9.0402 5.45412,0 10.90824,-2.3434 13.15994,-4.6452 l 0,0 z m 0,248.4543 0,-12.8431 c -6.99695,1.4678 -10.17435,11.1084 -1.91812,12.4844 0.67551,0.2085 1.31766,0.3253 1.91812,0.3587 l 0,0 z m 0,275.5913 0,-28.3881 c -12.07579,0.2669 -17.47153,-6.5883 -3.7445,-19.2562 1.4511,-1.3426 2.68536,-2.702 3.7445,-4.078 l 0,-24.8855 c -3.11903,-2.6854 -7.38892,-3.6861 -11.79224,-1.9181 -3.22744,1.301 -8.08944,3.2024 -13.92718,5.3874 l 0,60.6374 c 6.61333,5.7544 13.37676,11.3419 20.2653,16.771 1.49279,-1.7513 3.26913,-3.2107 5.45412,-4.2699 l 0,0 z m -25.71942,-283.8726 c 7.83925,3.7278 16.95447,7.8393 25.71942,18.122 l 0,28.655 c -6.21303,7.2972 -15.86198,12.2676 -22.53368,12.2676 -10.36616,0 8.89838,10.4078 22.53368,12.0591 l 0,109.466 c -6.84684,-2.6937 -0.85065,-12.2009 -11.79224,-15.4867 -5.96283,-1.7931 -10.60801,-1.4595 -13.92718,0.5254 l 0,-165.6084 z m 25.71942,207.2648 0,24.8855 c 7.514,-9.7574 5.59589,-20.0652 0,-24.8855 z m 0,-211.8266 c 0.58377,-0.1167 1.18422,-0.1834 1.8097,-0.1834 7.62242,0 6.21302,13.5352 -1.8097,13.0265 l 0,-12.8431 z m 0,-239.1472 0,3.536 c 1.31766,-1.3677 1.54283,-2.702 0,-3.536 l 0,0 z m 17.46318,-58.3607 0,-299.4678 c -5.90446,4.1782 -11.72552,8.4815 -17.46318,12.8848 l 0,287.025 c 5.27898,0.2335 11.11672,0.3419 17.46318,-0.442 l 0,0 z m 0,321.4093 0,-17.3214 c -9.43212,1.9681 -13.73537,14.9696 -2.59363,16.8294 0.91736,0.2835 1.77635,0.4336 2.59363,0.492 l 0,0 z m 0,250.7143 0,-16.771 c -1.58453,-0.4587 -3.71948,-0.3836 -6.43819,0.3836 -4.00303,1.1509 -7.75586,1.743 -11.02499,1.818 l 0,28.3881 c 0.52539,-0.2418 1.06747,-0.467 1.63456,-0.6755 6.81348,-2.4351 12.38435,-7.6891 15.82862,-13.1432 l 0,0 z m -17.46318,-198.9502 c 4.0197,0.4753 7.54736,0.2001 9.68231,-1.3177 3.27747,-2.3518 5.73766,-4.8536 7.78087,-6.7217 l 0,111.1923 c -2.44351,3.9029 -5.70431,6.5716 -10.4579,6.9385 -3.23577,0.2419 -5.44577,-0.017 -7.00528,-0.6254 l 0,-109.466 z m 0,-52.9817 c 0.55041,0.6422 1.09249,1.3093 1.63456,1.9932 7.43061,9.4655 4.65352,19.2562 -1.63456,26.6618 l 0,-28.655 z m 17.46318,235.1609 0,16.771 c 4.68687,-7.414 5.43744,-15.2032 0,-16.771 z m 0,-251.2647 0,17.3214 c 10.83318,0.6839 12.72627,-17.5799 2.44351,-17.5799 -0.85064,0 -1.65959,0.092 -2.44351,0.2585 l 0,0 z m 45.7929,-325.7209 0,-307.0151 -1.51781,0.884 c -15.24484,8.7399 -30.00599,18.1971 -44.27509,28.2963 l 0,299.4678 c 8.22287,-1.0258 17.29639,-3.5694 27.12047,-9.3487 6.53827,-3.8446 12.73462,-8.1312 18.67243,-12.2843 l 0,0 z m 0,398.0922 0,-39.2213 c -9.94917,4.3867 -13.87714,8.3146 -8.16449,21.8832 7.35555,17.4548 -0.40865,18.122 8.16449,17.3381 l 0,0 z m -45.7929,-11.3252 c 3.81121,-3.486 6.17132,-4.762 9.66563,1.351 5.14555,8.9985 15.21982,15.5367 36.12727,16.0705 l 0,21.2493 c -2.97724,4.2116 -5.10385,8.2062 -3.91128,11 4.03638,9.3988 -16.10383,13.4185 -26.83693,24.1516 -7.81423,7.8142 -8.53144,26.9787 -15.04469,37.3699 l 0,-111.1923 z m 45.7929,-27.8961 0,39.2213 c 0.81729,-0.075 1.768,-0.1585 2.89385,-0.2419 21.10761,1.0008 24.11821,-15.0947 30.16444,-28.1545 6.02956,-13.0599 2.00151,-26.1364 -18.10533,-17.0879 -5.82106,2.6186 -10.89156,4.4783 -14.95296,6.263 z m 0,-665.886 0,307.0151 c 14.80285,-10.3578 27.93776,-19.9317 40.38883,-19.9317 17.4465,0 14.7528,-17.4465 14.7528,-34.893 0,-17.4549 22.82557,-17.4549 46.98547,-25.511 24.16825,-8.0477 34.90135,-6.705 59.06126,-21.4745 24.16824,-14.7611 29.52228,-22.8089 17.4465,-40.2554 -12.07578,-17.4548 -37.57837,-44.3084 -38.92105,-69.8027 -1.34268,-25.5109 -17.4465,-49.6625 -34.89301,-52.3478 -17.45484,-2.6854 -33.567,-16.1039 -33.567,-28.1963 0,-12.0758 -16.11217,-6.7051 -17.44651,-29.5223 -0.21683,-3.6945 -0.9257,-7.4556 -2.00151,-11.1668 -10.07427,4.4367 -19.99009,9.1403 -29.73078,14.1274 -7.45563,3.8195 -14.81118,7.8058 -22.075,11.959 l 0,0 z m 284.68993,895.1841 c -10.69975,-3.3191 -17.16296,-23.5761 0,-38.0203 l 0,38.0203 z m 0,142.5993 0,-18.6891 c -7.3639,-10.0159 -7.11371,-16.5958 -22.82557,-16.5958 -18.78918,0 22.80889,-29.5223 1.33434,-29.5223 -21.47454,0 -28.18795,-26.8453 -6.7134,-24.1599 21.47454,2.6853 20.1402,-6.7134 -2.67702,-17.4465 -22.82557,-10.7415 -59.05292,-10.7415 -69.79436,-28.188 -10.74144,-17.4548 -51.01351,-16.1038 -51.01351,-32.216 0,-16.1121 -6.70506,-75.165 -37.57837,-64.4319 -30.88165,10.7414 -37.58671,41.6147 -49.67083,60.4122 -12.07578,18.7809 6.7134,38.9211 -5.36238,45.6262 -12.08413,6.7217 26.84526,37.5867 13.41846,28.1879 -13.41846,-9.3904 -34.89301,4.028 -16.09548,8.0561 18.78084,4.028 12.06744,22.8172 -1.35102,18.7892 -10.11597,-3.0273 -20.99919,0.033 -18.27213,7.4806 l 3.95298,2.0349 c 8.02273,4.1114 16.07881,8.006 24.29334,11.7088 5.65427,2.5603 11.40028,5.0038 17.15462,7.3806 2.58529,1.0508 5.19559,2.1266 7.7642,3.144 8.38132,3.3275 16.89608,6.4382 25.50258,9.3488 50.75498,17.1796 104.78744,27.1788 160.90481,28.8884 5.72932,0.1835 11.43363,0.3003 17.17963,0.3003 3.31084,0 6.57997,-0.058 9.84911,-0.1085 l 0,0 z M 567.91082,2295.5329 c 0.91736,0.025 1.8514,0.042 2.80212,0.042 16.02877,0 4.24487,11.2501 -2.80212,21.2076 l 0,-21.2493 z m 304.91353,-184.9063 c 4.5034,2.4018 8.09778,0.3002 7.20544,-4.2032 -0.90068,-4.5117 -4.80363,-9.9241 -8.71492,-5.1122 -3.90294,4.812 -3.61106,7.8143 1.50948,9.3154 z m -20.2236,492.797 0,18.6891 0.30856,-0.01 c 3.42759,-0.058 6.85518,-0.1584 10.27443,-0.2752 0.0667,-3.6945 -0.90902,-7.8643 -5.22895,-12.1759 -2.18499,-2.1933 -3.91129,-4.2782 -5.35404,-6.2297 l 0,0 z m 38.39565,-643.319 0,-20.749 c -4.93706,7.881 -6.46321,14.9113 -1.10917,19.7149 0.38362,0.3503 0.75056,0.7006 1.10917,1.0341 l 0,0 z m 0,51.4139 0,-30.2229 c -0.83396,1.0008 -1.69295,2.0766 -2.52691,3.2525 -4.69521,6.5633 -1.93479,17.4715 2.52691,26.9704 l 0,0 z m 0,71.529 0,-11.9841 c -1.20091,-0.2919 -2.53525,0.1501 -3.86125,1.793 -3.91129,4.8037 -3.61106,7.8059 1.49279,9.3071 0.83397,0.442 1.62623,0.7338 2.36846,0.884 l 0,0 z m 0,389.7692 0,-37.2114 c -11.16676,-4.6118 -24.52685,-5.0455 -37.36154,5.0455 -0.3586,0.2752 -0.70053,0.5587 -1.03411,0.8423 l 0,38.0203 c 2.33509,0.7339 4.87868,0.6505 7.43061,-0.4753 14.3942,-6.3965 19.18948,-4.8037 30.3896,-6.3965 l 0.57544,0.1751 0,0 z m 0,-401.7533 0,11.9841 c 3.31083,0.6671 5.57087,-1.4178 4.83698,-5.0872 -0.59211,-2.9689 -2.48521,-6.3298 -4.83698,-6.8969 z m 8.70657,-44.7004 0,-98.3242 c -3.41091,3.8612 -6.42151,7.6808 -8.70657,11.3168 l 0,20.749 c 11.03333,10.4162 6.04623,13.9606 0,21.191 l 0,30.2229 c 2.27672,4.8369 4.9871,9.3153 7.37223,12.6595 0.45868,0.6338 0.90902,1.376 1.33434,2.185 l 0,0 z m 0,91.2689 0,-11.8673 c -0.99241,0.025 -2.04321,0.5838 -3.094,1.8681 -3.91129,4.8119 -3.59438,7.8142 1.50947,9.3153 0.54208,0.2919 1.07581,0.5171 1.58453,0.6839 l 0,0 z m 0,356.4608 0,-33.8506 c -2.6937,-1.7763 -5.62091,-3.3692 -8.70657,-4.6368 l 0,37.2114 c 3.14404,0.9007 6.06291,1.301 8.70657,1.276 l 0,0 z m 0,-33.8506 0,33.8506 c 14.54431,-0.1585 20.89077,-13.1183 11.50869,-23.8514 -3.00227,-3.4359 -6.93857,-6.9802 -11.50869,-9.9992 z m 0,-334.4775 c 2.70204,-0.092 4.96208,3.6861 5.62091,6.9803 0.79227,3.9613 -1.89309,6.0629 -5.62091,4.887 l 0,-11.8673 z m 63.81484,17.4048 0,-256.919 c -11.23348,8.1145 -24.12654,22.0834 -35.42674,33.3752 -8.24789,8.2479 -19.61481,18.4807 -28.3881,28.4132 l 0,98.3242 c 6.32978,11.9507 10.8999,41.7815 24.14323,43.1075 14.15235,1.4178 24.06817,16.9795 24.06817,29.7225 0,10.0075 6.11295,19.1478 15.60344,23.9764 l 0,0 z m 0,90.6601 0,-65.6245 c -7.09702,-0.1918 -12.77631,0.5087 -12.77631,7.5974 0,14.1607 -9.90748,19.8233 -2.82713,32.5579 7.06366,12.7346 0,25.4776 14.15235,25.4776 l 1.45109,-0.01 0,0 z m 0,127.8716 0,-46.8354 c -7.01362,-2.1433 -14.49427,3.2024 -12.30929,13.0098 3.08566,13.9272 -7.28049,35.335 12.30929,33.8256 l 0,0 z m 0,212.5271 0,-16.6793 c -7.93098,4.9788 -10.79148,15.6952 0,16.6793 l 0,0 z m 0,-16.6793 0,16.6793 c 1.08416,0.1084 2.31008,0.1084 3.68612,-0.01 11.19178,0 19.18949,-19.1978 4.79529,-19.1978 -3.14404,0 -6.05457,1.0008 -8.48141,2.5269 z m 0,-242.6832 c 3.26914,1.0007 6.4382,3.6277 8.48141,8.2145 6.39649,14.4026 6.39649,39.9969 -6.3965,38.3957 -0.73389,0.092 -1.42608,0.1751 -2.08491,0.2252 l 0,-46.8354 z m 38.37069,-157.0436 0,-271.4382 c -7.23051,-2.2434 -13.78546,-4.3199 -20.00682,-6.3882 -4.92038,-1.6345 -11.31688,1.1509 -18.36387,6.2547 l 0,256.919 c 2.57695,1.3093 5.42076,2.3101 8.44805,2.9105 11.40861,2.2851 15.46167,9.157 29.92264,11.7422 l 0,0 z m 0,74.3395 0,-67.968 c -5.3124,-1.8264 -11.24187,-2.0015 -17.17135,1.7013 -5.66261,3.536 -14.13567,2.4852 -21.19934,2.3101 l 0,65.6245 c 12.91809,-0.1918 16.07881,-2.8271 31.09848,-2.8271 2.53525,0 4.99544,0.417 7.27221,1.1592 l 0,0 z m 0,163.1315 0,-87.3743 c -12.40942,-5.3207 -21.20773,-12.4761 -23.49279,2.3601 -3.19408,20.799 -4.79528,19.2062 14.3942,27.2039 19.19779,7.9977 -7.9977,59.178 6.40484,57.5851 0.93405,0.1251 1.83475,0.2002 2.69375,0.2252 l 0,0 z m 0,-87.3743 c 4.9871,2.1266 10.5412,3.9613 16.5041,3.9613 20.7906,0 -1.6096,35.2016 1.5928,46.3934 3.069,10.7247 1.7264,37.6034 -18.0969,37.0196 l 0,-87.3743 z m 32.3327,-146.102 0,-266.4345 c -2.4852,-0.1667 -4.8537,-0.5587 -7.047,-1.2342 -9.4154,-2.8939 -17.7217,-5.4208 -25.2857,-7.7642 l 0,271.4382 c 3.4943,0.6255 7.589,1.0008 12.5428,1.0008 8.0227,0 14.219,1.2676 19.7899,2.9939 l 0,0 z m 0,146.3855 0,-111.6426 c -6.0046,-0.9507 -10.8999,-3.6694 -9.8742,-10.8498 1.4094,-9.9075 -2.8354,-8.4898 -9.9157,-14.1524 -3.3693,-2.6937 -7.7059,-5.7126 -12.5428,-7.3639 l 0,67.968 c 11.7672,3.8029 18.9643,16.2623 8.2979,25.7361 -12.73463,11.3252 -8.4898,26.887 -1.4178,39.6382 6.6634,11.9841 10.8165,7.6642 25.4526,10.6664 l 0,0 z m 0,73.3637 0,-11.8672 c -0.9924,0.033 -2.0432,0.5754 -3.094,1.868 -3.903,4.812 -3.6028,7.8143 1.5011,9.3237 0.5504,0.2836 1.0842,0.5088 1.5929,0.6755 l 0,0 z m 0,-11.8672 0,11.8672 c 3.7194,1.1676 6.4131,-0.934 5.6209,-4.887 -0.6505,-3.2941 -2.9272,-7.0636 -5.6209,-6.9802 z m 9.2987,-204.5545 0,-270.0121 c -3.2275,0.3419 -6.3465,0.4503 -9.2987,0.2501 l 0,266.4345 c 3.2441,1.0091 6.2547,2.1683 9.2987,3.3275 l 0,0 z m 0,145.71 0,-113.4606 c -0.6839,-0.2335 -1.4094,-0.3503 -2.1934,-0.3503 -2.3434,0 -4.8036,-0.1167 -7.1053,-0.4837 l 0,111.6426 c 0.9173,0.1835 1.868,0.4003 2.8521,0.6505 2.16,0.5338 4.3116,1.2093 6.4466,2.0015 l 0,0 z m 0,23.2926 0,-11.8673 c -0.9925,0.033 -2.0433,0.5921 -3.094,1.8848 -3.903,4.7953 -3.6028,7.7975 1.5011,9.307 0.5421,0.2919 1.0841,0.5171 1.5929,0.6755 l 0,0 z m 0,-11.8673 0,11.8673 c 3.7278,1.1842 6.4131,-0.9173 5.6125,-4.8787 -0.6588,-3.2941 -2.9105,-7.0636 -5.6125,-6.9886 z m 105.5963,-192.512 0,-493.2974 c -1.5511,9.9742 -1.7096,19.6732 -8.7149,29.8059 -12.7429,18.3972 -25.4775,50.9551 -12.7429,67.9429 12.7429,16.9795 18.3972,29.7141 7.0803,33.9673 -11.3252,4.2366 5.6626,24.0515 -9.9075,33.9673 -15.57,9.9075 -25.4775,36.7945 -19.8233,49.5374 5.671,12.7346 7.0887,33.9673 -11.3168,33.9673 -13.5853,0 -33.3502,7.7142 -50.1712,9.4739 l 0,270.0121 c 8.3479,3.2024 16.8543,6.4132 30.3562,6.4132 26.8953,0 46.7103,9.9158 43.8748,-11.3169 -2.4102,-18.1387 16.8627,-23.8847 31.3653,-30.473 l 0,0 z m 0,230.0654 c -8.0143,-2.0599 -13.9355,-5.6877 -27.1121,-5.6877 -18.3972,0 -11.3252,12.7347 -22.6504,12.7347 -11.3252,0 -8.4898,-21.2244 -18.3972,-31.1319 -8.6482,-8.6565 -22.7005,-19.4647 -37.4366,-24.8938 l 0,-113.4606 c 6.7551,2.26 8.7315,15.2365 4.8786,29.3722 -4.2448,15.5617 22.6505,9.9074 45.2926,9.9074 22.6504,0 25.4859,-15.5784 41.0476,-21.2327 7.8309,-2.8521 12.0841,-7.8476 14.3775,-14.636 l 0,27.0954 c -1.7179,1.693 -3.611,3.6611 -5.8877,5.9379 -9.0235,9.0234 -2.7771,14.5193 5.8877,9.0234 l 0,116.9717 z m 0,161.0215 0,-145.5348 c -6.8885,-5.2707 -12.5594,-14.9363 -15.7952,-4.1865 -4.2449,14.1523 -12.7346,29.7224 -22.6421,22.6421 -9.9075,-7.072 -8.4898,-31.1402 -21.2327,-11.3253 -12.743,19.815 -24.0515,48.128 -9.9075,63.6981 14.1524,15.5618 33.9673,28.2964 45.2925,43.8748 5.3874,7.3973 14.2858,19.6065 24.285,30.8316 l 0,0 z m 0,-145.5348 c 2.1683,1.6679 4.4784,2.8855 6.8552,2.8855 9.9075,0 14.1524,12.7429 25.4776,24.0598 11.3252,11.3252 -9.9158,25.4859 -4.2449,41.0477 5.6543,15.5701 22.6421,22.6421 26.887,38.2121 2.5936,9.5239 14.7111,11.1084 21.1493,7.9894 -3.0023,2.8522 -6.0296,5.671 -9.0735,8.4564 -12.7597,11.5587 -26.028,22.5587 -39.7967,32.9165 -3.1858,2.3935 -6.3882,4.7536 -9.6156,7.0804 -5.9379,-4.6786 -11.9674,-10.7415 -17.6384,-17.113 l 0,-145.5348 z m 0,-174.5151 c 2.2601,-6.7051 2.6103,-15.1531 2.6103,-25.0022 0,-19.8066 15.5618,7.0803 18.3973,15.5784 2.8271,8.4981 8.4981,28.313 -2.8355,28.313 -8.7233,0 -12.4094,2.5103 -18.1721,8.2062 l 0,-27.0954 z m 0,-564.3344 0,493.2974 c 2.4602,-1.1175 4.7953,-2.26 6.8552,-3.5026 14.1524,-8.4898 33.9673,-19.815 39.63,-7.072 5.6626,12.7346 24.0681,8.4897 39.6299,5.6542 15.5701,-2.8271 42.457,-8.4814 56.6177,-7.072 14.1524,1.4178 28.3047,14.1524 29.7141,26.887 1.4177,12.743 -18.3972,15.5784 -42.457,15.5784 -24.0599,0 -33.9674,4.2366 -29.7225,18.3973 4.2449,14.1523 11.3169,26.8869 24.0598,32.5579 12.7347,5.6626 24.0682,8.498 36.8028,8.498 12.7346,0 29.7225,-9.9158 45.3009,-8.498 15.5617,1.4094 9.8991,15.5701 -5.6709,24.0598 -15.5701,8.4897 -18.3973,21.2327 -11.3253,28.3047 7.0804,7.0803 2.8355,14.1523 -9.8991,7.0803 -12.743,-7.0803 -31.1402,-25.4859 -35.3934,-14.1523 -4.2532,11.3169 -35.3767,1.4094 -35.3767,-15.5784 0,-16.9795 4.2365,-19.815 -1.4177,-31.1319 -5.6626,-11.3252 -18.3973,-19.8149 -29.7225,-18.3972 -11.3252,1.4094 1.4094,-19.8233 -9.9075,-25.4859 -11.3335,-5.6543 -16.9878,8.4981 -24.0598,22.6504 -7.0887,14.144 -12.7346,22.6505 -19.8233,31.1485 -7.072,8.4814 -11.3169,12.7263 -21.2244,21.2161 -0.884,0.7672 -1.7596,1.4094 -2.6103,1.9514 l 0,116.9717 c 3.1691,0.8173 6.6801,1.3844 11.1084,1.3844 15.5618,0 26.887,-12.7347 38.2122,-2.8272 11.3169,9.9075 -8.4981,26.8953 8.4898,26.8953 16.9795,0 31.1401,-1.4177 18.3972,11.3169 -12.743,12.743 4.2449,5.6626 18.3972,12.743 14.1607,7.072 12.743,18.4055 -4.2449,15.57 -16.9878,-2.8271 -31.1401,-12.7346 -38.2121,4.2449 -7.0804,16.9878 14.1523,36.7945 25.4775,49.5374 2.5019,2.8188 3.0023,5.2873 2.2017,7.2638 2.185,-2.1099 4.3449,-4.2365 6.4882,-6.3798 6.2714,-6.2881 12.3927,-12.7179 18.3889,-19.2896 8.9401,-9.8574 17.5549,-20.0568 25.8028,-30.5397 16.4958,-20.9825 31.5238,-43.1742 44.8922,-66.4418 4.4284,-7.7392 8.6983,-15.6118 12.8014,-23.5928 2.0265,-3.9864 4.053,-8.0144 5.9962,-12.0508 5.8794,-12.1425 11.2751,-24.5268 16.2456,-37.128 1.6762,-4.2032 3.2858,-8.4314 4.8369,-12.6762 6.2131,-17.0129 11.6505,-34.426 16.1706,-52.1728 2.3184,-8.8566 4.3783,-17.8217 6.2214,-26.8536 1.8513,-9.0234 3.4692,-18.1387 4.9037,-27.3456 1.3927,-9.1819 2.5602,-18.4806 3.5276,-27.7877 1.8764,-18.6724 2.8522,-37.62 2.8522,-56.7762 0,-19.1728 -0.9758,-38.1204 -2.8522,-56.7928 -0.9674,-9.3237 -2.1516,-18.5891 -3.5276,-27.771 -1.4345,-9.1986 -3.0524,-18.3055 -4.9037,-27.354 -0.7673,-3.7695 -1.5762,-7.5307 -2.4185,-11.2668 l -0.5254,1.1759 c -12.7347,29.7224 -41.0477,62.2803 -50.9468,89.1673 -9.9159,26.8953 -19.8233,43.8748 -29.7308,42.457 -9.9075,-1.4094 12.7429,-52.3645 22.6504,-70.7617 9.9075,-18.3972 21.2327,-48.128 38.2122,-65.1075 5.3707,-5.3791 10.8832,-9.749 16.4041,-13.0515 -4.5034,-17.5549 -9.8908,-34.7763 -16.0372,-51.6307 -3.119,-8.5064 -6.4298,-16.9127 -9.9325,-25.2107 -3.5276,-8.3146 -7.2471,-16.5208 -11.1167,-24.6102 -1.9765,-4.0447 -3.9696,-8.0478 -6.0295,-12.0508 -4.0614,-7.981 -8.3313,-15.8369 -12.8014,-23.6011 -2.8188,-4.8537 -5.7293,-9.6573 -8.6565,-14.4192 -11.0834,-18.0637 -23.1842,-35.4101 -36.2357,-52.0143 -8.2479,-10.4996 -16.8377,-20.6739 -25.8028,-30.5397 -5.9628,-6.5717 -12.1175,-12.9932 -18.3889,-19.2813 -6.2464,-6.263 -12.6846,-12.4093 -19.2645,-18.3805 -20.1903,-18.3305 -41.7065,-35.1932 -64.407,-50.4297 -1.3343,3.7278 -2.0849,7.3889 -2.6437,11.0166 l 0,0"
         style="fill:#badaf3;fill-opacity:1;fill-rule:evenodd;stroke:none"
         id="path476"
         inkscape:connector-curvature="0" /><path
         d="m 1479.7826,1309.3384 352.4243,0 165.1914,-299.2676 -682.8155,0 165.1998,299.2676"
         style="fill:#1f4a7a;fill-opacity:1;fill-rule:evenodd;stroke:none"
         id="path478"
         inkscape:connector-curvature="0" /><path
         d="m 825.53865,2307.2667 1660.91225,0 c 46.7352,0 84.9724,-38.2455 84.9724,-84.9808 l 0,-903.8407 c 0,-46.7436 -38.2372,-84.9891 -84.9724,-84.9891 l -1660.91225,0 c -46.74362,0 -84.98082,38.2455 -84.98082,84.9891 l 0,903.8407 c 0,46.7353 38.2372,84.9808 84.98082,84.9808"
         style="fill:#f9a50d;fill-opacity:1;fill-rule:evenodd;stroke:none"
         id="path480"
         inkscape:connector-curvature="0" /><path
         d="m 796.95874,1385.204 1718.07206,0 0,872.492 -1718.07206,0 0,-872.492 z"
         style="fill:#2a5e8e;fill-opacity:1;fill-rule:evenodd;stroke:none"
         id="path482"
         inkscape:connector-curvature="0" /><path
         d="m 2468.2371,1297.5294 c 6.0796,0 11.0417,4.9621 11.0417,11.0334 0,6.0796 -4.9621,11.0333 -11.0417,11.0333 -6.0712,0 -11.0333,-4.9537 -11.0333,-11.0333 0,-6.0713 4.9621,-11.0334 11.0333,-11.0334"
         style="fill:#7a7e7d;fill-opacity:1;fill-rule:evenodd;stroke:none"
         id="path484"
         inkscape:connector-curvature="0" /><path
         d="m 2425.1462,1297.5294 c 6.088,0 11.0417,4.9621 11.0417,11.0334 0,6.0796 -4.9537,11.0333 -11.0417,11.0333 -6.0712,0 -11.0333,-4.9537 -11.0333,-11.0333 0,-6.0713 4.9621,-11.0334 11.0333,-11.0334"
         style="fill:#7a7e7d;fill-opacity:1;fill-rule:evenodd;stroke:none"
         id="path486"
         inkscape:connector-curvature="0" /><path
         d="m 2382.0637,1297.5294 c 6.0796,0 11.0417,4.9621 11.0417,11.0334 0,6.0796 -4.9621,11.0333 -11.0417,11.0333 -6.0796,0 -11.0333,-4.9537 -11.0333,-11.0333 0,-6.0713 4.9537,-11.0334 11.0333,-11.0334"
         style="fill:#7a7e7d;fill-opacity:1;fill-rule:evenodd;stroke:none"
         id="path488"
         inkscape:connector-curvature="0" /><path
         d="m 642.40873,1100.5141 2027.17207,0 c 24.8687,0 45.2258,-20.3487 45.2258,-45.2175 l 0,0 c 0,-24.8771 -20.3571,-45.2258 -45.2258,-45.2258 l -2027.17207,0 c -24.87711,0 -45.22581,20.3487 -45.22581,45.2258 l 0,0 c 0,24.8688 20.3487,45.2175 45.22581,45.2175"
         style="fill:#5284bf;fill-opacity:1;fill-rule:evenodd;stroke:none"
         id="path490"
         inkscape:connector-curvature="0" /><path
         d="m 2714.8066,1055.2966 c 0,-24.8771 -20.3571,-45.2258 -45.2258,-45.2258 l -2027.17207,0 c -24.88545,0 -45.22581,20.3487 -45.22581,45.2258 l 2117.62368,0"
         style="fill:#ffffff;fill-opacity:1;fill-rule:evenodd;stroke:none"
         id="path492"
         inkscape:connector-curvature="0" /><path
         d="m 2515.0308,2257.696 -1718.07206,-872.492 1718.07206,0 0,872.492"
         style="fill:#1f4a7a;fill-opacity:1;fill-rule:evenodd;stroke:none"
         id="path494"
         inkscape:connector-curvature="0" /><path
         d="m 954.38592,2108.2582 529.58898,0 0,29.4232 -529.58898,0 0,-29.4232 z"
         style="fill:#f0484e;fill-opacity:1;fill-rule:evenodd;stroke:none"
         id="path496"
         inkscape:connector-curvature="0" /><path
         d="m 954.38592,1990.0272 277.99318,0 0,29.4298 -277.99318,0 0,-29.4298 z"
         style="fill:#f9a50d;fill-opacity:1;fill-rule:evenodd;stroke:none"
         id="path498"
         inkscape:connector-curvature="0" /><path
         d="m 1965.0239,1990.0272 392.588,0 0,29.4298 -392.588,0 0,-29.4298 z"
         style="fill:#f9a50d;fill-opacity:1;fill-rule:evenodd;stroke:none"
         id="path500"
         inkscape:connector-curvature="0" /><path
         d="m 954.38592,1888.2504 204.19418,0 0,29.4298 -204.19418,0 0,-29.4298 z"
         style="fill:#5284bf;fill-opacity:1;fill-rule:evenodd;stroke:none"
         id="path502"
         inkscape:connector-curvature="0" /><path
         d="m 1232.3791,1888.2504 927.2167,0 0,29.4298 -927.2167,0 0,-29.4298 z"
         style="fill:#5284bf;fill-opacity:1;fill-rule:evenodd;stroke:none"
         id="path504"
         inkscape:connector-curvature="0" /><path
         d="m 954.38592,1786.4736 502.27668,0 0,29.433 -502.27668,0 0,-29.433 z"
         style="fill:#f0484e;fill-opacity:1;fill-rule:evenodd;stroke:none"
         id="path506"
         inkscape:connector-curvature="0" /><path
         d="m 1530.4625,1786.4736 560.765,0 0,29.433 -560.765,0 0,-29.433 z"
         style="fill:#5284bf;fill-opacity:1;fill-rule:evenodd;stroke:none"
         id="path508"
         inkscape:connector-curvature="0" /><path
         d="m 954.38592,1684.6967 204.19418,0 0,29.4298 -204.19418,0 0,-29.4298 z"
         style="fill:#afa936;fill-opacity:1;fill-rule:evenodd;stroke:none"
         id="path510"
         inkscape:connector-curvature="0" /><path
         d="m 1232.3791,1684.6967 519.6565,0 0,29.4298 -519.6565,0 0,-29.4298 z"
         style="fill:#5284bf;fill-opacity:1;fill-rule:evenodd;stroke:none"
         id="path512"
         inkscape:connector-curvature="0" /><path
         d="m 954.38592,1582.9199 429.46508,0 0,29.4298 -429.46508,0 0,-29.4298 z"
         style="fill:#5284bf;fill-opacity:1;fill-rule:evenodd;stroke:none"
         id="path514"
         inkscape:connector-curvature="0" /><path
         d="m 1457.6492,1582.9199 533.6679,0 0,29.4298 -533.6679,0 0,-29.4298 z"
         style="fill:#5284bf;fill-opacity:1;fill-rule:evenodd;stroke:none"
         id="path516"
         inkscape:connector-curvature="0" /><path
         d="m 1306.1848,1990.0272 577.3275,0 0,29.4298 -577.3275,0 0,-29.4298 z"
         style="fill:#5284bf;fill-opacity:1;fill-rule:evenodd;stroke:none"
         id="path518"
         inkscape:connector-curvature="0" /><path
         d="m 2241.099,1888.2504 116.5104,0 0,29.4298 -116.5104,0 0,-29.4298 z"
         style="fill:#5284bf;fill-opacity:1;fill-rule:evenodd;stroke:none"
         id="path520"
         inkscape:connector-curvature="0" /><path
         d="m 2172.739,1786.4736 184.8729,0 0,29.433 -184.8729,0 0,-29.433 z"
         style="fill:#f0484e;fill-opacity:1;fill-rule:evenodd;stroke:none"
         id="path522"
         inkscape:connector-curvature="0" /><path
         d="m 1833.5496,1684.6967 524.0607,0 0,29.4298 -524.0607,0 0,-29.4298 z"
         style="fill:#afa936;fill-opacity:1;fill-rule:evenodd;stroke:none"
         id="path524"
         inkscape:connector-curvature="0" /><path
         d="m 2072.8219,1582.9199 284.7884,0 0,29.4298 -284.7884,0 0,-29.4298 z"
         style="fill:#5284bf;fill-opacity:1;fill-rule:evenodd;stroke:none"
         id="path526"
         inkscape:connector-curvature="0" /><path
         d="m 2696.5428,2061.2894 c 1.276,4.1114 -0.2085,8.6315 -3.6611,11.1834 -5.6543,4.1782 -13.727,1.5095 -15.8036,-5.1789 l -0.3419,-1.1509 -1.7764,-5.6376 -1.8263,-5.5875 -1.8931,-5.5459 -0.3503,-0.984 c -3.8196,-10.6998 10.216,-18.7726 17.5549,-9.8075 0.6839,0.884 1.2259,1.8264 1.6096,2.8939 l 0.4253,1.2092 1.9681,5.7794 1.9098,5.8211 1.8347,5.8627 0.3503,1.1426"
         style="fill:#d2cc48;fill-opacity:1;fill-rule:nonzero;stroke:none"
         id="path528"
         inkscape:connector-curvature="0" /><path
         d="m 2719.5435,2183.2314 c 0.9841,9.8408 -11.6671,15.1198 -18.0053,7.3889 -1.3426,-1.743 -2.0515,-3.3442 -2.2767,-5.5625 l -0.3836,-4.4951 -0.6005,-6.3214 -0.6671,-6.2881 -0.3336,-2.8438 c -0.3169,-2.3851 0.3252,-5.0038 1.6929,-6.9636 5.3874,-7.7392 17.2881,-4.837 18.5307,4.4951 l 0.3586,3.0523 0.6838,6.5132 0.6255,6.53 0.3753,4.495"
         style="fill:#d2cc48;fill-opacity:1;fill-rule:nonzero;stroke:none"
         id="path530"
         inkscape:connector-curvature="0" /><path
         d="m 2717.8839,2307.2334 c -1.0675,10.6247 -16.2456,12.7513 -19.8817,1.868 -0.4003,-1.3426 -0.5087,-2.6353 -0.3753,-4.0363 l 0.058,-0.4671 0.6672,-6.6717 0.6088,-6.655 0.5087,-6.1713 c 0.6922,-10.3912 15.2782,-13.2517 19.6398,-2.9439 0.5588,1.5262 0.7756,2.8522 0.6589,4.4784 l -0.5088,6.3881 -0.6254,6.8636 -0.7006,6.8718 -0.05,0.4754"
         style="fill:#d2cc48;fill-opacity:1;fill-rule:nonzero;stroke:none"
         id="path532"
         inkscape:connector-curvature="0" /><path
         d="m 2647.3223,2543.6285 c -5.3374,10.2744 -20.7824,5.2289 -19.1645,-6.0963 0.2169,-1.1842 0.4587,-1.9931 0.9841,-3.094 l 1.9014,-3.7028 3.2191,-6.4715 3.1441,-6.4883 0.6088,-1.2843 c 5.2706,-10.9499 21.7164,-5.404 19.1478,6.6134 -0.1668,0.6588 -0.3837,1.3426 -0.6755,1.9514 l -0.7006,1.4928 -3.2441,6.6968 -3.3192,6.6633 -1.9014,3.7195"
         style="fill:#d2cc48;fill-opacity:1;fill-rule:nonzero;stroke:none"
         id="path534"
         inkscape:connector-curvature="0" /><path
         d="m 2580.7637,2648.1074 c -6.3715,8.4897 -20.3904,2.5769 -18.0052,-8.5815 0.3752,-1.4344 0.9173,-2.5853 1.793,-3.7612 l 3.9363,-5.0955 4.5284,-6.0129 3.6444,-4.9704 c 7.2472,-9.6573 22.1918,-1.2509 17.6133,10.0076 -0.3252,0.6838 -0.6588,1.3426 -1.1258,1.9514 l -3.7946,5.1706 -4.6701,6.2047 -3.9197,5.0872"
         style="fill:#d2cc48;fill-opacity:1;fill-rule:nonzero;stroke:none"
         id="path536"
         inkscape:connector-curvature="0" /><path
         d="m 2495.8746,2738.4589 c -8.6648,7.5307 -21.291,-2.5352 -15.5367,-12.793 0.5838,-0.934 1.1342,-1.6345 1.9848,-2.4018 l 2.0433,-1.8014 5.9044,-5.3457 5.8294,-5.3874 0.9924,-0.9423 c 8.2646,-7.8893 21.4162,1.8097 16.0288,12.1675 -0.5337,0.959 -1.1259,1.7513 -1.9265,2.5269 l -1.1842,1.1175 -6.0045,5.5542 -6.088,5.5042 -2.0432,1.8013"
         style="fill:#d2cc48;fill-opacity:1;fill-rule:nonzero;stroke:none"
         id="path538"
         inkscape:connector-curvature="0" /><path
         d="m 2396.2578,2811.906 c -9.649,5.9378 -20.4071,-5.8711 -13.3685,-14.9779 0.7756,-0.9424 1.5512,-1.6346 2.5686,-2.2934 l 6.6384,-4.0948 7.1888,-4.5618 3.194,-2.0765 c 1.326,-0.9007 3.1274,-1.5262 4.7203,-1.643 10.5663,-0.7589 15.2198,12.7013 6.4882,18.6475 l -3.3942,2.21 -7.3973,4.6868 -6.6383,4.1031"
         style="fill:#d2cc48;fill-opacity:1;fill-rule:nonzero;stroke:none"
         id="path540"
         inkscape:connector-curvature="0" /><path
         d="m 2285.7827,2867.6564 c -10.3995,4.0865 -18.7725,-8.5481 -11.2168,-16.4957 1.0425,-1.0425 2.0515,-1.7263 3.3942,-2.3101 l 3.5527,-1.4428 8.5231,-3.6027 6.4549,-2.8188 c 11.2668,-4.8286 20.0151,10.533 9.8324,17.7467 -0.5004,0.3336 -1.0258,0.6172 -1.5762,0.8674 l -6.6717,2.9105 -8.7483,3.7028 -3.5443,1.4427"
         style="fill:#d2cc48;fill-opacity:1;fill-rule:nonzero;stroke:none"
         id="path542"
         inkscape:connector-curvature="0" /><path
         d="m 2168.5359,2906.3523 c -9.5156,2.6187 -16.8795,-8.865 -10.3328,-16.4958 1.4594,-1.6095 2.9772,-2.6019 5.0955,-3.1857 l 8.1645,-2.1266 9.7156,-2.652 1.5762,-0.4337 c 8.7233,-2.4185 15.9954,6.5466 11.8089,14.586 -1.2342,2.3602 -3.5777,4.2616 -6.1463,4.9705 l -1.7763,0.5087 -9.9409,2.702 -8.1644,2.1266"
         style="fill:#d2cc48;fill-opacity:1;fill-rule:nonzero;stroke:none"
         id="path544"
         inkscape:connector-curvature="0" /><path
         d="m 2047.3777,2929.7533 c -11.4586,1.5262 -16.329,-14.4025 -5.4624,-19.423 0.8923,-0.3753 1.7596,-0.6338 2.7103,-0.7589 l 2.1266,-0.2835 10.9667,-1.5429 6.8635,-1.0424 c 2.8521,-0.4754 5.6626,0.3503 7.9143,2.0932 6.9052,5.6543 4.0113,16.5625 -4.7619,18.0303 l -7.0637,1.0675 -11.1751,1.5762 -2.1183,0.2835"
         style="fill:#d2cc48;fill-opacity:1;fill-rule:nonzero;stroke:none"
         id="path546"
         inkscape:connector-curvature="0" /><path
         d="m 1924.6768,2939.911 c -9.5739,0.3169 -14.3192,-11.3169 -7.0554,-17.8885 1.8264,-1.5011 3.8446,-2.3768 6.2381,-2.4602 l 7.3805,-0.2585 12.0341,-0.5421 0.7423,-0.042 c 10.658,-0.7089 15.3115,13.9939 4.9954,19.3646 -1.276,0.5838 -2.4185,0.884 -3.7945,0.9758 l -0.9424,0.05 -12.2259,0.5421 -7.3722,0.2585"
         style="fill:#d2cc48;fill-opacity:1;fill-rule:nonzero;stroke:none"
         id="path548"
         inkscape:connector-curvature="0" /><path
         d="m 1801.6255,2938.8852 c -10.2661,-0.6838 -13.3601,-13.8855 -4.4867,-19.0644 1.7096,-0.9507 3.4943,-1.3427 5.4541,-1.2759 l 2.2767,0.1167 13.1433,0.5755 4.7536,0.1584 c 11.6504,0.392 13.7354,17.163 1.9264,20.1152 -0.8506,0.1835 -1.6595,0.2835 -2.5435,0.2502 l -4.9371,-0.1835 -13.3017,-0.5754 -2.2851,-0.1168"
         style="fill:#d2cc48;fill-opacity:1;fill-rule:nonzero;stroke:none"
         id="path550"
         inkscape:connector-curvature="0" /><path
         d="m 1679.1581,2928.4273 c -2.4018,-0.3169 -4.3533,-1.2759 -6.0629,-2.9856 -6.6384,-6.9802 -1.1509,-18.197 8.4897,-17.2213 l 0.033,0 14.1523,1.6429 5.8961,0.6422 c 10.7498,1.0758 12.5929,16.3123 2.0849,19.8149 -1.4177,0.4337 -2.7103,0.5838 -4.1948,0.442 l -6.0629,-0.6588 -14.3025,-1.6679 -0.033,-0.01"
         style="fill:#d2cc48;fill-opacity:1;fill-rule:nonzero;stroke:none"
         id="path552"
         inkscape:connector-curvature="0" /><path
         d="m 1557.7748,2910.0051 c -3.5777,-0.5921 -6.6884,-3.2858 -7.8309,-6.7051 -2.4769,-7.4306 3.7194,-14.611 11.4419,-13.3267 l 2.9356,0.5337 15.0613,2.6687 1.9098,0.3253 c 4.9121,0.8172 8.5148,5.0454 8.5148,10.0325 0,6.2881 -5.6293,11.0917 -11.8423,10.0576 l -2.0515,-0.3502 -15.2115,-2.6854 -2.9272,-0.5504"
         style="fill:#d2cc48;fill-opacity:1;fill-rule:nonzero;stroke:none"
         id="path554"
         inkscape:connector-curvature="0" /><path
         d="m 1437.7008,2884.8611 c -11.5754,-2.7938 -9.9075,-19.6982 2.0766,-20.1068 0.8673,0 1.6595,0.058 2.4935,0.2585 l 13.3101,3.1107 6.4632,1.4761 c 11.8172,2.8438 9.9575,20.1152 -2.5186,20.1152 -0.6755,-0.025 -1.2676,-0.1084 -1.9181,-0.2502 l -6.5967,-1.4928 -13.31,-3.1107"
         style="fill:#d2cc48;fill-opacity:1;fill-rule:nonzero;stroke:none"
         id="path556"
         inkscape:connector-curvature="0" /><path
         d="m 1319.0195,2853.9461 c -4.5784,-1.2676 -7.7892,-5.6793 -7.4473,-10.4412 0.4504,-6.4799 6.6217,-10.9166 12.9014,-9.182 l 16.5792,4.6619 2.9689,0.8089 c 10.608,2.9273 9.7324,18.3556 -1.3593,19.9318 -1.3927,0.1501 -2.6187,0.1084 -3.978,-0.2669 l -3.0857,-0.859 -16.5792,-4.6535"
         style="fill:#d2cc48;fill-opacity:1;fill-rule:nonzero;stroke:none"
         id="path558"
         inkscape:connector-curvature="0" /><path
         d="m 1201.8728,2817.0599 c -11.3503,-4.0447 -7.6725,-21.0492 4.6451,-19.7149 0.6755,0.083 1.3677,0.2419 2.0182,0.4671 l 1.0758,0.3836 15.9371,5.4374 2.1015,0.7005 c 4.0781,1.276 7.0053,5.3207 7.0053,9.5823 0,7.0553 -6.6383,11.8589 -13.3517,9.774 l -2.2601,-0.7505 -16.0871,-5.4959 -1.0841,-0.3836"
         style="fill:#d2cc48;fill-opacity:1;fill-rule:nonzero;stroke:none"
         id="path560"
         inkscape:connector-curvature="0" /><path
         d="m 1087.1528,2773.3352 c -10.1327,-4.3449 -7.3639,-19.2061 3.6611,-19.6064 1.5345,0 2.6687,0.2085 4.1031,0.7756 l 7.2638,3.0272 11.492,4.6869 c 9.7907,3.8446 7.9644,18.8142 -3.3859,19.6148 -1.4928,0.058 -2.8354,-0.1751 -4.2282,-0.7255 l -11.6421,-4.7453 -7.2638,-3.0273"
         style="fill:#d2cc48;fill-opacity:1;fill-rule:nonzero;stroke:none"
         id="path562"
         inkscape:connector-curvature="0" /><path
         d="m 975.36009,2722.3384 c -9.45714,-4.5451 -6.48823,-19.3062 4.74525,-19.3062 1.55117,0.05 2.86883,0.3752 4.28657,1.0508 l 3.73615,1.8764 13.74374,6.7217 0.6338,0.3002 c 9.4488,4.5451 6.7884,18.6224 -3.73617,19.373 -1.78468,0.058 -3.35253,-0.1835 -4.97042,-0.9674 l -0.79227,-0.3753 -13.90216,-6.8051 -3.74449,-1.8681"
         style="fill:#d2cc48;fill-opacity:1;fill-rule:nonzero;stroke:none"
         id="path564"
         inkscape:connector-curvature="0" /><path
         d="m 867.35355,2663.7108 c -9.29869,-5.354 -4.87868,-20.0985 6.47155,-18.8809 1.40106,0.2001 2.58529,0.6004 3.81955,1.3093 l 5.72933,3.3859 11.77555,6.8302 c 2.67702,1.5428 4.41167,4.0614 4.96208,7.0636 1.51782,8.4814 -7.64744,14.9029 -15.08639,10.5997 l -11.94234,-6.9219 -5.72933,-3.3859"
         style="fill:#d2cc48;fill-opacity:1;fill-rule:nonzero;stroke:none"
         id="path566"
         inkscape:connector-curvature="0" /><path
         d="m 328.78863,1769.4774 c 2.59363,-10.7164 18.37221,-10.2494 20.00678,1.1592 0.12509,1.301 0.0834,2.4018 -0.22517,3.6778 l -0.025,0.1084 -1.8097,7.7475 -1.68461,7.8059 -0.72555,3.6778 c -1.65124,8.2312 -11.67548,11.1584 -17.46318,5.0621 -2.26004,-2.4852 -3.11068,-5.4791 -2.56027,-8.8066 l 0.80061,-4.0447 1.75966,-8.1645 1.90144,-8.1145 0.025,-0.1084"
         style="fill:#d2cc48;fill-opacity:1;fill-rule:nonzero;stroke:none"
         id="path568"
         inkscape:connector-curvature="0" /><path
         d="m 375.49056,1653.8568 c 5.49581,-9.5155 20.47379,-4.6118 18.86424,6.7301 -0.24185,1.3009 -0.60879,2.3767 -1.26762,3.5276 l -0.9257,1.5595 -3.86125,6.7801 -3.71948,6.8469 -1.08415,2.0849 c -5.56253,10.7248 -21.9082,4.7202 -18.91428,-7.2638 0.20015,-0.7089 0.42532,-1.276 0.74223,-1.9265 l 1.26762,-2.4435 3.91129,-7.2054 4.0614,-7.1221 0.9257,-1.5678"
         style="fill:#d2cc48;fill-opacity:1;fill-rule:nonzero;stroke:none"
         id="path570"
         inkscape:connector-curvature="0" /><path
         d="m 454.0999,1556.9836 c 7.93933,-7.2137 20.18191,0.9841 16.41239,11.1585 -0.66717,1.5678 -1.326,2.6019 -2.57694,3.7945 l -1.60955,1.4594 -5.90446,5.5709 -5.76268,5.6543 -0.97574,1.0007 c -7.64744,8.0144 -21.20768,-0.4253 -16.62088,-11.2668 0.4837,-1.0591 1.10917,-1.9765 1.92646,-2.8355 l 1.26762,-1.2926 6.03789,-5.9378 6.18801,-5.8378 1.61788,-1.4678"
         style="fill:#d2cc48;fill-opacity:1;fill-rule:nonzero;stroke:none"
         id="path572"
         inkscape:connector-curvature="0" /><path
         d="m 556.41047,1486.0301 c 9.75737,-5.0538 19.74825,6.7634 12.42605,15.7118 -0.87566,0.9591 -1.78468,1.7263 -2.93555,2.3185 l -2.64366,1.3677 -7.82257,4.1948 -7.10537,3.9947 c -9.21529,5.3123 -19.7816,-5.5042 -13.20163,-14.9613 0.89234,-1.1426 1.8097,-1.9849 3.07732,-2.7104 l 7.42227,-4.1698 8.13948,-4.3783 2.64366,-1.3677"
         style="fill:#d2cc48;fill-opacity:1;fill-rule:nonzero;stroke:none"
         id="path574"
         inkscape:connector-curvature="0" /><path
         d="m 672.21457,1441.2212 c 6.92189,-1.9014 13.56857,3.7696 12.82635,10.9166 -0.45034,4.1532 -3.39423,7.6141 -7.43061,8.7316 l -0.1668,0.042 -9.61559,2.7187 -9.45714,2.8438 c -10.53295,3.2692 -18.18039,-10.4745 -9.31536,-17.7217 1.07581,-0.8006 1.99317,-1.3343 3.30249,-1.7346 l 9.7657,-2.9356 9.91582,-2.8104 0.17514,-0.05"
         style="fill:#d2cc48;fill-opacity:1;fill-rule:nonzero;stroke:none"
         id="path576"
         inkscape:connector-curvature="0" /><path
         d="m 793.83138,1418.7209 c 11.67548,-1.1675 15.82861,14.9613 4.96208,19.5648 -0.86732,0.3503 -1.82638,0.5921 -2.72706,0.6838 l -3.73615,0.3837 -11.13341,1.301 -5.08717,0.6671 c -11.07503,1.4761 -16.21224,-13.4601 -6.21303,-19.056 1.10083,-0.5838 2.21,-0.9507 3.43593,-1.1259 l 5.37072,-0.7005 11.40861,-1.3343 3.71948,-0.3837"
         style="fill:#d2cc48;fill-opacity:1;fill-rule:nonzero;stroke:none"
         id="path578"
         inkscape:connector-curvature="0" /><path
         d="m 917.1328,1413.8506 c 11.98404,0.4003 13.8271,17.2797 1.97649,20.1402 -0.77559,0.1751 -1.4928,0.2252 -2.30174,0.2252 l -5.49581,-0.1168 -12.51779,-0.1334 -2.10992,0.01 c -10.95828,0 -14.26911,-14.8529 -4.2282,-19.4897 1.326,-0.5588 2.62699,-0.8757 4.0614,-0.8757 l 2.36846,0 12.75129,0.1168 5.49582,0.1251"
         style="fill:#d2cc48;fill-opacity:1;fill-rule:nonzero;stroke:none"
         id="path580"
         inkscape:connector-curvature="0" /><path
         d="m 1039.9672,1422.799 c 12.0674,1.6179 11.9757,19.006 -0.4087,20.282 -0.6671,0.042 -1.2759,0.025 -1.9431,-0.042 l -7.4223,-0.9007 -12.7012,-1.4011 c -10.7665,-1.0758 -12.868,-16.6208 -1.4094,-20.0151 1.2676,-0.2668 2.235,-0.3836 3.5443,-0.2418 l 12.9014,1.4261 7.439,0.8923"
         style="fill:#d2cc48;fill-opacity:1;fill-rule:nonzero;stroke:none"
         id="path582"
         inkscape:connector-curvature="0" /><path
         d="m 1161.3088,1442.6807 c 3.561,0.7089 6.5382,3.2608 7.6891,6.7217 2.4602,7.3806 -3.9196,14.7945 -11.6004,13.2684 l -12.1925,-2.4602 -7.6975,-1.4761 c -11.8757,-2.3685 -10.6914,-19.765 1.8097,-20.1903 0.6755,0 1.2593,0.067 1.9181,0.1668 l 7.8976,1.5178 12.1759,2.4519"
         style="fill:#d2cc48;fill-opacity:1;fill-rule:nonzero;stroke:none"
         id="path584"
         inkscape:connector-curvature="0" /><path
         d="m 1280.824,1471.3773 c 10.9666,3.0273 9.5155,19.1645 -2.1016,19.9985 -1.1342,0.033 -2.1349,-0.042 -3.2357,-0.3419 l -6.505,-1.7931 -13.0765,-3.4859 c -3.5944,-0.9924 -6.3381,-3.6611 -7.2805,-7.3055 -1.9348,-7.4724 5.0121,-14.4443 12.4427,-12.3927 l 13.235,3.5276 6.5216,1.793"
         style="fill:#d2cc48;fill-opacity:1;fill-rule:nonzero;stroke:none"
         id="path586"
         inkscape:connector-curvature="0" /><path
         d="m 1398.2126,1507.2628 c 11.4754,3.9613 7.8393,21.0992 -4.5367,19.7649 -0.6672,-0.083 -1.2426,-0.2335 -1.8931,-0.4337 l -7.3389,-2.4685 -11.909,-3.9113 c -9.8407,-3.0523 -9.3404,-17.7384 1.5095,-19.7399 1.7013,-0.2502 3.1107,-0.1501 4.7619,0.367 l 12.0591,3.9529 7.3472,2.4686"
         style="fill:#d2cc48;fill-opacity:1;fill-rule:nonzero;stroke:none"
         id="path588"
         inkscape:connector-curvature="0" /><path
         d="m 1513.4747,1549.136 c 10.683,4.2032 7.4889,20.0902 -4.1532,19.6816 -1.0841,-0.075 -2.0849,-0.2502 -3.1107,-0.6505 l -17.4965,-6.7635 -1.4428,-0.542 c -11.3502,-4.4617 -6.9802,-21.2744 5.1456,-19.6065 0.7172,0.1251 1.301,0.2835 1.9932,0.5254 l 1.5678,0.6004 17.4966,6.7551"
         style="fill:#d2cc48;fill-opacity:1;fill-rule:nonzero;stroke:none"
         id="path590"
         inkscape:connector-curvature="0" /><path
         d="m 1560.0765,1680.0015 190.3187,-15.9287 -115.3538,-152.2232 c -56.6928,127.1543 -16.9211,37.9703 -74.9649,168.1519"
         style="fill:#d2cc48;fill-opacity:1;fill-rule:nonzero;stroke:none"
         id="path592"
         inkscape:connector-curvature="0" /><path
         d="m 1900.2333,713.83049 -21.8915,41.00596 86.5236,46.19321 21.9166,-41.0143 c 25.9279,8.23121 53.2652,12.56782 81.1029,12.55114 l 0,-70.26137 c -85.0809,0.0334 -163.7653,-55.10827 -189.7933,-140.72291 -31.8741,-104.8283 27.2706,-215.62111 132.0914,-247.48767 l 0,0 c 19.2061,-5.83774 38.6125,-8.60733 57.7019,-8.61317 l 0,-70.27805 c -9.9242,0.008 -19.8984,0.5671 -29.9059,1.70045 l -13.5269,-44.49943 -93.8459,28.53071 13.5269,44.49942 c -34.0507,17.6108 -63.1643,41.92916 -86.1817,70.79595 l -41.0393,-21.88486 -46.1682,86.53283 41.0143,21.90821 c -11.1751,35.17572 -15.1615,72.90337 -10.8582,110.99796 l -44.4919,13.52938 28.5382,93.86169 44.4835,-13.52688 c 17.63,34.03403 41.9317,63.15602 70.8035,86.18173 z m 167.6516,58.73601 c 9.9074,-0.008 19.8816,-0.56709 29.8892,-1.70962 l 13.5352,44.50026 93.8375,-28.52987 -13.5269,-44.49192 c 34.0424,-17.6133 63.1811,-41.94 86.1901,-70.80346 l 41.0143,21.88319 46.1932,-86.53199 -41.0143,-21.89153 c 11.1668,-35.18573 15.1531,-72.91254 10.8582,-111.0013 l 44.4836,-13.52604 -28.5299,-93.84668 -44.4919,13.51937 c -17.63,-34.04237 -41.9316,-63.16602 -70.8034,-86.1909 l 21.8915,-41.02097 -86.532,-46.17736 -21.8915,41.0143 c -25.9446,-8.23872 -53.2819,-12.57449 -81.1029,-12.55865 l 0,70.27805 c 85.0725,-0.0325 163.7653,55.08993 189.7932,140.70456 31.8741,104.82914 -27.2872,215.63029 -132.108,247.50435 -19.1978,5.83774 -38.5958,8.6065 -57.6852,8.61484 l 0,70.26137"
         style="fill:#f0484e;fill-opacity:1;fill-rule:nonzero;stroke:none"
         id="path594"
         inkscape:connector-curvature="0" /><path
         d="m 1037.6988,817.37533 -11.442,21.44119 45.2342,24.14322 11.4586,-21.44118 c 13.5603,4.31158 27.8544,6.57162 42.407,6.56328 l 0,-36.73606 c -44.4835,0.0167 -85.6313,-28.80508 -99.2332,-73.57221 -16.6626,-54.80804 14.2524,-112.73511 69.0688,-129.39769 l 0,0 c 10.0326,-3.0523 20.1902,-4.5034 30.1644,-4.5034 l 0,-36.74524 c -5.1872,0.01 -10.4078,0.29939 -15.6368,0.89234 l -7.0803,-23.2659 -49.0621,14.91043 7.0721,23.26756 c -17.8052,9.21529 -33.025,21.92489 -45.059,37.01962 l -21.44957,-11.44197 -24.14322,45.24248 21.44118,11.45865 c -5.84608,18.38889 -7.92264,38.11211 -5.67095,58.02714 l -23.25922,7.07201 14.91126,49.07872 23.25922,-7.07201 c 9.2153,17.78843 21.9249,33.01659 37.0196,45.05902 z m 87.6578,30.70651 c 5.1789,0 10.3996,-0.29188 15.6285,-0.884 l 7.0803,23.26757 49.0538,-14.9196 -7.0637,-23.26756 c 17.7968,-9.20695 33.0249,-21.92489 45.059,-37.01962 l 21.4412,11.44197 24.1516,-45.23415 -21.4329,-11.45865 c 5.8294,-18.39722 7.9143,-38.1121 5.6626,-58.03548 l 23.2593,-7.06366 -14.9113,-49.07038 -23.2676,7.07201 c -9.2069,-17.80511 -21.9165,-33.02494 -37.0112,-45.06736 l 11.4419,-21.44953 -45.2425,-24.14406 -11.4419,21.44202 c -13.5686,-4.31158 -27.8627,-6.57079 -42.4071,-6.56412 l 0,36.74524 c 44.4836,-0.0167 85.6314,28.80508 99.225,73.56387 16.6625,54.81638 -14.2608,112.74345 -69.0605,129.40603 -10.0409,3.0523 -20.1903,4.5034 -30.1645,4.5034 l 0,36.73606"
         style="fill:#badaf3;fill-opacity:1;fill-rule:nonzero;stroke:none"
         id="path596"
         inkscape:connector-curvature="0" /><g
         id="g3585"
         transform="matrix(0.47219631,0,0,0.47219631,-287.09932,-1138.199)"><path
           id="path80"
           style="fill:#1f4a7a;fill-opacity:1;fill-rule:evenodd;stroke:none"
           d="m 1558.33,6423.88 618.96,0 c 119.87,0 217.94,-98.07 217.94,-217.94 l 0,-1643.3 c 0,-119.87 -98.07,-217.95 -217.94,-217.95 l -618.96,0 c -119.87,0 -217.94,98.08 -217.94,217.95 l 0,1643.3 c 0,119.87 98.07,217.94 217.94,217.94"
           inkscape:connector-curvature="0" /><path
           id="path82"
           style="fill:#4878b3;fill-opacity:1;fill-rule:evenodd;stroke:none"
           d="m 1436.21,6249.53 863.19,0 c 1.68,0 3.06,-1.37 3.06,-3.05 l 0,-1706.94 c 0,-1.68 -1.38,-3.05 -3.06,-3.05 l -863.19,0 c -1.68,0 -3.05,1.37 -3.05,3.05 l 0,1706.94 c 0,1.68 1.37,3.05 3.05,3.05"
           inkscape:connector-curvature="0" /><path
           id="path84"
           style="fill:#5184a4;fill-opacity:1;fill-rule:evenodd;stroke:none"
           d="m 1707.9,6372.45 319.82,0 c 8.67,0 15.76,-7.09 15.76,-15.76 l 0,-0.01 c 0,-8.68 -7.09,-15.77 -15.76,-15.77 l -319.82,0 c -8.68,0 -15.77,7.09 -15.77,15.77 l 0,0.01 c 0,8.67 7.09,15.76 15.77,15.76"
           inkscape:connector-curvature="0" /><path
           id="path86"
           style="fill:#5184a4;fill-opacity:1;fill-rule:evenodd;stroke:none"
           d="m 1867.81,4390.27 c 29.35,0 53.29,23.94 53.29,53.29 0,29.35 -23.94,53.29 -53.29,53.29 -29.35,0 -53.29,-23.94 -53.29,-53.29 0,-29.35 23.94,-53.29 53.29,-53.29"
           inkscape:connector-curvature="0" /><path
           id="path178"
           style="fill:#6095d2;fill-opacity:1;fill-rule:evenodd;stroke:none"
           d="m 2302.46,6246.48 -866.25,-1709.99 -3.05,1709.99 869.3,0"
           inkscape:connector-curvature="0" /></g><path
         d="m 1582.5518,775.84398 92.6116,-40.89755 -177.876,-402.77823 -92.6115,40.89003 177.8759,402.78575"
         style="fill:#ffffff;fill-opacity:1;fill-rule:evenodd;stroke:none"
         id="path598"
         inkscape:connector-curvature="0" /><path
         d="m 1592.6428,749.79097 -161.9223,-366.64345 56.4843,-24.93466 161.9139,366.64262 -56.4759,24.93549"
         style="fill:#e9e8e7;fill-opacity:1;fill-rule:evenodd;stroke:none"
         id="path600"
         inkscape:connector-curvature="0" /><path
         d="m 1745.1329,860.49121 c 23.4927,-33.91727 29.3054,-78.89289 11.4086,-119.40681 -27.354,-61.92175 -99.7253,-89.95958 -161.6554,-62.6056 -61.9217,27.34565 -89.9512,99.71695 -62.6056,161.64704 17.8885,40.52226 55.0416,66.51688 95.9391,71.99602 l -28.0211,-63.41454 -14.8863,-33.74214 21.7665,-29.78916 21.7831,-29.78915 36.686,3.978 36.6777,3.96132 14.9029,33.75048 28.0045,63.41454"
         style="fill:#ffffff;fill-opacity:1;fill-rule:evenodd;stroke:none"
         id="path602"
         inkscape:connector-curvature="0" /><path
         d="m 1451.6196,195.88031 c 40.8976,5.48914 78.0423,31.49795 95.9475,71.99768 27.3373,61.92842 -0.6839,134.29055 -62.6223,161.64537 -61.9301,27.35482 -134.2931,-0.67468 -161.6554,-62.6056 -17.8802,-40.51308 -12.0674,-85.48787 11.417,-119.3968 l 28.0044,63.40703 14.9113,33.74965 36.6693,3.96716 36.6861,3.97133 21.7831,-29.78832 21.7664,-29.78165 -14.9029,-33.74881 -28.0045,-63.41704"
         style="fill:#ffffff;fill-opacity:1;fill-rule:evenodd;stroke:none"
         id="path604"
         inkscape:connector-curvature="0" /><path
         d="m 1487.7969,228.88022 c 18.1554,10.72393 32.8665,26.98621 41.6982,46.96879 22.934,51.95673 -0.5754,112.67006 -52.5313,135.61071 -51.9476,22.94316 -112.6601,-0.57376 -135.6024,-52.52382 -8.8317,-20.0051 -10.9249,-41.81156 -6.63,-62.45214 l 29.4222,66.60611 96.0308,10.38534 57.0264,-77.98554 -29.4139,-66.60945"
         style="fill:#e9e8e7;fill-opacity:1;fill-rule:evenodd;stroke:none"
         id="path606"
         inkscape:connector-curvature="0" /><path
         d="m 1592.4343,880.00594 c -18.1554,-10.72476 -32.8665,-26.97036 -41.6898,-46.96045 -22.9507,-51.96423 0.5587,-112.66005 52.5313,-135.61071 51.9475,-22.94232 112.6434,0.5671 135.5857,52.53133 8.8316,19.98175 10.9332,41.79822 6.63,62.45548 l -29.4222,-66.60862 -96.0309,-10.39952 -57.0263,77.97554 29.4222,66.61695"
         style="fill:#e9e8e7;fill-opacity:1;fill-rule:evenodd;stroke:none"
         id="path608"
         inkscape:connector-curvature="0" /></g></g></svg>
