<?xml version="1.0" encoding="UTF-8" standalone="no"?>
<!-- Created with Inkscape (http://www.inkscape.org/) -->

<svg
   xmlns:dc="http://purl.org/dc/elements/1.1/"
   xmlns:cc="http://creativecommons.org/ns#"
   xmlns:rdf="http://www.w3.org/1999/02/22-rdf-syntax-ns#"
   xmlns:svg="http://www.w3.org/2000/svg"
   xmlns="http://www.w3.org/2000/svg"
   xmlns:sodipodi="http://sodipodi.sourceforge.net/DTD/sodipodi-0.dtd"
   xmlns:inkscape="http://www.inkscape.org/namespaces/inkscape"
   width="10"
   height="10"
   id="svg2988"
   version="1.1"
   inkscape:version="0.48.5 r10040"
   sodipodi:docname="checkmark.svg">
  <defs
     id="defs2990" />
  <sodipodi:namedview
     id="base"
     pagecolor="#ffffff"
     bordercolor="#666666"
     borderopacity="1.0"
     inkscape:pageopacity="0.0"
     inkscape:pageshadow="2"
     inkscape:zoom="15.696216"
     inkscape:cx="9.3005826"
     inkscape:cy="3.5965657"
     inkscape:current-layer="g3"
     showgrid="true"
     inkscape:grid-bbox="true"
     inkscape:document-units="px"
     inkscape:window-width="524"
     inkscape:window-height="415"
     inkscape:window-x="608"
     inkscape:window-y="124"
     inkscape:window-maximized="0" />
  <metadata
     id="metadata2993">
    <rdf:RDF>
      <cc:Work
         rdf:about="">
        <dc:format>image/svg+xml</dc:format>
        <dc:type
           rdf:resource="http://purl.org/dc/dcmitype/StillImage" />
        <dc:title></dc:title>
      </cc:Work>
    </rdf:RDF>
  </metadata>
  <g
     id="layer1"
     inkscape:label="Layer 1"
     inkscape:groupmode="layer"
     transform="translate(0,-6)">
    <g
       transform="matrix(0.08480269,0,0,0.08480269,1.0571973,6.8464777)"
       id="g3">
      <path
         inkscape:connector-curvature="0"
         style="fill:#ffffff"
         d="M 92.839202,7.2483986 C 92.054589,5.8640809 90.801457,5.1007081 89.312191,5.1007081 c -0.837088,0 -1.681671,0.2448786 -2.381326,0.677165 C 86.438608,6.0102588 86.021313,6.301365 85.655243,6.6674359 63.399965,28.915218 44.4668,47.372368 24.556616,65.006174 L 14.105518,52.316182 c -1.0145,-1.231894 -2.145192,-1.490516 -2.913564,-1.490516 -0.924544,0 -1.8703284,0.374816 -2.5899737,0.998257 l -0.1699156,0.08996 c -5.6622091,3.640705 -10.9570985,6.695451 -16.1857706,9.337897 -1.3930637,0.703403 -2.2051632,1.919054 -2.242644,3.349598 -0.6459321,1.58297 -0.2686181,3.250898 1.0207463,4.484039 4.6776933,4.475295 9.02679968,9.421606 13.2334764,14.205499 4.5989829,5.231169 9.3541382,10.639754 14.5728142,15.47362 0.18491,0.173664 0.388559,0.331087 0.617196,0.482262 0.775868,1.035744 1.862832,1.626704 2.997273,1.626704 0.807101,0 1.597961,-0.28736 2.351341,-0.85583 14.587809,-11.007076 27.602642,-23.430952 37.311605,-33.024972 2.849846,-2.817362 5.712184,-5.629724 8.577022,-8.444587 10.032553,-9.85889 20.407439,-20.053863 30.221356,-30.401263 0.53723,-0.564721 0.90205,-1.219398 1.08446,-1.94529 0.85958,-1.331844 0.8196,-2.896072 -0.11744,-4.310374 C 98.483923,16.78495 95.527881,11.994811 92.839207,7.2484009 z M 92.796723,23.953914 C 85.567786,31.496445 77.991521,38.964014 70.663883,46.190452 66.794541,50.003572 62.928946,53.816691 59.095837,57.6523 48.151232,68.606899 36.193376,80.159953 22.876192,90.514849 18.522089,86.261946 14.430357,81.621734 10.469809,77.130198 7.3800812,73.626924 4.1916542,70.012456 0.88328435,66.584146 3.8718106,64.9537 6.9040658,63.178326 10.117482,61.178061 l 10.842154,13.162263 c 1.01575,1.235639 2.15019,1.494261 2.92231,1.494261 0.987014,0 1.975276,-0.416044 2.793622,-1.173171 0.289859,-0.164919 0.54973,-0.348578 0.789612,-0.559724 21.292003,-18.653304 41.735674,-38.670934 60.676336,-57.560372 1.370575,2.275127 2.90107,4.711427 4.655204,7.412596 z"
         id="path5" />
    </g>
  </g>
</svg>
