<?xml version="1.0" encoding="UTF-8" standalone="no"?>
<!-- Created with Inkscape (http://www.inkscape.org/) -->

<svg
   xmlns:dc="http://purl.org/dc/elements/1.1/"
   xmlns:cc="http://creativecommons.org/ns#"
   xmlns:rdf="http://www.w3.org/1999/02/22-rdf-syntax-ns#"
   xmlns:svg="http://www.w3.org/2000/svg"
   xmlns="http://www.w3.org/2000/svg"
   xmlns:sodipodi="http://sodipodi.sourceforge.net/DTD/sodipodi-0.dtd"
   xmlns:inkscape="http://www.inkscape.org/namespaces/inkscape"
   width="550"
   height="185"
   id="svg2985"
   version="1.1"
   inkscape:version="0.48.5 r10040"
   sodipodi:docname="drawing_example1.svg">
  <defs
     id="defs2987" />
  <sodipodi:namedview
     id="base"
     pagecolor="#ffffff"
     bordercolor="#666666"
     borderopacity="1.0"
     inkscape:pageopacity="0.0"
     inkscape:pageshadow="2"
     inkscape:zoom="1.0606602"
     inkscape:cx="315.55845"
     inkscape:cy="-60.254523"
     inkscape:document-units="px"
     inkscape:current-layer="layer1"
     showgrid="false"
     inkscape:window-width="974"
     inkscape:window-height="748"
     inkscape:window-x="282"
     inkscape:window-y="24"
     inkscape:window-maximized="0"
     showguides="true"
     inkscape:guide-bbox="true">
    <sodipodi:guide
       orientation="-0.70710678,0.70710678"
       position="699.56431,21.684608"
       id="guide3783" />
    <sodipodi:guide
       orientation="1,0"
       position="612.82588,123.50798"
       id="guide3785" />
  </sodipodi:namedview>
  <metadata
     id="metadata2990">
    <rdf:RDF>
      <cc:Work
         rdf:about="">
        <dc:format>image/svg+xml</dc:format>
        <dc:type
           rdf:resource="http://purl.org/dc/dcmitype/StillImage" />
        <dc:title />
      </cc:Work>
    </rdf:RDF>
  </metadata>
  <g
     id="layer1"
     inkscape:label="Layer 1"
     inkscape:groupmode="layer"
     transform="translate(0,-301)">
    <path
       style="fill:none;fill-opacity:1;stroke:#ffffff;stroke-width:2.51661158000000018px;stroke-linecap:butt;stroke-linejoin:miter;stroke-opacity:1"
       d="m 36.898801,413.59559 477.439579,0"
       id="path2999"
       inkscape:connector-curvature="0"
       sodipodi:nodetypes="cc" />
    <path
       style="fill:none;stroke:#ffffff;stroke-width:2.00799990000000017;stroke-linecap:butt;stroke-linejoin:miter;stroke-miterlimit:4;stroke-opacity:1;stroke-dasharray:none"
       d="m 513.8078,414.00522 -19.26827,11.12456"
       id="path3001-4"
       inkscape:connector-curvature="0" />
    <path
       style="fill:none;stroke:#ffffff;stroke-width:2.00799990000000017;stroke-linecap:butt;stroke-linejoin:miter;stroke-miterlimit:4;stroke-opacity:1;stroke-dasharray:none"
       d="M 513.83065,413.20988 494.56238,402.08532"
       id="path3001-4-6"
       inkscape:connector-curvature="0" />
    <text
       xml:space="preserve"
       style="font-size:29.27517127999999857px;font-style:normal;font-weight:normal;line-height:125%;letter-spacing:0px;word-spacing:0px;fill:#ffffff;fill-opacity:1;stroke:none;stroke-opacity:1;font-family:Sans"
       x="505.20688"
       y="439.20914"
       id="text3919"
       sodipodi:linespacing="125%"><tspan
         sodipodi:role="line"
         id="tspan3921"
         x="505.20688"
         y="439.20914">x</tspan></text>
    <g
       transform="translate(-107.48023,216.43314)"
       style="font-size:28px;font-style:normal;font-weight:normal;line-height:125%;letter-spacing:0px;word-spacing:0px;fill:#ffffff;fill-opacity:1;stroke:none;font-family:Sans"
       id="flowRoot3763">
      <path
         d="m 247.30469,163.37773 -5.53711,7.45117 5.82422,7.86133 -2.9668,0 -4.45703,-6.01563 -4.45703,6.01563 -2.9668,0 5.94727,-8.01172 -5.44141,-7.30078 2.9668,0 4.06054,5.45507 4.06055,-5.45507 2.9668,0"
         style="fill:#ffffff;fill-opacity:1"
         id="path4092" />
      <path
         d="m 254.29315,172.20412 c -0.92424,1e-5 -1.62037,0.4562 -2.08841,1.36857 -0.46212,0.90647 -0.69318,2.27208 -0.69317,4.09684 -1e-5,1.81884 0.23105,3.18445 0.69317,4.09683 0.46804,0.90646 1.16417,1.35969 2.08841,1.35969 0.93015,0 1.62628,-0.45323 2.08841,-1.35969 0.46803,-0.91238 0.70205,-2.27799 0.70206,-4.09683 -10e-6,-1.82476 -0.23403,-3.19037 -0.70206,-4.09684 -0.46213,-0.91237 -1.15826,-1.36856 -2.08841,-1.36857 m 0,-1.4219 c 1.48706,2e-5 2.62161,0.58951 3.40366,1.76849 0.78796,1.17307 1.18194,2.87934 1.18195,5.11882 -10e-6,2.23356 -0.39399,3.93983 -1.18195,5.11882 -0.78205,1.17306 -1.9166,1.75959 -3.40366,1.75959 -1.48707,0 -2.62459,-0.58653 -3.41255,-1.75959 -0.78204,-1.17899 -1.17306,-2.88526 -1.17306,-5.11882 0,-2.23948 0.39102,-3.94575 1.17306,-5.11882 0.78796,-1.17898 1.92548,-1.76847 3.41255,-1.76849"
         style="font-size:65.00091553000000033%;baseline-shift:sub;fill:#ffffff;fill-opacity:1"
         id="path4094" />
    </g>
    <g
       transform="translate(-82.967195,223.97561)"
       style="font-size:28px;font-style:normal;font-weight:normal;line-height:125%;letter-spacing:0px;word-spacing:0px;fill:#ffffff;fill-opacity:1;stroke:none;font-family:Sans"
       id="flowRoot3773">
      <path
         d="m 389.64844,155.81523 -5.53711,7.45117 5.82422,7.86133 -2.9668,0 -4.45703,-6.01563 -4.45703,6.01563 -2.9668,0 5.94727,-8.01172 -5.44141,-7.30078 2.9668,0 4.06054,5.45507 4.06055,-5.45507 2.9668,0"
         style="fill:#ffffff;fill-opacity:1"
         id="path4087" />
      <path
         d="m 393.10882,175.21696 2.93266,0 0,-10.12211 -3.19038,0.63985 0,-1.63518 3.17261,-0.63985 1.79514,0 0,11.75729 2.93266,0 0,1.51077 -7.64269,0 0,-1.51077"
         style="font-size:65.00091553000000033%;baseline-shift:sub;fill:#ffffff;fill-opacity:1"
         id="path4089" />
    </g>
    <path
       style="fill:none;stroke:#e0eb25;stroke-width:2;stroke-linecap:butt;stroke-linejoin:miter;stroke-miterlimit:4;stroke-opacity:1;stroke-dasharray:none;fill-opacity:1"
       d="m 513.83093,322.89404 c 0,0 -94.28092,-16.02776 -209.30361,90.50966 -115.0227,106.53743 -138.44164,3.14507 -167.82001,0.94281 -20.50684,-0.40745 -48.424728,12.51303 -93.338098,64.11101"
       id="path3787"
       inkscape:connector-curvature="0"
       sodipodi:nodetypes="cscc" />
    <path
       sodipodi:type="arc"
       style="fill:#ffffff;fill-opacity:0.88814996;stroke:#e0eb25;stroke-width:2;stroke-miterlimit:4;stroke-opacity:1;stroke-dasharray:none"
       id="path3057"
       sodipodi:cx="208.66667"
       sodipodi:cy="107.33334"
       sodipodi:rx="5.3333335"
       sodipodi:ry="5.3333335"
       d="m 214.00001,107.33334 a 5.3333335,5.3333335 0 1 1 -10.66667,0 5.3333335,5.3333335 0 1 1 10.66667,0 z"
       transform="translate(-71.661616,305.90524)" />
    <path
       sodipodi:type="arc"
       style="fill:#ffffff;fill-opacity:0.88814996;stroke:#e0eb25;stroke-width:2;stroke-miterlimit:4;stroke-opacity:1;stroke-dasharray:none"
       id="path3057-3"
       sodipodi:cx="208.66667"
       sodipodi:cy="107.33334"
       sodipodi:rx="5.3333335"
       sodipodi:ry="5.3333335"
       d="m 214.00001,107.33334 a 5.3333335,5.3333335 0 1 1 -10.66667,0 5.3333335,5.3333335 0 1 1 10.66667,0 z"
       transform="translate(95.005051,305.90523)" />
    <g
       transform="translate(-108.26128,294.95261)"
       style="font-size:28px;font-style:normal;font-weight:normal;line-height:125%;letter-spacing:0px;word-spacing:0px;fill:#ffffff;fill-opacity:1;stroke:none;font-family:Sans"
       id="flowRoot3793">
      <path
         d="m 208.97412,145.57621 0,2.61035 -0.81299,0 0,-6.79394 0.81299,0 0,0.74707 c 0.16992,-0.29297 0.38379,-0.50976 0.6416,-0.65039 0.26074,-0.14355 0.57129,-0.21533 0.93164,-0.21533 0.59766,0 1.08252,0.2373 1.45459,0.71191 0.375,0.47461 0.5625,1.09864 0.5625,1.87207 0,0.77344 -0.1875,1.39746 -0.5625,1.87207 -0.37207,0.47461 -0.85693,0.71191 -1.45459,0.71191 -0.36035,0 -0.6709,-0.0703 -0.93164,-0.21093 -0.25781,-0.14356 -0.47168,-0.36182 -0.6416,-0.65479 m 2.75098,-1.71826 c -1e-5,-0.59472 -0.12305,-1.06054 -0.36914,-1.39746 -0.24317,-0.33984 -0.57862,-0.50976 -1.00635,-0.50977 -0.42774,1e-5 -0.76465,0.16993 -1.01074,0.50977 -0.24317,0.33692 -0.36475,0.80274 -0.36475,1.39746 0,0.59473 0.12158,1.06201 0.36475,1.40185 0.24609,0.33692 0.583,0.50538 1.01074,0.50538 0.42773,0 0.76318,-0.16846 1.00635,-0.50538 0.24609,-0.33984 0.36913,-0.80712 0.36914,-1.40185"
         style="font-size:9px;fill:#ffffff;fill-opacity:1"
         id="path3963"
         inkscape:connector-curvature="0" />
      <path
         d="m 213.90479,141.39262 0.80859,0 0,4.92187 -0.80859,0 0,-4.92187 m 0,-1.91602 0.80859,0 0,1.02393 -0.80859,0 0,-1.02393"
         style="font-size:9px;fill:#ffffff;fill-opacity:1"
         id="path3965"
         inkscape:connector-curvature="0" />
      <path
         d="m 220.61084,143.65141 0,0.3955 -3.71777,0 c 0.0352,0.55665 0.20214,0.98145 0.50097,1.27442 0.30176,0.29004 0.7207,0.43506 1.25684,0.43506 0.31054,0 0.61084,-0.0381 0.90088,-0.11426 0.29296,-0.0762 0.583,-0.19043 0.87011,-0.34277 l 0,0.76464 c -0.29004,0.12305 -0.5874,0.2168 -0.89208,0.28125 -0.3047,0.0645 -0.61378,0.0967 -0.92725,0.0967 -0.78516,0 -1.40772,-0.22851 -1.86768,-0.68554 -0.45703,-0.45703 -0.68554,-1.0752 -0.68554,-1.8545 0,-0.80566 0.21679,-1.44433 0.65039,-1.91601 0.43652,-0.47461 1.02392,-0.71191 1.7622,-0.71191 0.66211,0 1.18506,0.21387 1.56885,0.6416 0.38672,0.42481 0.58007,1.00342 0.58008,1.73584 m -0.80859,-0.23731 c -0.006,-0.44238 -0.13038,-0.7954 -0.37354,-1.05908 -0.24024,-0.26367 -0.55957,-0.3955 -0.95801,-0.39551 -0.45117,1e-5 -0.81299,0.12745 -1.08545,0.38233 -0.26953,0.25488 -0.4248,0.61377 -0.46582,1.07666 l 2.88282,-0.004"
         style="font-size:9px;fill:#ffffff;fill-opacity:1"
         id="path3967"
         inkscape:connector-curvature="0" />
      <path
         d="m 224.79004,142.14848 c -0.0908,-0.0527 -0.19043,-0.0908 -0.29883,-0.11426 -0.10547,-0.0264 -0.22266,-0.0395 -0.35156,-0.0395 -0.45704,0 -0.8086,0.14942 -1.05469,0.44824 -0.24316,0.2959 -0.36475,0.72217 -0.36475,1.27881 l 0,2.59277 -0.81298,0 0,-4.92187 0.81298,0 0,0.76465 c 0.16992,-0.29883 0.39112,-0.52002 0.66358,-0.66358 0.27246,-0.14648 0.60351,-0.21972 0.99316,-0.21972 0.0557,0 0.11719,0.004 0.18457,0.0132 0.0674,0.006 0.14209,0.0161 0.22412,0.0308 l 0.004,0.83057"
         style="font-size:9px;fill:#ffffff;fill-opacity:1"
         id="path3969"
         inkscape:connector-curvature="0" />
      <path
         d="m 225.17676,141.39262 0.80859,0 1.01074,3.84082 1.00635,-3.84082 0.95361,0 1.01075,3.84082 1.00634,-3.84082 0.8086,0 -1.2876,4.92187 -0.95361,0 -1.05908,-4.03418 -1.06348,4.03418 -0.95361,0 -1.2876,-4.92187"
         style="font-size:9px;fill:#ffffff;fill-opacity:1"
         id="path3971"
         inkscape:connector-curvature="0" />
      <path
         d="m 233.01221,141.39262 0.80859,0 0,4.92187 -0.80859,0 0,-4.92187 m 0,-1.91602 0.80859,0 0,1.02393 -0.80859,0 0,-1.02393"
         style="font-size:9px;fill:#ffffff;fill-opacity:1"
         id="path3973"
         inkscape:connector-curvature="0" />
      <path
         d="m 237.74512,143.84037 c -0.65333,0 -1.10596,0.0747 -1.35791,0.22412 -0.25196,0.14942 -0.37793,0.4043 -0.37793,0.76465 0,0.28711 0.0937,0.51563 0.28125,0.68555 0.19043,0.16699 0.44824,0.25049 0.77343,0.25049 0.44824,0 0.80713,-0.15821 1.07666,-0.47461 0.27246,-0.31934 0.40869,-0.74268 0.4087,-1.27002 l 0,-0.18018 -0.8042,0 m 1.61279,-0.33398 0,2.8081 -0.80859,0 0,-0.74707 c -0.18458,0.29883 -0.41456,0.52002 -0.68995,0.66358 -0.27539,0.14062 -0.6123,0.21093 -1.01074,0.21093 -0.50391,0 -0.90527,-0.14062 -1.2041,-0.42187 -0.2959,-0.28418 -0.44385,-0.66357 -0.44385,-1.13818 0,-0.55371 0.18457,-0.97119 0.55371,-1.25245 0.37207,-0.28124 0.92578,-0.42187 1.66114,-0.42187 l 1.13379,0 0,-0.0791 c -1e-5,-0.37207 -0.12305,-0.65918 -0.36914,-0.86133 -0.24317,-0.20507 -0.58594,-0.30761 -1.02832,-0.30762 -0.28126,1e-5 -0.55518,0.0337 -0.82178,0.10108 -0.2666,0.0674 -0.52295,0.16846 -0.76904,0.30322 l 0,-0.74707 c 0.29589,-0.11425 0.583,-0.19922 0.86132,-0.25488 0.27832,-0.0586 0.54932,-0.0879 0.81299,-0.0879 0.71191,0 1.24365,0.18457 1.59522,0.55371 0.35155,0.36914 0.52734,0.92871 0.52734,1.67871"
         style="font-size:9px;fill:#ffffff;fill-opacity:1"
         id="path3975"
         inkscape:connector-curvature="0" />
      <path
         d="m 244.16553,141.53764 0,0.76465 c -0.22852,-0.11719 -0.46583,-0.20508 -0.71192,-0.26368 -0.24609,-0.0586 -0.50098,-0.0879 -0.76465,-0.0879 -0.40136,1e-5 -0.70312,0.0615 -0.90527,0.18457 -0.19922,0.12305 -0.29883,0.30762 -0.29883,0.55371 0,0.18751 0.0718,0.33546 0.21534,0.44385 0.14355,0.10547 0.43212,0.20655 0.86572,0.30322 l 0.27685,0.0615 c 0.57422,0.12305 0.98145,0.29736 1.22168,0.52295 0.24316,0.22266 0.36474,0.53467 0.36475,0.93603 -1e-5,0.45703 -0.18165,0.81885 -0.54492,1.08545 -0.36036,0.2666 -0.85694,0.3999 -1.48975,0.3999 -0.26367,0 -0.53906,-0.0264 -0.82617,-0.0791 -0.28418,-0.0498 -0.58447,-0.12597 -0.90088,-0.22851 l 0,-0.83496 c 0.29883,0.15527 0.59326,0.27246 0.8833,0.35156 0.29004,0.0762 0.57715,0.11426 0.86133,0.11426 0.38086,0 0.67382,-0.0645 0.87891,-0.19336 0.20507,-0.13184 0.30761,-0.31641 0.30761,-0.55371 0,-0.21973 -0.0747,-0.38819 -0.22412,-0.50538 -0.14649,-0.11718 -0.47022,-0.22997 -0.97119,-0.33837 l -0.28125,-0.0659 c -0.50098,-0.10547 -0.86279,-0.2666 -1.08545,-0.4834 -0.22266,-0.21972 -0.33398,-0.52002 -0.33398,-0.90088 0,-0.46289 0.16406,-0.82031 0.49218,-1.07227 0.32813,-0.25194 0.79395,-0.37792 1.39747,-0.37792 0.29882,0 0.58007,0.022 0.84375,0.0659 0.26366,0.0439 0.50683,0.10987 0.72949,0.19776"
         style="font-size:9px;fill:#ffffff;fill-opacity:1"
         id="path3977"
         inkscape:connector-curvature="0" />
      <path
         d="m 246.521,139.99516 0,1.39746 1.66552,0 0,0.62842 -1.66552,0 0,2.67187 c -10e-6,0.40137 0.0542,0.65918 0.16259,0.77344 0.11133,0.11426 0.33545,0.17139 0.67237,0.17138 l 0.83056,0 0,0.67676 -0.83056,0 c -0.62403,0 -1.05469,-0.11572 -1.292,-0.34717 -0.2373,-0.23437 -0.35595,-0.65917 -0.35595,-1.27441 l 0,-2.67187 -0.59326,0 0,-0.62842 0.59326,0 0,-1.39746 0.81299,0"
         style="font-size:9px;fill:#ffffff;fill-opacity:1"
         id="path3979"
         inkscape:connector-curvature="0" />
      <path
         d="m 253.46436,143.65141 0,0.3955 -3.71778,0 c 0.0352,0.55665 0.20215,0.98145 0.50098,1.27442 0.30175,0.29004 0.7207,0.43506 1.25683,0.43506 0.31055,0 0.61084,-0.0381 0.90088,-0.11426 0.29297,-0.0762 0.58301,-0.19043 0.87012,-0.34277 l 0,0.76464 c -0.29004,0.12305 -0.58741,0.2168 -0.89209,0.28125 -0.30469,0.0645 -0.61377,0.0967 -0.92725,0.0967 -0.78515,0 -1.40771,-0.22851 -1.86767,-0.68554 -0.45703,-0.45703 -0.68555,-1.0752 -0.68555,-1.8545 0,-0.80566 0.2168,-1.44433 0.65039,-1.91601 0.43652,-0.47461 1.02393,-0.71191 1.76221,-0.71191 0.66211,0 1.18505,0.21387 1.56885,0.6416 0.38671,0.42481 0.58007,1.00342 0.58008,1.73584 m -0.8086,-0.23731 c -0.006,-0.44238 -0.13037,-0.7954 -0.37353,-1.05908 -0.24024,-0.26367 -0.55958,-0.3955 -0.95801,-0.39551 -0.45118,1e-5 -0.81299,0.12745 -1.08545,0.38233 -0.26953,0.25488 -0.42481,0.61377 -0.46582,1.07666 l 2.88281,-0.004"
         style="font-size:9px;fill:#ffffff;fill-opacity:1"
         id="path3981"
         inkscape:connector-curvature="0" />
      <path
         d="m 254.76074,139.4766 0.81299,0 0,4.03858 2.4126,-2.12256 1.03271,0 -2.61035,2.30273 2.72022,2.61914 -1.05469,0 -2.50049,-2.40381 0,2.40381 -0.81299,0 0,-6.83789"
         style="font-size:9px;fill:#ffffff;fill-opacity:1"
         id="path3983"
         inkscape:connector-curvature="0" />
      <path
         d="m 208.16113,150.7266 0.81299,0 0,4.03858 2.4126,-2.12256 1.03271,0 -2.61035,2.30273 2.72022,2.61914 -1.05469,0 -2.50049,-2.40381 0,2.40381 -0.81299,0 0,-6.83789"
         style="font-size:9px;fill:#ffffff;fill-opacity:1"
         id="path3985"
         inkscape:connector-curvature="0" />
      <path
         d="m 216.26465,153.39848 c -0.0908,-0.0527 -0.19043,-0.0908 -0.29883,-0.11426 -0.10547,-0.0264 -0.22266,-0.0395 -0.35156,-0.0395 -0.45704,0 -0.8086,0.14942 -1.05469,0.44824 -0.24317,0.2959 -0.36475,0.72217 -0.36475,1.27881 l 0,2.59277 -0.81298,0 0,-4.92187 0.81298,0 0,0.76465 c 0.16992,-0.29883 0.39112,-0.52002 0.66358,-0.66358 0.27246,-0.14648 0.60351,-0.21972 0.99316,-0.21972 0.0557,0 0.11719,0.004 0.18457,0.0132 0.0674,0.006 0.14209,0.0161 0.22412,0.0308 l 0.004,0.83057"
         style="font-size:9px;fill:#ffffff;fill-opacity:1"
         id="path3987"
         inkscape:connector-curvature="0" />
      <path
         d="m 218.83545,153.20951 c -0.4336,1e-5 -0.77637,0.16993 -1.02832,0.50977 -0.25196,0.33692 -0.37793,0.79981 -0.37793,1.38867 0,0.58887 0.12451,1.05322 0.37353,1.39307 0.25196,0.33691 0.59619,0.50537 1.03272,0.50537 0.43066,0 0.77197,-0.16992 1.02392,-0.50977 0.25195,-0.33984 0.37793,-0.80273 0.37793,-1.38867 0,-0.58301 -0.12598,-1.04443 -0.37793,-1.38428 -0.25195,-0.34277 -0.59326,-0.51415 -1.02392,-0.51416 m 0,-0.68554 c 0.70312,0 1.25537,0.22852 1.65674,0.68554 0.40136,0.45704 0.60204,1.08985 0.60205,1.89844 -1e-5,0.80567 -0.20069,1.43848 -0.60205,1.89844 -0.40137,0.45703 -0.95362,0.68554 -1.65674,0.68554 -0.70606,0 -1.25977,-0.22851 -1.66113,-0.68554 -0.39844,-0.45996 -0.59766,-1.09277 -0.59766,-1.89844 0,-0.80859 0.19922,-1.4414 0.59766,-1.89844 0.40136,-0.45702 0.95507,-0.68554 1.66113,-0.68554"
         style="font-size:9px;fill:#ffffff;fill-opacity:1"
         id="path3989"
         inkscape:connector-curvature="0" />
      <path
         d="m 223.22998,151.24516 0,1.39746 1.66553,0 0,0.62842 -1.66553,0 0,2.67187 c 0,0.40137 0.0542,0.65918 0.1626,0.77344 0.11132,0.11426 0.33545,0.17139 0.67236,0.17138 l 0.83057,0 0,0.67676 -0.83057,0 c -0.62402,0 -1.05469,-0.11572 -1.29199,-0.34717 -0.23731,-0.23437 -0.35596,-0.65917 -0.35596,-1.27441 l 0,-2.67187 -0.59326,0 0,-0.62842 0.59326,0 0,-1.39746 0.81299,0"
         style="font-size:9px;fill:#ffffff;fill-opacity:1"
         id="path3991"
         inkscape:connector-curvature="0" />
      <path
         d="m 230.05469,154.59379 0,2.9707 -0.8086,0 0,-2.94433 c 0,-0.46582 -0.0908,-0.81445 -0.27246,-1.0459 -0.18164,-0.23144 -0.4541,-0.34717 -0.81738,-0.34717 -0.43653,0 -0.78076,0.13916 -1.03271,0.41748 -0.25196,0.27832 -0.37794,0.65772 -0.37793,1.13818 l 0,2.78174 -0.81299,0 0,-4.92187 0.81299,0 0,0.76465 c 0.19335,-0.2959 0.4204,-0.51709 0.68115,-0.66358 0.26367,-0.14648 0.56689,-0.21972 0.90967,-0.21972 0.56542,0 0.99316,0.17578 1.2832,0.52734 0.29003,0.34864 0.43505,0.8628 0.43506,1.54248"
         style="font-size:9px;fill:#ffffff;fill-opacity:1"
         id="path3993"
         inkscape:connector-curvature="0" />
      <path
         d="m 233.5835,153.20951 c -0.4336,1e-5 -0.77637,0.16993 -1.02832,0.50977 -0.25196,0.33692 -0.37794,0.79981 -0.37793,1.38867 -10e-6,0.58887 0.12451,1.05322 0.37353,1.39307 0.25195,0.33691 0.59619,0.50537 1.03272,0.50537 0.43066,0 0.77197,-0.16992 1.02392,-0.50977 0.25195,-0.33984 0.37793,-0.80273 0.37793,-1.38867 0,-0.58301 -0.12598,-1.04443 -0.37793,-1.38428 -0.25195,-0.34277 -0.59326,-0.51415 -1.02392,-0.51416 m 0,-0.68554 c 0.70312,0 1.25536,0.22852 1.65673,0.68554 0.40137,0.45704 0.60205,1.08985 0.60206,1.89844 -1e-5,0.80567 -0.20069,1.43848 -0.60206,1.89844 -0.40137,0.45703 -0.95361,0.68554 -1.65673,0.68554 -0.70606,0 -1.25977,-0.22851 -1.66114,-0.68554 -0.39843,-0.45996 -0.59765,-1.09277 -0.59765,-1.89844 0,-0.80859 0.19922,-1.4414 0.59765,-1.89844 0.40137,-0.45702 0.95508,-0.68554 1.66114,-0.68554"
         style="font-size:9px;fill:#ffffff;fill-opacity:1"
         id="path3995"
         inkscape:connector-curvature="0" />
      <path
         d="m 239.48096,150.33549 0.87451,0 -1.43262,1.65234 -0.67236,0 1.23047,-1.65234 m 0.83496,2.45215 0,0.76465 c -0.22852,-0.11719 -0.46583,-0.20508 -0.71192,-0.26368 -0.24609,-0.0586 -0.50098,-0.0879 -0.76464,-0.0879 -0.40137,1e-5 -0.70313,0.0615 -0.90528,0.18457 -0.19922,0.12305 -0.29883,0.30762 -0.29883,0.55371 0,0.18751 0.0718,0.33546 0.21534,0.44385 0.14355,0.10547 0.43212,0.20655 0.86572,0.30322 l 0.27685,0.0615 c 0.57422,0.12305 0.98145,0.29736 1.22168,0.52295 0.24316,0.22266 0.36475,0.53467 0.36475,0.93603 0,0.45703 -0.18164,0.81885 -0.54492,1.08545 -0.36036,0.2666 -0.85694,0.3999 -1.48975,0.3999 -0.26367,0 -0.53906,-0.0264 -0.82617,-0.0791 -0.28418,-0.0498 -0.58447,-0.12597 -0.90088,-0.22851 l 0,-0.83496 c 0.29883,0.15527 0.59326,0.27246 0.8833,0.35156 0.29004,0.0762 0.57715,0.11426 0.86133,0.11426 0.38086,0 0.67383,-0.0645 0.87891,-0.19336 0.20507,-0.13184 0.30761,-0.31641 0.30761,-0.55371 0,-0.21973 -0.0747,-0.38819 -0.22412,-0.50538 -0.14649,-0.11718 -0.47022,-0.22997 -0.97119,-0.33837 l -0.28125,-0.0659 c -0.50098,-0.10547 -0.86279,-0.2666 -1.08545,-0.4834 -0.22266,-0.21972 -0.33398,-0.52002 -0.33398,-0.90088 0,-0.46289 0.16406,-0.82031 0.49218,-1.07227 0.32813,-0.25194 0.79395,-0.37792 1.39747,-0.37792 0.29882,0 0.58007,0.022 0.84375,0.0659 0.26366,0.0439 0.50683,0.10987 0.72949,0.19776"
         style="font-size:9px;fill:#ffffff;fill-opacity:1"
         id="path3997"
         inkscape:connector-curvature="0" />
      <path
         d="m 245.41357,152.83158 0,0.75586 c -0.22852,-0.12597 -0.4585,-0.21972 -0.68994,-0.28125 -0.22852,-0.0644 -0.45996,-0.0967 -0.69433,-0.0967 -0.52442,1e-5 -0.93165,0.167 -1.22168,0.50098 -0.29004,0.33106 -0.43506,0.79688 -0.43506,1.39746 0,0.60059 0.14502,1.06787 0.43506,1.40185 0.29003,0.33106 0.69726,0.49659 1.22168,0.49659 0.23437,0 0.46581,-0.0308 0.69433,-0.0923 0.23144,-0.0644 0.46142,-0.15967 0.68994,-0.28564 l 0,0.74707 c -0.22559,0.10547 -0.45996,0.18457 -0.70312,0.2373 -0.24024,0.0527 -0.49659,0.0791 -0.76904,0.0791 -0.74122,0 -1.33008,-0.23291 -1.76661,-0.69873 -0.43652,-0.46582 -0.65478,-1.09423 -0.65478,-1.88525 0,-0.80273 0.21973,-1.43408 0.65918,-1.89404 0.44238,-0.45996 1.04736,-0.68994 1.81494,-0.68994 0.24902,0 0.49218,0.0264 0.72949,0.0791 0.2373,0.0498 0.46728,0.12598 0.68994,0.22851"
         style="font-size:9px;fill:#ffffff;fill-opacity:1"
         id="path3999"
         inkscape:connector-curvature="0" />
      <path
         d="m 246.82861,152.64262 0.8086,0 0,4.92187 -0.8086,0 0,-4.92187 m 0,-1.91602 0.8086,0 0,1.02393 -0.8086,0 0,-1.02393"
         style="font-size:9px;fill:#ffffff;fill-opacity:1"
         id="path4001"
         inkscape:connector-curvature="0" />
      <path
         d="m 208.97412,168.07621 0,2.61035 -0.81299,0 0,-6.79394 0.81299,0 0,0.74707 c 0.16992,-0.29297 0.38379,-0.50976 0.6416,-0.65039 0.26074,-0.14355 0.57129,-0.21533 0.93164,-0.21533 0.59766,0 1.08252,0.2373 1.45459,0.71191 0.375,0.47461 0.5625,1.09864 0.5625,1.87207 0,0.77344 -0.1875,1.39746 -0.5625,1.87207 -0.37207,0.47461 -0.85693,0.71191 -1.45459,0.71191 -0.36035,0 -0.6709,-0.0703 -0.93164,-0.21093 -0.25781,-0.14356 -0.47168,-0.36182 -0.6416,-0.65479 m 2.75098,-1.71826 c -1e-5,-0.59472 -0.12305,-1.06054 -0.36914,-1.39746 -0.24317,-0.33984 -0.57862,-0.50976 -1.00635,-0.50977 -0.42774,1e-5 -0.76465,0.16993 -1.01074,0.50977 -0.24317,0.33692 -0.36475,0.80274 -0.36475,1.39746 0,0.59473 0.12158,1.06201 0.36475,1.40185 0.24609,0.33692 0.583,0.50538 1.01074,0.50538 0.42773,0 0.76318,-0.16846 1.00635,-0.50538 0.24609,-0.33984 0.36913,-0.80712 0.36914,-1.40185"
         style="font-size:9px;fill:#ffffff;fill-opacity:1"
         id="path4003"
         inkscape:connector-curvature="0" />
      <path
         d="m 216.1416,166.34037 c -0.65332,0 -1.10596,0.0747 -1.35791,0.22412 -0.25195,0.14942 -0.37793,0.4043 -0.37793,0.76465 0,0.28711 0.0937,0.51563 0.28125,0.68555 0.19043,0.16699 0.44824,0.25049 0.77344,0.25049 0.44824,0 0.80712,-0.15821 1.07666,-0.47461 0.27246,-0.31934 0.40869,-0.74268 0.40869,-1.27002 l 0,-0.18018 -0.8042,0 m 1.61279,-0.33398 0,2.8081 -0.80859,0 0,-0.74707 c -0.18457,0.29883 -0.41455,0.52002 -0.68994,0.66358 -0.27539,0.14062 -0.61231,0.21093 -1.01074,0.21093 -0.50391,0 -0.90528,-0.14062 -1.2041,-0.42187 -0.2959,-0.28418 -0.44385,-0.66357 -0.44385,-1.13818 0,-0.55371 0.18457,-0.97119 0.55371,-1.25245 0.37207,-0.28124 0.92578,-0.42187 1.66113,-0.42187 l 1.13379,0 0,-0.0791 c 0,-0.37207 -0.12305,-0.65918 -0.36914,-0.86133 -0.24317,-0.20507 -0.58594,-0.30761 -1.02832,-0.30762 -0.28125,1e-5 -0.55518,0.0337 -0.82178,0.10108 -0.2666,0.0674 -0.52295,0.16846 -0.76904,0.30322 l 0,-0.74707 c 0.2959,-0.11425 0.58301,-0.19922 0.86133,-0.25488 0.27832,-0.0586 0.54931,-0.0879 0.81299,-0.0879 0.71191,0 1.24364,0.18457 1.59521,0.55371 0.35156,0.36914 0.52734,0.92871 0.52734,1.67871"
         style="font-size:9px;fill:#ffffff;fill-opacity:1"
         id="path4005"
         inkscape:connector-curvature="0" />
      <path
         d="m 222.27637,164.64848 c -0.0908,-0.0527 -0.19044,-0.0908 -0.29883,-0.11426 -0.10547,-0.0264 -0.22266,-0.0395 -0.35156,-0.0395 -0.45704,0 -0.8086,0.14942 -1.05469,0.44824 -0.24317,0.2959 -0.36475,0.72217 -0.36475,1.27881 l 0,2.59277 -0.81299,0 0,-4.92187 0.81299,0 0,0.76465 c 0.16992,-0.29883 0.39111,-0.52002 0.66358,-0.66358 0.27246,-0.14648 0.60351,-0.21972 0.99316,-0.21972 0.0557,0 0.11719,0.004 0.18457,0.0132 0.0674,0.006 0.14209,0.0161 0.22412,0.0308 l 0.004,0.83057"
         style="font-size:9px;fill:#ffffff;fill-opacity:1"
         id="path4007"
         inkscape:connector-curvature="0" />
      <path
         d="m 222.78174,163.89262 3.84082,0 0,0.73828 -3.04102,3.5376 3.04102,0 0,0.64599 -3.95069,0 0,-0.73828 3.04102,-3.5376 -2.93115,0 0,-0.64599"
         style="font-size:9px;fill:#ffffff;fill-opacity:1"
         id="path4009"
         inkscape:connector-curvature="0" />
      <path
         d="m 229.90967,169.27152 c -0.22852,0.58594 -0.45118,0.96826 -0.66797,1.14698 -0.2168,0.17871 -0.50684,0.26806 -0.87012,0.26806 l -0.64599,0 0,-0.67676 0.47461,0 c 0.22265,0 0.3955,-0.0527 0.51855,-0.1582 0.12305,-0.10547 0.25928,-0.35449 0.40869,-0.74707 l 0.14502,-0.36914 -1.99072,-4.84277 0.85693,0 1.53809,3.84961 1.53808,-3.84961 0.85694,0 -2.16211,5.3789"
         style="font-size:9px;fill:#ffffff;fill-opacity:1"
         id="path4011"
         inkscape:connector-curvature="0" />
      <path
         d="m 236.32568,164.03764 0,0.76465 c -0.22852,-0.11719 -0.46582,-0.20508 -0.71191,-0.26368 -0.2461,-0.0586 -0.50098,-0.0879 -0.76465,-0.0879 -0.40137,1e-5 -0.70313,0.0615 -0.90527,0.18457 -0.19922,0.12305 -0.29883,0.30762 -0.29883,0.55371 0,0.18751 0.0718,0.33546 0.21533,0.44385 0.14355,0.10547 0.43213,0.20655 0.86572,0.30322 l 0.27686,0.0615 c 0.57422,0.12305 0.98144,0.29736 1.22168,0.52295 0.24316,0.22266 0.36474,0.53467 0.36475,0.93603 -1e-5,0.45703 -0.18165,0.81885 -0.54493,1.08545 -0.36035,0.2666 -0.85693,0.3999 -1.48974,0.3999 -0.26368,0 -0.53907,-0.0264 -0.82617,-0.0791 -0.28419,-0.0498 -0.58448,-0.12597 -0.90088,-0.22851 l 0,-0.83496 c 0.29882,0.15527 0.59326,0.27246 0.8833,0.35156 0.29003,0.0762 0.57714,0.11426 0.86133,0.11426 0.38085,0 0.67382,-0.0645 0.8789,-0.19336 0.20508,-0.13184 0.30762,-0.31641 0.30762,-0.55371 0,-0.21973 -0.0747,-0.38819 -0.22412,-0.50538 -0.14649,-0.11718 -0.47022,-0.22997 -0.97119,-0.33837 l -0.28125,-0.0659 c -0.50098,-0.10547 -0.8628,-0.2666 -1.08545,-0.4834 -0.22266,-0.21972 -0.33399,-0.52002 -0.33399,-0.90088 0,-0.46289 0.16406,-0.82031 0.49219,-1.07227 0.32812,-0.25194 0.79394,-0.37792 1.39746,-0.37792 0.29883,0 0.58008,0.022 0.84375,0.0659 0.26367,0.0439 0.50683,0.10987 0.72949,0.19776"
         style="font-size:9px;fill:#ffffff;fill-opacity:1"
         id="path4013"
         inkscape:connector-curvature="0" />
      <path
         d="m 238.68115,162.49516 0,1.39746 1.66553,0 0,0.62842 -1.66553,0 0,2.67187 c 0,0.40137 0.0542,0.65918 0.1626,0.77344 0.11133,0.11426 0.33545,0.17139 0.67236,0.17138 l 0.83057,0 0,0.67676 -0.83057,0 c -0.62402,0 -1.05469,-0.11572 -1.29199,-0.34717 -0.2373,-0.23437 -0.35596,-0.65917 -0.35596,-1.27441 l 0,-2.67187 -0.59326,0 0,-0.62842 0.59326,0 0,-1.39746 0.81299,0"
         style="font-size:9px;fill:#ffffff;fill-opacity:1"
         id="path4015"
         inkscape:connector-curvature="0" />
      <path
         d="m 245.62451,166.15141 0,0.3955 -3.71777,0 c 0.0351,0.55665 0.20215,0.98145 0.50097,1.27442 0.30176,0.29004 0.72071,0.43506 1.25684,0.43506 0.31054,0 0.61084,-0.0381 0.90088,-0.11426 0.29296,-0.0762 0.583,-0.19043 0.87012,-0.34277 l 0,0.76464 c -0.29005,0.12305 -0.58741,0.2168 -0.89209,0.28125 -0.30469,0.0645 -0.61378,0.0967 -0.92725,0.0967 -0.78516,0 -1.40772,-0.22851 -1.86767,-0.68554 -0.45704,-0.45703 -0.68555,-1.0752 -0.68555,-1.8545 0,-0.80566 0.21679,-1.44433 0.65039,-1.91601 0.43652,-0.47461 1.02392,-0.71191 1.76221,-0.71191 0.6621,0 1.18505,0.21387 1.56884,0.6416 0.38672,0.42481 0.58008,1.00342 0.58008,1.73584 m -0.80859,-0.23731 c -0.006,-0.44238 -0.13038,-0.7954 -0.37354,-1.05908 -0.24024,-0.26367 -0.55957,-0.3955 -0.95801,-0.39551 -0.45117,1e-5 -0.81299,0.12745 -1.08544,0.38233 -0.26954,0.25488 -0.42481,0.61377 -0.46582,1.07666 l 2.88281,-0.004"
         style="font-size:9px;fill:#ffffff;fill-opacity:1"
         id="path4017"
         inkscape:connector-curvature="0" />
      <path
         d="m 246.95166,163.89262 0.80859,0 0,5.00976 c 0,0.62696 -0.12011,1.08106 -0.36035,1.36231 -0.2373,0.28125 -0.62109,0.42187 -1.15136,0.42187 l -0.30762,0 0,-0.68554 0.21533,0 c 0.30762,-1e-5 0.51709,-0.0718 0.62842,-0.21534 0.11133,-0.14062 0.16699,-0.43506 0.16699,-0.8833 l 0,-5.00976 m 0,-1.91602 0.80859,0 0,1.02393 -0.80859,0 0,-1.02393"
         style="font-size:9px;fill:#ffffff;fill-opacity:1"
         id="path4019"
         inkscape:connector-curvature="0" />
    </g>
    <g
       transform="translate(96.827732,292.91841)"
       style="font-size:28px;font-style:normal;font-weight:normal;line-height:125%;letter-spacing:0px;word-spacing:0px;fill:#ffffff;fill-opacity:1;stroke:none;font-family:Sans"
       id="flowRoot3793-6">
      <path
         d="m 208.97412,145.57621 0,2.61035 -0.81299,0 0,-6.79394 0.81299,0 0,0.74707 c 0.16992,-0.29297 0.38379,-0.50976 0.6416,-0.65039 0.26074,-0.14355 0.57129,-0.21533 0.93164,-0.21533 0.59766,0 1.08252,0.2373 1.45459,0.71191 0.375,0.47461 0.5625,1.09864 0.5625,1.87207 0,0.77344 -0.1875,1.39746 -0.5625,1.87207 -0.37207,0.47461 -0.85693,0.71191 -1.45459,0.71191 -0.36035,0 -0.6709,-0.0703 -0.93164,-0.21093 -0.25781,-0.14356 -0.47168,-0.36182 -0.6416,-0.65479 m 2.75098,-1.71826 c -1e-5,-0.59472 -0.12305,-1.06054 -0.36914,-1.39746 -0.24317,-0.33984 -0.57862,-0.50976 -1.00635,-0.50977 -0.42774,1e-5 -0.76465,0.16993 -1.01074,0.50977 -0.24317,0.33692 -0.36475,0.80274 -0.36475,1.39746 0,0.59473 0.12158,1.06201 0.36475,1.40185 0.24609,0.33692 0.583,0.50538 1.01074,0.50538 0.42773,0 0.76318,-0.16846 1.00635,-0.50538 0.24609,-0.33984 0.36913,-0.80712 0.36914,-1.40185"
         style="font-size:9px;fill:#ffffff;fill-opacity:1"
         id="path4022"
         inkscape:connector-curvature="0" />
      <path
         d="m 213.90479,141.39262 0.80859,0 0,4.92187 -0.80859,0 0,-4.92187 m 0,-1.91602 0.80859,0 0,1.02393 -0.80859,0 0,-1.02393"
         style="font-size:9px;fill:#ffffff;fill-opacity:1"
         id="path4024"
         inkscape:connector-curvature="0" />
      <path
         d="m 220.61084,143.65141 0,0.3955 -3.71777,0 c 0.0352,0.55665 0.20214,0.98145 0.50097,1.27442 0.30176,0.29004 0.7207,0.43506 1.25684,0.43506 0.31054,0 0.61084,-0.0381 0.90088,-0.11426 0.29296,-0.0762 0.583,-0.19043 0.87011,-0.34277 l 0,0.76464 c -0.29004,0.12305 -0.5874,0.2168 -0.89208,0.28125 -0.3047,0.0645 -0.61378,0.0967 -0.92725,0.0967 -0.78516,0 -1.40772,-0.22851 -1.86768,-0.68554 -0.45703,-0.45703 -0.68554,-1.0752 -0.68554,-1.8545 0,-0.80566 0.21679,-1.44433 0.65039,-1.91601 0.43652,-0.47461 1.02392,-0.71191 1.7622,-0.71191 0.66211,0 1.18506,0.21387 1.56885,0.6416 0.38672,0.42481 0.58007,1.00342 0.58008,1.73584 m -0.80859,-0.23731 c -0.006,-0.44238 -0.13038,-0.7954 -0.37354,-1.05908 -0.24024,-0.26367 -0.55957,-0.3955 -0.95801,-0.39551 -0.45117,1e-5 -0.81299,0.12745 -1.08545,0.38233 -0.26953,0.25488 -0.4248,0.61377 -0.46582,1.07666 l 2.88282,-0.004"
         style="font-size:9px;fill:#ffffff;fill-opacity:1"
         id="path4026"
         inkscape:connector-curvature="0" />
      <path
         d="m 224.79004,142.14848 c -0.0908,-0.0527 -0.19043,-0.0908 -0.29883,-0.11426 -0.10547,-0.0264 -0.22266,-0.0395 -0.35156,-0.0395 -0.45704,0 -0.8086,0.14942 -1.05469,0.44824 -0.24316,0.2959 -0.36475,0.72217 -0.36475,1.27881 l 0,2.59277 -0.81298,0 0,-4.92187 0.81298,0 0,0.76465 c 0.16992,-0.29883 0.39112,-0.52002 0.66358,-0.66358 0.27246,-0.14648 0.60351,-0.21972 0.99316,-0.21972 0.0557,0 0.11719,0.004 0.18457,0.0132 0.0674,0.006 0.14209,0.0161 0.22412,0.0308 l 0.004,0.83057"
         style="font-size:9px;fill:#ffffff;fill-opacity:1"
         id="path4028"
         inkscape:connector-curvature="0" />
      <path
         d="m 225.17676,141.39262 0.80859,0 1.01074,3.84082 1.00635,-3.84082 0.95361,0 1.01075,3.84082 1.00634,-3.84082 0.8086,0 -1.2876,4.92187 -0.95361,0 -1.05908,-4.03418 -1.06348,4.03418 -0.95361,0 -1.2876,-4.92187"
         style="font-size:9px;fill:#ffffff;fill-opacity:1"
         id="path4030"
         inkscape:connector-curvature="0" />
      <path
         d="m 233.01221,141.39262 0.80859,0 0,4.92187 -0.80859,0 0,-4.92187 m 0,-1.91602 0.80859,0 0,1.02393 -0.80859,0 0,-1.02393"
         style="font-size:9px;fill:#ffffff;fill-opacity:1"
         id="path4032"
         inkscape:connector-curvature="0" />
      <path
         d="m 237.74512,143.84037 c -0.65333,0 -1.10596,0.0747 -1.35791,0.22412 -0.25196,0.14942 -0.37793,0.4043 -0.37793,0.76465 0,0.28711 0.0937,0.51563 0.28125,0.68555 0.19043,0.16699 0.44824,0.25049 0.77343,0.25049 0.44824,0 0.80713,-0.15821 1.07666,-0.47461 0.27246,-0.31934 0.40869,-0.74268 0.4087,-1.27002 l 0,-0.18018 -0.8042,0 m 1.61279,-0.33398 0,2.8081 -0.80859,0 0,-0.74707 c -0.18458,0.29883 -0.41456,0.52002 -0.68995,0.66358 -0.27539,0.14062 -0.6123,0.21093 -1.01074,0.21093 -0.50391,0 -0.90527,-0.14062 -1.2041,-0.42187 -0.2959,-0.28418 -0.44385,-0.66357 -0.44385,-1.13818 0,-0.55371 0.18457,-0.97119 0.55371,-1.25245 0.37207,-0.28124 0.92578,-0.42187 1.66114,-0.42187 l 1.13379,0 0,-0.0791 c -1e-5,-0.37207 -0.12305,-0.65918 -0.36914,-0.86133 -0.24317,-0.20507 -0.58594,-0.30761 -1.02832,-0.30762 -0.28126,1e-5 -0.55518,0.0337 -0.82178,0.10108 -0.2666,0.0674 -0.52295,0.16846 -0.76904,0.30322 l 0,-0.74707 c 0.29589,-0.11425 0.583,-0.19922 0.86132,-0.25488 0.27832,-0.0586 0.54932,-0.0879 0.81299,-0.0879 0.71191,0 1.24365,0.18457 1.59522,0.55371 0.35155,0.36914 0.52734,0.92871 0.52734,1.67871"
         style="font-size:9px;fill:#ffffff;fill-opacity:1"
         id="path4034"
         inkscape:connector-curvature="0" />
      <path
         d="m 244.16553,141.53764 0,0.76465 c -0.22852,-0.11719 -0.46583,-0.20508 -0.71192,-0.26368 -0.24609,-0.0586 -0.50098,-0.0879 -0.76465,-0.0879 -0.40136,1e-5 -0.70312,0.0615 -0.90527,0.18457 -0.19922,0.12305 -0.29883,0.30762 -0.29883,0.55371 0,0.18751 0.0718,0.33546 0.21534,0.44385 0.14355,0.10547 0.43212,0.20655 0.86572,0.30322 l 0.27685,0.0615 c 0.57422,0.12305 0.98145,0.29736 1.22168,0.52295 0.24316,0.22266 0.36474,0.53467 0.36475,0.93603 -1e-5,0.45703 -0.18165,0.81885 -0.54492,1.08545 -0.36036,0.2666 -0.85694,0.3999 -1.48975,0.3999 -0.26367,0 -0.53906,-0.0264 -0.82617,-0.0791 -0.28418,-0.0498 -0.58447,-0.12597 -0.90088,-0.22851 l 0,-0.83496 c 0.29883,0.15527 0.59326,0.27246 0.8833,0.35156 0.29004,0.0762 0.57715,0.11426 0.86133,0.11426 0.38086,0 0.67382,-0.0645 0.87891,-0.19336 0.20507,-0.13184 0.30761,-0.31641 0.30761,-0.55371 0,-0.21973 -0.0747,-0.38819 -0.22412,-0.50538 -0.14649,-0.11718 -0.47022,-0.22997 -0.97119,-0.33837 l -0.28125,-0.0659 c -0.50098,-0.10547 -0.86279,-0.2666 -1.08545,-0.4834 -0.22266,-0.21972 -0.33398,-0.52002 -0.33398,-0.90088 0,-0.46289 0.16406,-0.82031 0.49218,-1.07227 0.32813,-0.25194 0.79395,-0.37792 1.39747,-0.37792 0.29882,0 0.58007,0.022 0.84375,0.0659 0.26366,0.0439 0.50683,0.10987 0.72949,0.19776"
         style="font-size:9px;fill:#ffffff;fill-opacity:1"
         id="path4036"
         inkscape:connector-curvature="0" />
      <path
         d="m 246.521,139.99516 0,1.39746 1.66552,0 0,0.62842 -1.66552,0 0,2.67187 c -10e-6,0.40137 0.0542,0.65918 0.16259,0.77344 0.11133,0.11426 0.33545,0.17139 0.67237,0.17138 l 0.83056,0 0,0.67676 -0.83056,0 c -0.62403,0 -1.05469,-0.11572 -1.292,-0.34717 -0.2373,-0.23437 -0.35595,-0.65917 -0.35595,-1.27441 l 0,-2.67187 -0.59326,0 0,-0.62842 0.59326,0 0,-1.39746 0.81299,0"
         style="font-size:9px;fill:#ffffff;fill-opacity:1"
         id="path4038"
         inkscape:connector-curvature="0" />
      <path
         d="m 253.46436,143.65141 0,0.3955 -3.71778,0 c 0.0352,0.55665 0.20215,0.98145 0.50098,1.27442 0.30175,0.29004 0.7207,0.43506 1.25683,0.43506 0.31055,0 0.61084,-0.0381 0.90088,-0.11426 0.29297,-0.0762 0.58301,-0.19043 0.87012,-0.34277 l 0,0.76464 c -0.29004,0.12305 -0.58741,0.2168 -0.89209,0.28125 -0.30469,0.0645 -0.61377,0.0967 -0.92725,0.0967 -0.78515,0 -1.40771,-0.22851 -1.86767,-0.68554 -0.45703,-0.45703 -0.68555,-1.0752 -0.68555,-1.8545 0,-0.80566 0.2168,-1.44433 0.65039,-1.91601 0.43652,-0.47461 1.02393,-0.71191 1.76221,-0.71191 0.66211,0 1.18505,0.21387 1.56885,0.6416 0.38671,0.42481 0.58007,1.00342 0.58008,1.73584 m -0.8086,-0.23731 c -0.006,-0.44238 -0.13037,-0.7954 -0.37353,-1.05908 -0.24024,-0.26367 -0.55958,-0.3955 -0.95801,-0.39551 -0.45118,1e-5 -0.81299,0.12745 -1.08545,0.38233 -0.26953,0.25488 -0.42481,0.61377 -0.46582,1.07666 l 2.88281,-0.004"
         style="font-size:9px;fill:#ffffff;fill-opacity:1"
         id="path4040"
         inkscape:connector-curvature="0" />
      <path
         d="m 254.76074,139.4766 0.81299,0 0,4.03858 2.4126,-2.12256 1.03271,0 -2.61035,2.30273 2.72022,2.61914 -1.05469,0 -2.50049,-2.40381 0,2.40381 -0.81299,0 0,-6.83789"
         style="font-size:9px;fill:#ffffff;fill-opacity:1"
         id="path4042"
         inkscape:connector-curvature="0" />
      <path
         d="m 208.16113,150.7266 0.81299,0 0,4.03858 2.4126,-2.12256 1.03271,0 -2.61035,2.30273 2.72022,2.61914 -1.05469,0 -2.50049,-2.40381 0,2.40381 -0.81299,0 0,-6.83789"
         style="font-size:9px;fill:#ffffff;fill-opacity:1"
         id="path4044"
         inkscape:connector-curvature="0" />
      <path
         d="m 216.26465,153.39848 c -0.0908,-0.0527 -0.19043,-0.0908 -0.29883,-0.11426 -0.10547,-0.0264 -0.22266,-0.0395 -0.35156,-0.0395 -0.45704,0 -0.8086,0.14942 -1.05469,0.44824 -0.24317,0.2959 -0.36475,0.72217 -0.36475,1.27881 l 0,2.59277 -0.81298,0 0,-4.92187 0.81298,0 0,0.76465 c 0.16992,-0.29883 0.39112,-0.52002 0.66358,-0.66358 0.27246,-0.14648 0.60351,-0.21972 0.99316,-0.21972 0.0557,0 0.11719,0.004 0.18457,0.0132 0.0674,0.006 0.14209,0.0161 0.22412,0.0308 l 0.004,0.83057"
         style="font-size:9px;fill:#ffffff;fill-opacity:1"
         id="path4046"
         inkscape:connector-curvature="0" />
      <path
         d="m 218.83545,153.20951 c -0.4336,1e-5 -0.77637,0.16993 -1.02832,0.50977 -0.25196,0.33692 -0.37793,0.79981 -0.37793,1.38867 0,0.58887 0.12451,1.05322 0.37353,1.39307 0.25196,0.33691 0.59619,0.50537 1.03272,0.50537 0.43066,0 0.77197,-0.16992 1.02392,-0.50977 0.25195,-0.33984 0.37793,-0.80273 0.37793,-1.38867 0,-0.58301 -0.12598,-1.04443 -0.37793,-1.38428 -0.25195,-0.34277 -0.59326,-0.51415 -1.02392,-0.51416 m 0,-0.68554 c 0.70312,0 1.25537,0.22852 1.65674,0.68554 0.40136,0.45704 0.60204,1.08985 0.60205,1.89844 -1e-5,0.80567 -0.20069,1.43848 -0.60205,1.89844 -0.40137,0.45703 -0.95362,0.68554 -1.65674,0.68554 -0.70606,0 -1.25977,-0.22851 -1.66113,-0.68554 -0.39844,-0.45996 -0.59766,-1.09277 -0.59766,-1.89844 0,-0.80859 0.19922,-1.4414 0.59766,-1.89844 0.40136,-0.45702 0.95507,-0.68554 1.66113,-0.68554"
         style="font-size:9px;fill:#ffffff;fill-opacity:1"
         id="path4048"
         inkscape:connector-curvature="0" />
      <path
         d="m 223.22998,151.24516 0,1.39746 1.66553,0 0,0.62842 -1.66553,0 0,2.67187 c 0,0.40137 0.0542,0.65918 0.1626,0.77344 0.11132,0.11426 0.33545,0.17139 0.67236,0.17138 l 0.83057,0 0,0.67676 -0.83057,0 c -0.62402,0 -1.05469,-0.11572 -1.29199,-0.34717 -0.23731,-0.23437 -0.35596,-0.65917 -0.35596,-1.27441 l 0,-2.67187 -0.59326,0 0,-0.62842 0.59326,0 0,-1.39746 0.81299,0"
         style="font-size:9px;fill:#ffffff;fill-opacity:1"
         id="path4050"
         inkscape:connector-curvature="0" />
      <path
         d="m 230.05469,154.59379 0,2.9707 -0.8086,0 0,-2.94433 c 0,-0.46582 -0.0908,-0.81445 -0.27246,-1.0459 -0.18164,-0.23144 -0.4541,-0.34717 -0.81738,-0.34717 -0.43653,0 -0.78076,0.13916 -1.03271,0.41748 -0.25196,0.27832 -0.37794,0.65772 -0.37793,1.13818 l 0,2.78174 -0.81299,0 0,-4.92187 0.81299,0 0,0.76465 c 0.19335,-0.2959 0.4204,-0.51709 0.68115,-0.66358 0.26367,-0.14648 0.56689,-0.21972 0.90967,-0.21972 0.56542,0 0.99316,0.17578 1.2832,0.52734 0.29003,0.34864 0.43505,0.8628 0.43506,1.54248"
         style="font-size:9px;fill:#ffffff;fill-opacity:1"
         id="path4052"
         inkscape:connector-curvature="0" />
      <path
         d="m 233.5835,153.20951 c -0.4336,1e-5 -0.77637,0.16993 -1.02832,0.50977 -0.25196,0.33692 -0.37794,0.79981 -0.37793,1.38867 -10e-6,0.58887 0.12451,1.05322 0.37353,1.39307 0.25195,0.33691 0.59619,0.50537 1.03272,0.50537 0.43066,0 0.77197,-0.16992 1.02392,-0.50977 0.25195,-0.33984 0.37793,-0.80273 0.37793,-1.38867 0,-0.58301 -0.12598,-1.04443 -0.37793,-1.38428 -0.25195,-0.34277 -0.59326,-0.51415 -1.02392,-0.51416 m 0,-0.68554 c 0.70312,0 1.25536,0.22852 1.65673,0.68554 0.40137,0.45704 0.60205,1.08985 0.60206,1.89844 -1e-5,0.80567 -0.20069,1.43848 -0.60206,1.89844 -0.40137,0.45703 -0.95361,0.68554 -1.65673,0.68554 -0.70606,0 -1.25977,-0.22851 -1.66114,-0.68554 -0.39843,-0.45996 -0.59765,-1.09277 -0.59765,-1.89844 0,-0.80859 0.19922,-1.4414 0.59765,-1.89844 0.40137,-0.45702 0.95508,-0.68554 1.66114,-0.68554"
         style="font-size:9px;fill:#ffffff;fill-opacity:1"
         id="path4054"
         inkscape:connector-curvature="0" />
      <path
         d="m 239.48096,150.33549 0.87451,0 -1.43262,1.65234 -0.67236,0 1.23047,-1.65234 m 0.83496,2.45215 0,0.76465 c -0.22852,-0.11719 -0.46583,-0.20508 -0.71192,-0.26368 -0.24609,-0.0586 -0.50098,-0.0879 -0.76464,-0.0879 -0.40137,1e-5 -0.70313,0.0615 -0.90528,0.18457 -0.19922,0.12305 -0.29883,0.30762 -0.29883,0.55371 0,0.18751 0.0718,0.33546 0.21534,0.44385 0.14355,0.10547 0.43212,0.20655 0.86572,0.30322 l 0.27685,0.0615 c 0.57422,0.12305 0.98145,0.29736 1.22168,0.52295 0.24316,0.22266 0.36475,0.53467 0.36475,0.93603 0,0.45703 -0.18164,0.81885 -0.54492,1.08545 -0.36036,0.2666 -0.85694,0.3999 -1.48975,0.3999 -0.26367,0 -0.53906,-0.0264 -0.82617,-0.0791 -0.28418,-0.0498 -0.58447,-0.12597 -0.90088,-0.22851 l 0,-0.83496 c 0.29883,0.15527 0.59326,0.27246 0.8833,0.35156 0.29004,0.0762 0.57715,0.11426 0.86133,0.11426 0.38086,0 0.67383,-0.0645 0.87891,-0.19336 0.20507,-0.13184 0.30761,-0.31641 0.30761,-0.55371 0,-0.21973 -0.0747,-0.38819 -0.22412,-0.50538 -0.14649,-0.11718 -0.47022,-0.22997 -0.97119,-0.33837 l -0.28125,-0.0659 c -0.50098,-0.10547 -0.86279,-0.2666 -1.08545,-0.4834 -0.22266,-0.21972 -0.33398,-0.52002 -0.33398,-0.90088 0,-0.46289 0.16406,-0.82031 0.49218,-1.07227 0.32813,-0.25194 0.79395,-0.37792 1.39747,-0.37792 0.29882,0 0.58007,0.022 0.84375,0.0659 0.26366,0.0439 0.50683,0.10987 0.72949,0.19776"
         style="font-size:9px;fill:#ffffff;fill-opacity:1"
         id="path4056"
         inkscape:connector-curvature="0" />
      <path
         d="m 245.41357,152.83158 0,0.75586 c -0.22852,-0.12597 -0.4585,-0.21972 -0.68994,-0.28125 -0.22852,-0.0644 -0.45996,-0.0967 -0.69433,-0.0967 -0.52442,1e-5 -0.93165,0.167 -1.22168,0.50098 -0.29004,0.33106 -0.43506,0.79688 -0.43506,1.39746 0,0.60059 0.14502,1.06787 0.43506,1.40185 0.29003,0.33106 0.69726,0.49659 1.22168,0.49659 0.23437,0 0.46581,-0.0308 0.69433,-0.0923 0.23144,-0.0644 0.46142,-0.15967 0.68994,-0.28564 l 0,0.74707 c -0.22559,0.10547 -0.45996,0.18457 -0.70312,0.2373 -0.24024,0.0527 -0.49659,0.0791 -0.76904,0.0791 -0.74122,0 -1.33008,-0.23291 -1.76661,-0.69873 -0.43652,-0.46582 -0.65478,-1.09423 -0.65478,-1.88525 0,-0.80273 0.21973,-1.43408 0.65918,-1.89404 0.44238,-0.45996 1.04736,-0.68994 1.81494,-0.68994 0.24902,0 0.49218,0.0264 0.72949,0.0791 0.2373,0.0498 0.46728,0.12598 0.68994,0.22851"
         style="font-size:9px;fill:#ffffff;fill-opacity:1"
         id="path4058"
         inkscape:connector-curvature="0" />
      <path
         d="m 246.82861,152.64262 0.8086,0 0,4.92187 -0.8086,0 0,-4.92187 m 0,-1.91602 0.8086,0 0,1.02393 -0.8086,0 0,-1.02393"
         style="font-size:9px;fill:#ffffff;fill-opacity:1"
         id="path4060"
         inkscape:connector-curvature="0" />
      <path
         d="m 212.2832,165.84379 0,2.9707 -0.80859,0 0,-2.94433 c 0,-0.46582 -0.0908,-0.81445 -0.27246,-1.0459 -0.18165,-0.23144 -0.45411,-0.34717 -0.81738,-0.34717 -0.43653,0 -0.78077,0.13916 -1.03272,0.41748 -0.25195,0.27832 -0.37793,0.65772 -0.37793,1.13818 l 0,2.78174 -0.81299,0 0,-4.92187 0.81299,0 0,0.76465 c 0.19336,-0.2959 0.42041,-0.51709 0.68115,-0.66358 0.26367,-0.14648 0.5669,-0.21972 0.90967,-0.21972 0.56543,0 0.99316,0.17578 1.2832,0.52734 0.29004,0.34864 0.43506,0.8628 0.43506,1.54248"
         style="font-size:9px;fill:#ffffff;fill-opacity:1"
         id="path4062"
         inkscape:connector-curvature="0" />
      <path
         d="m 213.90479,163.89262 0.80859,0 0,4.92187 -0.80859,0 0,-4.92187 m 0,-1.91602 0.80859,0 0,1.02393 -0.80859,0 0,-1.02393"
         style="font-size:9px;fill:#ffffff;fill-opacity:1"
         id="path4064"
         inkscape:connector-curvature="0" />
      <path
         d="m 220.61084,166.15141 0,0.3955 -3.71777,0 c 0.0352,0.55665 0.20214,0.98145 0.50097,1.27442 0.30176,0.29004 0.7207,0.43506 1.25684,0.43506 0.31054,0 0.61084,-0.0381 0.90088,-0.11426 0.29296,-0.0762 0.583,-0.19043 0.87011,-0.34277 l 0,0.76464 c -0.29004,0.12305 -0.5874,0.2168 -0.89208,0.28125 -0.3047,0.0645 -0.61378,0.0967 -0.92725,0.0967 -0.78516,0 -1.40772,-0.22851 -1.86768,-0.68554 -0.45703,-0.45703 -0.68554,-1.0752 -0.68554,-1.8545 0,-0.80566 0.21679,-1.44433 0.65039,-1.91601 0.43652,-0.47461 1.02392,-0.71191 1.7622,-0.71191 0.66211,0 1.18506,0.21387 1.56885,0.6416 0.38672,0.42481 0.58007,1.00342 0.58008,1.73584 m -0.80859,-0.23731 c -0.006,-0.44238 -0.13038,-0.7954 -0.37354,-1.05908 -0.24024,-0.26367 -0.55957,-0.3955 -0.95801,-0.39551 -0.45117,1e-5 -0.81299,0.12745 -1.08545,0.38233 -0.26953,0.25488 -0.4248,0.61377 -0.46582,1.07666 l 2.88282,-0.004"
         style="font-size:9px;fill:#ffffff;fill-opacity:1"
         id="path4066"
         inkscape:connector-curvature="0" />
      <path
         d="m 222.72021,168.07621 0,2.61035 -0.81298,0 0,-6.79394 0.81298,0 0,0.74707 c 0.16992,-0.29297 0.38379,-0.50976 0.64161,-0.65039 0.26074,-0.14355 0.57128,-0.21533 0.93164,-0.21533 0.59765,0 1.08251,0.2373 1.45459,0.71191 0.37499,0.47461 0.56249,1.09864 0.5625,1.87207 -1e-5,0.77344 -0.18751,1.39746 -0.5625,1.87207 -0.37208,0.47461 -0.85694,0.71191 -1.45459,0.71191 -0.36036,0 -0.6709,-0.0703 -0.93164,-0.21093 -0.25782,-0.14356 -0.47169,-0.36182 -0.64161,-0.65479 m 2.75098,-1.71826 c 0,-0.59472 -0.12305,-1.06054 -0.36914,-1.39746 -0.24317,-0.33984 -0.57862,-0.50976 -1.00635,-0.50977 -0.42773,1e-5 -0.76465,0.16993 -1.01074,0.50977 -0.24316,0.33692 -0.36475,0.80274 -0.36475,1.39746 0,0.59473 0.12159,1.06201 0.36475,1.40185 0.24609,0.33692 0.58301,0.50538 1.01074,0.50538 0.42773,0 0.76318,-0.16846 1.00635,-0.50538 0.24609,-0.33984 0.36914,-0.80712 0.36914,-1.40185"
         style="font-size:9px;fill:#ffffff;fill-opacity:1"
         id="path4068"
         inkscape:connector-curvature="0" />
      <path
         d="m 229.8877,166.34037 c -0.65333,0 -1.10596,0.0747 -1.35791,0.22412 -0.25196,0.14942 -0.37794,0.4043 -0.37793,0.76465 -1e-5,0.28711 0.0937,0.51563 0.28125,0.68555 0.19042,0.16699 0.44824,0.25049 0.77343,0.25049 0.44824,0 0.80713,-0.15821 1.07666,-0.47461 0.27246,-0.31934 0.40869,-0.74268 0.40869,-1.27002 l 0,-0.18018 -0.80419,0 m 1.61279,-0.33398 0,2.8081 -0.8086,0 0,-0.74707 c -0.18457,0.29883 -0.41455,0.52002 -0.68994,0.66358 -0.27539,0.14062 -0.6123,0.21093 -1.01074,0.21093 -0.50391,0 -0.90527,-0.14062 -1.2041,-0.42187 -0.2959,-0.28418 -0.44385,-0.66357 -0.44385,-1.13818 0,-0.55371 0.18457,-0.97119 0.55371,-1.25245 0.37207,-0.28124 0.92578,-0.42187 1.66114,-0.42187 l 1.13378,0 0,-0.0791 c 0,-0.37207 -0.12305,-0.65918 -0.36914,-0.86133 -0.24316,-0.20507 -0.58594,-0.30761 -1.02832,-0.30762 -0.28125,1e-5 -0.55517,0.0337 -0.82177,0.10108 -0.26661,0.0674 -0.52295,0.16846 -0.76905,0.30322 l 0,-0.74707 c 0.2959,-0.11425 0.58301,-0.19922 0.86133,-0.25488 0.27832,-0.0586 0.54932,-0.0879 0.81299,-0.0879 0.71191,0 1.24365,0.18457 1.59521,0.55371 0.35156,0.36914 0.52734,0.92871 0.52735,1.67871"
         style="font-size:9px;fill:#ffffff;fill-opacity:1"
         id="path4070"
         inkscape:connector-curvature="0" />
      <path
         d="m 236.02246,164.64848 c -0.0908,-0.0527 -0.19043,-0.0908 -0.29883,-0.11426 -0.10547,-0.0264 -0.22266,-0.0395 -0.35156,-0.0395 -0.45703,0 -0.8086,0.14942 -1.05469,0.44824 -0.24316,0.2959 -0.36474,0.72217 -0.36474,1.27881 l 0,2.59277 -0.81299,0 0,-4.92187 0.81299,0 0,0.76465 c 0.16992,-0.29883 0.39111,-0.52002 0.66357,-0.66358 0.27246,-0.14648 0.60351,-0.21972 0.99316,-0.21972 0.0557,0 0.11719,0.004 0.18458,0.0132 0.0674,0.006 0.14208,0.0161 0.22412,0.0308 l 0.004,0.83057"
         style="font-size:9px;fill:#ffffff;fill-opacity:1"
         id="path4072"
         inkscape:connector-curvature="0" />
      <path
         d="m 236.52783,163.89262 3.84082,0 0,0.73828 -3.04101,3.5376 3.04101,0 0,0.64599 -3.95068,0 0,-0.73828 3.04101,-3.5376 -2.93115,0 0,-0.64599"
         style="font-size:9px;fill:#ffffff;fill-opacity:1"
         id="path4074"
         inkscape:connector-curvature="0" />
      <path
         d="m 243.65576,169.27152 c -0.22852,0.58594 -0.45117,0.96826 -0.66797,1.14698 -0.2168,0.17871 -0.50683,0.26806 -0.87011,0.26806 l -0.646,0 0,-0.67676 0.47461,0 c 0.22265,0 0.39551,-0.0527 0.51855,-0.1582 0.12305,-0.10547 0.25928,-0.35449 0.4087,-0.74707 l 0.14501,-0.36914 -1.99072,-4.84277 0.85694,0 1.53808,3.84961 1.53809,-3.84961 0.85693,0 -2.16211,5.3789"
         style="font-size:9px;fill:#ffffff;fill-opacity:1"
         id="path4076"
         inkscape:connector-curvature="0" />
      <path
         d="m 250.07178,164.03764 0,0.76465 c -0.22852,-0.11719 -0.46583,-0.20508 -0.71192,-0.26368 -0.24609,-0.0586 -0.50098,-0.0879 -0.76465,-0.0879 -0.40136,1e-5 -0.70312,0.0615 -0.90527,0.18457 -0.19922,0.12305 -0.29883,0.30762 -0.29883,0.55371 0,0.18751 0.0718,0.33546 0.21534,0.44385 0.14355,0.10547 0.43212,0.20655 0.86572,0.30322 l 0.27685,0.0615 c 0.57422,0.12305 0.98145,0.29736 1.22168,0.52295 0.24316,0.22266 0.36474,0.53467 0.36475,0.93603 -1e-5,0.45703 -0.18165,0.81885 -0.54492,1.08545 -0.36036,0.2666 -0.85694,0.3999 -1.48975,0.3999 -0.26367,0 -0.53906,-0.0264 -0.82617,-0.0791 -0.28418,-0.0498 -0.58447,-0.12597 -0.90088,-0.22851 l 0,-0.83496 c 0.29883,0.15527 0.59326,0.27246 0.8833,0.35156 0.29004,0.0762 0.57715,0.11426 0.86133,0.11426 0.38086,0 0.67382,-0.0645 0.87891,-0.19336 0.20507,-0.13184 0.30761,-0.31641 0.30761,-0.55371 0,-0.21973 -0.0747,-0.38819 -0.22412,-0.50538 -0.14649,-0.11718 -0.47022,-0.22997 -0.97119,-0.33837 l -0.28125,-0.0659 c -0.50098,-0.10547 -0.86279,-0.2666 -1.08545,-0.4834 -0.22266,-0.21972 -0.33398,-0.52002 -0.33398,-0.90088 0,-0.46289 0.16406,-0.82031 0.49218,-1.07227 0.32813,-0.25194 0.79395,-0.37792 1.39747,-0.37792 0.29882,0 0.58007,0.022 0.84375,0.0659 0.26366,0.0439 0.50683,0.10987 0.72949,0.19776"
         style="font-size:9px;fill:#ffffff;fill-opacity:1"
         id="path4078"
         inkscape:connector-curvature="0" />
      <path
         d="m 252.42725,162.49516 0,1.39746 1.66552,0 0,0.62842 -1.66552,0 0,2.67187 c -10e-6,0.40137 0.0542,0.65918 0.16259,0.77344 0.11133,0.11426 0.33545,0.17139 0.67237,0.17138 l 0.83056,0 0,0.67676 -0.83056,0 c -0.62403,0 -1.05469,-0.11572 -1.292,-0.34717 -0.2373,-0.23437 -0.35595,-0.65917 -0.35595,-1.27441 l 0,-2.67187 -0.59326,0 0,-0.62842 0.59326,0 0,-1.39746 0.81299,0"
         style="font-size:9px;fill:#ffffff;fill-opacity:1"
         id="path4080"
         inkscape:connector-curvature="0" />
      <path
         d="m 259.37061,166.15141 0,0.3955 -3.71778,0 c 0.0352,0.55665 0.20215,0.98145 0.50098,1.27442 0.30175,0.29004 0.7207,0.43506 1.25683,0.43506 0.31055,0 0.61084,-0.0381 0.90088,-0.11426 0.29297,-0.0762 0.58301,-0.19043 0.87012,-0.34277 l 0,0.76464 c -0.29004,0.12305 -0.58741,0.2168 -0.89209,0.28125 -0.30469,0.0645 -0.61377,0.0967 -0.92725,0.0967 -0.78515,0 -1.40771,-0.22851 -1.86767,-0.68554 -0.45703,-0.45703 -0.68555,-1.0752 -0.68555,-1.8545 0,-0.80566 0.2168,-1.44433 0.65039,-1.91601 0.43652,-0.47461 1.02393,-0.71191 1.76221,-0.71191 0.66211,0 1.18505,0.21387 1.56885,0.6416 0.38671,0.42481 0.58007,1.00342 0.58008,1.73584 m -0.8086,-0.23731 c -0.006,-0.44238 -0.13037,-0.7954 -0.37353,-1.05908 -0.24024,-0.26367 -0.55958,-0.3955 -0.95801,-0.39551 -0.45118,1e-5 -0.81299,0.12745 -1.08545,0.38233 -0.26953,0.25488 -0.42481,0.61377 -0.46582,1.07666 l 2.88281,-0.004"
         style="font-size:9px;fill:#ffffff;fill-opacity:1"
         id="path4082"
         inkscape:connector-curvature="0" />
      <path
         d="m 260.69775,163.89262 0.8086,0 0,5.00976 c 0,0.62696 -0.12012,1.08106 -0.36035,1.36231 -0.23731,0.28125 -0.6211,0.42187 -1.15137,0.42187 l -0.30762,0 0,-0.68554 0.21533,0 c 0.30762,-1e-5 0.51709,-0.0718 0.62842,-0.21534 0.11133,-0.14062 0.16699,-0.43506 0.16699,-0.8833 l 0,-5.00976 m 0,-1.91602 0.8086,0 0,1.02393 -0.8086,0 0,-1.02393"
         style="font-size:9px;fill:#ffffff;fill-opacity:1"
         id="path4084"
         inkscape:connector-curvature="0" />
    </g>
    <g
       style="font-size:28px;font-style:normal;font-weight:normal;line-height:125%;letter-spacing:0px;word-spacing:0px;fill:#ffffff;fill-opacity:1;stroke:none;font-family:Sans"
       id="text3836">
      <path
         d="m 64.280594,324.62485 c -2.03256,1e-5 -3.440761,0.23243 -4.22461,0.69726 -0.783858,0.46485 -1.175785,1.25782 -1.175781,2.37891 -4e-6,0.89323 0.291662,1.60417 0.875,2.13281 0.592442,0.51954 1.394525,0.7793 2.40625,0.7793 1.394523,0 2.511058,-0.49219 3.34961,-1.47656 0.847644,-0.99349 1.271472,-2.31055 1.271484,-3.95118 l 0,-0.56054 -2.501953,0 m 5.017578,-1.03907 0,8.73633 -2.515625,0 0,-2.32422 c -0.57423,0.92969 -1.289724,1.61784 -2.146484,2.06446 -0.85678,0.4375 -1.904956,0.65625 -3.144532,0.65625 -1.567713,0 -2.81641,-0.4375 -3.746093,-1.3125 -0.920575,-0.88412 -1.380861,-2.06445 -1.38086,-3.54102 -1e-6,-1.72265 0.574217,-3.02148 1.722656,-3.89648 1.157548,-0.87499 2.880203,-1.31249 5.167969,-1.3125 l 3.527344,0 0,-0.2461 c -1.2e-5,-1.15754 -0.382824,-2.05077 -1.148438,-2.67968 -0.75652,-0.63801 -1.822925,-0.95702 -3.199218,-0.95704 -0.875007,2e-5 -1.72722,0.10484 -2.556641,0.31446 -0.829431,0.20965 -1.626957,0.5241 -2.392578,0.94336 l 0,-2.32422 c 0.920569,-0.35546 1.813797,-0.61978 2.679687,-0.79297 0.86588,-0.18228 1.708978,-0.27342 2.529297,-0.27344 2.214834,2e-5 3.869129,0.57424 4.962891,1.72266 1.093736,1.14845 1.64061,2.88933 1.640625,5.22265"
         style="fill:#ffffff;fill-opacity:1"
         id="path3954" />
      <path
         d="m 81.843625,331.91461 0,6.0075 -1.635179,0 0,-5.95418 c -8e-6,-0.942 -0.18367,-1.64702 -0.550984,-2.11507 -0.367331,-0.46803 -0.918315,-0.70205 -1.652953,-0.70206 -0.882765,10e-6 -1.578901,0.28142 -2.088409,0.84425 -0.509516,0.56284 -0.764272,1.33007 -0.764268,2.30169 l 0,5.62537 -1.644066,0 0,-9.95326 1.644066,0 0,1.54631 c 0.391017,-0.59837 0.85017,-1.04568 1.377461,-1.34191 0.533205,-0.29622 1.146397,-0.44434 1.839576,-0.44435 1.143433,10e-6 2.008418,0.35549 2.594959,1.06642 0.586522,0.70504 0.879787,1.7448 0.879797,3.11929"
         style="font-size:65.00091553000000033%;baseline-shift:sub;fill:#ffffff;fill-opacity:1"
         id="path3956" />
      <path
         d="m 86.374508,318.54086 0,-2.48828 17.527342,6.35742 0,2.26953 -17.527342,6.35743 0,-2.48828 14.082032,-4.99024 -14.082032,-5.01758"
         style="fill:#ffffff;fill-opacity:1"
         id="path3958" />
      <path
         d="m 115.76904,313.72836 c -1.42188,2e-5 -2.49285,0.70184 -3.21289,2.10547 -0.71094,1.39455 -1.06641,3.49546 -1.06641,6.30274 0,2.79818 0.35547,4.89909 1.06641,6.30273 0.72004,1.39453 1.79101,2.0918 3.21289,2.0918 1.43098,0 2.50194,-0.69727 3.21289,-2.0918 0.72004,-1.40364 1.08006,-3.50455 1.08008,-6.30273 -2e-5,-2.80728 -0.36004,-4.90819 -1.08008,-6.30274 -0.71095,-1.40363 -1.78191,-2.10545 -3.21289,-2.10547 m 0,-2.1875 c 2.28775,2e-5 4.03319,0.90692 5.23633,2.72071 1.21222,1.8047 1.81834,4.4297 1.81836,7.875 -2e-5,3.4362 -0.60614,6.0612 -1.81836,7.875 -1.20314,1.80468 -2.94858,2.70703 -5.23633,2.70703 -2.28777,0 -4.03777,-0.90235 -5.25,-2.70703 -1.20313,-1.8138 -1.80469,-4.4388 -1.80469,-7.875 0,-3.4453 0.60156,-6.0703 1.80469,-7.875 1.21223,-1.81379 2.96223,-2.72069 5.25,-2.72071"
         style="fill:#ffffff;fill-opacity:1"
         id="path3960" />
    </g>
    <flowRoot
       xml:space="preserve"
       id="flowRoot3842"
       style="font-size:9px;font-style:normal;font-weight:normal;line-height:125%;letter-spacing:0px;word-spacing:0px;fill:#000000;fill-opacity:1;stroke:none;font-family:Sans"
       transform="translate(0,306)"><flowRegion
         id="flowRegion3844"><rect
           id="rect3846"
           width="207.41798"
           height="72.596298"
           x="247.95877"
           y="-30.246416"
           style="font-size:9px" /></flowRegion><flowPara
         id="flowPara3848"></flowPara></flowRoot>    <g
       style="font-size:28px;font-style:normal;font-weight:normal;line-height:125%;letter-spacing:0px;word-spacing:0px;fill:#ffffff;fill-opacity:1;stroke:none;font-family:Sans"
       id="text3850">
      <path
         d="m 135.9791,314.34595 0,0.76465 c -0.22852,-0.11719 -0.46583,-0.20508 -0.71192,-0.26368 -0.2461,-0.0586 -0.50098,-0.0879 -0.76465,-0.0879 -0.40137,1e-5 -0.70312,0.0615 -0.90527,0.18457 -0.19922,0.12305 -0.29883,0.30762 -0.29883,0.55371 0,0.18751 0.0718,0.33546 0.21533,0.44385 0.14356,0.10547 0.43213,0.20655 0.86573,0.30322 l 0.27685,0.0615 c 0.57422,0.12305 0.98144,0.29736 1.22168,0.52295 0.24316,0.22266 0.36474,0.53467 0.36475,0.93603 -1e-5,0.45703 -0.18165,0.81885 -0.54492,1.08545 -0.36036,0.2666 -0.85694,0.3999 -1.48975,0.3999 -0.26367,0 -0.53906,-0.0264 -0.82617,-0.0791 -0.28418,-0.0498 -0.58448,-0.12597 -0.90088,-0.22851 l 0,-0.83496 c 0.29883,0.15527 0.59326,0.27246 0.8833,0.35156 0.29004,0.0762 0.57715,0.11426 0.86133,0.11426 0.38085,0 0.67382,-0.0645 0.8789,-0.19336 0.20508,-0.13184 0.30762,-0.31641 0.30762,-0.55371 0,-0.21973 -0.0747,-0.38819 -0.22412,-0.50538 -0.14649,-0.11718 -0.47022,-0.22997 -0.97119,-0.33837 l -0.28125,-0.0659 c -0.50098,-0.10547 -0.8628,-0.2666 -1.08545,-0.4834 -0.22266,-0.21972 -0.33399,-0.52002 -0.33399,-0.90088 0,-0.46289 0.16407,-0.82031 0.49219,-1.07226 0.32813,-0.25195 0.79395,-0.37793 1.39746,-0.37793 0.29883,0 0.58008,0.022 0.84375,0.0659 0.26367,0.0439 0.50684,0.10987 0.7295,0.19776"
         style="font-size:9px;fill:#ffffff;fill-opacity:1"
         id="path3857" />
      <path
         d="m 137.1832,314.20093 3.84082,0 0,0.73828 -3.04102,3.5376 3.04102,0 0,0.64599 -3.95069,0 0,-0.73828 3.04102,-3.5376 -2.93115,0 0,-0.64599"
         style="font-size:9px;fill:#ffffff;fill-opacity:1"
         id="path3859" />
      <path
         d="m 142.23251,312.28491 0.81299,0 0,4.03858 2.4126,-2.12256 1.03271,0 -2.61035,2.30273 2.72022,2.61914 -1.05469,0 -2.50049,-2.40381 0,2.40381 -0.81299,0 0,-6.83789"
         style="font-size:9px;fill:#ffffff;fill-opacity:1"
         id="path3861" />
      <path
         d="m 147.48398,314.20093 0.80859,0 0,4.92187 -0.80859,0 0,-4.92187 m 0,-1.91602 0.80859,0 0,1.02393 -0.80859,0 0,-1.02393"
         style="font-size:9px;fill:#ffffff;fill-opacity:1"
         id="path3863" />
      <path
         d="m 153.52206,314.38989 0,0.75586 c -0.22852,-0.12597 -0.4585,-0.21972 -0.68994,-0.28125 -0.22852,-0.0645 -0.45996,-0.0967 -0.69433,-0.0967 -0.52442,1e-5 -0.93165,0.167 -1.22168,0.50098 -0.29004,0.33106 -0.43506,0.79688 -0.43506,1.39746 0,0.60059 0.14502,1.06787 0.43506,1.40186 0.29003,0.33105 0.69726,0.49658 1.22168,0.49658 0.23437,0 0.46581,-0.0308 0.69433,-0.0923 0.23144,-0.0645 0.46142,-0.15967 0.68994,-0.28564 l 0,0.74707 c -0.22559,0.10547 -0.45996,0.18457 -0.70312,0.2373 -0.24024,0.0527 -0.49659,0.0791 -0.76904,0.0791 -0.74122,0 -1.33008,-0.23291 -1.76661,-0.69873 -0.43652,-0.46582 -0.65478,-1.09423 -0.65478,-1.88525 0,-0.80273 0.21973,-1.43408 0.65918,-1.89404 0.44238,-0.45996 1.04736,-0.68994 1.81494,-0.68994 0.24902,0 0.49218,0.0264 0.72949,0.0791 0.2373,0.0498 0.46728,0.12598 0.68994,0.22851"
         style="font-size:9px;fill:#ffffff;fill-opacity:1"
         id="path3865" />
      <path
         d="m 157.33212,314.20093 0.8086,0 1.01074,3.84082 1.00635,-3.84082 0.95361,0 1.01074,3.84082 1.00635,-3.84082 0.80859,0 -1.28759,4.92187 -0.95362,0 -1.05908,-4.03418 -1.06348,4.03418 -0.95361,0 -1.2876,-4.92187"
         style="font-size:9px;fill:#ffffff;fill-opacity:1"
         id="path3867" />
      <path
         d="m 167.21542,319.57983 c -0.22851,0.58594 -0.45117,0.96826 -0.66797,1.14698 -0.21679,0.17871 -0.50683,0.26806 -0.87011,0.26806 l -0.646,0 0,-0.67675 0.47461,0 c 0.22266,-1e-5 0.39551,-0.0527 0.51856,-0.15821 0.12304,-0.10547 0.25927,-0.35449 0.40869,-0.74707 l 0.14502,-0.36914 -1.99073,-4.84277 0.85694,0 1.53808,3.84961 1.53809,-3.84961 0.85693,0 -2.16211,5.3789"
         style="font-size:9px;fill:#ffffff;fill-opacity:1"
         id="path3869" />
      <path
         d="m 170.46298,312.28491 0.81299,0 0,4.03858 2.4126,-2.12256 1.03271,0 -2.61035,2.30273 2.72022,2.61914 -1.05469,0 -2.50049,-2.40381 0,2.40381 -0.81299,0 0,-6.83789"
         style="font-size:9px;fill:#ffffff;fill-opacity:1"
         id="path3871" />
      <path
         d="m 178.5665,314.95679 c -0.0908,-0.0527 -0.19044,-0.0908 -0.29883,-0.11426 -0.10547,-0.0264 -0.22266,-0.0396 -0.35156,-0.0396 -0.45704,0 -0.8086,0.14942 -1.05469,0.44824 -0.24317,0.2959 -0.36475,0.72217 -0.36475,1.27881 l 0,2.59277 -0.81298,0 0,-4.92187 0.81298,0 0,0.76465 c 0.16992,-0.29883 0.39111,-0.52002 0.66358,-0.66358 0.27246,-0.14648 0.60351,-0.21972 0.99316,-0.21972 0.0557,0 0.11719,0.004 0.18457,0.0132 0.0674,0.006 0.14209,0.0161 0.22412,0.0308 l 0.004,0.83057"
         style="font-size:9px;fill:#ffffff;fill-opacity:1"
         id="path3873" />
      <path
         d="m 183.44003,316.45972 0,0.3955 -3.71777,0 c 0.0351,0.55665 0.20215,0.98145 0.50098,1.27442 0.30175,0.29004 0.7207,0.43506 1.25683,0.43506 0.31055,0 0.61084,-0.0381 0.90088,-0.11426 0.29297,-0.0762 0.583,-0.19043 0.87012,-0.34277 l 0,0.76464 c -0.29005,0.12305 -0.58741,0.2168 -0.89209,0.28125 -0.30469,0.0645 -0.61377,0.0967 -0.92725,0.0967 -0.78516,0 -1.40771,-0.22851 -1.86767,-0.68554 -0.45704,-0.45703 -0.68555,-1.0752 -0.68555,-1.85449 0,-0.80567 0.2168,-1.44434 0.65039,-1.91602 0.43652,-0.47461 1.02392,-0.71191 1.76221,-0.71191 0.6621,0 1.18505,0.21387 1.56884,0.6416 0.38672,0.42481 0.58008,1.00342 0.58008,1.73584 m -0.80859,-0.23731 c -0.006,-0.44238 -0.13038,-0.7954 -0.37354,-1.05908 -0.24023,-0.26367 -0.55957,-0.3955 -0.958,-0.39551 -0.45118,1e-5 -0.81299,0.12745 -1.08545,0.38233 -0.26954,0.25488 -0.42481,0.61377 -0.46582,1.07666 l 2.88281,-0.004"
         style="font-size:9px;fill:#ffffff;fill-opacity:1"
         id="path3875" />
      <path
         d="m 187.90488,314.34595 0,0.76465 c -0.22852,-0.11719 -0.46583,-0.20508 -0.71192,-0.26368 -0.24609,-0.0586 -0.50098,-0.0879 -0.76465,-0.0879 -0.40137,1e-5 -0.70312,0.0615 -0.90527,0.18457 -0.19922,0.12305 -0.29883,0.30762 -0.29883,0.55371 0,0.18751 0.0718,0.33546 0.21533,0.44385 0.14356,0.10547 0.43213,0.20655 0.86573,0.30322 l 0.27685,0.0615 c 0.57422,0.12305 0.98144,0.29736 1.22168,0.52295 0.24316,0.22266 0.36474,0.53467 0.36475,0.93603 -1e-5,0.45703 -0.18165,0.81885 -0.54492,1.08545 -0.36036,0.2666 -0.85694,0.3999 -1.48975,0.3999 -0.26367,0 -0.53906,-0.0264 -0.82617,-0.0791 -0.28418,-0.0498 -0.58447,-0.12597 -0.90088,-0.22851 l 0,-0.83496 c 0.29883,0.15527 0.59326,0.27246 0.8833,0.35156 0.29004,0.0762 0.57715,0.11426 0.86133,0.11426 0.38086,0 0.67382,-0.0645 0.8789,-0.19336 0.20508,-0.13184 0.30762,-0.31641 0.30762,-0.55371 0,-0.21973 -0.0747,-0.38819 -0.22412,-0.50538 -0.14649,-0.11718 -0.47022,-0.22997 -0.97119,-0.33837 l -0.28125,-0.0659 c -0.50098,-0.10547 -0.86279,-0.2666 -1.08545,-0.4834 -0.22266,-0.21972 -0.33398,-0.52002 -0.33398,-0.90088 0,-0.46289 0.16406,-0.82031 0.49218,-1.07226 0.32813,-0.25195 0.79395,-0.37793 1.39746,-0.37793 0.29883,0 0.58008,0.022 0.84375,0.0659 0.26367,0.0439 0.50684,0.10987 0.7295,0.19776"
         style="font-size:9px;fill:#ffffff;fill-opacity:1"
         id="path3877" />
      <path
         d="m 189.37704,317.18042 0,-2.97949 0.8086,0 0,2.94873 c 0,0.46582 0.0908,0.81592 0.27246,1.05029 0.18164,0.23145 0.4541,0.34717 0.81738,0.34717 0.43652,0 0.78076,-0.13916 1.03272,-0.41748 0.25488,-0.27832 0.38232,-0.65771 0.38232,-1.13818 l 0,-2.79053 0.80859,0 0,4.92187 -0.80859,0 0,-0.75586 c -0.19629,0.29883 -0.42481,0.52149 -0.68555,0.66797 -0.25781,0.14356 -0.5581,0.21533 -0.90087,0.21533 -0.56544,0 -0.99463,-0.17578 -1.2876,-0.52734 -0.29297,-0.35156 -0.43946,-0.86572 -0.43946,-1.54248 m 2.03467,-3.09814 0,0"
         style="font-size:9px;fill:#ffffff;fill-opacity:1"
         id="path3879" />
      <path
         d="m 197.6871,314.20093 3.84082,0 0,0.73828 -3.04101,3.5376 3.04101,0 0,0.64599 -3.95068,0 0,-0.73828 3.04102,-3.5376 -2.93116,0 0,-0.64599"
         style="font-size:9px;fill:#ffffff;fill-opacity:1"
         id="path3881" />
      <path
         d="m 205.004,316.64868 c -0.65332,0 -1.10596,0.0747 -1.35791,0.22412 -0.25196,0.14942 -0.37793,0.4043 -0.37793,0.76465 0,0.28711 0.0937,0.51563 0.28125,0.68555 0.19043,0.16699 0.44824,0.25049 0.77344,0.25049 0.44823,0 0.80712,-0.15821 1.07666,-0.47461 0.27245,-0.31934 0.40868,-0.74268 0.40869,-1.27002 l 0,-0.18018 -0.8042,0 m 1.61279,-0.33398 0,2.8081 -0.80859,0 0,-0.74707 c -0.18458,0.29883 -0.41456,0.52002 -0.68994,0.66358 -0.2754,0.14062 -0.61231,0.21093 -1.01075,0.21093 -0.5039,0 -0.90527,-0.14062 -1.2041,-0.42187 -0.2959,-0.28418 -0.44385,-0.66357 -0.44385,-1.13818 0,-0.55371 0.18457,-0.97119 0.55372,-1.25245 0.37206,-0.28124 0.92577,-0.42187 1.66113,-0.42187 l 1.13379,0 0,-0.0791 c -1e-5,-0.37207 -0.12305,-0.65918 -0.36914,-0.86133 -0.24317,-0.20507 -0.58594,-0.30761 -1.02832,-0.30762 -0.28126,1e-5 -0.55518,0.0337 -0.82178,0.10108 -0.2666,0.0674 -0.52295,0.16846 -0.76904,0.30322 l 0,-0.74707 c 0.29589,-0.11425 0.583,-0.19922 0.86132,-0.25488 0.27832,-0.0586 0.54932,-0.0879 0.81299,-0.0879 0.71191,0 1.24365,0.18457 1.59522,0.55371 0.35155,0.36914 0.52734,0.92871 0.52734,1.67871"
         style="font-size:9px;fill:#ffffff;fill-opacity:1"
         id="path3883" />
      <path
         d="m 211.8287,314.38989 0,0.75586 c -0.22851,-0.12597 -0.4585,-0.21972 -0.68994,-0.28125 -0.22852,-0.0645 -0.45996,-0.0967 -0.69433,-0.0967 -0.52442,1e-5 -0.93165,0.167 -1.22168,0.50098 -0.29004,0.33106 -0.43506,0.79688 -0.43506,1.39746 0,0.60059 0.14502,1.06787 0.43506,1.40186 0.29003,0.33105 0.69726,0.49658 1.22168,0.49658 0.23437,0 0.46581,-0.0308 0.69433,-0.0923 0.23144,-0.0645 0.46143,-0.15967 0.68994,-0.28564 l 0,0.74707 c -0.22559,0.10547 -0.45996,0.18457 -0.70312,0.2373 -0.24024,0.0527 -0.49659,0.0791 -0.76904,0.0791 -0.74122,0 -1.33008,-0.23291 -1.7666,-0.69873 -0.43653,-0.46582 -0.65479,-1.09423 -0.65479,-1.88525 0,-0.80273 0.21973,-1.43408 0.65918,-1.89404 0.44238,-0.45996 1.04736,-0.68994 1.81494,-0.68994 0.24902,0 0.49219,0.0264 0.72949,0.0791 0.2373,0.0498 0.46728,0.12598 0.68994,0.22851"
         style="font-size:9px;fill:#ffffff;fill-opacity:1"
         id="path3885" />
      <path
         d="m 212.89218,314.20093 3.84082,0 0,0.73828 -3.04101,3.5376 3.04101,0 0,0.64599 -3.95068,0 0,-0.73828 3.04101,-3.5376 -2.93115,0 0,-0.64599"
         style="font-size:9px;fill:#ffffff;fill-opacity:1"
         id="path3887" />
      <path
         d="m 220.02011,319.57983 c -0.22852,0.58594 -0.45117,0.96826 -0.66797,1.14698 -0.2168,0.17871 -0.50684,0.26806 -0.87011,0.26806 l -0.646,0 0,-0.67675 0.47461,0 c 0.22265,-1e-5 0.3955,-0.0527 0.51855,-0.15821 0.12305,-0.10547 0.25928,-0.35449 0.40869,-0.74707 l 0.14502,-0.36914 -1.99072,-4.84277 0.85693,0 1.53809,3.84961 1.53809,-3.84961 0.85693,0 -2.16211,5.3789"
         style="font-size:9px;fill:#ffffff;fill-opacity:1"
         id="path3889" />
      <path
         d="m 227.38974,316.1521 0,2.9707 -0.80859,0 0,-2.94433 c -1e-5,-0.46582 -0.0908,-0.81445 -0.27246,-1.0459 -0.18165,-0.23144 -0.45411,-0.34717 -0.81739,-0.34717 -0.43652,0 -0.78076,0.13916 -1.03271,0.41748 -0.25196,0.27832 -0.37793,0.65772 -0.37793,1.13818 l 0,2.78174 -0.81299,0 0,-4.92187 0.81299,0 0,0.76465 c 0.19336,-0.2959 0.42041,-0.51709 0.68115,-0.66358 0.26367,-0.14648 0.56689,-0.21972 0.90967,-0.21972 0.56542,0 0.99316,0.17578 1.2832,0.52734 0.29004,0.34864 0.43506,0.8628 0.43506,1.54248"
         style="font-size:9px;fill:#ffffff;fill-opacity:1"
         id="path3891" />
      <path
         d="m 231.24814,316.64868 c -0.65332,0 -1.10596,0.0747 -1.35791,0.22412 -0.25196,0.14942 -0.37793,0.4043 -0.37793,0.76465 0,0.28711 0.0937,0.51563 0.28125,0.68555 0.19043,0.16699 0.44824,0.25049 0.77344,0.25049 0.44824,0 0.80712,-0.15821 1.07666,-0.47461 0.27245,-0.31934 0.40868,-0.74268 0.40869,-1.27002 l 0,-0.18018 -0.8042,0 m 1.61279,-0.33398 0,2.8081 -0.80859,0 0,-0.74707 c -0.18458,0.29883 -0.41456,0.52002 -0.68994,0.66358 -0.2754,0.14062 -0.61231,0.21093 -1.01075,0.21093 -0.5039,0 -0.90527,-0.14062 -1.2041,-0.42187 -0.2959,-0.28418 -0.44385,-0.66357 -0.44385,-1.13818 0,-0.55371 0.18457,-0.97119 0.55372,-1.25245 0.37206,-0.28124 0.92578,-0.42187 1.66113,-0.42187 l 1.13379,0 0,-0.0791 c -10e-6,-0.37207 -0.12305,-0.65918 -0.36914,-0.86133 -0.24317,-0.20507 -0.58594,-0.30761 -1.02832,-0.30762 -0.28126,1e-5 -0.55518,0.0337 -0.82178,0.10108 -0.2666,0.0674 -0.52295,0.16846 -0.76904,0.30322 l 0,-0.74707 c 0.29589,-0.11425 0.583,-0.19922 0.86132,-0.25488 0.27832,-0.0586 0.54932,-0.0879 0.81299,-0.0879 0.71191,0 1.24365,0.18457 1.59522,0.55371 0.35156,0.36914 0.52734,0.92871 0.52734,1.67871"
         style="font-size:9px;fill:#ffffff;fill-opacity:1"
         id="path3893" />
      <path
         d="m 238.36288,315.14575 c 0.20215,-0.36327 0.44385,-0.63134 0.7251,-0.8042 0.28125,-0.17284 0.6123,-0.25927 0.99317,-0.25927 0.51268,0 0.90819,0.18018 1.18652,0.54052 0.27831,0.35743 0.41747,0.86719 0.41748,1.5293 l 0,2.9707 -0.81299,0 0,-2.94433 c -1e-5,-0.47168 -0.0835,-0.82178 -0.25049,-1.0503 -0.167,-0.22851 -0.42188,-0.34277 -0.76464,-0.34277 -0.41896,0 -0.75001,0.13916 -0.99317,0.41748 -0.24317,0.27832 -0.36475,0.65772 -0.36475,1.13818 l 0,2.78174 -0.81298,0 0,-2.94433 c -1e-5,-0.47461 -0.0835,-0.82471 -0.25049,-1.0503 -0.167,-0.22851 -0.42481,-0.34277 -0.77344,-0.34277 -0.41309,0 -0.74121,0.14063 -0.98437,0.42188 -0.24317,0.27832 -0.36475,0.65625 -0.36475,1.13378 l 0,2.78174 -0.81299,0 0,-4.92187 0.81299,0 0,0.76465 c 0.18457,-0.30176 0.40576,-0.52441 0.66357,-0.66797 0.25781,-0.14355 0.56397,-0.21533 0.91846,-0.21533 0.35742,0 0.66064,0.0908 0.90967,0.27246 0.25195,0.18164 0.43798,0.44531 0.5581,0.79101"
         style="font-size:9px;fill:#ffffff;fill-opacity:1"
         id="path3895" />
      <path
         d="m 245.35019,319.57983 c -0.22852,0.58594 -0.45118,0.96826 -0.66797,1.14698 -0.2168,0.17871 -0.50684,0.26806 -0.87012,0.26806 l -0.64599,0 0,-0.67675 0.47461,0 c 0.22265,-1e-5 0.3955,-0.0527 0.51855,-0.15821 0.12305,-0.10547 0.25928,-0.35449 0.40869,-0.74707 l 0.14502,-0.36914 -1.99072,-4.84277 0.85693,0 1.53809,3.84961 1.53808,-3.84961 0.85694,0 -2.16211,5.3789"
         style="font-size:9px;fill:#ffffff;fill-opacity:1"
         id="path3897" />
      <path
         d="m 254.34579,314.95679 c -0.0908,-0.0527 -0.19043,-0.0908 -0.29882,-0.11426 -0.10548,-0.0264 -0.22266,-0.0396 -0.35157,-0.0396 -0.45703,0 -0.80859,0.14942 -1.05468,0.44824 -0.24317,0.2959 -0.36475,0.72217 -0.36475,1.27881 l 0,2.59277 -0.81299,0 0,-4.92187 0.81299,0 0,0.76465 c 0.16992,-0.29883 0.39111,-0.52002 0.66357,-0.66358 0.27246,-0.14648 0.60352,-0.21972 0.99317,-0.21972 0.0557,0 0.11718,0.004 0.18457,0.0132 0.0674,0.006 0.14209,0.0161 0.22412,0.0308 l 0.004,0.83057"
         style="font-size:9px;fill:#ffffff;fill-opacity:1"
         id="path3900" />
      <path
         d="m 257.25058,319.57983 c -0.22852,0.58594 -0.45117,0.96826 -0.66797,1.14698 -0.2168,0.17871 -0.50684,0.26806 -0.87012,0.26806 l -0.64599,0 0,-0.67675 0.47461,0 c 0.22265,-1e-5 0.3955,-0.0527 0.51855,-0.15821 0.12305,-0.10547 0.25928,-0.35449 0.40869,-0.74707 l 0.14502,-0.36914 -1.99072,-4.84277 0.85693,0 1.53809,3.84961 1.53809,-3.84961 0.85693,0 -2.16211,5.3789"
         style="font-size:9px;fill:#ffffff;fill-opacity:1"
         id="path3902" />
      <path
         d="m 263.6666,314.34595 0,0.76465 c -0.22852,-0.11719 -0.46583,-0.20508 -0.71192,-0.26368 -0.2461,-0.0586 -0.50098,-0.0879 -0.76465,-0.0879 -0.40137,1e-5 -0.70312,0.0615 -0.90527,0.18457 -0.19922,0.12305 -0.29883,0.30762 -0.29883,0.55371 0,0.18751 0.0718,0.33546 0.21533,0.44385 0.14356,0.10547 0.43213,0.20655 0.86573,0.30322 l 0.27685,0.0615 c 0.57422,0.12305 0.98144,0.29736 1.22168,0.52295 0.24316,0.22266 0.36474,0.53467 0.36475,0.93603 -1e-5,0.45703 -0.18165,0.81885 -0.54492,1.08545 -0.36036,0.2666 -0.85694,0.3999 -1.48975,0.3999 -0.26367,0 -0.53906,-0.0264 -0.82617,-0.0791 -0.28418,-0.0498 -0.58448,-0.12597 -0.90088,-0.22851 l 0,-0.83496 c 0.29883,0.15527 0.59326,0.27246 0.8833,0.35156 0.29004,0.0762 0.57715,0.11426 0.86133,0.11426 0.38085,0 0.67382,-0.0645 0.8789,-0.19336 0.20508,-0.13184 0.30762,-0.31641 0.30762,-0.55371 0,-0.21973 -0.0747,-0.38819 -0.22412,-0.50538 -0.14649,-0.11718 -0.47022,-0.22997 -0.97119,-0.33837 l -0.28125,-0.0659 c -0.50098,-0.10547 -0.8628,-0.2666 -1.08545,-0.4834 -0.22266,-0.21972 -0.33399,-0.52002 -0.33399,-0.90088 0,-0.46289 0.16407,-0.82031 0.49219,-1.07226 0.32813,-0.25195 0.79395,-0.37793 1.39746,-0.37793 0.29883,0 0.58008,0.022 0.84375,0.0659 0.26367,0.0439 0.50684,0.10987 0.7295,0.19776"
         style="font-size:9px;fill:#ffffff;fill-opacity:1"
         id="path3905" />
      <path
         d="m 267.12949,314.76782 c -0.4336,1e-5 -0.77637,0.16993 -1.02832,0.50977 -0.25196,0.33692 -0.37794,0.79981 -0.37793,1.38867 -10e-6,0.58887 0.12451,1.05322 0.37353,1.39307 0.25195,0.33691 0.59619,0.50537 1.03272,0.50537 0.43066,0 0.77197,-0.16992 1.02392,-0.50977 0.25195,-0.33984 0.37793,-0.80273 0.37793,-1.38867 0,-0.58301 -0.12598,-1.04443 -0.37793,-1.38428 -0.25195,-0.34277 -0.59326,-0.51415 -1.02392,-0.51416 m 0,-0.68554 c 0.70312,0 1.25536,0.22852 1.65673,0.68554 0.40137,0.45704 0.60205,1.08985 0.60206,1.89844 -1e-5,0.80567 -0.20069,1.43848 -0.60206,1.89844 -0.40137,0.45703 -0.95361,0.68554 -1.65673,0.68554 -0.70606,0 -1.25977,-0.22851 -1.66114,-0.68554 -0.39843,-0.45996 -0.59765,-1.09277 -0.59765,-1.89844 0,-0.80859 0.19922,-1.4414 0.59765,-1.89844 0.40137,-0.45702 0.95508,-0.68554 1.66114,-0.68554"
         style="font-size:9px;fill:#ffffff;fill-opacity:1"
         id="path3907" />
      <path
         d="m 270.254,314.20093 0.80859,0 1.01074,3.84082 1.00635,-3.84082 0.95361,0 1.01075,3.84082 1.00634,-3.84082 0.8086,0 -1.2876,4.92187 -0.95361,0 -1.05908,-4.03418 -1.06348,4.03418 -0.95361,0 -1.2876,-4.92187"
         style="font-size:9px;fill:#ffffff;fill-opacity:1"
         id="path3909" />
      <path
         d="m 280.32626,316.64868 c -0.65332,0 -1.10596,0.0747 -1.35791,0.22412 -0.25195,0.14942 -0.37793,0.4043 -0.37793,0.76465 0,0.28711 0.0937,0.51563 0.28125,0.68555 0.19043,0.16699 0.44824,0.25049 0.77344,0.25049 0.44824,0 0.80713,-0.15821 1.07666,-0.47461 0.27246,-0.31934 0.40869,-0.74268 0.40869,-1.27002 l 0,-0.18018 -0.8042,0 m 1.6128,-0.33398 0,2.8081 -0.8086,0 0,-0.74707 c -0.18457,0.29883 -0.41455,0.52002 -0.68994,0.66358 -0.27539,0.14062 -0.61231,0.21093 -1.01074,0.21093 -0.50391,0 -0.90528,-0.14062 -1.2041,-0.42187 -0.2959,-0.28418 -0.44385,-0.66357 -0.44385,-1.13818 0,-0.55371 0.18457,-0.97119 0.55371,-1.25245 0.37207,-0.28124 0.92578,-0.42187 1.66113,-0.42187 l 1.13379,0 0,-0.0791 c 0,-0.37207 -0.12305,-0.65918 -0.36914,-0.86133 -0.24317,-0.20507 -0.58594,-0.30761 -1.02832,-0.30762 -0.28125,1e-5 -0.55518,0.0337 -0.82178,0.10108 -0.2666,0.0674 -0.52295,0.16846 -0.76904,0.30322 l 0,-0.74707 c 0.2959,-0.11425 0.58301,-0.19922 0.86133,-0.25488 0.27832,-0.0586 0.54931,-0.0879 0.81299,-0.0879 0.71191,0 1.24365,0.18457 1.59521,0.55371 0.35156,0.36914 0.52734,0.92871 0.52735,1.67871"
         style="font-size:9px;fill:#ffffff;fill-opacity:1"
         id="path3911" />
      <path
         d="m 287.15097,314.38989 0,0.75586 c -0.22852,-0.12597 -0.4585,-0.21972 -0.68994,-0.28125 -0.22852,-0.0645 -0.45997,-0.0967 -0.69434,-0.0967 -0.52441,1e-5 -0.93164,0.167 -1.22168,0.50098 -0.29004,0.33106 -0.43506,0.79688 -0.43506,1.39746 0,0.60059 0.14502,1.06787 0.43506,1.40186 0.29004,0.33105 0.69727,0.49658 1.22168,0.49658 0.23437,0 0.46582,-0.0308 0.69434,-0.0923 0.23144,-0.0645 0.46142,-0.15967 0.68994,-0.28564 l 0,0.74707 c -0.22559,0.10547 -0.45996,0.18457 -0.70312,0.2373 -0.24024,0.0527 -0.49659,0.0791 -0.76905,0.0791 -0.74121,0 -1.33008,-0.23291 -1.7666,-0.69873 -0.43652,-0.46582 -0.65478,-1.09423 -0.65478,-1.88525 0,-0.80273 0.21972,-1.43408 0.65918,-1.89404 0.44238,-0.45996 1.04736,-0.68994 1.81494,-0.68994 0.24902,0 0.49218,0.0264 0.72949,0.0791 0.2373,0.0498 0.46728,0.12598 0.68994,0.22851 m -0.92725,-2.46533 0.87452,0 -1.43262,1.65234 -0.67236,0 1.23046,-1.65234"
         style="font-size:9px;fill:#ffffff;fill-opacity:1"
         id="path3913" />
      <path
         d="m 134.74863,326.01782 c -0.4336,1e-5 -0.77637,0.16993 -1.02832,0.50977 -0.25196,0.33692 -0.37793,0.79981 -0.37793,1.38867 0,0.58887 0.12451,1.05322 0.37353,1.39307 0.25195,0.33691 0.59619,0.50537 1.03272,0.50537 0.43066,0 0.77197,-0.16992 1.02392,-0.50977 0.25195,-0.33984 0.37793,-0.80273 0.37793,-1.38867 0,-0.58301 -0.12598,-1.04443 -0.37793,-1.38428 -0.25195,-0.34277 -0.59326,-0.51415 -1.02392,-0.51416 m 0,-0.68554 c 0.70312,0 1.25536,0.22852 1.65673,0.68554 0.40137,0.45704 0.60205,1.08985 0.60206,1.89844 -1e-5,0.80567 -0.20069,1.43848 -0.60206,1.89844 -0.40137,0.45703 -0.95361,0.68554 -1.65673,0.68554 -0.70606,0 -1.25977,-0.22851 -1.66114,-0.68554 -0.39843,-0.45996 -0.59765,-1.09277 -0.59765,-1.89844 0,-0.80859 0.19922,-1.4414 0.59765,-1.89844 0.40137,-0.45702 0.95508,-0.68554 1.66114,-0.68554"
         style="font-size:9px;fill:#ffffff;fill-opacity:1"
         id="path3915" />
      <path
         d="m 141.58212,326.198 0,-2.66309 0.8086,0 0,6.83789 -0.8086,0 0,-0.73828 c -0.16992,0.29297 -0.38525,0.51123 -0.64599,0.65479 -0.25782,0.14062 -0.56837,0.21093 -0.93164,0.21093 -0.59473,0 -1.0796,-0.2373 -1.45459,-0.71191 -0.37207,-0.47461 -0.55811,-1.09863 -0.55811,-1.87207 0,-0.77343 0.18604,-1.39746 0.55811,-1.87207 0.37499,-0.47461 0.85986,-0.71191 1.45459,-0.71191 0.36327,0 0.67382,0.0718 0.93164,0.21533 0.26074,0.14063 0.47607,0.35742 0.64599,0.65039 m -2.75537,1.71826 c 0,0.59473 0.12158,1.06201 0.36475,1.40186 0.24609,0.33691 0.583,0.50537 1.01074,0.50537 0.42773,0 0.76464,-0.16846 1.01074,-0.50537 0.24609,-0.33985 0.36914,-0.80713 0.36914,-1.40186 0,-0.59472 -0.12305,-1.06054 -0.36914,-1.39746 -0.2461,-0.33984 -0.58301,-0.50976 -1.01074,-0.50977 -0.42774,1e-5 -0.76465,0.16993 -1.01074,0.50977 -0.24317,0.33692 -0.36475,0.80274 -0.36475,1.39746"
         style="font-size:9px;fill:#ffffff;fill-opacity:1"
         id="path3917" />
      <path
         d="m 147.7037,329.63452 0,2.61035 -0.81298,0 0,-6.79394 0.81298,0 0,0.74707 c 0.16992,-0.29297 0.38379,-0.50976 0.64161,-0.65039 0.26074,-0.14355 0.57128,-0.21533 0.93164,-0.21533 0.59765,0 1.08251,0.2373 1.45459,0.71191 0.37499,0.47461 0.56249,1.09864 0.5625,1.87207 -1e-5,0.77344 -0.18751,1.39746 -0.5625,1.87207 -0.37208,0.47461 -0.85694,0.71191 -1.45459,0.71191 -0.36036,0 -0.6709,-0.0703 -0.93164,-0.21093 -0.25782,-0.14356 -0.47169,-0.36182 -0.64161,-0.65479 m 2.75098,-1.71826 c 0,-0.59472 -0.12305,-1.06054 -0.36914,-1.39746 -0.24317,-0.33984 -0.57862,-0.50976 -1.00635,-0.50977 -0.42773,1e-5 -0.76465,0.16993 -1.01074,0.50977 -0.24316,0.33692 -0.36475,0.80274 -0.36475,1.39746 0,0.59473 0.12159,1.06201 0.36475,1.40186 0.24609,0.33691 0.58301,0.50537 1.01074,0.50537 0.42773,0 0.76318,-0.16846 1.00635,-0.50537 0.24609,-0.33985 0.36914,-0.80713 0.36914,-1.40186"
         style="font-size:9px;fill:#ffffff;fill-opacity:1"
         id="path3919" />
      <path
         d="m 155.48642,326.20679 c -0.0908,-0.0527 -0.19043,-0.0908 -0.29883,-0.11426 -0.10547,-0.0264 -0.22266,-0.0396 -0.35156,-0.0396 -0.45703,0 -0.8086,0.14942 -1.05469,0.44824 -0.24316,0.2959 -0.36475,0.72217 -0.36474,1.27881 l 0,2.59277 -0.81299,0 0,-4.92187 0.81299,0 0,0.76465 c 0.16992,-0.29883 0.39111,-0.52002 0.66357,-0.66358 0.27246,-0.14648 0.60351,-0.21972 0.99316,-0.21972 0.0557,0 0.11719,0.004 0.18457,0.0132 0.0674,0.006 0.14209,0.0161 0.22413,0.0308 l 0.004,0.83057"
         style="font-size:9px;fill:#ffffff;fill-opacity:1"
         id="path3921" />
      <path
         d="m 158.58017,327.89868 c -0.65332,0 -1.10596,0.0747 -1.35791,0.22412 -0.25196,0.14942 -0.37793,0.4043 -0.37793,0.76465 0,0.28711 0.0937,0.51563 0.28125,0.68555 0.19043,0.16699 0.44824,0.25049 0.77344,0.25049 0.44824,0 0.80712,-0.15821 1.07666,-0.47461 0.27245,-0.31934 0.40869,-0.74268 0.40869,-1.27002 l 0,-0.18018 -0.8042,0 m 1.61279,-0.33398 0,2.8081 -0.80859,0 0,-0.74707 c -0.18458,0.29883 -0.41456,0.52002 -0.68994,0.66358 -0.2754,0.14062 -0.61231,0.21093 -1.01074,0.21093 -0.50391,0 -0.90528,-0.14062 -1.20411,-0.42187 -0.2959,-0.28418 -0.44384,-0.66357 -0.44384,-1.13818 0,-0.55371 0.18457,-0.97119 0.55371,-1.25245 0.37207,-0.28124 0.92578,-0.42187 1.66113,-0.42187 l 1.13379,0 0,-0.0791 c 0,-0.37207 -0.12305,-0.65918 -0.36914,-0.86133 -0.24317,-0.20507 -0.58594,-0.30761 -1.02832,-0.30762 -0.28125,1e-5 -0.55518,0.0337 -0.82178,0.10108 -0.2666,0.0674 -0.52295,0.16846 -0.76904,0.30322 l 0,-0.74707 c 0.29589,-0.11425 0.583,-0.19922 0.86133,-0.25488 0.27831,-0.0586 0.54931,-0.0879 0.81298,-0.0879 0.71191,0 1.24365,0.18457 1.59522,0.55371 0.35156,0.36914 0.52734,0.92871 0.52734,1.67871"
         style="font-size:9px;fill:#ffffff;fill-opacity:1"
         id="path3923" />
      <path
         d="m 161.39267,325.45093 0.80859,0 1.01075,3.84082 1.00634,-3.84082 0.95362,0 1.01074,3.84082 1.00635,-3.84082 0.80859,0 -1.2876,4.92187 -0.95361,0 -1.05908,-4.03418 -1.06348,4.03418 -0.95361,0 -1.2876,-4.92187"
         style="font-size:9px;fill:#ffffff;fill-opacity:1"
         id="path3925" />
      <path
         d="m 173.43808,327.70972 0,0.3955 -3.71777,0 c 0.0351,0.55665 0.20214,0.98145 0.50097,1.27442 0.30176,0.29004 0.7207,0.43506 1.25684,0.43506 0.31054,0 0.61084,-0.0381 0.90088,-0.11426 0.29296,-0.0762 0.583,-0.19043 0.87011,-0.34277 l 0,0.76464 c -0.29004,0.12305 -0.5874,0.2168 -0.89208,0.28125 -0.3047,0.0645 -0.61378,0.0967 -0.92725,0.0967 -0.78516,0 -1.40772,-0.22851 -1.86768,-0.68554 -0.45703,-0.45703 -0.68554,-1.0752 -0.68554,-1.85449 0,-0.80567 0.21679,-1.44434 0.65039,-1.91602 0.43652,-0.47461 1.02392,-0.71191 1.7622,-0.71191 0.66211,0 1.18506,0.21387 1.56885,0.6416 0.38672,0.42481 0.58007,1.00342 0.58008,1.73584 m -0.80859,-0.23731 c -0.006,-0.44238 -0.13038,-0.7954 -0.37354,-1.05908 -0.24024,-0.26367 -0.55957,-0.3955 -0.95801,-0.39551 -0.45117,1e-5 -0.81299,0.12745 -1.08545,0.38233 -0.26953,0.25488 -0.4248,0.61377 -0.46582,1.07666 l 2.88282,-0.004"
         style="font-size:9px;fill:#ffffff;fill-opacity:1"
         id="path3927" />
      <path
         d="m 174.76523,325.45093 0.80859,0 0,5.00976 c 0,0.62696 -0.12012,1.08106 -0.36035,1.36231 -0.23731,0.28125 -0.62109,0.42187 -1.15137,0.42187 l -0.30761,0 0,-0.68554 0.21533,0 c 0.30761,-10e-6 0.51709,-0.0718 0.62842,-0.21534 0.11132,-0.14062 0.16699,-0.43505 0.16699,-0.8833 l 0,-5.00976 m 0,-1.91602 0.80859,0 0,1.02393 -0.80859,0 0,-1.02393"
         style="font-size:9px;fill:#ffffff;fill-opacity:1"
         id="path3929" />
      <path
         d="m 183.26425,325.59595 0,0.76465 c -0.22852,-0.11719 -0.46582,-0.20508 -0.71191,-0.26368 -0.2461,-0.0586 -0.50098,-0.0879 -0.76465,-0.0879 -0.40137,1e-5 -0.70313,0.0615 -0.90527,0.18457 -0.19922,0.12305 -0.29883,0.30762 -0.29883,0.55371 0,0.18751 0.0718,0.33546 0.21533,0.44385 0.14355,0.10547 0.43213,0.20655 0.86572,0.30322 l 0.27686,0.0615 c 0.57421,0.12305 0.98144,0.29736 1.22168,0.52295 0.24316,0.22266 0.36474,0.53467 0.36474,0.93603 0,0.45703 -0.18164,0.81885 -0.54492,1.08545 -0.36035,0.2666 -0.85693,0.3999 -1.48974,0.3999 -0.26368,0 -0.53907,-0.0264 -0.82618,-0.0791 -0.28418,-0.0498 -0.58447,-0.12597 -0.90088,-0.22851 l 0,-0.83496 c 0.29883,0.15527 0.59327,0.27246 0.88331,0.35156 0.29003,0.0762 0.57714,0.11426 0.86132,0.11426 0.38086,0 0.67383,-0.0645 0.87891,-0.19336 0.20507,-0.13184 0.30761,-0.31641 0.30762,-0.55371 -1e-5,-0.21973 -0.0747,-0.38819 -0.22412,-0.50538 -0.14649,-0.11718 -0.47022,-0.22997 -0.9712,-0.33837 l -0.28125,-0.0659 c -0.50097,-0.10547 -0.86279,-0.2666 -1.08544,-0.4834 -0.22266,-0.21972 -0.33399,-0.52002 -0.33399,-0.90088 0,-0.46289 0.16406,-0.82031 0.49219,-1.07226 0.32812,-0.25195 0.79394,-0.37793 1.39746,-0.37793 0.29882,0 0.58007,0.022 0.84375,0.0659 0.26367,0.0439 0.50683,0.10987 0.72949,0.19776"
         style="font-size:9px;fill:#ffffff;fill-opacity:1"
         id="path3931" />
      <path
         d="m 185.61972,324.05347 0,1.39746 1.66553,0 0,0.62842 -1.66553,0 0,2.67187 c 0,0.40137 0.0542,0.65918 0.1626,0.77344 0.11132,0.11426 0.33545,0.17139 0.67236,0.17138 l 0.83057,0 0,0.67676 -0.83057,0 c -0.62402,0 -1.05469,-0.11572 -1.29199,-0.34717 -0.23731,-0.23437 -0.35596,-0.65917 -0.35596,-1.27441 l 0,-2.67187 -0.59326,0 0,-0.62842 0.59326,0 0,-1.39746 0.81299,0"
         style="font-size:9px;fill:#ffffff;fill-opacity:1"
         id="path3933" />
      <path
         d="m 191.20517,326.20679 c -0.0908,-0.0527 -0.19043,-0.0908 -0.29883,-0.11426 -0.10547,-0.0264 -0.22266,-0.0396 -0.35156,-0.0396 -0.45703,0 -0.8086,0.14942 -1.05469,0.44824 -0.24316,0.2959 -0.36475,0.72217 -0.36474,1.27881 l 0,2.59277 -0.81299,0 0,-4.92187 0.81299,0 0,0.76465 c 0.16992,-0.29883 0.39111,-0.52002 0.66357,-0.66358 0.27246,-0.14648 0.60351,-0.21972 0.99316,-0.21972 0.0557,0 0.11719,0.004 0.18457,0.0132 0.0674,0.006 0.14209,0.0161 0.22413,0.0308 l 0.004,0.83057"
         style="font-size:9px;fill:#ffffff;fill-opacity:1"
         id="path3935" />
      <path
         d="m 193.77597,326.01782 c -0.4336,1e-5 -0.77637,0.16993 -1.02832,0.50977 -0.25195,0.33692 -0.37793,0.79981 -0.37793,1.38867 0,0.58887 0.12451,1.05322 0.37354,1.39307 0.25195,0.33691 0.59618,0.50537 1.03271,0.50537 0.43066,0 0.77197,-0.16992 1.02393,-0.50977 0.25195,-0.33984 0.37792,-0.80273 0.37793,-1.38867 -1e-5,-0.58301 -0.12598,-1.04443 -0.37793,-1.38428 -0.25196,-0.34277 -0.59327,-0.51415 -1.02393,-0.51416 m 0,-0.68554 c 0.70312,0 1.25537,0.22852 1.65674,0.68554 0.40136,0.45704 0.60204,1.08985 0.60205,1.89844 -1e-5,0.80567 -0.20069,1.43848 -0.60205,1.89844 -0.40137,0.45703 -0.95362,0.68554 -1.65674,0.68554 -0.70606,0 -1.25977,-0.22851 -1.66113,-0.68554 -0.39844,-0.45996 -0.59766,-1.09277 -0.59766,-1.89844 0,-0.80859 0.19922,-1.4414 0.59766,-1.89844 0.40136,-0.45702 0.95507,-0.68554 1.66113,-0.68554"
         style="font-size:9px;fill:#ffffff;fill-opacity:1"
         id="path3937" />
      <path
         d="m 201.46201,327.4021 0,2.9707 -0.8086,0 0,-2.94433 c 0,-0.46582 -0.0908,-0.81445 -0.27246,-1.0459 -0.18164,-0.23144 -0.4541,-0.34717 -0.81738,-0.34717 -0.43653,0 -0.78077,0.13916 -1.03272,0.41748 -0.25195,0.27832 -0.37793,0.65772 -0.37793,1.13818 l 0,2.78174 -0.81298,0 0,-4.92187 0.81298,0 0,0.76465 c 0.19336,-0.2959 0.42041,-0.51709 0.68116,-0.66358 0.26367,-0.14648 0.56689,-0.21972 0.90966,-0.21972 0.56543,0 0.99316,0.17578 1.28321,0.52734 0.29003,0.34864 0.43505,0.8628 0.43506,1.54248"
         style="font-size:9px;fill:#ffffff;fill-opacity:1"
         id="path3939" />
      <path
         d="m 205.13144,330.82983 c -0.22852,0.58594 -0.45118,0.96826 -0.66797,1.14698 -0.2168,0.17871 -0.50684,0.26806 -0.87012,0.26806 l -0.64599,0 0,-0.67675 0.47461,0 c 0.22265,-1e-5 0.3955,-0.0527 0.51855,-0.15821 0.12305,-0.10547 0.25928,-0.35449 0.40869,-0.74707 l 0.14502,-0.36914 -1.99072,-4.84277 0.85693,0 1.53809,3.84961 1.53808,-3.84961 0.85694,0 -2.16211,5.3789"
         style="font-size:9px;fill:#ffffff;fill-opacity:1"
         id="path3941" />
      <path
         d="m 210.92343,325.45093 3.84082,0 0,0.73828 -3.04101,3.5376 3.04101,0 0,0.64599 -3.95068,0 0,-0.73828 3.04101,-3.5376 -2.93115,0 0,-0.64599"
         style="font-size:9px;fill:#ffffff;fill-opacity:1"
         id="path3943" />
      <path
         d="m 222.10751,327.85474 c 0,-0.58594 -0.12158,-1.04004 -0.36474,-1.36231 -0.24024,-0.32226 -0.57862,-0.48339 -1.01514,-0.4834 -0.4336,1e-5 -0.77197,0.16114 -1.01514,0.4834 -0.24023,0.32227 -0.36035,0.77637 -0.36035,1.36231 0,0.58301 0.12012,1.03564 0.36035,1.35791 0.24317,0.32226 0.58154,0.4834 1.01514,0.48339 0.43652,1e-5 0.7749,-0.16113 1.01514,-0.48339 0.24316,-0.32227 0.36474,-0.7749 0.36474,-1.35791 m 0.8086,1.90722 c -1e-5,0.83789 -0.18604,1.46045 -0.55811,1.86768 -0.37207,0.41015 -0.9419,0.61523 -1.70947,0.61523 -0.28418,0 -0.55225,-0.022 -0.8042,-0.0659 -0.25195,-0.041 -0.49658,-0.10548 -0.73389,-0.19336 l 0,-0.78663 c 0.23731,0.12891 0.47168,0.22412 0.70313,0.28565 0.23144,0.0615 0.46728,0.0923 0.70752,0.0923 0.53027,0 0.92724,-0.13916 1.19092,-0.41748 0.26366,-0.27539 0.3955,-0.69287 0.3955,-1.25244 l 0,-0.3999 c -0.16699,0.29004 -0.38086,0.50684 -0.6416,0.65039 -0.26074,0.14356 -0.57275,0.21533 -0.93603,0.21533 -0.60352,0 -1.08985,-0.22998 -1.45899,-0.68994 -0.36914,-0.45996 -0.55371,-1.06933 -0.55371,-1.82812 0,-0.76172 0.18457,-1.37256 0.55371,-1.83252 0.36914,-0.45996 0.85547,-0.68994 1.45899,-0.68994 0.36328,0 0.67529,0.0718 0.93603,0.21533 0.26074,0.14356 0.47461,0.36035 0.6416,0.65039 l 0,-0.74707 0.8086,0 0,4.31103"
         style="font-size:9px;fill:#ffffff;fill-opacity:1"
         id="path3945" />
      <path
         d="m 226.48886,326.01782 c -0.43359,1e-5 -0.77637,0.16993 -1.02832,0.50977 -0.25195,0.33692 -0.37793,0.79981 -0.37793,1.38867 0,0.58887 0.12451,1.05322 0.37354,1.39307 0.25195,0.33691 0.59619,0.50537 1.03271,0.50537 0.43066,0 0.77197,-0.16992 1.02393,-0.50977 0.25195,-0.33984 0.37792,-0.80273 0.37793,-1.38867 -10e-6,-0.58301 -0.12598,-1.04443 -0.37793,-1.38428 -0.25196,-0.34277 -0.59327,-0.51415 -1.02393,-0.51416 m 0,-0.68554 c 0.70312,0 1.25537,0.22852 1.65674,0.68554 0.40136,0.45704 0.60205,1.08985 0.60205,1.89844 0,0.80567 -0.20069,1.43848 -0.60205,1.89844 -0.40137,0.45703 -0.95362,0.68554 -1.65674,0.68554 -0.70606,0 -1.25977,-0.22851 -1.66113,-0.68554 -0.39844,-0.45996 -0.59766,-1.09277 -0.59766,-1.89844 0,-0.80859 0.19922,-1.4414 0.59766,-1.89844 0.40136,-0.45702 0.95507,-0.68554 1.66113,-0.68554 m 0.61084,-2.15772 0.87451,0 -1.43261,1.65234 -0.67237,0 1.23047,-1.65234"
         style="font-size:9px;fill:#ffffff;fill-opacity:1"
         id="path3947" />
      <path
         d="m 232.93564,326.20679 c -0.0908,-0.0527 -0.19043,-0.0908 -0.29883,-0.11426 -0.10547,-0.0264 -0.22266,-0.0396 -0.35156,-0.0396 -0.45704,0 -0.8086,0.14942 -1.05469,0.44824 -0.24317,0.2959 -0.36475,0.72217 -0.36475,1.27881 l 0,2.59277 -0.81298,0 0,-4.92187 0.81298,0 0,0.76465 c 0.16992,-0.29883 0.39112,-0.52002 0.66358,-0.66358 0.27246,-0.14648 0.60351,-0.21972 0.99316,-0.21972 0.0557,0 0.11719,0.004 0.18457,0.0132 0.0674,0.006 0.14209,0.0161 0.22412,0.0308 l 0.004,0.83057"
         style="font-size:9px;fill:#ffffff;fill-opacity:1"
         id="path3949" />
      <path
         d="m 235.84042,330.82983 c -0.22851,0.58594 -0.45117,0.96826 -0.66797,1.14698 -0.21679,0.17871 -0.50683,0.26806 -0.87011,0.26806 l -0.646,0 0,-0.67675 0.47461,0 c 0.22266,-1e-5 0.39551,-0.0527 0.51856,-0.15821 0.12304,-0.10547 0.25927,-0.35449 0.40869,-0.74707 l 0.14502,-0.36914 -1.99073,-4.84277 0.85694,0 1.53808,3.84961 1.53809,-3.84961 0.85693,0 -2.16211,5.3789"
         style="font-size:9px;fill:#ffffff;fill-opacity:1"
         id="path3951" />
    </g>
  </g>
</svg>
