<?xml version="1.0" encoding="UTF-8" standalone="no"?>
<!-- Created with Inkscape (http://www.inkscape.org/) -->

<svg
   xmlns:dc="http://purl.org/dc/elements/1.1/"
   xmlns:cc="http://creativecommons.org/ns#"
   xmlns:rdf="http://www.w3.org/1999/02/22-rdf-syntax-ns#"
   xmlns:svg="http://www.w3.org/2000/svg"
   xmlns="http://www.w3.org/2000/svg"
   version="1.1"
   width="350"
   height="32"
   id="svg4731">
  <metadata
     id="metadata4737">
    <rdf:RDF>
      <cc:Work
         rdf:about="">
        <dc:format>image/svg+xml</dc:format>
        <dc:type
           rdf:resource="http://purl.org/dc/dcmitype/StillImage" />
        <dc:title></dc:title>
      </cc:Work>
    </rdf:RDF>
  </metadata>
  <defs
     id="defs4735" />
  <g
     id="text4741"
     style="font-size:47.31843948px;font-style:normal;font-weight:normal;line-height:125%;letter-spacing:0px;word-spacing:0px;fill:#e7f225;fill-opacity:1;stroke:none;font-family:Sans">
    <path
       d="m 9.2730403,9.7214932 1.6496757,0 2.539207,10.2053488 2.531121,-10.2053488 1.835669,0 2.539207,10.2053488 2.53112,-10.2053488 1.657763,0 -3.032493,12.0733638 -2.054008,0 -2.547294,-10.480294 -2.571553,10.480294 -2.054009,0 L 9.2730403,9.7214932"
       id="path4968"
       style="font-size:16.56145287px;fill:#e7f225" />
    <path
       d="m 30.998708,21.553825 0,3.553323 -0.967176,0 0,-3.521785 c -5e-6,-0.557173 -0.108637,-0.97418 -0.325897,-1.251021 -0.217269,-0.276832 -0.543165,-0.41525 -0.977689,-0.415256 -0.522139,6e-6 -0.933889,0.166458 -1.235253,0.499358 -0.301369,0.332909 -0.452052,0.786711 -0.45205,1.361406 l 0,3.327298 -0.972433,0 0,-5.887162 0.972433,0 0,0.914613 c 0.231279,-0.353926 0.502859,-0.618497 0.814741,-0.793716 0.315381,-0.175207 0.678072,-0.262814 1.088074,-0.26282 0.676318,6e-6 1.18794,0.210262 1.534867,0.630768 0.346916,0.417012 0.520377,1.032009 0.520383,1.844994"
       id="path4970"
       style="font-size:10.76509571px;baseline-shift:sub;fill:#e7f225" />
    <path
       d="m 37.058855,9.2282077 c -0.722412,1.2399643 -1.258826,2.4664373 -1.609243,3.6794243 -0.350425,1.213005 -0.525635,2.442174 -0.525632,3.687511 -3e-6,1.245348 0.175207,2.479908 0.525632,3.703684 0.355808,1.218389 0.892222,2.444862 1.609243,3.679425 l -1.293864,0 C 34.956323,22.711343 34.349825,21.466 33.945496,20.242221 c -0.398943,-1.223777 -0.598414,-2.439468 -0.598412,-3.647078 -2e-6,-1.202208 0.199469,-2.412509 0.598412,-3.630904 0.398938,-1.218378 1.005436,-2.463721 1.819495,-3.7360313 l 1.293864,0"
       id="path4972"
       style="font-size:16.56145287px;fill:#e7f225" />
    <path
       d="m 47.482541,12.737812 -3.275092,4.407223 3.444912,4.649822 -1.754802,0 -2.636247,-3.558125 -2.636247,3.558125 -1.754803,0 3.517692,-4.738775 -3.218486,-4.31827 1.754803,0 2.401734,3.226573 2.401734,-3.226573 1.754802,0"
       id="path4974"
       style="font-size:16.56145287px;fill:#e7f225" />
    <path
       d="m 49.520378,9.2282077 1.293864,0 c 0.808661,1.2723103 1.412463,2.5176533 1.811409,3.7360313 0.404327,1.218395 0.606493,2.428696 0.606498,3.630904 -5e-6,1.20761 -0.202171,2.423301 -0.606498,3.647078 -0.398946,1.223779 -1.002748,2.469122 -1.811409,3.736031 l -1.293864,0 c 0.717014,-1.234563 1.250732,-2.461036 1.601156,-3.679425 0.355809,-1.223776 0.533716,-2.458336 0.533719,-3.703684 -3e-6,-1.245337 -0.17791,-2.474506 -0.533719,-3.687511 -0.350424,-1.212987 -0.884142,-2.43946 -1.601156,-3.6794243"
       id="path4976"
       style="font-size:16.56145287px;fill:#e7f225" />
    <path
       d="m 56.418285,14.274275 10.367081,0 0,1.358557 -10.367081,0 0,-1.358557 m 0,3.299352 10.367081,0 0,1.37473 -10.367081,0 0,-1.37473"
       id="path4978"
       style="font-size:16.56145287px;fill:#e7f225" />
    <path
       d="m 73.67519,9.2282077 c -0.722412,1.2399643 -1.258826,2.4664373 -1.609243,3.6794243 -0.350425,1.213005 -0.525635,2.442174 -0.525632,3.687511 -3e-6,1.245348 0.175207,2.479908 0.525632,3.703684 0.355808,1.218389 0.892222,2.444862 1.609243,3.679425 l -1.293864,0 C 71.572658,22.711343 70.96616,21.466 70.56183,20.242221 c -0.398942,-1.223777 -0.598413,-2.439468 -0.598411,-3.647078 -2e-6,-1.202208 0.199469,-2.412509 0.598411,-3.630904 0.398939,-1.218378 1.005437,-2.463721 1.819496,-3.7360313 l 1.293864,0"
       id="path4980"
       style="font-size:16.56145287px;fill:#e7f225" />
    <path
       d="m 76.780463,19.740849 1.706282,0 0,2.054008 -1.706282,0 0,-2.054008"
       id="path4982"
       style="font-size:16.56145287px;fill:#e7f225" />
    <path
       d="m 82.052954,19.740849 1.706283,0 0,2.054008 -1.706283,0 0,-2.054008"
       id="path4984"
       style="font-size:16.56145287px;fill:#e7f225" />
    <path
       d="m 87.325453,19.740849 1.706283,0 0,2.054008 -1.706283,0 0,-2.054008"
       id="path4986"
       style="font-size:16.56145287px;fill:#e7f225" />
    <path
       d="m 95.96199,9.2282077 c -0.722412,1.2399643 -1.258825,2.4664373 -1.609243,3.6794243 -0.350424,1.213005 -0.525635,2.442174 -0.525632,3.687511 -3e-6,1.245348 0.175208,2.479908 0.525632,3.703684 0.355809,1.218389 0.892222,2.444862 1.609243,3.679425 l -1.293864,0 C 93.859459,22.711343 93.252961,21.466 92.848631,20.242221 c -0.398943,-1.223777 -0.598413,-2.439468 -0.598412,-3.647078 -10e-7,-1.202208 0.199469,-2.412509 0.598412,-3.630904 0.398939,-1.218378 1.005437,-2.463721 1.819495,-3.7360313 l 1.293864,0"
       id="path4988"
       style="font-size:16.56145287px;fill:#e7f225" />
    <path
       d="m 102.4313,9.2282077 c -0.72241,1.2399643 -1.25882,2.4664373 -1.60924,3.6794243 -0.35042,1.213005 -0.52563,2.442174 -0.52563,3.687511 0,1.245348 0.17521,2.479908 0.52563,3.703684 0.35581,1.218389 0.89222,2.444862 1.60924,3.679425 l -1.29386,0 c -0.80867,-1.266909 -1.415165,-2.512252 -1.819495,-3.736031 -0.398942,-1.223777 -0.598413,-2.439468 -0.598411,-3.647078 -2e-6,-1.202208 0.199469,-2.412509 0.598411,-3.630904 0.398939,-1.218378 1.005435,-2.463721 1.819495,-3.7360313 l 1.29386,0"
       id="path4990"
       style="font-size:16.56145287px;fill:#e7f225" />
    <path
       d="m 109.44243,17.242075 c -1.20222,4e-6 -2.03514,0.137477 -2.49877,0.412419 -0.46364,0.27495 -0.69546,0.743975 -0.69545,1.407076 -1e-5,0.52833 0.17251,0.948835 0.51754,1.261517 0.35042,0.307294 0.82484,0.46094 1.42325,0.460939 0.82483,10e-7 1.48524,-0.291118 1.98123,-0.873358 0.50137,-0.587627 0.75205,-1.36664 0.75206,-2.337041 l 0,-0.331552 -1.47986,0 m 2.9678,-0.614585 0,5.167367 -1.48794,0 0,-1.37473 c -0.33965,0.549893 -0.76285,0.95692 -1.26961,1.221084 -0.50676,0.258772 -1.12674,0.388159 -1.85992,0.388159 -0.92728,0 -1.66586,-0.258773 -2.21575,-0.776318 -0.5445,-0.522936 -0.81675,-1.221082 -0.81675,-2.094442 0,-1.018914 0.33964,-1.787144 1.01892,-2.304694 0.68467,-0.51754 1.70358,-0.776313 3.05675,-0.776318 l 2.08636,0 0,-0.14556 c -1e-5,-0.684663 -0.22643,-1.21299 -0.67928,-1.584983 -0.44747,-0.377369 -1.07822,-0.566057 -1.89228,-0.566065 -0.51754,8e-6 -1.02161,0.06201 -1.5122,0.185993 -0.49059,0.124003 -0.96231,0.309995 -1.41516,0.557978 l 0,-1.37473 c 0.5445,-0.210243 1.07282,-0.366585 1.58498,-0.469025 0.51215,-0.107813 1.01083,-0.161724 1.49603,-0.161733 1.31003,9e-6 2.28852,0.339648 2.93545,1.018918 0.64693,0.679285 0.97039,1.708984 0.9704,3.089099"
       id="path4992"
       style="font-size:16.56145287px;fill:#e7f225" />
    <path
       d="m 117.34435,17.958451 c -0.54667,7e-6 -0.95842,0.269835 -1.23525,0.809485 -0.27334,0.536158 -0.41,1.34389 -0.41,2.423198 0,1.075811 0.13666,1.883543 0.41,2.423198 0.27683,0.536153 0.68858,0.804229 1.23525,0.804228 0.55016,1e-6 0.96191,-0.268075 1.23525,-0.804228 0.27683,-0.539655 0.41525,-1.347387 0.41526,-2.423198 -1e-5,-1.079308 -0.13843,-1.88704 -0.41526,-2.423198 -0.27334,-0.53965 -0.68509,-0.809478 -1.23525,-0.809485 m 0,-0.841023 c 0.87956,8e-6 1.55063,0.348682 2.0132,1.046023 0.46606,0.69385 0.69909,1.703077 0.6991,3.027683 -1e-5,1.32111 -0.23304,2.330336 -0.6991,3.027683 -0.46257,0.693844 -1.13364,1.040766 -2.0132,1.040766 -0.87957,0 -1.55239,-0.346922 -2.01846,-1.040766 -0.46256,-0.697347 -0.69384,-1.706573 -0.69384,-3.027683 0,-1.324606 0.23128,-2.333833 0.69384,-3.027683 0.46607,-0.697341 1.13889,-1.046015 2.01846,-1.046023"
       id="path4994"
       style="font-size:65.00091553%;baseline-shift:sub;fill:#e7f225" />
    <path
       d="m 129.86616,12.737812 -3.27509,4.407223 3.44491,4.649822 -1.7548,0 -2.63625,-3.558125 -2.63625,3.558125 -1.7548,0 3.51769,-4.738775 -3.21848,-4.31827 1.7548,0 2.40173,3.226573 2.40174,-3.226573 1.7548,0"
       id="path4996"
       style="font-size:16.56145287px;fill:#e7f225" />
    <path
       d="m 138.19541,11.411602 0,4.504263 4.50426,0 0,1.37473 -4.50426,0 0,4.504262 -1.35856,0 0,-4.504262 -4.50426,0 0,-1.37473 4.50426,0 0,-4.504263 1.35856,0"
       id="path4998"
       style="font-size:16.56145287px;fill:#e7f225" />
    <path
       d="m 150.1313,17.242075 c -1.20222,4e-6 -2.03515,0.137477 -2.49878,0.412419 -0.46363,0.27495 -0.69545,0.743975 -0.69545,1.407076 0,0.52833 0.17251,0.948835 0.51755,1.261517 0.35042,0.307294 0.82483,0.46094 1.42325,0.460939 0.82483,10e-7 1.48524,-0.291118 1.98123,-0.873358 0.50136,-0.587627 0.75205,-1.36664 0.75205,-2.337041 l 0,-0.331552 -1.47985,0 m 2.9678,-0.614585 0,5.167367 -1.48795,0 0,-1.37473 c -0.33964,0.549893 -0.76284,0.95692 -1.2696,1.221084 -0.50677,0.258772 -1.12674,0.388159 -1.85993,0.388159 -0.92727,0 -1.66585,-0.258773 -2.21574,-0.776318 -0.5445,-0.522936 -0.81675,-1.221082 -0.81675,-2.094442 0,-1.018914 0.33964,-1.787144 1.01892,-2.304694 0.68466,-0.51754 1.70358,-0.776313 3.05675,-0.776318 l 2.08635,0 0,-0.14556 c 0,-0.684663 -0.22643,-1.21299 -0.67927,-1.584983 -0.44747,-0.377369 -1.07823,-0.566057 -1.89228,-0.566065 -0.51755,8e-6 -1.02162,0.06201 -1.5122,0.185993 -0.4906,0.124003 -0.96232,0.309995 -1.41517,0.557978 l 0,-1.37473 c 0.5445,-0.210243 1.07283,-0.366585 1.58499,-0.469025 0.51215,-0.107813 1.01082,-0.161724 1.49603,-0.161733 1.31003,9e-6 2.28851,0.339648 2.93545,1.018918 0.64692,0.679285 0.97039,1.708984 0.9704,3.089099"
       id="path5000"
       style="font-size:16.56145287px;fill:#e7f225" />
    <path
       d="m 155.94643,24.213561 1.73461,0 0,-5.987034 -1.88705,0.378461 0,-0.967177 1.87653,-0.37846 1.06179,0 0,6.95421 1.73461,0 0,0.893587 -4.52049,0 0,-0.893587"
       id="path5002"
       style="font-size:65.00091553%;baseline-shift:sub;fill:#e7f225" />
    <path
       d="m 162.79185,9.2282077 1.29386,0 c 0.80867,1.2723103 1.41247,2.5176533 1.81141,3.7360313 0.40433,1.218395 0.6065,2.428696 0.6065,3.630904 0,1.20761 -0.20217,2.423301 -0.6065,3.647078 -0.39894,1.223779 -1.00274,2.469122 -1.81141,3.736031 l -1.29386,0 c 0.71702,-1.234563 1.25073,-2.461036 1.60116,-3.679425 0.35581,-1.223776 0.53371,-2.458336 0.53372,-3.703684 -1e-5,-1.245337 -0.17791,-2.474506 -0.53372,-3.687511 -0.35043,-1.212987 -0.88414,-2.43946 -1.60116,-3.6794243"
       id="path5004"
       style="font-size:16.56145287px;fill:#e7f225" />
    <path
       d="m 177.02435,12.737812 -3.2751,4.407223 3.44492,4.649822 -1.75481,0 -2.63624,-3.558125 -2.63625,3.558125 -1.7548,0 3.51769,-4.738775 -3.21849,-4.31827 1.75481,0 2.40173,3.226573 2.40173,-3.226573 1.75481,0"
       id="path5006"
       style="font-size:16.56145287px;fill:#e7f225" />
    <path
       d="m 185.35359,11.411602 0,4.504263 4.50426,0 0,1.37473 -4.50426,0 0,4.504262 -1.35856,0 0,-4.504262 -4.50426,0 0,-1.37473 4.50426,0 0,-4.504263 1.35856,0"
       id="path5008"
       style="font-size:16.56145287px;fill:#e7f225" />
    <path
       d="m 197.28949,17.242075 c -1.20222,4e-6 -2.03515,0.137477 -2.49878,0.412419 -0.46364,0.27495 -0.69545,0.743975 -0.69545,1.407076 0,0.52833 0.17251,0.948835 0.51755,1.261517 0.35041,0.307294 0.82483,0.46094 1.42325,0.460939 0.82483,10e-7 1.48524,-0.291118 1.98122,-0.873358 0.50137,-0.587627 0.75205,-1.36664 0.75206,-2.337041 l 0,-0.331552 -1.47985,0 m 2.96779,-0.614585 0,5.167367 -1.48794,0 0,-1.37473 c -0.33964,0.549893 -0.76284,0.95692 -1.2696,1.221084 -0.50677,0.258772 -1.12675,0.388159 -1.85993,0.388159 -0.92727,0 -1.66585,-0.258773 -2.21574,-0.776318 -0.5445,-0.522936 -0.81675,-1.221082 -0.81675,-2.094442 0,-1.018914 0.33963,-1.787144 1.01891,-2.304694 0.68467,-0.51754 1.70359,-0.776313 3.05676,-0.776318 l 2.08635,0 0,-0.14556 c -1e-5,-0.684663 -0.22643,-1.21299 -0.67928,-1.584983 -0.44746,-0.377369 -1.07822,-0.566057 -1.89227,-0.566065 -0.51755,8e-6 -1.02162,0.06201 -1.5122,0.185993 -0.4906,0.124003 -0.96232,0.309995 -1.41517,0.557978 l 0,-1.37473 c 0.5445,-0.210243 1.07283,-0.366585 1.58498,-0.469025 0.51216,-0.107813 1.01083,-0.161724 1.49603,-0.161733 1.31004,9e-6 2.28852,0.339648 2.93546,1.018918 0.64692,0.679285 0.97039,1.708984 0.97039,3.089099"
       id="path5010"
       style="font-size:16.56145287px;fill:#e7f225" />
    <path
       d="m 203.83525,24.213561 3.70576,0 0,0.893587 -4.98306,0 0,-0.893587 c 0.40299,-0.417006 0.9514,-0.975936 1.64525,-1.67679 0.69735,-0.704354 1.13538,-1.158155 1.3141,-1.361406 0.33991,-0.381961 0.57645,-0.704353 0.70961,-0.967177 0.13666,-0.266319 0.205,-0.527386 0.205,-0.783203 0,-0.417001 -0.14718,-0.756914 -0.44154,-1.01974 -0.29085,-0.262813 -0.67107,-0.394223 -1.14063,-0.39423 -0.33291,7e-6 -0.68509,0.05783 -1.05654,0.173461 -0.36795,0.115648 -0.76218,0.290861 -1.18269,0.52564 l 0,-1.072305 c 0.42752,-0.171701 0.82701,-0.301359 1.19846,-0.388973 0.37145,-0.0876 0.71136,-0.131402 1.01974,-0.13141 0.81299,8e-6 1.46127,0.203255 1.94487,0.609742 0.48358,0.406501 0.72537,0.949662 0.72538,1.629482 -1e-5,0.322398 -0.0613,0.629021 -0.18397,0.919869 -0.11915,0.287354 -0.33817,0.627268 -0.65705,1.019741 -0.0876,0.101627 -0.3662,0.395985 -0.83577,0.883074 -0.46958,0.483591 -1.13188,1.161665 -1.98692,2.034225"
       id="path5012"
       style="font-size:65.00091553%;baseline-shift:sub;fill:#e7f225" />
    <path
       d="m 209.95004,9.2282077 1.29386,0 c 0.80866,1.2723103 1.41247,2.5176533 1.81141,3.7360313 0.40433,1.218395 0.60649,2.428696 0.6065,3.630904 -1e-5,1.20761 -0.20217,2.423301 -0.6065,3.647078 -0.39894,1.223779 -1.00275,2.469122 -1.81141,3.736031 l -1.29386,0 c 0.71701,-1.234563 1.25073,-2.461036 1.60116,-3.679425 0.3558,-1.223776 0.53371,-2.458336 0.53371,-3.703684 0,-1.245337 -0.17791,-2.474506 -0.53371,-3.687511 -0.35043,-1.212987 -0.88415,-2.43946 -1.60116,-3.6794243"
       id="path5014"
       style="font-size:16.56145287px;fill:#e7f225" />
    <path
       d="m 224.18253,12.737812 -3.27509,4.407223 3.44491,4.649822 -1.7548,0 -2.63625,-3.558125 -2.63624,3.558125 -1.7548,0 3.51769,-4.738775 -3.21849,-4.31827 1.7548,0 2.40174,3.226573 2.40173,-3.226573 1.7548,0"
       id="path5016"
       style="font-size:16.56145287px;fill:#e7f225" />
    <path
       d="m 232.51177,11.411602 0,4.504263 4.50427,0 0,1.37473 -4.50427,0 0,4.504262 -1.35855,0 0,-4.504262 -4.50426,0 0,-1.37473 4.50426,0 0,-4.504263 1.35855,0"
       id="path5018"
       style="font-size:16.56145287px;fill:#e7f225" />
    <path
       d="m 240.54182,19.740849 1.70629,0 0,2.054008 -1.70629,0 0,-2.054008"
       id="path5020"
       style="font-size:16.56145287px;fill:#e7f225" />
    <path
       d="m 245.81431,19.740849 1.70629,0 0,2.054008 -1.70629,0 0,-2.054008"
       id="path5022"
       style="font-size:16.56145287px;fill:#e7f225" />
    <path
       d="m 251.08681,19.740849 1.70628,0 0,2.054008 -1.70628,0 0,-2.054008"
       id="path5024"
       style="font-size:16.56145287px;fill:#e7f225" />
    <path
       d="m 262.20594,11.411602 0,4.504263 4.50427,0 0,1.37473 -4.50427,0 0,4.504262 -1.35855,0 0,-4.504262 -4.50427,0 0,-1.37473 4.50427,0 0,-4.504263 1.35855,0"
       id="path5026"
       style="font-size:16.56145287px;fill:#e7f225" />
    <path
       d="m 274.14183,17.242075 c -1.20222,4e-6 -2.03515,0.137477 -2.49878,0.412419 -0.46363,0.27495 -0.69545,0.743975 -0.69545,1.407076 0,0.52833 0.17251,0.948835 0.51755,1.261517 0.35041,0.307294 0.82483,0.46094 1.42325,0.460939 0.82483,10e-7 1.48524,-0.291118 1.98122,-0.873358 0.50137,-0.587627 0.75206,-1.36664 0.75206,-2.337041 l 0,-0.331552 -1.47985,0 m 2.9678,-0.614585 0,5.167367 -1.48795,0 0,-1.37473 c -0.33964,0.549893 -0.76284,0.95692 -1.2696,1.221084 -0.50677,0.258772 -1.12675,0.388159 -1.85993,0.388159 -0.92727,0 -1.66585,-0.258773 -2.21574,-0.776318 -0.5445,-0.522936 -0.81675,-1.221082 -0.81675,-2.094442 0,-1.018914 0.33964,-1.787144 1.01892,-2.304694 0.68466,-0.51754 1.70358,-0.776313 3.05675,-0.776318 l 2.08635,0 0,-0.14556 c 0,-0.684663 -0.22643,-1.21299 -0.67928,-1.584983 -0.44746,-0.377369 -1.07822,-0.566057 -1.89227,-0.566065 -0.51755,8e-6 -1.02162,0.06201 -1.5122,0.185993 -0.4906,0.124003 -0.96232,0.309995 -1.41517,0.557978 l 0,-1.37473 c 0.5445,-0.210243 1.07283,-0.366585 1.58499,-0.469025 0.51215,-0.107813 1.01082,-0.161724 1.49603,-0.161733 1.31003,9e-6 2.28851,0.339648 2.93545,1.018918 0.64692,0.679285 0.97039,1.708984 0.9704,3.089099"
       id="path5028"
       style="font-size:16.56145287px;fill:#e7f225" />
    <path
       d="m 284.53002,21.553825 0,3.553323 -0.96718,0 0,-3.521785 c 0,-0.557173 -0.10864,-0.97418 -0.3259,-1.251021 -0.21726,-0.276832 -0.54316,-0.41525 -0.97769,-0.415256 -0.52213,6e-6 -0.93388,0.166458 -1.23525,0.499358 -0.30137,0.332909 -0.45205,0.786711 -0.45205,1.361406 l 0,3.327298 -0.97243,0 0,-5.887162 0.97243,0 0,0.914613 c 0.23128,-0.353926 0.50286,-0.618497 0.81474,-0.793716 0.31538,-0.175207 0.67807,-0.262814 1.08808,-0.26282 0.67632,6e-6 1.18794,0.210262 1.53486,0.630768 0.34692,0.417012 0.52038,1.032009 0.52039,1.844994"
       id="path5030"
       style="font-size:65.00091553%;baseline-shift:sub;fill:#e7f225" />
    <path
       d="m 285.98078,21.727286 2.8332,0 0,0.862049 -2.8332,0 0,-0.862049"
       id="path5032"
       style="font-size:65.00091553%;baseline-shift:sub;fill:#e7f225" />
    <path
       d="m 290.68001,24.213561 1.73461,0 0,-5.987034 -1.88705,0.378461 0,-0.967177 1.87653,-0.37846 1.0618,0 0,6.95421 1.73461,0 0,0.893587 -4.5205,0 0,-0.893587"
       id="path5034"
       style="font-size:65.00091553%;baseline-shift:sub;fill:#e7f225" />
    <path
       d="m 297.52543,9.2282077 1.29387,0 c 0.80866,1.2723103 1.41246,2.5176533 1.81141,3.7360313 0.40432,1.218395 0.60649,2.428696 0.60649,3.630904 0,1.20761 -0.20217,2.423301 -0.60649,3.647078 -0.39895,1.223779 -1.00275,2.469122 -1.81141,3.736031 l -1.29387,0 c 0.71702,-1.234563 1.25073,-2.461036 1.60116,-3.679425 0.35581,-1.223776 0.53371,-2.458336 0.53372,-3.703684 -10e-6,-1.245337 -0.17791,-2.474506 -0.53372,-3.687511 -0.35043,-1.212987 -0.88414,-2.43946 -1.60116,-3.6794243"
       id="path5036"
       style="font-size:16.56145287px;fill:#e7f225" />
    <path
       d="m 311.75794,12.737812 -3.27509,4.407223 3.44491,4.649822 -1.7548,0 -2.63625,-3.558125 -2.63624,3.558125 -1.75481,0 3.5177,-4.738775 -3.21849,-4.31827 1.7548,0 2.40174,3.226573 2.40173,-3.226573 1.7548,0"
       id="path5038"
       style="font-size:16.56145287px;fill:#e7f225" />
    <path
       d="m 320.08717,11.411602 0,4.504263 4.50426,0 0,1.37473 -4.50426,0 0,4.504262 -1.35856,0 0,-4.504262 -4.50426,0 0,-1.37473 4.50426,0 0,-4.504263 1.35856,0"
       id="path5040"
       style="font-size:16.56145287px;fill:#e7f225" />
    <path
       d="m 332.02308,17.242075 c -1.20222,4e-6 -2.03514,0.137477 -2.49877,0.412419 -0.46364,0.27495 -0.69546,0.743975 -0.69545,1.407076 -1e-5,0.52833 0.17251,0.948835 0.51754,1.261517 0.35042,0.307294 0.82484,0.46094 1.42325,0.460939 0.82483,10e-7 1.48524,-0.291118 1.98123,-0.873358 0.50137,-0.587627 0.75205,-1.36664 0.75206,-2.337041 l 0,-0.331552 -1.47986,0 m 2.9678,-0.614585 0,5.167367 -1.48794,0 0,-1.37473 c -0.33965,0.549893 -0.76285,0.95692 -1.2696,1.221084 -0.50677,0.258772 -1.12675,0.388159 -1.85993,0.388159 -0.92728,0 -1.66586,-0.258773 -2.21574,-0.776318 -0.54451,-0.522936 -0.81676,-1.221082 -0.81676,-2.094442 0,-1.018914 0.33964,-1.787144 1.01892,-2.304694 0.68467,-0.51754 1.70358,-0.776313 3.05675,-0.776318 l 2.08636,0 0,-0.14556 c -1e-5,-0.684663 -0.22643,-1.21299 -0.67928,-1.584983 -0.44747,-0.377369 -1.07822,-0.566057 -1.89227,-0.566065 -0.51755,8e-6 -1.02162,0.06201 -1.51221,0.185993 -0.49059,0.124003 -0.96231,0.309995 -1.41516,0.557978 l 0,-1.37473 c 0.5445,-0.210243 1.07282,-0.366585 1.58498,-0.469025 0.51215,-0.107813 1.01083,-0.161724 1.49603,-0.161733 1.31003,9e-6 2.28852,0.339648 2.93545,1.018918 0.64693,0.679285 0.97039,1.708984 0.9704,3.089099"
       id="path5042"
       style="font-size:16.56145287px;fill:#e7f225" />
    <path
       d="m 342.41127,21.553825 0,3.553323 -0.96717,0 0,-3.521785 c -10e-6,-0.557173 -0.10864,-0.97418 -0.3259,-1.251021 -0.21727,-0.276832 -0.54316,-0.41525 -0.97769,-0.415256 -0.52214,6e-6 -0.93389,0.166458 -1.23525,0.499358 -0.30137,0.332909 -0.45205,0.786711 -0.45205,1.361406 l 0,3.327298 -0.97243,0 0,-5.887162 0.97243,0 0,0.914613 c 0.23128,-0.353926 0.50286,-0.618497 0.81474,-0.793716 0.31538,-0.175207 0.67807,-0.262814 1.08807,-0.26282 0.67632,6e-6 1.18794,0.210262 1.53487,0.630768 0.34692,0.417012 0.52038,1.032009 0.52038,1.844994"
       id="path5044"
       style="font-size:65.00091553%;baseline-shift:sub;fill:#e7f225" />
  </g>
</svg>
