<?xml version="1.0" encoding="UTF-8" standalone="no"?>
<!-- Created with Inkscape (http://www.inkscape.org/) -->

<svg
   xmlns:dc="http://purl.org/dc/elements/1.1/"
   xmlns:cc="http://creativecommons.org/ns#"
   xmlns:rdf="http://www.w3.org/1999/02/22-rdf-syntax-ns#"
   xmlns:svg="http://www.w3.org/2000/svg"
   xmlns="http://www.w3.org/2000/svg"
   xmlns:sodipodi="http://sodipodi.sourceforge.net/DTD/sodipodi-0.dtd"
   xmlns:inkscape="http://www.inkscape.org/namespaces/inkscape"
   version="1.1"
   width="275"
   height="32"
   id="svg4731"
   inkscape:version="0.48.5 r10040"
   sodipodi:docname="equation1.svg">
  <sodipodi:namedview
     pagecolor="#ffffff"
     bordercolor="#666666"
     borderopacity="1"
     objecttolerance="10"
     gridtolerance="10"
     guidetolerance="10"
     inkscape:pageopacity="0"
     inkscape:pageshadow="2"
     inkscape:window-width="1008"
     inkscape:window-height="608"
     id="namedview36"
     showgrid="false"
     showguides="true"
     inkscape:guide-bbox="true"
     inkscape:zoom="2.0479908"
     inkscape:cx="69.743393"
     inkscape:cy="-16.487359"
     inkscape:window-x="10"
     inkscape:window-y="34"
     inkscape:window-maximized="0"
     inkscape:current-layer="svg4731">
    <sodipodi:guide
       orientation="0,1"
       position="64.047315,5.696931"
       id="guide3116" />
    <sodipodi:guide
       orientation="0,1"
       position="201.41693,23.681748"
       id="guide3175" />
  </sodipodi:namedview>
  <metadata
     id="metadata4737">
    <rdf:RDF>
      <cc:Work
         rdf:about="">
        <dc:format>image/svg+xml</dc:format>
        <dc:type
           rdf:resource="http://purl.org/dc/dcmitype/StillImage" />
        <dc:title />
      </cc:Work>
    </rdf:RDF>
  </metadata>
  <defs
     id="defs4735" />
  <g
     id="text4741"
     style="font-size:47.31843948px;font-style:normal;font-weight:normal;line-height:125%;letter-spacing:0px;word-spacing:0px;fill:#e7f225;fill-opacity:1;stroke:none;font-family:Sans">
    <path
       d="m 4.2397924,10.979805 1.649676,0 2.5392071,10.205349 2.5311205,-10.205349 1.835669,0 2.539207,10.205349 2.53112,-10.205349 1.657763,0 -3.032493,12.073364 -2.054008,0 -2.547294,-10.480294 -2.5715534,10.480294 -2.0540083,0 -3.0244059,-12.073364"
       id="path4878"
       style="font-size:16.56145287px;fill:#e7f225"
       inkscape:connector-curvature="0" />
    <path
       d="m 25.96546,22.812137 0,3.553323 -0.967176,0 0,-3.521784 c -5e-6,-0.557174 -0.108637,-0.974181 -0.325897,-1.251022 -0.217269,-0.276832 -0.543165,-0.41525 -0.977689,-0.415255 -0.522138,5e-6 -0.933889,0.166457 -1.235253,0.499357 -0.301369,0.332909 -0.452052,0.786711 -0.45205,1.361406 l 0,3.327298 -0.972433,0 0,-5.887162 0.972433,0 0,0.914613 c 0.231279,-0.353925 0.50286,-0.618497 0.814741,-0.793716 0.315381,-0.175207 0.678072,-0.262813 1.088074,-0.262819 0.676318,6e-6 1.18794,0.210261 1.534867,0.630767 0.346916,0.417012 0.520377,1.03201 0.520383,1.844994"
       id="path4880"
       style="font-size:10.76509571px;baseline-shift:sub;fill:#e7f225"
       inkscape:connector-curvature="0" />
    <path
       d="m 32.025607,10.48652 c -0.722412,1.239964 -1.258826,2.466437 -1.609243,3.679424 -0.350425,1.213005 -0.525635,2.442174 -0.525632,3.687511 -3e-6,1.245348 0.175207,2.479908 0.525632,3.703685 0.355809,1.218388 0.892222,2.444862 1.609243,3.679424 l -1.293864,0 c -0.808668,-1.266909 -1.415165,-2.512251 -1.819495,-3.736031 -0.398943,-1.223776 -0.598414,-2.439468 -0.598412,-3.647078 -2e-6,-1.202208 0.199469,-2.412508 0.598412,-3.630904 0.398938,-1.218378 1.005436,-2.463721 1.819495,-3.736031 l 1.293864,0"
       id="path4882"
       style="font-size:16.56145287px;fill:#e7f225"
       inkscape:connector-curvature="0" />
    <path
       d="m 42.449294,13.996125 -3.275092,4.407222 3.444911,4.649822 -1.754802,0 -2.636247,-3.558124 -2.636247,3.558124 -1.754802,0 3.517691,-4.738775 -3.218486,-4.318269 1.754803,0 2.401734,3.226572 2.401734,-3.226572 1.754803,0"
       id="path4884"
       style="font-size:16.56145287px;fill:#e7f225"
       inkscape:connector-curvature="0" />
    <path
       d="m 44.48713,10.48652 1.293864,0 c 0.808661,1.27231 1.412463,2.517653 1.811409,3.736031 0.404327,1.218396 0.606493,2.428696 0.606498,3.630904 -5e-6,1.20761 -0.202171,2.423302 -0.606498,3.647078 -0.398946,1.22378 -1.002748,2.469122 -1.811409,3.736031 l -1.293864,0 c 0.717014,-1.234562 1.250732,-2.461036 1.601156,-3.679424 0.35581,-1.223777 0.533716,-2.458337 0.533719,-3.703685 -3e-6,-1.245337 -0.177909,-2.474506 -0.533719,-3.687511 -0.350424,-1.212987 -0.884142,-2.43946 -1.601156,-3.679424"
       id="path4886"
       style="font-size:16.56145287px;fill:#e7f225"
       inkscape:connector-curvature="0" />
    <path
       d="m 51.385037,15.532588 10.367081,0 0,1.358556 -10.367081,0 0,-1.358556 m 0,3.299352 10.367081,0 0,1.37473 -10.367081,0 0,-1.37473"
       id="path4888"
       style="font-size:16.56145287px;fill:#e7f225"
       inkscape:connector-curvature="0" />
    <path
       d="m 69.183747,18.500387 c -1.202219,5e-6 -2.035143,0.137477 -2.498774,0.412419 -0.463637,0.27495 -0.695454,0.743975 -0.695452,1.407077 -2e-6,0.528329 0.172513,0.948835 0.517546,1.261517 0.350418,0.307293 0.824834,0.460939 1.42325,0.460938 0.824832,10e-7 1.485241,-0.291118 1.981228,-0.873357 0.501365,-0.587628 0.752051,-1.366641 0.752058,-2.337041 l 0,-0.331553 -1.479856,0 m 2.967799,-0.614585 0,5.167367 -1.487943,0 0,-1.37473 c -0.339646,0.549893 -0.762846,0.956921 -1.269603,1.221084 -0.506769,0.258773 -1.126744,0.388159 -1.859929,0.388159 -0.927272,0 -1.665852,-0.258773 -2.215741,-0.776318 -0.544502,-0.522936 -0.816753,-1.221082 -0.816752,-2.094442 -10e-7,-1.018913 0.339638,-1.787144 1.018918,-2.304694 0.684667,-0.51754 1.703583,-0.776312 3.056752,-0.776318 l 2.086355,0 0,-0.14556 c -7e-6,-0.684663 -0.226433,-1.21299 -0.679278,-1.584983 -0.447467,-0.377369 -1.078225,-0.566057 -1.892275,-0.566065 -0.51755,8e-6 -1.021617,0.06201 -1.512203,0.185993 -0.490593,0.124003 -0.962313,0.309996 -1.415164,0.557979 l 0,-1.37473 c 0.544499,-0.210244 1.072826,-0.366586 1.584983,-0.469026 0.512151,-0.107813 1.010827,-0.161723 1.49603,-0.161733 1.310031,10e-6 2.288514,0.339648 2.935453,1.018918 0.646923,0.679286 0.970389,1.708984 0.970397,3.089099"
       id="path4890"
       style="font-size:16.56145287px;fill:#e7f225"
       inkscape:connector-curvature="0" />
    <path
       d="m 89.607478,13.996125 -3.275092,4.407222 3.444911,4.649822 -1.754802,0 -2.636247,-3.558124 -2.636247,3.558124 -1.754802,0 3.517691,-4.738775 -3.218485,-4.318269 1.754802,0 2.401734,3.226572 2.401734,-3.226572 1.754803,0"
       id="path4894"
       style="font-size:16.56145287px;fill:#e7f225"
       inkscape:connector-curvature="0" />
    <path
       d="m 96.227291,12.875265 0,3.553323 -0.967176,0 0,-3.521784 c -5e-6,-0.557174 -0.108637,-0.974181 -0.325897,-1.251022 -0.217268,-0.276832 -0.543164,-0.41525 -0.977689,-0.415255 -0.522138,5e-6 -0.933889,0.166457 -1.235253,0.499357 -0.301368,0.332909 -0.452051,0.786711 -0.452049,1.361406 l 0,3.327298 -0.972433,0 0,-5.887162 0.972433,0 0,0.914613 c 0.231279,-0.353925 0.502859,-0.618497 0.814741,-0.793716 0.31538,-0.175207 0.678071,-0.262813 1.088073,-0.262819 0.676318,6e-6 1.18794,0.210261 1.534867,0.630767 0.346917,0.417012 0.520378,1.03201 0.520383,1.844994"
       id="path4896"
       style="font-size:10.76509571px;baseline-shift:super;fill:#e7f225"
       inkscape:connector-curvature="0" />
    <path
       d="m 104.77004,12.669915 0,4.504262 4.50426,0 0,1.37473 -4.50426,0 0,4.504262 -1.35856,0 0,-4.504262 -4.50426,0 0,-1.37473 4.50426,0 0,-4.504262 1.35856,0"
       id="path4898"
       style="font-size:16.56145287px;fill:#e7f225"
       inkscape:connector-curvature="0" />
    <path
       d="m 116.70593,18.500387 c -1.20222,5e-6 -2.03514,0.137477 -2.49877,0.412419 -0.46364,0.27495 -0.69546,0.743975 -0.69546,1.407077 0,0.528329 0.17252,0.948835 0.51755,1.261517 0.35042,0.307293 0.82483,0.460939 1.42325,0.460938 0.82483,10e-7 1.48524,-0.291118 1.98123,-0.873357 0.50136,-0.587628 0.75205,-1.366641 0.75206,-2.337041 l 0,-0.331553 -1.47986,0 m 2.9678,-0.614585 0,5.167367 -1.48794,0 0,-1.37473 c -0.33965,0.549893 -0.76285,0.956921 -1.26961,1.221084 -0.50677,0.258773 -1.12674,0.388159 -1.85993,0.388159 -0.92727,0 -1.66585,-0.258773 -2.21574,-0.776318 -0.5445,-0.522936 -0.81675,-1.221082 -0.81675,-2.094442 0,-1.018913 0.33964,-1.787144 1.01892,-2.304694 0.68467,-0.51754 1.70358,-0.776312 3.05675,-0.776318 l 2.08636,0 0,-0.14556 c -1e-5,-0.684663 -0.22644,-1.21299 -0.67928,-1.584983 -0.44747,-0.377369 -1.07823,-0.566057 -1.89228,-0.566065 -0.51755,8e-6 -1.02161,0.06201 -1.5122,0.185993 -0.49059,0.124003 -0.96231,0.309996 -1.41516,0.557979 l 0,-1.37473 c 0.54449,-0.210244 1.07282,-0.366586 1.58498,-0.469026 0.51215,-0.107813 1.01083,-0.161723 1.49603,-0.161733 1.31003,10e-6 2.28851,0.339648 2.93545,1.018918 0.64692,0.679286 0.97039,1.708984 0.9704,3.089099"
       id="path4900"
       style="font-size:16.56145287px;fill:#e7f225"
       inkscape:connector-curvature="0" />
    <path
       d="m 131.31016,25.471873 1.73461,0 0,-5.987033 -1.88705,0.37846 0,-0.967177 1.87653,-0.37846 1.0618,0 0,6.95421 1.73461,0 0,0.893587 -4.5205,0 0,-0.893587"
       id="path4902"
       style="font-size:10.76509571px;baseline-shift:sub;fill:#e7f225"
       inkscape:connector-curvature="0" />
    <path
       d="m 145.91876,13.996125 -3.27509,4.407222 3.44491,4.649822 -1.7548,0 -2.63625,-3.558124 -2.63624,3.558124 -1.75481,0 3.5177,-4.738775 -3.21849,-4.318269 1.7548,0 2.40174,3.226572 2.40173,-3.226572 1.7548,0"
       id="path4904"
       style="font-size:16.56145287px;fill:#e7f225"
       inkscape:connector-curvature="0" />
    <path
       d="m 152.53857,12.875265 0,3.553323 -0.96718,0 0,-3.521784 c 0,-0.557174 -0.10863,-0.974181 -0.32589,-1.251022 -0.21727,-0.276832 -0.54317,-0.41525 -0.97769,-0.415255 -0.52214,5e-6 -0.93389,0.166457 -1.23525,0.499357 -0.30137,0.332909 -0.45206,0.786711 -0.45205,1.361406 l 0,3.327298 -0.97244,0 0,-5.887162 0.97244,0 0,0.914613 c 0.23127,-0.353925 0.50285,-0.618497 0.81474,-0.793716 0.31538,-0.175207 0.67807,-0.262813 1.08807,-0.262819 0.67632,6e-6 1.18794,0.210261 1.53487,0.630767 0.34691,0.417012 0.52037,1.03201 0.52038,1.844994"
       id="path4906"
       style="font-size:10.76509571px;baseline-shift:super;fill:#e7f225"
       inkscape:connector-curvature="0" />
    <path
       d="m 153.98934,13.048726 2.83319,0 0,0.862049 -2.83319,0 0,-0.862049"
       id="path4908"
       style="font-size:10.76509571px;baseline-shift:super;fill:#e7f225"
       inkscape:connector-curvature="0" />
    <path
       d="m 158.68856,15.535001 1.73461,0 0,-5.9870333 -1.88705,0.3784604 0,-0.9671766 1.87654,-0.3784604 1.06179,0 0,6.9542099 1.73461,0 0,0.893587 -4.5205,0 0,-0.893587"
       id="path4910"
       style="font-size:10.76509571px;baseline-shift:super;fill:#e7f225"
       inkscape:connector-curvature="0" />
    <path
       d="m 171.8254,12.669915 0,4.504262 4.50426,0 0,1.37473 -4.50426,0 0,4.504262 -1.35856,0 0,-4.504262 -4.50426,0 0,-1.37473 4.50426,0 0,-4.504262 1.35856,0"
       id="path4912"
       style="font-size:16.56145287px;fill:#e7f225"
       inkscape:connector-curvature="0" />
    <path
       d="m 179.85543,20.999161 1.70628,0 0,2.054008 -1.70628,0 0,-2.054008"
       id="path4914"
       style="font-size:16.56145287px;fill:#e7f225"
       inkscape:connector-curvature="0" />
    <path
       d="m 185.12792,20.999161 1.70628,0 0,2.054008 -1.70628,0 0,-2.054008"
       id="path4916"
       style="font-size:16.56145287px;fill:#e7f225"
       inkscape:connector-curvature="0" />
    <path
       d="m 190.40041,20.999161 1.70628,0 0,2.054008 -1.70628,0 0,-2.054008"
       id="path4918"
       style="font-size:16.56145287px;fill:#e7f225"
       inkscape:connector-curvature="0" />
    <path
       d="m 201.51956,12.669915 0,4.504262 4.50427,0 0,1.37473 -4.50427,0 0,4.504262 -1.35855,0 0,-4.504262 -4.50426,0 0,-1.37473 4.50426,0 0,-4.504262 1.35855,0"
       id="path4920"
       style="font-size:16.56145287px;fill:#e7f225"
       inkscape:connector-curvature="0" />
    <path
       d="m 213.45545,18.500387 c -1.20222,5e-6 -2.03515,0.137477 -2.49878,0.412419 -0.46363,0.27495 -0.69545,0.743975 -0.69545,1.407077 0,0.528329 0.17252,0.948835 0.51755,1.261517 0.35042,0.307293 0.82483,0.460939 1.42325,0.460938 0.82483,10e-7 1.48524,-0.291118 1.98123,-0.873357 0.50136,-0.587628 0.75205,-1.366641 0.75205,-2.337041 l 0,-0.331553 -1.47985,0 m 2.9678,-0.614585 0,5.167367 -1.48795,0 0,-1.37473 c -0.33964,0.549893 -0.76284,0.956921 -1.2696,1.221084 -0.50677,0.258773 -1.12674,0.388159 -1.85993,0.388159 -0.92727,0 -1.66585,-0.258773 -2.21574,-0.776318 -0.5445,-0.522936 -0.81675,-1.221082 -0.81675,-2.094442 0,-1.018913 0.33964,-1.787144 1.01892,-2.304694 0.68466,-0.51754 1.70358,-0.776312 3.05675,-0.776318 l 2.08635,0 0,-0.14556 c 0,-0.684663 -0.22643,-1.21299 -0.67927,-1.584983 -0.44747,-0.377369 -1.07823,-0.566057 -1.89228,-0.566065 -0.51755,8e-6 -1.02162,0.06201 -1.5122,0.185993 -0.49059,0.124003 -0.96232,0.309996 -1.41517,0.557979 l 0,-1.37473 c 0.5445,-0.210244 1.07283,-0.366586 1.58499,-0.469026 0.51215,-0.107813 1.01082,-0.161723 1.49603,-0.161733 1.31003,10e-6 2.28851,0.339648 2.93545,1.018918 0.64692,0.679286 0.97039,1.708984 0.9704,3.089099"
       id="path4922"
       style="font-size:16.56145287px;fill:#e7f225"
       inkscape:connector-curvature="0" />
    <path
       d="m 219.49552,25.471873 1.73461,0 0,-5.987033 -1.88704,0.37846 0,-0.967177 1.87653,-0.37846 1.06179,0 0,6.95421 1.73461,0 0,0.893587 -4.5205,0 0,-0.893587"
       id="path4928"
       style="font-size:10.76509571px;baseline-shift:sub;fill:#e7f225"
       inkscape:connector-curvature="0" />
    <path
       d="m 234.10413,13.996125 -3.27509,4.407222 3.44491,4.649822 -1.7548,0 -2.63625,-3.558124 -2.63625,3.558124 -1.7548,0 3.51769,-4.738775 -3.21848,-4.318269 1.7548,0 2.40173,3.226572 2.40174,-3.226572 1.7548,0"
       id="path4930"
       style="font-size:16.56145287px;fill:#e7f225"
       inkscape:connector-curvature="0" />
    <path
       d="m 249.26936,12.669915 0,4.504262 4.50426,0 0,1.37473 -4.50426,0 0,4.504262 -1.35856,0 0,-4.504262 -4.50426,0 0,-1.37473 4.50426,0 0,-4.504262 1.35856,0"
       id="path4932"
       style="font-size:16.56145287px;fill:#e7f225"
       inkscape:connector-curvature="0" />
    <path
       d="m 261.20524,18.500387 c -1.20222,5e-6 -2.03514,0.137477 -2.49877,0.412419 -0.46364,0.27495 -0.69546,0.743975 -0.69546,1.407077 0,0.528329 0.17252,0.948835 0.51755,1.261517 0.35042,0.307293 0.82483,0.460939 1.42325,0.460938 0.82483,10e-7 1.48524,-0.291118 1.98123,-0.873357 0.50136,-0.587628 0.75205,-1.366641 0.75206,-2.337041 l 0,-0.331553 -1.47986,0 m 2.9678,-0.614585 0,5.167367 -1.48794,0 0,-1.37473 c -0.33965,0.549893 -0.76285,0.956921 -1.26961,1.221084 -0.50677,0.258773 -1.12674,0.388159 -1.85993,0.388159 -0.92727,0 -1.66585,-0.258773 -2.21574,-0.776318 -0.5445,-0.522936 -0.81675,-1.221082 -0.81675,-2.094442 0,-1.018913 0.33964,-1.787144 1.01892,-2.304694 0.68466,-0.51754 1.70358,-0.776312 3.05675,-0.776318 l 2.08636,0 0,-0.14556 c -10e-6,-0.684663 -0.22644,-1.21299 -0.67928,-1.584983 -0.44747,-0.377369 -1.07823,-0.566057 -1.89228,-0.566065 -0.51755,8e-6 -1.02161,0.06201 -1.5122,0.185993 -0.49059,0.124003 -0.96231,0.309996 -1.41516,0.557979 l 0,-1.37473 c 0.54449,-0.210244 1.07282,-0.366586 1.58498,-0.469026 0.51215,-0.107813 1.01083,-0.161723 1.49603,-0.161733 1.31003,10e-6 2.28851,0.339648 2.93545,1.018918 0.64692,0.679286 0.97039,1.708984 0.9704,3.089099"
       id="path4934"
       style="font-size:16.56145287px;fill:#e7f225"
       inkscape:connector-curvature="0" />
    <path
       inkscape:connector-curvature="0"
       d="m 79.632764,22.749746 0,3.553323 -0.96717,0 0,-3.521784 c -1e-5,-0.557174 -0.10864,-0.974181 -0.3259,-1.251022 -0.21727,-0.276832 -0.54316,-0.41525 -0.97769,-0.415255 -0.52214,5e-6 -0.933887,0.166457 -1.235251,0.499357 -0.301368,0.332909 -0.452051,0.786711 -0.452049,1.361406 l 0,3.327298 -0.972433,0 0,-5.887162 0.972433,0 0,0.914613 c 0.231279,-0.353925 0.502859,-0.618497 0.814741,-0.793716 0.315379,-0.175207 0.678069,-0.262813 1.088069,-0.262819 0.67632,6e-6 1.18794,0.210261 1.53487,0.630767 0.34692,0.417012 0.52038,1.03201 0.52038,1.844994"
       id="path4896-2"
       style="font-size:10.76509571px;font-style:normal;font-weight:normal;line-height:125%;letter-spacing:0px;word-spacing:0px;baseline-shift:super;fill:#e7f225;fill-opacity:1;stroke:none;font-family:Sans" />
    <path
       d="m 126.54454,22.749746 0,3.553323 -0.96718,0 0,-3.521784 c 0,-0.557174 -0.10863,-0.974181 -0.32589,-1.251022 -0.21727,-0.276832 -0.54317,-0.41525 -0.97769,-0.415255 -0.52214,5e-6 -0.93389,0.166457 -1.23525,0.499357 -0.30137,0.332909 -0.45206,0.786711 -0.45205,1.361406 l 0,3.327298 -0.97244,0 0,-5.887162 0.97244,0 0,0.914613 c 0.23127,-0.353925 0.50285,-0.618497 0.81474,-0.793716 0.31538,-0.175207 0.67807,-0.262813 1.08807,-0.262819 0.67632,6e-6 1.18794,0.210261 1.53487,0.630767 0.34691,0.417012 0.52037,1.03201 0.52038,1.844994"
       id="path4906-1"
       style="font-size:10.76509571px;font-style:normal;font-weight:normal;line-height:125%;letter-spacing:0px;word-spacing:0px;baseline-shift:super;fill:#e7f225;fill-opacity:1;stroke:none;font-family:Sans"
       inkscape:connector-curvature="0" />
    <path
       d="m 127.99531,22.923207 2.83319,0 0,0.862049 -2.83319,0 0,-0.862049"
       id="path4908-9"
       style="font-size:10.76509571px;font-style:normal;font-weight:normal;line-height:125%;letter-spacing:0px;word-spacing:0px;baseline-shift:super;fill:#e7f225;fill-opacity:1;stroke:none;font-family:Sans"
       inkscape:connector-curvature="0" />
    <path
       d="m 269.53247,19.001938 c -0.54666,7e-6 -0.95841,0.269835 -1.23525,0.809484 -0.27333,0.536158 -0.41,1.34389 -0.41,2.423198 0,1.075812 0.13667,1.883543 0.41,2.423198 0.27684,0.536153 0.68859,0.804229 1.23525,0.804228 0.55017,10e-7 0.96192,-0.268075 1.23526,-0.804228 0.27683,-0.539655 0.41525,-1.347386 0.41525,-2.423198 0,-1.079308 -0.13842,-1.88704 -0.41525,-2.423198 -0.27334,-0.539649 -0.68509,-0.809477 -1.23526,-0.809484 m 0,-0.841024 c 0.87957,8e-6 1.55064,0.348682 2.0132,1.046023 0.46606,0.69385 0.6991,1.703077 0.6991,3.027683 0,1.32111 -0.23304,2.330337 -0.6991,3.027683 -0.46256,0.693845 -1.13363,1.040766 -2.0132,1.040766 -0.87957,0 -1.55239,-0.346921 -2.01845,-1.040766 -0.46257,-0.697346 -0.69385,-1.706573 -0.69385,-3.027683 0,-1.324606 0.23128,-2.333833 0.69385,-3.027683 0.46606,-0.697341 1.13888,-1.046015 2.01845,-1.046023"
       id="path4892-1"
       style="font-size:10.76509571px;font-style:normal;font-weight:normal;line-height:125%;letter-spacing:0px;word-spacing:0px;baseline-shift:sub;fill:#e7f225;fill-opacity:1;stroke:none;font-family:Sans"
       inkscape:connector-curvature="0" />
    <path
       d="m 235.61001,15.272462 1.73461,0 0,-5.987033 -1.88704,0.37846 0,-0.967177 1.87653,-0.37846 1.06179,0 0,6.95421 1.73461,0 0,0.893587 -4.5205,0 0,-0.893587"
       id="path4928-9"
       style="font-size:10.76509571px;font-style:normal;font-weight:normal;line-height:125%;letter-spacing:0px;word-spacing:0px;baseline-shift:sub;fill:#e7f225;fill-opacity:1;stroke:none;font-family:Sans"
       inkscape:connector-curvature="0" />
  </g>
</svg>
