<?xml version="1.0" encoding="UTF-8" standalone="no"?>
<!-- Created with Inkscape (http://www.inkscape.org/) -->

<svg
   xmlns:dc="http://purl.org/dc/elements/1.1/"
   xmlns:cc="http://creativecommons.org/ns#"
   xmlns:rdf="http://www.w3.org/1999/02/22-rdf-syntax-ns#"
   xmlns:svg="http://www.w3.org/2000/svg"
   xmlns="http://www.w3.org/2000/svg"
   xmlns:sodipodi="http://sodipodi.sourceforge.net/DTD/sodipodi-0.dtd"
   xmlns:inkscape="http://www.inkscape.org/namespaces/inkscape"
   version="1.1"
   width="230"
   height="25"
   id="svg4731"
   inkscape:version="0.48.5 r10040"
   sodipodi:docname="example_equation.svg">
  <sodipodi:namedview
     pagecolor="#ffffff"
     bordercolor="#666666"
     borderopacity="1"
     objecttolerance="10"
     gridtolerance="10"
     guidetolerance="10"
     inkscape:pageopacity="0"
     inkscape:pageshadow="2"
     inkscape:window-width="640"
     inkscape:window-height="480"
     id="namedview3028"
     showgrid="false"
     inkscape:zoom="1.5798786"
     inkscape:cx="146.69041"
     inkscape:cy="30.417408"
     inkscape:window-x="358"
     inkscape:window-y="101"
     inkscape:window-maximized="0"
     inkscape:current-layer="svg4731" />
  <metadata
     id="metadata4737">
    <rdf:RDF>
      <cc:Work
         rdf:about="">
        <dc:format>image/svg+xml</dc:format>
        <dc:type
           rdf:resource="http://purl.org/dc/dcmitype/StillImage" />
        <dc:title></dc:title>
      </cc:Work>
    </rdf:RDF>
  </metadata>
  <defs
     id="defs4735" />
  <flowRoot
     xml:space="preserve"
     id="flowRoot3030"
     style="font-size:40px;font-style:normal;font-weight:normal;line-height:125%;letter-spacing:0px;word-spacing:0px;fill:#000000;fill-opacity:1;stroke:none;font-family:Sans"
     transform="translate(0,-7)"><flowRegion
       id="flowRegion3032"><rect
         id="rect3034"
         width="350"
         height="41.176472"
         x="5.3708439"
         y="35.580563" /></flowRegion><flowPara
       id="flowPara3036">W</flowPara></flowRoot>  <g
     transform="matrix(0.84923947,0,0,0.84923947,19.861988,76.70883)"
     style="font-size:40px;font-style:normal;font-weight:normal;line-height:125%;letter-spacing:0px;word-spacing:0px;fill:#1a1a1a;fill-opacity:1;stroke:none;font-family:Sans"
     id="flowRoot3038">
    <path
       d="m 6.0390625,-79.895095 1.9921875,0 3.066406,12.324219 3.056641,-12.324219 2.216797,0 3.066406,12.324219 3.056641,-12.324219 2.001953,0 -3.66211,14.580078 -2.480468,0 -3.076172,-12.65625 -3.105469,12.65625 -2.4804687,0 -3.6523438,-14.580078"
       style="font-size:20px;fill:#1a1a1a"
       id="path3051"
       inkscape:connector-curvature="0" />
    <path
       d="m 31.341797,-80.490798 c -0.872401,1.497409 -1.520187,2.978528 -1.94336,4.443359 -0.42318,1.464853 -0.634769,2.949227 -0.634765,4.453125 -4e-6,1.503911 0.211585,2.994795 0.634765,4.472657 0.429683,1.471354 1.077469,2.952472 1.94336,4.443359 l -1.5625,0 c -0.976566,-1.529949 -1.708987,-3.033854 -2.197266,-4.511719 -0.481773,-1.477861 -0.722658,-2.945958 -0.722656,-4.404297 -2e-6,-1.451815 0.240883,-2.913402 0.722656,-4.384765 0.481768,-1.471342 1.214189,-2.975247 2.197266,-4.511719 l 1.5625,0"
       style="font-size:20px;fill:#1a1a1a"
       id="path3053"
       inkscape:connector-curvature="0" />
    <path
       d="m 43.929687,-76.252517 -3.955078,5.322266 4.160157,5.615234 -2.119141,0 -3.183594,-4.296875 -3.183594,4.296875 -2.11914,0 4.248047,-5.722656 -3.886719,-5.214844 2.119141,0 2.90039,3.896485 2.900391,-3.896485 2.11914,0"
       style="font-size:20px;fill:#1a1a1a"
       id="path3055"
       inkscape:connector-curvature="0" />
    <path
       d="m 46.390625,-80.490798 1.5625,0 c 0.976558,1.536472 1.705724,3.040377 2.1875,4.511719 0.488275,1.471363 0.732416,2.93295 0.732422,4.384765 -6e-6,1.458339 -0.244147,2.926436 -0.732422,4.404297 -0.481776,1.477865 -1.210942,2.98177 -2.1875,4.511719 l -1.5625,0 c 0.865883,-1.490887 1.510414,-2.972005 1.933594,-4.443359 0.429683,-1.477862 0.644527,-2.968746 0.644531,-4.472657 -4e-6,-1.503898 -0.214848,-2.988272 -0.644531,-4.453125 -0.42318,-1.464831 -1.067711,-2.94595 -1.933594,-4.443359"
       style="font-size:20px;fill:#1a1a1a"
       id="path3057"
       inkscape:connector-curvature="0" />
    <path
       d="m 54.720703,-74.397048 12.519531,0 0,1.640625 -12.519531,0 0,-1.640625 m 0,3.984375 12.519531,0 0,1.660156 -12.519531,0 0,-1.660156"
       style="font-size:20px;fill:#1a1a1a"
       id="path3059"
       inkscape:connector-curvature="0" />
    <path
       d="m 80.335937,-76.252517 -3.955078,5.322266 4.160157,5.615234 -2.119141,0 -3.183594,-4.296875 -3.183594,4.296875 -2.11914,0 4.248047,-5.722656 -3.886719,-5.214844 2.119141,0 2.90039,3.896485 2.900391,-3.896485 2.11914,0"
       style="font-size:20px;fill:#1a1a1a"
       id="path3061"
       inkscape:connector-curvature="0" />
    <path
       d="m 87.406681,-79.332047 c 0.722535,0.154481 1.285619,0.475887 1.689254,0.96422 0.408601,0.488343 0.612906,1.091291 0.612914,1.808846 -8e-6,1.101256 -0.378719,1.953356 -1.136134,2.556304 -0.75743,0.602948 -1.833768,0.904423 -3.229015,0.904423 -0.46841,0 -0.951766,-0.04734 -1.450067,-0.142017 -0.493324,-0.08969 -1.004086,-0.226729 -1.532287,-0.411101 l 0,-1.457542 c 0.418574,0.244171 0.877014,0.428544 1.375321,0.553118 0.498302,0.124578 1.019029,0.186866 1.562185,0.186865 0.946774,10e-7 1.666824,-0.186863 2.160151,-0.560593 0.498298,-0.373727 0.747451,-0.916878 0.747458,-1.629457 -7e-6,-0.657758 -0.231719,-1.171012 -0.695136,-1.539762 -0.458446,-0.373723 -1.098767,-0.560587 -1.920964,-0.560592 l -1.300576,0 0,-1.240779 1.360372,0 c 0.742469,6e-6 1.310536,-0.146993 1.704202,-0.441 0.393655,-0.298975 0.590485,-0.727517 0.590492,-1.285626 -7e-6,-0.573042 -0.204312,-1.01155 -0.612915,-1.315525 -0.403633,-0.308939 -0.984157,-0.463413 -1.741575,-0.463423 -0.413597,1e-5 -0.857088,0.04486 -1.330474,0.134542 -0.473392,0.0897 -0.99412,0.22923 -1.562186,0.418576 l 0,-1.345423 c 0.573049,-0.159446 1.108726,-0.279039 1.607033,-0.358779 0.503284,-0.07972 0.976673,-0.119582 1.420169,-0.119593 1.146095,1.1e-5 2.053009,0.261621 2.720744,0.78483 0.66772,0.518247 1.001584,1.220856 1.001592,2.107829 -8e-6,0.617906 -0.176906,1.141125 -0.530694,1.56966 -0.353804,0.423565 -0.857091,0.717565 -1.509864,0.881999"
       style="font-size:76.53961182%;baseline-shift:super"
       id="path3063"
       inkscape:connector-curvature="0" />
    <path
       d="m 91.918716,-71.594314 5.263672,0 0,1.601563 -5.263672,0 0,-1.601563"
       style="font-size:20px;fill:#1a1a1a"
       id="path3065"
       inkscape:connector-curvature="0" />
    <path
       d="m 104.77028,-73.391189 c -0.88542,8e-6 -1.58855,0.302742 -2.10938,0.908203 -0.51432,0.605476 -0.77148,1.435553 -0.77148,2.490235 0,1.048181 0.25716,1.878258 0.77148,2.490234 0.52083,0.605471 1.22396,0.908205 2.10938,0.908203 0.88541,2e-6 1.58528,-0.302732 2.09961,-0.908203 0.52082,-0.611976 0.78124,-1.442053 0.78125,-2.490234 -1e-5,-1.054682 -0.26043,-1.884759 -0.78125,-2.490235 -0.51433,-0.605461 -1.2142,-0.908195 -2.09961,-0.908203 m 3.91601,-6.18164 0,1.796875 c -0.4948,-0.234363 -0.9961,-0.413399 -1.5039,-0.53711 -0.50131,-0.123684 -0.99936,-0.185533 -1.49414,-0.185547 -1.30209,1.4e-5 -2.29818,0.439466 -2.98828,1.31836 -0.6836,0.878917 -1.07423,2.207041 -1.17188,3.984375 0.38411,-0.566398 0.86588,-0.99934 1.44531,-1.298828 0.57943,-0.30598 1.21745,-0.458975 1.91407,-0.458985 1.46483,1e-5 2.62043,0.445973 3.46679,1.337891 0.85286,0.885424 1.27929,2.093105 1.2793,3.623047 -1e-5,1.497399 -0.44272,2.69857 -1.32812,3.603515 -0.88543,0.904949 -2.06381,1.357422 -3.53516,1.357422 -1.6862,0 -2.97527,-0.644531 -3.86719,-1.933593 -0.89193,-1.29557 -1.337891,-3.170568 -1.337889,-5.625 -2e-6,-2.304678 0.546869,-4.140614 1.640629,-5.507813 1.09374,-1.373684 2.56184,-2.060532 4.40429,-2.060547 0.49479,1.5e-5 0.99283,0.04884 1.49414,0.146485 0.50781,0.09767 1.03515,0.244155 1.58203,0.439453"
       style="font-size:20px;fill:#1a1a1a"
       id="path3067"
       inkscape:connector-curvature="0" />
    <path
       d="m 121.87965,-76.252517 -3.95507,5.322266 4.16015,5.615234 -2.11914,0 -3.18359,-4.296875 -3.1836,4.296875 -2.11914,0 4.24805,-5.722656 -3.88672,-5.214844 2.11914,0 2.90039,3.896485 2.90039,-3.896485 2.11914,0"
       style="font-size:20px;fill:#1a1a1a"
       id="path3069"
       inkscape:connector-curvature="0" />
    <path
       d="m 125.67654,-74.585694 5.26957,0 0,1.270677 -7.0859,0 0,-1.270677 c 0.57305,-0.592981 1.3529,-1.387776 2.33955,-2.384388 0.99162,-1.001588 1.6145,-1.646892 1.86864,-1.935914 0.48335,-0.543146 0.8197,-1.001586 1.00907,-1.375321 0.19433,-0.378705 0.2915,-0.749941 0.2915,-1.113712 0,-0.592974 -0.20929,-1.076329 -0.62786,-1.450066 -0.4136,-0.373719 -0.95426,-0.560583 -1.62198,-0.560593 -0.4734,1e-5 -0.97419,0.08223 -1.50239,0.246661 -0.52322,0.16445 -1.08382,0.413602 -1.68178,0.747457 l 0,-1.524813 c 0.60793,-0.244158 1.176,-0.428531 1.7042,-0.553118 0.5282,-0.124565 1.01156,-0.186853 1.45007,-0.186864 1.15606,1.1e-5 2.07792,0.289027 2.76559,0.86705 0.68765,0.578043 1.03148,1.350415 1.03149,2.317117 -1e-5,0.458448 -0.0872,0.894464 -0.26161,1.30805 -0.16943,0.408616 -0.48087,0.891972 -0.93432,1.450067 -0.12458,0.144514 -0.52073,0.563089 -1.18846,1.255728 -0.66773,0.687664 -1.60953,1.651883 -2.82538,2.892659"
       style="font-size:76.53961182%;baseline-shift:super"
       id="path3071"
       inkscape:connector-curvature="0" />
    <path
       d="m 141.68509,-77.854079 0,5.439453 5.43945,0 0,1.660156 -5.43945,0 0,5.439453 -1.64063,0 0,-5.439453 -5.43945,0 0,-1.660156 5.43945,0 0,-5.439453 1.64063,0"
       style="font-size:20px;fill:#1a1a1a"
       id="path3073"
       inkscape:connector-curvature="0" />
    <path
       d="m 151.72415,-66.975173 3.22266,0 0,-11.123047 -3.50586,0.703125 0,-1.796875 3.48633,-0.703125 1.97265,0 0,12.919922 3.22266,0 0,1.660156 -8.39844,0 0,-1.660156"
       style="font-size:20px;fill:#1a1a1a"
       id="path3075"
       inkscape:connector-curvature="0" />
    <path
       d="m 165.81595,-66.975173 6.88476,0 0,1.660156 -9.25781,0 0,-1.660156 c 0.7487,-0.774737 1.76758,-1.813148 3.05664,-3.115234 1.29557,-1.308588 2.10937,-2.151686 2.44141,-2.529297 0.6315,-0.709628 1.07095,-1.308585 1.31836,-1.796875 0.2539,-0.494782 0.38085,-0.979808 0.38086,-1.455078 -1e-5,-0.774729 -0.27345,-1.406238 -0.82032,-1.894532 -0.54037,-0.488268 -1.24675,-0.732408 -2.11914,-0.732422 -0.61849,1.4e-5 -1.27279,0.107435 -1.96289,0.322266 -0.68359,0.214856 -1.41601,0.540377 -2.19726,0.976563 l 0,-1.992188 c 0.79427,-0.318996 1.53645,-0.559881 2.22656,-0.722656 0.6901,-0.162746 1.32161,-0.244126 1.89453,-0.244141 1.51041,1.5e-5 2.71484,0.377619 3.61328,1.132813 0.89843,0.755221 1.34765,1.764335 1.34766,3.027343 -1e-5,0.598969 -0.11394,1.16863 -0.3418,1.708985 -0.22136,0.533862 -0.62826,1.165372 -1.2207,1.894531 -0.16277,0.188809 -0.68035,0.735684 -1.55274,1.640625 -0.8724,0.898442 -2.10287,2.158207 -3.6914,3.779297"
       style="font-size:20px;fill:#1a1a1a"
       id="path3077"
       inkscape:connector-curvature="0" />
    <path
       d="m 185.689,-76.252517 -3.95508,5.322266 4.16015,5.615234 -2.11914,0 -3.18359,-4.296875 -3.18359,4.296875 -2.11915,0 4.24805,-5.722656 -3.88672,-5.214844 2.11914,0 2.90039,3.896485 2.90039,-3.896485 2.11915,0"
       style="font-size:20px;fill:#1a1a1a"
       id="path3079"
       inkscape:connector-curvature="0" />
    <path
       d="m 187.52493,-71.594314 5.26367,0 0,1.601563 -5.26367,0 0,-1.601563"
       style="font-size:20px;fill:#1a1a1a"
       id="path3081"
       inkscape:connector-curvature="0" />
    <path
       d="m 196.2554,-66.975173 3.22266,0 0,-11.123047 -3.50586,0.703125 0,-1.796875 3.48633,-0.703125 1.97265,0 0,12.919922 3.22266,0 0,1.660156 -8.39844,0 0,-1.660156"
       style="font-size:20px;fill:#1a1a1a"
       id="path3083"
       inkscape:connector-curvature="0" />
    <path
       d="m 213.11087,-73.391189 c -0.88542,8e-6 -1.58855,0.302742 -2.10937,0.908203 -0.51433,0.605476 -0.77149,1.435553 -0.77149,2.490235 0,1.048181 0.25716,1.878258 0.77149,2.490234 0.52082,0.605471 1.22395,0.908205 2.10937,0.908203 0.88541,2e-6 1.58528,-0.302732 2.09961,-0.908203 0.52082,-0.611976 0.78124,-1.442053 0.78125,-2.490234 -1e-5,-1.054682 -0.26043,-1.884759 -0.78125,-2.490235 -0.51433,-0.605461 -1.2142,-0.908195 -2.09961,-0.908203 m 3.91602,-6.18164 0,1.796875 c -0.49481,-0.234363 -0.99611,-0.413399 -1.50391,-0.53711 -0.50131,-0.123684 -0.99936,-0.185533 -1.49414,-0.185547 -1.30209,1.4e-5 -2.29818,0.439466 -2.98828,1.31836 -0.6836,0.878917 -1.07422,2.207041 -1.17188,3.984375 0.38411,-0.566398 0.86588,-0.99934 1.44532,-1.298828 0.57942,-0.30598 1.21744,-0.458975 1.91406,-0.458985 1.46483,1e-5 2.62043,0.445973 3.46679,1.337891 0.85286,0.885424 1.27929,2.093105 1.2793,3.623047 -1e-5,1.497399 -0.44272,2.69857 -1.32812,3.603515 -0.88543,0.904949 -2.06381,1.357422 -3.53516,1.357422 -1.6862,0 -2.97526,-0.644531 -3.86719,-1.933593 -0.89193,-1.29557 -1.33789,-3.170568 -1.33789,-5.625 0,-2.304678 0.54688,-4.140614 1.64063,-5.507813 1.09374,-1.373684 2.56184,-2.060532 4.40429,-2.060547 0.49479,1.5e-5 0.99283,0.04884 1.49414,0.146485 0.50781,0.09767 1.03515,0.244155 1.58204,0.439453"
       style="font-size:20px;fill:#1a1a1a"
       id="path3085"
       inkscape:connector-curvature="0" />
  </g>
</svg>
