<?xml version="1.0" encoding="UTF-8" standalone="no"?>
<!-- Created with Inkscape (http://www.inkscape.org/) -->

<svg
   xmlns:dc="http://purl.org/dc/elements/1.1/"
   xmlns:cc="http://creativecommons.org/ns#"
   xmlns:rdf="http://www.w3.org/1999/02/22-rdf-syntax-ns#"
   xmlns:svg="http://www.w3.org/2000/svg"
   xmlns="http://www.w3.org/2000/svg"
   xmlns:sodipodi="http://sodipodi.sourceforge.net/DTD/sodipodi-0.dtd"
   xmlns:inkscape="http://www.inkscape.org/namespaces/inkscape"
   id="svg2"
   version="1.1"
   inkscape:version="0.48.5 r10040"
   width="500"
   height="500"
   xml:space="preserve"
   sodipodi:docname="knowledge.svg"><metadata
     id="metadata8"><rdf:RDF><cc:Work
         rdf:about=""><dc:format>image/svg+xml</dc:format><dc:type
           rdf:resource="http://purl.org/dc/dcmitype/StillImage" /><dc:title></dc:title></cc:Work></rdf:RDF></metadata><defs
     id="defs6"><linearGradient
       x1="0"
       y1="0"
       x2="1"
       y2="0"
       gradientUnits="userSpaceOnUse"
       gradientTransform="matrix(-37.2401,-22.382,22.382,-37.2401,-7203.6093,-979.43369)"
       spreadMethod="pad"
       id="linearGradient372"><stop
         style="stop-opacity:1;stop-color:#ffc797"
         offset="0"
         id="stop374" /><stop
         style="stop-opacity:1;stop-color:#bb7c42"
         offset="0.97191"
         id="stop376" /><stop
         style="stop-opacity:1;stop-color:#bb7c42"
         offset="1"
         id="stop378" /></linearGradient><linearGradient
       x1="0"
       y1="0"
       x2="1"
       y2="0"
       gradientUnits="userSpaceOnUse"
       gradientTransform="matrix(43.9987,-44.1224,43.6981,43.5938,-7346.0339,-845.89369)"
       spreadMethod="pad"
       id="linearGradient390"><stop
         style="stop-opacity:1;stop-color:#ffffff"
         offset="0"
         id="stop392" /><stop
         style="stop-opacity:1;stop-color:#8b8d88"
         offset="0.983146"
         id="stop394" /><stop
         style="stop-opacity:1;stop-color:#8b8d88"
         offset="1"
         id="stop396" /></linearGradient><linearGradient
       x1="0"
       y1="0"
       x2="1"
       y2="0"
       gradientUnits="userSpaceOnUse"
       gradientTransform="matrix(21.474,-12.9062,-12.9062,-21.474,-6782.8633,-1227.1967)"
       spreadMethod="pad"
       id="linearGradient568"><stop
         style="stop-opacity:1;stop-color:#ffc797"
         offset="0"
         id="stop570" /><stop
         style="stop-opacity:1;stop-color:#bb7c42"
         offset="0.97191"
         id="stop572" /><stop
         style="stop-opacity:1;stop-color:#bb7c42"
         offset="1"
         id="stop574" /></linearGradient><linearGradient
       x1="0"
       y1="0"
       x2="1"
       y2="0"
       gradientUnits="userSpaceOnUse"
       gradientTransform="matrix(-25.3692,-25.4405,-25.1959,25.1357,-6700.7373,-1150.1927)"
       spreadMethod="pad"
       id="linearGradient586"><stop
         style="stop-opacity:1;stop-color:#ffffff"
         offset="0"
         id="stop588" /><stop
         style="stop-opacity:1;stop-color:#8b8d88"
         offset="0.983146"
         id="stop590" /><stop
         style="stop-opacity:1;stop-color:#8b8d88"
         offset="1"
         id="stop592" /></linearGradient></defs><sodipodi:namedview
     pagecolor="#ffffff"
     bordercolor="#666666"
     borderopacity="1"
     objecttolerance="10"
     gridtolerance="10"
     guidetolerance="10"
     inkscape:pageopacity="0"
     inkscape:pageshadow="2"
     inkscape:window-width="949"
     inkscape:window-height="616"
     id="namedview4"
     showgrid="false"
     inkscape:zoom="0.37014934"
     inkscape:cx="401.80222"
     inkscape:cy="333.06162"
     inkscape:window-x="0"
     inkscape:window-y="24"
     inkscape:window-maximized="0"
     inkscape:current-layer="g10" /><g
     id="g10"
     inkscape:groupmode="layer"
     inkscape:label="ink_ext_XXXXXX"
     transform="matrix(1.25,0,0,-1.25,0,500.00001)"><g
       id="g12"
       transform="matrix(0.07562455,0,0,0.07562455,-61.481435,-53.705889)"><g
         id="g3630"
         transform="matrix(2.4428142,0,0,2.4428142,-3691.3984,-10848.053)"><path
           inkscape:connector-curvature="0"
           id="path66"
           style="fill:#4ea628;fill-opacity:1;fill-rule:nonzero;stroke:none"
           d="m 3854.2137,6086.9688 -943.713,-383.1 -943.727,383.1 943.727,383.13 943.713,-383.13" /><path
           inkscape:connector-curvature="0"
           id="path68"
           style="fill:#4ea628;fill-opacity:1;fill-rule:nonzero;stroke:none"
           d="m 2910.5007,5641.2188 -629.231,255.3 0,-398.5 c 0,-42.59 281.477,-259.78 629.231,-259.78 347.733,0 629.183,217.16 629.183,259.78 l 0,398.5 -629.183,-255.3" /><path
           inkscape:connector-curvature="0"
           id="path70"
           style="fill:#e8f326;fill-opacity:1;fill-rule:nonzero;stroke:none"
           d="m 3719.7137,5535.5388 c 34.06,0 61.68,28.89 61.68,64.55 0,28.01 -17.13,51.62 -40.92,60.57 l 0,316.93 -37.75,-15.18 0,-300.51 c -25.73,-7.75 -44.7,-32.33 -44.7,-61.81 0.02,-35.66 27.62,-64.55 61.69,-64.55" /><path
           inkscape:connector-curvature="0"
           id="path72"
           style="fill:#e8f326;fill-opacity:1;fill-rule:nonzero;stroke:none"
           d="m 3781.3937,5535.5388 c -61.68,-53.97 -123.37,1.93 -123.37,1.93 0,0 -23.13,-88.65 -26.99,-148.43 -3.84,-59.74 25.06,-115.62 17.36,-165.74 -7.7,-50.11 0,-109.86 9.63,-140.7 9.63,-30.81 28.92,-15.43 28.92,-15.43 0,0 -11.57,11.56 -11.57,23.14 0,11.55 25.06,9.62 25.06,9.62 l 0,-32.76 c 0,0 15.43,0 19.28,11.77 3.85,11.69 26.99,11.37 26.99,11.37 l 9.64,36.61 c 0,0 3.84,-15.4 3.84,-32.76 0,-17.36 17.36,-23.14 30.81,0 46.3,196.62 5.8,385.49 -9.6,441.38" /><path
           inkscape:connector-curvature="0"
           id="path76"
           style="fill:#81d727;fill-opacity:1;fill-rule:nonzero;stroke:none"
           d="m 2910.5007,5703.8688 -187.938,76.29 409.621,595.27 716.28,-290.79 -937.963,-380.77" /><path
           inkscape:connector-curvature="0"
           id="path80"
           style="fill:#81d727;fill-opacity:1;fill-rule:nonzero;stroke:none"
           d="m 2910.5007,5238.2388 c -188.207,0 -357,63.62 -472.266,128.74 l 248.09,360.53 224.176,-90.96 629.183,255.3 0,-393.83 c 0,-42.62 -281.45,-259.78 -629.183,-259.78" /></g></g></g></svg>
