<?xml version="1.0" encoding="UTF-8" standalone="no"?>
<!-- Created with Inkscape (http://www.inkscape.org/) -->

<svg
   xmlns:dc="http://purl.org/dc/elements/1.1/"
   xmlns:cc="http://creativecommons.org/ns#"
   xmlns:rdf="http://www.w3.org/1999/02/22-rdf-syntax-ns#"
   xmlns:svg="http://www.w3.org/2000/svg"
   xmlns="http://www.w3.org/2000/svg"
   version="1.2"
   width="300"
   height="100"
   id="svg3957">
  <defs
     id="defs3959" />
  <metadata
     id="metadata3962">
    <rdf:RDF>
      <cc:Work
         rdf:about="">
        <dc:format>image/svg+xml</dc:format>
        <dc:type
           rdf:resource="http://purl.org/dc/dcmitype/StillImage" />
        <dc:title></dc:title>
      </cc:Work>
    </rdf:RDF>
  </metadata>
  <g
     transform="translate(0,36)"
     id="layer1">
    <g
       id="g4225">
      <path
         d="m 481.42857,350.93362 a 111.42857,111.42857 0 1 1 -222.85714,0 111.42857,111.42857 0 1 1 222.85714,0 z"
         transform="matrix(0.38948837,0,0,0.38948837,-94.772057,-122.0232)"
         id="path2985-8-3"
         style="fill:#81d727;fill-opacity:1;fill-rule:nonzero;stroke:none" />
      <g
         transform="matrix(0.48177098,0,0,0.48177098,-53.797937,-282.69967)"
         id="flowRoot3795-1"
         style="font-size:40px;font-style:normal;font-weight:normal;line-height:125%;letter-spacing:0px;word-spacing:0px;fill:#ffffff;fill-opacity:1;stroke:none;font-family:Sans">
        <path
           d="m 205.40068,618.36693 c 0,0 2.89372,3.50294 2.89372,7.91967 l 0,9.89958 c 0,6.54895 -5.33055,11.8795 -11.87949,11.8795 -6.54895,0 -11.8795,-5.33055 -11.8795,-11.8795 l 0,-15.99163 -7.91967,0.91381 0,15.07782 c 0,10.96568 8.83349,19.79916 19.79917,19.79916 10.96568,0 19.79916,-8.83348 19.79916,-19.79916 l 0,-9.89958 c 0,-7.46276 -4.72134,-13.09791 -4.72134,-13.09791 l -24.2159,-28.78494 c 0,0 -2.74142,-3.19833 -2.74142,-7.61506 l 0,-6.85356 c 0,-6.54894 5.33055,-11.87949 11.8795,-11.87949 6.54894,0 11.87949,5.33055 11.87949,11.87949 l 0,13.70712 7.91967,-0.91381 0,-12.79331 c 0,-10.96567 -8.83348,-19.79916 -19.79916,-19.79916 -10.96568,0 -19.79917,8.83349 -19.79917,19.79916 l 0,6.85356 c 0,7.31045 4.56904,12.79331 4.56904,12.79331 l 24.2159,28.78493"
           id="path4223"
           style="font-size:152.30125427px;font-variant:normal;font-stretch:normal;fill:#ffffff;font-family:Dense;-inkscape-font-specification:Dense" />
      </g>
      <g
         transform="matrix(0.60359696,0,0,0.60359696,-156.28254,-351.99106)"
         id="flowRoot3822-3"
         style="font-size:40px;font-style:normal;font-weight:normal;line-height:125%;letter-spacing:0px;word-spacing:0px;fill:#ffffff;fill-opacity:1;stroke:none;font-family:Sans">
        <path
           d="m 361.32463,577.95926 0,37.75953 -18.94048,0 0,-37.75953 -6.31349,0 0,81.95397 6.31349,0 0,-37.88095 18.94048,0 0,37.88095 6.31349,0 0,-81.95397 -6.31349,0"
           id="path4220"
           style="font-size:121.41327667px;font-variant:normal;font-stretch:normal;fill:#ffffff;font-family:Dense;-inkscape-font-specification:Dense" />
      </g>
    </g>
  </g>
  <g
     transform="matrix(1.2157011,0,0,1.2157011,-27.27849,-8.8308363)"
     id="flowRoot4057"
     style="font-size:40px;font-style:normal;font-weight:normal;line-height:125%;letter-spacing:0px;word-spacing:0px;fill:#ffffff;fill-opacity:1;stroke:none;font-family:Sans">
    <path
       d="m 113.00125,45.925 c -1.06,-2.159998 -3.32,-2.78 -5.5,-2.78 -2.58,0.02 -5.42,1.200003 -5.42,4.08 0,3.139997 2.64,3.9 5.5,4.24 1.86,0.2 3.24,0.740001 3.24,2.06 0,1.519998 -1.56,2.1 -3.22,2.1 -1.7,0 -3.32,-0.680002 -3.94,-2.22 l -2.2,1.14 c 1.04,2.559997 3.24,3.44 6.1,3.44 3.12,0 5.88,-1.340003 5.88,-4.46 0,-3.339997 -2.72,-4.1 -5.64,-4.46 -1.68,-0.2 -3.12,-0.540001 -3.12,-1.76 0,-1.039999 0.94,-1.86 2.9,-1.86 1.52,0 2.84,0.760001 3.32,1.56 l 2.1,-1.08"
       id="path4066"
       style="font-size:20px;font-variant:normal;font-stretch:normal;fill:#ffffff;font-family:Nexa Bold;-inkscape-font-specification:Nexa Bold" />
    <path
       d="m 122.10438,54.765 c -0.6,0.599999 -1.38001,0.82 -2.16,0.82 -1.52,0 -2.80001,-1.000002 -2.80001,-2.88 0,-1.719998 1.20001,-2.92 2.84001,-2.92 0.67999,0 1.4,0.260001 1.98,0.78 l 1.53999,-1.62 c -1.07999,-1.059999 -2.16,-1.46 -3.55999,-1.46 -2.86,0 -5.24,1.720004 -5.24,5.22 0,3.499996 2.38,5.22 5.24,5.22 1.45999,0 2.66,-0.440001 3.8,-1.56 l -1.64,-1.6"
       id="path4068"
       style="font-size:20px;font-variant:normal;font-stretch:normal;fill:#ffffff;font-family:Nexa Bold;-inkscape-font-specification:Nexa Bold" />
    <path
       d="m 124.81562,43.625 0,14 2.44,0 0,-5.04 c 0,-1.479999 1.00001,-2.7 2.44,-2.7 1.3,0 2.24,0.760002 2.24,2.56 l 0,5.18 2.44001,0 0,-5.2 c 0,-2.899997 -1.24001,-4.8 -4.04001,-4.8 -1.11999,0 -2.2,0.340001 -3.08,1.48 l 0,-5.48 -2.44,0"
       id="path4070"
       style="font-size:20px;font-variant:normal;font-stretch:normal;fill:#ffffff;font-family:Nexa Bold;-inkscape-font-specification:Nexa Bold" />
    <path
       d="m 146.19719,53.565 c 0.38,-4.059996 -1.68001,-6.1 -4.98,-6.1 -3.2,0 -5.24,2.160003 -5.24,5.16 0,3.159997 2.02,5.26 5.42,5.26 1.5,0 3.2,-0.520001 4.24,-1.6 l -1.56,-1.54 c -0.56,0.579999 -1.74,0.92 -2.64,0.92 -1.72,0 -2.78,-0.880001 -2.94,-2.1 l 7.7,0 m -7.66,-2.02 c 0.36,-1.279999 1.44,-1.92 2.76,-1.92 1.4,0 2.4,0.640001 2.56,1.92 l -5.32,0"
       id="path4072"
       style="font-size:20px;font-variant:normal;font-stretch:normal;fill:#ffffff;font-family:Nexa Bold;-inkscape-font-specification:Nexa Bold" />
    <path
       d="m 156.90156,57.625 0,-5.28 c 0,-1.299999 0.82,-2.44 2.14,-2.44 1.32,0 1.86,1.100001 1.86,2.4 l 0,5.32 2.44,0 0,-5.32 c 0,-2.959997 -1.38,-4.68 -4.18,-4.68 -1.28,0 -2.42,0.400001 -3.3,1.8 -0.56,-1.359999 -1.74,-1.84 -2.92,-1.84 -0.94,0 -2.08,0.360001 -2.6,1.36 l -0.18,-1.2 -2.26,0 0,9.88 2.44,0 0,-5.28 c 0,-1.299999 0.78,-2.48 2.1,-2.48 1.34,0 2.02,1.180001 2.02,2.48 l 0,5.28 2.44,0"
       id="path4074"
       style="font-size:20px;font-variant:normal;font-stretch:normal;fill:#ffffff;font-family:Nexa Bold;-inkscape-font-specification:Nexa Bold" />
    <path
       d="m 173.57125,49.125 c -0.56,-0.979999 -1.82,-1.6 -3.14,-1.6 -2.88,-0.02 -5.14,1.760003 -5.14,5.16 0,3.459997 2.16,5.26 5.08,5.24 1.1,-0.02 2.64,-0.580001 3.2,-1.74 l 0.12,1.44 2.3,0 0,-9.86 -2.34,0 -0.08,1.36 m -2.92,0.58 c 3.84,0 3.84,5.98 0,5.98 -1.62,0 -2.92,-1.120002 -2.92,-3 0,-1.879998 1.3,-2.98 2.92,-2.98"
       id="path4076"
       style="font-size:20px;font-variant:normal;font-stretch:normal;fill:#ffffff;font-family:Nexa Bold;-inkscape-font-specification:Nexa Bold" />
    <path
       d="m 178.62812,45.245 0,2.54 -1.84,0 0,2.1 1.84,0 0,4.26 c 0,2.459998 1.40001,3.68 3.54,3.6 0.74,-0.02 1.32001,-0.14 2.02001,-0.42 l -0.68001,-2.08 c -0.35999,0.18 -0.8,0.3 -1.18,0.3 -0.75999,0 -1.28,-0.460001 -1.28,-1.4 l 0,-4.26 2.74,0 0,-2.1 -2.72,0 0,-2.8 -2.44,0.26"
       id="path4078"
       style="font-size:20px;font-variant:normal;font-stretch:normal;fill:#ffffff;font-family:Nexa Bold;-inkscape-font-specification:Nexa Bold" />
    <path
       d="m 201.96031,57.645 0,-14 -2.62,0 0,5.9 -6.88,0 0,-5.9 -2.64,0 0,14 2.64,0 0,-5.66 6.88,0 0,5.66 2.62,0"
       id="path4080"
       style="font-size:20px;font-variant:normal;font-stretch:normal;fill:#ffffff;font-family:Nexa Bold;-inkscape-font-specification:Nexa Bold" />
    <path
       d="m 208.90875,47.565 c -3.14,0 -5.1,2.320003 -5.1,5.14 0,2.839997 1.92,5.14 5.12,5.14 3.2,0 5.14,-2.300003 5.14,-5.14 0,-2.819997 -2.02,-5.14 -5.16,-5.14 m 0.02,2.22 c 1.64,0 2.68,1.440001 2.68,2.92 0,1.499999 -0.9,2.9 -2.68,2.9 -1.78,0 -2.68,-1.400001 -2.68,-2.9 0,-1.479999 0.92,-2.92 2.68,-2.92"
       id="path4082"
       style="font-size:20px;font-variant:normal;font-stretch:normal;fill:#ffffff;font-family:Nexa Bold;-inkscape-font-specification:Nexa Bold" />
    <path
       d="m 215.75312,47.765 0,9.86 2.44,0 0,-5.2 c 0,-1.819998 1.18001,-2.5 2.46,-2.5 0.8,0 1.26001,0.22 1.76,0.64 l 1.1,-2.12 c -0.53999,-0.539999 -1.52,-0.94 -2.54,-0.94 -0.99999,0 -2.02,0.180001 -2.78,1.4 l -0.18,-1.14 -2.26,0"
       id="path4084"
       style="font-size:20px;font-variant:normal;font-stretch:normal;fill:#ffffff;font-family:Nexa Bold;-inkscape-font-specification:Nexa Bold" />
    <path
       d="m 234.125,57.625 0,-5.18 c 0,-3.099997 -1.86,-4.84 -4.18,-4.84 -1.24,0 -2.24,0.500001 -3.24,1.48 l -0.16,-1.34 -2.18,0 0,9.88 2.42,0 0,-5.04 c 0,-1.499999 1.02,-2.76 2.52,-2.76 1.56,0 2.38,1.140001 2.38,2.64 l 0,5.16 2.44,0"
       id="path4086"
       style="font-size:20px;font-variant:normal;font-stretch:normal;fill:#ffffff;font-family:Nexa Bold;-inkscape-font-specification:Nexa Bold" />
    <path
       d="m 246.00187,53.565 c 0.38,-4.059996 -1.68,-6.1 -4.98,-6.1 -3.19999,0 -5.23999,2.160003 -5.23999,5.16 0,3.159997 2.02,5.26 5.41999,5.26 1.5,0 3.20001,-0.520001 4.24,-1.6 l -1.56,-1.54 c -0.55999,0.579999 -1.74,0.92 -2.64,0.92 -1.71999,0 -2.78,-0.880001 -2.94,-2.1 l 7.7,0 m -7.66,-2.02 c 0.36,-1.279999 1.44001,-1.92 2.76,-1.92 1.4,0 2.40001,0.640001 2.56,1.92 l -5.32,0"
       id="path4088"
       style="font-size:20px;font-variant:normal;font-stretch:normal;fill:#ffffff;font-family:Nexa Bold;-inkscape-font-specification:Nexa Bold" />
    <path
       d="m 247.90156,47.765 0,9.86 2.44,0 0,-5.2 c 0,-1.819998 1.18,-2.5 2.46,-2.5 0.8,0 1.26,0.22 1.76,0.64 l 1.1,-2.12 c -0.54,-0.539999 -1.52,-0.94 -2.54,-0.94 -1,0 -2.02,0.180001 -2.78,1.4 l -0.18,-1.14 -2.26,0"
       id="path4090"
       style="font-size:20px;font-variant:normal;font-stretch:normal;fill:#ffffff;font-family:Nexa Bold;-inkscape-font-specification:Nexa Bold" />
    <path
       d="m 264.31344,49.125 c -0.56,-0.979999 -1.82,-1.6 -3.14,-1.6 -2.88,-0.02 -5.14,1.760003 -5.14,5.16 0,3.459997 2.16,5.26 5.08,5.24 1.1,-0.02 2.64,-0.580001 3.2,-1.74 l 0.12,1.44 2.3,0 0,-9.86 -2.34,0 -0.08,1.36 m -2.92,0.58 c 3.83999,0 3.83999,5.98 0,5.98 -1.62,0 -2.92,-1.120002 -2.92,-3 0,-1.879998 1.3,-2.98 2.92,-2.98"
       id="path4092"
       style="font-size:20px;font-variant:normal;font-stretch:normal;fill:#ffffff;font-family:Nexa Bold;-inkscape-font-specification:Nexa Bold" />
  </g>
</svg>
