<?xml version="1.0" encoding="UTF-8" standalone="no"?>
<!-- Created with Inkscape (http://www.inkscape.org/) -->

<svg
   xmlns:dc="http://purl.org/dc/elements/1.1/"
   xmlns:cc="http://creativecommons.org/ns#"
   xmlns:rdf="http://www.w3.org/1999/02/22-rdf-syntax-ns#"
   xmlns:svg="http://www.w3.org/2000/svg"
   xmlns="http://www.w3.org/2000/svg"
   xmlns:sodipodi="http://sodipodi.sourceforge.net/DTD/sodipodi-0.dtd"
   xmlns:inkscape="http://www.inkscape.org/namespaces/inkscape"
   version="1.1"
   width="280"
   height="325"
   id="svg4731"
   inkscape:version="0.48.5 r10040"
   sodipodi:docname="method_explanation.svg">
  <sodipodi:namedview
     pagecolor="#ffffff"
     bordercolor="#666666"
     borderopacity="1"
     objecttolerance="10"
     gridtolerance="10"
     guidetolerance="10"
     inkscape:pageopacity="0"
     inkscape:pageshadow="2"
     inkscape:window-width="1280"
     inkscape:window-height="567"
     id="namedview3028"
     showgrid="false"
     inkscape:zoom="2.2342857"
     inkscape:cx="74.039103"
     inkscape:cy="91.558798"
     inkscape:window-x="0"
     inkscape:window-y="34"
     inkscape:window-maximized="0"
     inkscape:current-layer="g4616"
     showguides="true"
     inkscape:guide-bbox="true">
    <sodipodi:guide
       orientation="1,0"
       position="-125.32609,75.955204"
       id="guide3669" />
    <sodipodi:guide
       orientation="1,0"
       position="-153.96419,198.72123"
       id="guide3743" />
  </sodipodi:namedview>
  <metadata
     id="metadata4737">
    <rdf:RDF>
      <cc:Work
         rdf:about="">
        <dc:format>image/svg+xml</dc:format>
        <dc:type
           rdf:resource="http://purl.org/dc/dcmitype/StillImage" />
        <dc:title />
      </cc:Work>
    </rdf:RDF>
  </metadata>
  <defs
     id="defs4735" />
  <flowRoot
     xml:space="preserve"
     id="flowRoot3030"
     style="font-size:20px;font-style:normal;font-weight:normal;line-height:125%;letter-spacing:0px;word-spacing:0px;fill:#000000;fill-opacity:1;stroke:none;font-family:Sans"
     transform="translate(0,-175)"><flowRegion
       id="flowRegion3032"><rect
         id="rect3034"
         width="301.66241"
         height="380.43478"
         x="24.168798"
         y="35.421993"
         style="font-size:20px" /></flowRegion><flowPara
       id="flowPara3036" /></flowRoot>  <flowRoot
     xml:space="preserve"
     id="flowRoot3046"
     style="font-size:40px;font-style:normal;font-weight:normal;line-height:125%;letter-spacing:0px;word-spacing:0px;fill:#000000;fill-opacity:1;stroke:none;font-family:Sans"
     transform="translate(0,-175)"><flowRegion
       id="flowRegion3048"><rect
         id="rect3050"
         width="194.24553"
         height="48.337597"
         x="-25.063938"
         y="54.219948" /></flowRegion><flowPara
       id="flowPara3052" /></flowRoot>  <flowRoot
     xml:space="preserve"
     id="flowRoot3696"
     style="font-size:18px;font-style:normal;font-weight:normal;line-height:125%;letter-spacing:0px;word-spacing:0px;fill:#000000;fill-opacity:1;stroke:none;font-family:Sans"
     transform="translate(0,-75)"><flowRegion
       id="flowRegion3698"><rect
         id="rect3700"
         width="332.93698"
         height="154.44225"
         x="22.786562"
         y="277.20575"
         style="font-size:18px" /></flowRegion><flowPara
       id="flowPara3702" /></flowRoot>  <g
     transform="translate(-9.502649,-75.63296)"
     style="font-size:40px;font-style:normal;font-weight:normal;line-height:125%;letter-spacing:0px;word-spacing:0px;fill:#e7f225;fill-opacity:1;stroke:none;font-family:Sans"
     id="flowRoot3704" />
  <g
     id="g4616"
     transform="matrix(0.85592277,0,0,0.85592277,-14.444943,-19.283366)">
    <g
       transform="translate(0,2.5241547)"
       id="g3484">
      <g
         transform="translate(0,26.85422)"
         id="g3570">
        <g
           transform="translate(0,-200)"
           id="flowRoot3038"
           style="font-size:40px;font-style:normal;font-weight:normal;line-height:125%;letter-spacing:0px;word-spacing:0px;fill:#e7f225;fill-opacity:1;stroke:none;font-family:Sans">
          <path
             inkscape:connector-curvature="0"
             id="path3317"
             style="font-size:18px;fill:#e7f225"
             d="m 22.972656,282.04696 1.792969,0 2.759766,11.09179 2.750976,-11.09179 1.995117,0 2.759766,11.09179 2.750977,-11.09179 1.801757,0 -3.295898,13.12207 -2.232422,0 -2.768555,-11.39063 -2.794922,11.39063 -2.232421,0 -3.28711,-13.12207" />
          <path
             inkscape:connector-curvature="0"
             id="path3319"
             style="font-size:18px;fill:#e7f225"
             d="m 45.745117,281.51082 c -0.785161,1.34767 -1.368168,2.68068 -1.749023,3.99903 -0.380863,1.31836 -0.571293,2.6543 -0.571289,4.00781 -4e-6,1.35352 0.190426,2.69531 0.571289,4.02539 0.386714,1.32422 0.969722,2.65723 1.749023,3.99902 l -1.40625,0 c -0.878909,-1.37695 -1.538088,-2.73047 -1.977539,-4.06054 -0.433595,-1.33008 -0.650392,-2.65137 -0.650391,-3.96387 -1e-6,-1.30663 0.216796,-2.62206 0.650391,-3.94629 0.433591,-1.32421 1.09277,-2.67772 1.977539,-4.06055 l 1.40625,0" />
          <path
             inkscape:connector-curvature="0"
             id="path3321"
             style="font-size:18px;fill:#e7f225"
             d="m 57.074219,285.32528 -3.559571,4.79004 3.744141,5.05371 -1.907227,0 -2.865234,-3.86719 -2.865234,3.86719 -1.907227,0 3.823242,-5.15039 -3.498047,-4.69336 1.907227,0 2.610352,3.50683 2.610351,-3.50683 1.907227,0" />
          <path
             inkscape:connector-curvature="0"
             id="path3323"
             style="font-size:18px;fill:#e7f225"
             d="m 59.289062,281.51082 1.40625,0 c 0.878903,1.38283 1.535152,2.73634 1.96875,4.06055 0.439448,1.32423 0.659175,2.63966 0.65918,3.94629 -5e-6,1.3125 -0.219732,2.63379 -0.65918,3.96387 -0.433598,1.33007 -1.089847,2.68359 -1.96875,4.06054 l -1.40625,0 c 0.779295,-1.34179 1.359373,-2.6748 1.740235,-3.99902 0.386715,-1.33008 0.580074,-2.67187 0.580078,-4.02539 -4e-6,-1.35351 -0.193363,-2.68945 -0.580078,-4.00781 -0.380862,-1.31835 -0.96094,-2.65136 -1.740235,-3.99903" />
          <path
             inkscape:connector-curvature="0"
             id="path3325"
             style="font-size:18px;fill:#e7f225"
             d="m 66.786133,286.9952 11.267578,0 0,1.47656 -11.267578,0 0,-1.47656 m 0,3.58594 11.267578,0 0,1.49414 -11.267578,0 0,-1.49414" />
          <path
             inkscape:connector-curvature="0"
             id="path3327"
             style="font-size:18px;fill:#e7f225"
             d="m 81.4375,282.04696 8.4375,0 0,0.75586 -4.763672,12.36621 -1.854492,0 4.482422,-11.62793 -6.301758,0 0,-1.49414" />
          <path
             inkscape:connector-curvature="0"
             id="path3329"
             style="font-size:18px;fill:#e7f225"
             d="m 101.30078,285.32528 -3.559569,4.79004 3.744139,5.05371 -1.907225,0 -2.865234,-3.86719 -2.865235,3.86719 -1.907226,0 3.823242,-5.15039 -3.498047,-4.69336 1.907227,0 2.610351,3.50683 2.610352,-3.50683 1.907225,0" />
          <path
             inkscape:connector-curvature="0"
             id="path3331"
             style="baseline-shift:super;fill:#e7f225"
             d="m 108.87695,276.39383 -4.48242,7.00488 4.48242,0 0,-7.00488 m -0.46582,-1.54687 2.23242,0 0,8.55175 1.87208,0 0,1.47657 -1.87208,0 0,3.09375 -1.7666,0 0,-3.09375 -5.92382,0 0,-1.71387 5.458,-8.31445" />
          <path
             inkscape:connector-curvature="0"
             id="path3333"
             style="font-size:18px;fill:#e7f225"
             d="m 121.81445,283.88387 0,4.89551 4.89551,0 0,1.49414 -4.89551,0 0,4.89551 -1.47656,0 0,-4.89551 -4.89551,0 0,-1.49414 4.89551,0 0,-4.89551 1.47656,0" />
          <path
             inkscape:connector-curvature="0"
             id="path3335"
             style="font-size:18px;fill:#e7f225"
             d="m 135.9209,288.09383 c 0.8496,0.18165 1.51171,0.55958 1.98633,1.13379 0.48046,0.57422 0.72069,1.28321 0.7207,2.12695 -1e-5,1.29493 -0.44532,2.29688 -1.33594,3.00586 -0.89063,0.70899 -2.15625,1.06348 -3.79687,1.06348 -0.55079,0 -1.11915,-0.0557 -1.70508,-0.16699 -0.58008,-0.10547 -1.18067,-0.2666 -1.80176,-0.4834 l 0,-1.71387 c 0.49219,0.28711 1.03125,0.50391 1.61719,0.65039 0.58593,0.14649 1.19824,0.21973 1.83691,0.21973 1.11328,0 1.95996,-0.21973 2.54004,-0.65918 0.58593,-0.43945 0.8789,-1.07812 0.87891,-1.91602 -1e-5,-0.77343 -0.27247,-1.37694 -0.81738,-1.81054 -0.53907,-0.43945 -1.292,-0.65918 -2.25879,-0.65918 l -1.5293,0 0,-1.45899 1.59961,0 c 0.87304,10e-6 1.54101,-0.17284 2.0039,-0.51855 0.46289,-0.35156 0.69433,-0.85546 0.69434,-1.51172 -1e-5,-0.67382 -0.24024,-1.18944 -0.7207,-1.54688 -0.47462,-0.36327 -1.15723,-0.54491 -2.04785,-0.54492 -0.48634,1e-5 -1.00782,0.0528 -1.56446,0.15821 -0.55664,0.10548 -1.16894,0.26954 -1.83691,0.49218 l 0,-1.58203 c 0.67382,-0.18749 1.30371,-0.32811 1.88965,-0.42187 0.59179,-0.0937 1.14843,-0.14062 1.66992,-0.14063 1.34765,1e-5 2.41405,0.30763 3.19922,0.92285 0.78515,0.60939 1.17772,1.43556 1.17773,2.47852 -1e-5,0.72657 -0.20801,1.3418 -0.62402,1.8457 -0.41603,0.49806 -1.00782,0.84376 -1.77539,1.03711" />
          <path
             inkscape:connector-curvature="0"
             id="path3337"
             style="font-size:18px;fill:#e7f225"
             d="m 149.95703,285.32528 -3.55957,4.79004 3.74414,5.05371 -1.90723,0 -2.86523,-3.86719 -2.86523,3.86719 -1.90723,0 3.82324,-5.15039 -3.49805,-4.69336 1.90723,0 2.61035,3.50683 2.61035,-3.50683 1.90723,0" />
          <path
             inkscape:connector-curvature="0"
             id="path3339"
             style="baseline-shift:super;fill:#e7f225"
             d="m 158.03418,280.89383 c 0.8496,0.18165 1.51171,0.55958 1.98633,1.13379 0.48046,0.57422 0.72069,1.28321 0.7207,2.12695 -1e-5,1.29493 -0.44532,2.29688 -1.33594,3.00586 -0.89063,0.70899 -2.15625,1.06348 -3.79687,1.06348 -0.55079,0 -1.11915,-0.0557 -1.70508,-0.16699 -0.58008,-0.10547 -1.18067,-0.2666 -1.80176,-0.4834 l 0,-1.71387 c 0.49219,0.28711 1.03125,0.50391 1.61719,0.65039 0.58593,0.14649 1.19824,0.21973 1.83691,0.21973 1.11328,0 1.95996,-0.21973 2.54004,-0.65918 0.58593,-0.43945 0.8789,-1.07812 0.87891,-1.91602 -1e-5,-0.77343 -0.27247,-1.37694 -0.81738,-1.81054 -0.53907,-0.43945 -1.292,-0.65918 -2.25879,-0.65918 l -1.5293,0 0,-1.45899 1.59961,0 c 0.87304,10e-6 1.54101,-0.17284 2.00391,-0.51855 0.46288,-0.35156 0.69432,-0.85546 0.69433,-1.51172 -1e-5,-0.67382 -0.24024,-1.18944 -0.7207,-1.54688 -0.47462,-0.36327 -1.15723,-0.54491 -2.04785,-0.54492 -0.48634,10e-6 -1.00782,0.0528 -1.56446,0.15821 -0.55664,0.10548 -1.16894,0.26954 -1.83691,0.49218 l 0,-1.58203 c 0.67383,-0.18749 1.30371,-0.32811 1.88965,-0.42187 0.59179,-0.0937 1.14843,-0.14062 1.66992,-0.14063 1.34765,1e-5 2.41406,0.30763 3.19922,0.92285 0.78515,0.60939 1.17772,1.43556 1.17773,2.47852 -1e-5,0.72657 -0.20801,1.3418 -0.62402,1.8457 -0.41602,0.49806 -1.00782,0.84376 -1.77539,1.03711" />
          <path
             inkscape:connector-curvature="0"
             id="path3341"
             style="font-size:18px;fill:#e7f225"
             d="m 170.4707,283.88387 0,4.89551 4.89551,0 0,1.49414 -4.89551,0 0,4.89551 -1.47656,0 0,-4.89551 -4.89551,0 0,-1.49414 4.89551,0 0,-4.89551 1.47656,0" />
          <path
             inkscape:connector-curvature="0"
             id="path3343"
             style="font-size:18px;fill:#e7f225"
             d="m 179.21582,282.04696 6.96973,0 0,1.49414 -5.34375,0 0,3.21679 c 0.25781,-0.0879 0.51562,-0.15233 0.77343,-0.19336 0.25781,-0.0469 0.51562,-0.0703 0.77344,-0.0703 1.46484,10e-6 2.62499,0.40138 3.48047,1.20411 0.85546,0.80274 1.28319,1.88965 1.2832,3.26074 -1e-5,1.41211 -0.43946,2.51074 -1.31836,3.2959 -0.87891,0.77929 -2.11817,1.16894 -3.71777,1.16894 -0.55078,0 -1.11328,-0.0469 -1.6875,-0.14062 -0.56836,-0.0937 -1.15723,-0.23438 -1.7666,-0.42188 l 0,-1.78418 c 0.52734,0.28711 1.07226,0.50098 1.63476,0.6416 0.5625,0.14063 1.15723,0.21094 1.78418,0.21094 1.01367,0 1.8164,-0.2666 2.40821,-0.7998 0.59179,-0.5332 0.88769,-1.25684 0.88769,-2.1709 0,-0.91406 -0.2959,-1.63769 -0.88769,-2.1709 -0.59181,-0.5332 -1.39454,-0.7998 -2.40821,-0.7998 -0.47461,0 -0.94922,0.0527 -1.42382,0.1582 -0.46876,0.10547 -0.94922,0.26954 -1.44141,0.49219 l 0,-6.5918" />
          <path
             inkscape:connector-curvature="0"
             id="path3345"
             style="font-size:18px;fill:#e7f225"
             d="m 198.61328,285.32528 -3.55957,4.79004 3.74414,5.05371 -1.90723,0 -2.86523,-3.86719 -2.86523,3.86719 -1.90723,0 3.82324,-5.15039 -3.49805,-4.69336 1.90723,0 2.61035,3.50683 2.61035,-3.50683 1.90723,0" />
          <path
             inkscape:connector-curvature="0"
             id="path3347"
             style="baseline-shift:super;fill:#e7f225"
             d="m 202.84082,286.47489 6.19629,0 0,1.49414 -8.33203,0 0,-1.49414 c 0.67382,-0.69727 1.59082,-1.63184 2.75097,-2.80371 1.16602,-1.17773 1.89844,-1.93652 2.19727,-2.27637 0.56835,-0.63867 0.96386,-1.17773 1.18652,-1.61719 0.22851,-0.4453 0.34277,-0.88183 0.34278,-1.30957 -10e-6,-0.69726 -0.2461,-1.26561 -0.73828,-1.70508 -0.48634,-0.43944 -1.12208,-0.65917 -1.90723,-0.65918 -0.55665,10e-6 -1.14551,0.0967 -1.7666,0.29004 -0.61524,0.19337 -1.27442,0.48634 -1.97754,0.87891 l 0,-1.79297 c 0.71484,-0.2871 1.38281,-0.50389 2.0039,-0.65039 0.62109,-0.14647 1.18945,-0.21972 1.70508,-0.21973 1.35937,1e-5 2.44335,0.33986 3.25196,1.01953 0.80858,0.6797 1.21288,1.5879 1.21289,2.72461 -1e-5,0.53907 -0.10255,1.05177 -0.30762,1.53809 -0.19923,0.48047 -0.56544,1.04883 -1.09863,1.70508 -0.1465,0.16992 -0.61232,0.66211 -1.39746,1.47656 -0.78517,0.8086 -1.89259,1.94238 -3.32227,3.40137" />
          <path
             inkscape:connector-curvature="0"
             id="path3349"
             style="font-size:18px;fill:#e7f225"
             d="m 219.12695,283.88387 0,4.89551 4.89551,0 0,1.49414 -4.89551,0 0,4.89551 -1.47656,0 0,-4.89551 -4.89551,0 0,-1.49414 4.89551,0 0,-4.89551 1.47656,0" />
          <path
             inkscape:connector-curvature="0"
             id="path3351"
             style="font-size:18px;fill:#e7f225"
             d="m 227.90723,294.89657 0,-1.61719 c 0.44531,0.21094 0.89648,0.37207 1.35351,0.4834 0.45703,0.11133 0.90527,0.16699 1.34473,0.16699 1.17187,0 2.06542,-0.39258 2.68066,-1.17774 0.62109,-0.79101 0.97558,-1.98925 1.06348,-3.59472 -0.33985,0.50391 -0.77052,0.89063 -1.29199,1.16015 -0.52149,0.26954 -1.09864,0.40431 -1.73145,0.4043 -1.3125,10e-6 -2.35254,-0.3955 -3.12012,-1.18652 -0.76172,-0.79687 -1.14257,-1.88378 -1.14257,-3.26074 0,-1.34765 0.39843,-2.4287 1.19531,-3.24317 0.79687,-0.81444 1.85742,-1.22167 3.18164,-1.22168 1.51757,1e-5 2.6748,0.58302 3.47168,1.74902 0.80272,1.16017 1.20409,2.84767 1.2041,5.0625 -1e-5,2.06837 -0.4922,3.72071 -1.47656,4.95704 -0.97852,1.23047 -2.29688,1.8457 -3.95508,1.8457 -0.44532,0 -0.89649,-0.0439 -1.35352,-0.13184 -0.45703,-0.0879 -0.93164,-0.21972 -1.42382,-0.3955 m 3.5332,-5.56348 c 0.79687,0 1.42675,-0.27246 1.88965,-0.81738 0.46874,-0.54492 0.70312,-1.29199 0.70312,-2.24121 0,-0.94335 -0.23438,-1.68749 -0.70312,-2.23243 -0.4629,-0.55077 -1.09278,-0.82616 -1.88965,-0.82617 -0.79688,1e-5 -1.42969,0.2754 -1.89844,0.82617 -0.46289,0.54494 -0.69434,1.28908 -0.69433,2.23243 -1e-5,0.94922 0.23144,1.69629 0.69433,2.24121 0.46875,0.54492 1.10156,0.81738 1.89844,0.81738" />
          <path
             inkscape:connector-curvature="0"
             id="path3353"
             style="font-size:18px;fill:#e7f225"
             d="m 247.26953,285.32528 -3.55957,4.79004 3.74414,5.05371 -1.90723,0 -2.86523,-3.86719 -2.86523,3.86719 -1.90723,0 3.82324,-5.15039 -3.49805,-4.69336 1.90723,0 2.61035,3.50683 2.61035,-3.50683 1.90723,0" />
          <path
             inkscape:connector-curvature="0"
             id="path3355"
             style="font-size:18px;fill:#e7f225"
             d="m 256.32227,283.88387 0,4.89551 4.8955,0 0,1.49414 -4.8955,0 0,4.89551 -1.47657,0 0,-4.89551 -4.8955,0 0,-1.49414 4.8955,0 0,-4.89551 1.47657,0" />
          <path
             inkscape:connector-curvature="0"
             id="path3357"
             style="font-size:18px;fill:#e7f225"
             d="m 265.35742,293.67489 2.90039,0 0,-10.01075 -3.15527,0.63282 0,-1.61719 3.13769,-0.63281 1.77539,0 0,11.62793 2.9004,0 0,1.49414 -7.5586,0 0,-1.49414" />
          <path
             inkscape:connector-curvature="0"
             id="path3361"
             style="font-size:18px;fill:#81d727;fill-opacity:1"
             d="m 35.277344,326.51082 1.40625,0 c 0.878902,1.38283 1.535152,2.73634 1.96875,4.06055 0.439448,1.32423 0.659174,2.63965 0.659179,3.94629 -5e-6,1.3125 -0.219731,2.63379 -0.659179,3.96386 -0.433598,1.33008 -1.089848,2.6836 -1.96875,4.06055 l -1.40625,0 c 0.779294,-1.3418 1.359372,-2.6748 1.740234,-3.99902 0.386715,-1.33008 0.580074,-2.67187 0.580078,-4.02539 -4e-6,-1.35351 -0.193363,-2.68945 -0.580078,-4.00781 -0.380862,-1.31835 -0.96094,-2.65136 -1.740234,-3.99903" />
          <path
             inkscape:connector-curvature="0"
             id="path3363"
             style="font-size:18px;fill:#e7f225"
             d="m 22.972656,349.54695 1.792969,0 2.759766,11.0918 2.750976,-11.0918 1.995117,0 2.759766,11.0918 2.750977,-11.0918 1.801757,0 -3.295898,13.12207 -2.232422,0 -2.768555,-11.39062 -2.794922,11.39062 -2.232421,0 -3.28711,-13.12207" />
          <path
             inkscape:connector-curvature="0"
             id="path3365"
             style="font-size:18px;fill:#e7f225"
             d="m 45.745117,349.01082 c -0.785161,1.34767 -1.368168,2.68068 -1.749023,3.99903 -0.380863,1.31836 -0.571293,2.6543 -0.571289,4.00781 -4e-6,1.35352 0.190426,2.69531 0.571289,4.02539 0.386714,1.32422 0.969722,2.65722 1.749023,3.99902 l -1.40625,0 c -0.878909,-1.37695 -1.538088,-2.73047 -1.977539,-4.06055 -0.433595,-1.33007 -0.650392,-2.65136 -0.650391,-3.96386 -1e-6,-1.30664 0.216796,-2.62206 0.650391,-3.94629 0.433591,-1.32421 1.09277,-2.67772 1.977539,-4.06055 l 1.40625,0" />
          <path
             inkscape:connector-curvature="0"
             id="path3367"
             style="font-size:18px;fill:#e7f225"
             d="m 57.074219,352.82527 -3.559571,4.79004 3.744141,5.05371 -1.907227,0 -2.865234,-3.86718 -2.865234,3.86718 -1.907227,0 3.823242,-5.15039 -3.498047,-4.69336 1.907227,0 2.610352,3.50684 2.610351,-3.50684 1.907227,0" />
          <path
             inkscape:connector-curvature="0"
             id="path3369"
             style="font-size:18px;fill:#e7f225"
             d="m 59.289062,349.01082 1.40625,0 c 0.878903,1.38283 1.535152,2.73634 1.96875,4.06055 0.439448,1.32423 0.659175,2.63965 0.65918,3.94629 -5e-6,1.3125 -0.219732,2.63379 -0.65918,3.96386 -0.433598,1.33008 -1.089847,2.6836 -1.96875,4.06055 l -1.40625,0 c 0.779295,-1.3418 1.359373,-2.6748 1.740235,-3.99902 0.386715,-1.33008 0.580074,-2.67187 0.580078,-4.02539 -4e-6,-1.35351 -0.193363,-2.68945 -0.580078,-4.00781 -0.380862,-1.31835 -0.96094,-2.65136 -1.740235,-3.99903" />
          <path
             inkscape:connector-curvature="0"
             id="path3371"
             style="font-size:18px;fill:#e7f225"
             d="m 66.786133,354.4952 11.267578,0 0,1.47656 -11.267578,0 0,-1.47656 m 0,3.58593 11.267578,0 0,1.49414 -11.267578,0 0,-1.49414" />
          <path
             inkscape:connector-curvature="0"
             id="path3373"
             style="font-size:18px;fill:#e7f225"
             d="m 85.541992,349.01082 c -0.785161,1.34767 -1.368168,2.68068 -1.749023,3.99903 -0.380863,1.31836 -0.571293,2.6543 -0.571289,4.00781 -4e-6,1.35352 0.190426,2.69531 0.571289,4.02539 0.386714,1.32422 0.969722,2.65722 1.749023,3.99902 l -1.40625,0 c -0.878909,-1.37695 -1.538088,-2.73047 -1.977539,-4.06055 -0.433595,-1.33007 -0.650392,-2.65136 -0.650391,-3.96386 -10e-7,-1.30664 0.216796,-2.62206 0.650391,-3.94629 0.433591,-1.32421 1.09277,-2.67772 1.977539,-4.06055 l 1.40625,0" />
          <path
             inkscape:connector-curvature="0"
             id="path3375"
             style="font-size:18px;fill:#e7f225"
             d="m 88.46875,349.54695 8.4375,0 0,0.75586 -4.763672,12.36621 -1.854492,0 4.482422,-11.62792 -6.301758,0 0,-1.49415" />
          <path
             inkscape:connector-curvature="0"
             id="path3377"
             style="font-size:18px;fill:#e7f225"
             d="m 108.33203,352.82527 -3.55957,4.79004 3.74414,5.05371 -1.90722,0 -2.86524,-3.86718 -2.86523,3.86718 -1.90723,0 3.82324,-5.15039 -3.498045,-4.69336 1.907225,0 2.61035,3.50684 2.61035,-3.50684 1.90723,0" />
          <path
             inkscape:connector-curvature="0"
             id="path3379"
             style="font-size:65.00091553%;baseline-shift:super"
             d="m 111.35067,354.49782 4.02764,0 0,0.97121 -5.4159,0 0,-0.97121 c 0.438,-0.45323 1.03405,-1.06071 1.78816,-1.82244 0.75792,-0.76553 1.234,-1.25875 1.42825,-1.47966 0.36943,-0.41514 0.62651,-0.76553 0.77125,-1.05118 0.14853,-0.28946 0.2228,-0.5732 0.2228,-0.85124 0,-0.45322 -0.15996,-0.82266 -0.47989,-1.10831 -0.31612,-0.28564 -0.72936,-0.42847 -1.23971,-0.42848 -0.36182,1e-5 -0.74459,0.0628 -1.14831,0.18853 -0.39991,0.12569 -0.82838,0.31613 -1.28542,0.5713 l 0,-1.16545 c 0.46466,-0.18661 0.89884,-0.32753 1.30256,-0.42276 0.40372,-0.0952 0.77315,-0.14281 1.10832,-0.14282 0.8836,1e-5 1.5882,0.22091 2.1138,0.6627 0.52558,0.44181 0.78838,1.03215 0.78839,1.77102 -1e-5,0.35041 -0.0667,0.68366 -0.19996,0.99977 -0.1295,0.31232 -0.36754,0.68176 -0.71412,1.10832 -0.0952,0.11046 -0.39801,0.43038 -0.90836,0.95978 -0.51036,0.5256 -1.2302,1.26257 -2.1595,2.21092" />
          <path
             inkscape:connector-curvature="0"
             id="path3381"
             style="font-size:18px;fill:#e7f225"
             d="m 124.83448,351.38387 0,4.89551 4.89551,0 0,1.49414 -4.89551,0 0,4.8955 -1.47656,0 0,-4.8955 -4.89551,0 0,-1.49414 4.89551,0 0,-4.89551 1.47656,0" />
          <path
             inkscape:connector-curvature="0"
             id="path3383"
             style="font-size:18px;fill:#e7f225"
             d="m 138.94093,355.59383 c 0.8496,0.18165 1.51171,0.55958 1.98632,1.13379 0.48046,0.57422 0.7207,1.28321 0.72071,2.12695 -1e-5,1.29493 -0.44533,2.29688 -1.33594,3.00586 -0.89063,0.70899 -2.15626,1.06348 -3.79688,1.06348 -0.55078,0 -1.11914,-0.0557 -1.70507,-0.16699 -0.58008,-0.10547 -1.18067,-0.26661 -1.80176,-0.4834 l 0,-1.71387 c 0.49218,0.28711 1.03125,0.50391 1.61719,0.65039 0.58593,0.14649 1.19823,0.21973 1.83691,0.21973 1.11328,0 1.95995,-0.21973 2.54004,-0.65918 0.58593,-0.43945 0.8789,-1.07812 0.87891,-1.91602 -1e-5,-0.77343 -0.27247,-1.37695 -0.81739,-1.81055 -0.53907,-0.43944 -1.292,-0.65917 -2.25879,-0.65917 l -1.52929,0 0,-1.45899 1.59961,0 c 0.87304,10e-6 1.541,-0.17284 2.0039,-0.51855 0.46289,-0.35156 0.69433,-0.85546 0.69434,-1.51172 -10e-6,-0.67382 -0.24024,-1.18944 -0.72071,-1.54688 -0.47461,-0.36327 -1.15723,-0.54491 -2.04785,-0.54492 -0.48633,1e-5 -1.00781,0.0528 -1.56445,0.1582 -0.55664,0.10548 -1.16895,0.26955 -1.83691,0.49219 l 0,-1.58203 c 0.67382,-0.18749 1.3037,-0.32811 1.88964,-0.42188 0.5918,-0.0937 1.14844,-0.14061 1.66993,-0.14062 1.34765,1e-5 2.41405,0.30763 3.19922,0.92285 0.78514,0.60939 1.17772,1.43556 1.17773,2.47852 -1e-5,0.72657 -0.20802,1.3418 -0.62402,1.8457 -0.41603,0.49805 -1.00782,0.84376 -1.77539,1.03711" />
          <path
             inkscape:connector-curvature="0"
             id="path3385"
             style="font-size:18px;fill:#e7f225"
             d="m 152.97706,352.82527 -3.55957,4.79004 3.74414,5.05371 -1.90723,0 -2.86523,-3.86718 -2.86524,3.86718 -1.90722,0 3.82324,-5.15039 -3.49805,-4.69336 1.90723,0 2.61035,3.50684 2.61035,-3.50684 1.90723,0" />
          <path
             inkscape:connector-curvature="0"
             id="path3387"
             style="font-size:18px;fill:#e7f225"
             d="m 162.02979,351.38387 0,4.89551 4.8955,0 0,1.49414 -4.8955,0 0,4.8955 -1.47657,0 0,-4.8955 -4.89551,0 0,-1.49414 4.89551,0 0,-4.89551 1.47657,0" />
          <path
             inkscape:connector-curvature="0"
             id="path3389"
             style="font-size:18px;fill:#e7f225"
             d="m 170.7749,349.54695 6.96973,0 0,1.49415 -5.34375,0 0,3.21679 c 0.25781,-0.0879 0.51562,-0.15233 0.77344,-0.19336 0.2578,-0.0469 0.51562,-0.0703 0.77343,-0.0703 1.46484,10e-6 2.625,0.40138 3.48047,1.2041 0.85546,0.80274 1.2832,1.88966 1.28321,3.26074 -1e-5,1.41212 -0.43947,2.51075 -1.31836,3.2959 -0.87892,0.7793 -2.11817,1.16895 -3.71778,1.16895 -0.55078,0 -1.11328,-0.0469 -1.6875,-0.14063 -0.56836,-0.0937 -1.15723,-0.23437 -1.7666,-0.42187 l 0,-1.78418 c 0.52734,0.28711 1.07226,0.50098 1.63477,0.6416 0.56249,0.14063 1.15722,0.21094 1.78418,0.21094 1.01366,0 1.8164,-0.2666 2.4082,-0.79981 0.59179,-0.5332 0.88769,-1.25683 0.8877,-2.1709 -1e-5,-0.91405 -0.29591,-1.63769 -0.8877,-2.17089 -0.5918,-0.5332 -1.39454,-0.7998 -2.4082,-0.79981 -0.47462,1e-5 -0.94923,0.0527 -1.42383,0.1582 -0.46875,0.10548 -0.94922,0.26954 -1.44141,0.49219 l 0,-6.5918" />
          <path
             inkscape:connector-curvature="0"
             id="path3391"
             style="font-size:18px;fill:#e7f225"
             d="m 181.73486,349.01082 1.40625,0 c 0.87891,1.38283 1.53516,2.73634 1.96875,4.06055 0.43945,1.32423 0.65918,2.63965 0.65918,3.94629 0,1.3125 -0.21973,2.63379 -0.65918,3.96386 -0.43359,1.33008 -1.08984,2.6836 -1.96875,4.06055 l -1.40625,0 c 0.7793,-1.3418 1.35938,-2.6748 1.74024,-3.99902 0.38671,-1.33008 0.58007,-2.67187 0.58008,-4.02539 -1e-5,-1.35351 -0.19337,-2.68945 -0.58008,-4.00781 -0.38086,-1.31835 -0.96094,-2.65136 -1.74024,-3.99903" />
          <path
             inkscape:connector-curvature="0"
             id="path3393"
             style="font-size:18px;fill:#e7f225"
             d="m 197.20361,352.82527 -3.55957,4.79004 3.74414,5.05371 -1.90722,0 -2.86524,-3.86718 -2.86523,3.86718 -1.90723,0 3.82324,-5.15039 -3.49804,-4.69336 1.90722,0 2.61036,3.50684 2.61035,-3.50684 1.90722,0" />
          <path
             inkscape:connector-curvature="0"
             id="path3395"
             style="font-size:18px;fill:#e7f225"
             d="m 206.25635,351.38387 0,4.89551 4.89551,0 0,1.49414 -4.89551,0 0,4.8955 -1.47656,0 0,-4.8955 -4.89551,0 0,-1.49414 4.89551,0 0,-4.89551 1.47656,0" />
          <path
             inkscape:connector-curvature="0"
             id="path3397"
             style="font-size:18px;fill:#e7f225"
             d="m 215.03662,362.39656 0,-1.61718 c 0.44531,0.21094 0.89648,0.37207 1.35352,0.48339 0.45702,0.11133 0.90527,0.167 1.34472,0.167 1.17187,0 2.06543,-0.39258 2.68067,-1.17774 0.62108,-0.79101 0.97557,-1.98925 1.06347,-3.59472 -0.33985,0.50391 -0.77051,0.89063 -1.29199,1.16015 -0.52149,0.26954 -1.09864,0.4043 -1.73144,0.4043 -1.31251,0 -2.35255,-0.3955 -3.12012,-1.18652 -0.76172,-0.79687 -1.14258,-1.88379 -1.14258,-3.26075 0,-1.34764 0.39844,-2.4287 1.19531,-3.24316 0.79688,-0.81444 1.85742,-1.22167 3.18164,-1.22168 1.51758,1e-5 2.6748,0.58302 3.47168,1.74902 0.80273,1.16017 1.2041,2.84767 1.20411,5.0625 -1e-5,2.06837 -0.4922,3.72071 -1.47657,4.95703 -0.97852,1.23047 -2.29688,1.84571 -3.95508,1.84571 -0.44531,0 -0.89648,-0.0439 -1.35351,-0.13184 -0.45703,-0.0879 -0.93164,-0.21972 -1.42383,-0.39551 m 3.5332,-5.56347 c 0.79687,0 1.42676,-0.27246 1.88965,-0.81739 0.46874,-0.54491 0.70312,-1.29198 0.70313,-2.24121 -1e-5,-0.94335 -0.23439,-1.68749 -0.70313,-2.23242 -0.46289,-0.55077 -1.09278,-0.82616 -1.88965,-0.82617 -0.79688,1e-5 -1.42969,0.2754 -1.89843,0.82617 -0.4629,0.54493 -0.69434,1.28907 -0.69434,2.23242 0,0.94923 0.23144,1.6963 0.69434,2.24121 0.46874,0.54493 1.10155,0.81739 1.89843,0.81739" />
          <path
             inkscape:connector-curvature="0"
             id="path3399"
             style="font-size:18px;fill:#e7f225"
             d="m 225.96143,349.01082 1.40625,0 c 0.8789,1.38283 1.53515,2.73634 1.96875,4.06055 0.43944,1.32423 0.65917,2.63965 0.65918,3.94629 -1e-5,1.3125 -0.21974,2.63379 -0.65918,3.96386 -0.4336,1.33008 -1.08985,2.6836 -1.96875,4.06055 l -1.40625,0 c 0.77929,-1.3418 1.35937,-2.6748 1.74023,-3.99902 0.38672,-1.33008 0.58007,-2.67187 0.58008,-4.02539 -1e-5,-1.35351 -0.19336,-2.68945 -0.58008,-4.00781 -0.38086,-1.31835 -0.96094,-2.65136 -1.74023,-3.99903" />
          <path
             inkscape:connector-curvature="0"
             id="path3401"
             style="font-size:18px;fill:#e7f225"
             d="m 241.43018,352.82527 -3.55957,4.79004 3.74414,5.05371 -1.90723,0 -2.86523,-3.86718 -2.86524,3.86718 -1.90723,0 3.82325,-5.15039 -3.49805,-4.69336 1.90723,0 2.61035,3.50684 2.61035,-3.50684 1.90723,0" />
          <path
             inkscape:connector-curvature="0"
             id="path3403"
             style="font-size:18px;fill:#e7f225"
             d="m 250.48291,351.38387 0,4.89551 4.89551,0 0,1.49414 -4.89551,0 0,4.8955 -1.47656,0 0,-4.8955 -4.89551,0 0,-1.49414 4.89551,0 0,-4.89551 1.47656,0" />
          <path
             inkscape:connector-curvature="0"
             id="path3405"
             style="font-size:18px;fill:#e7f225"
             d="m 259.51807,361.17488 2.90039,0 0,-10.01074 -3.15528,0.63281 0,-1.61718 3.1377,-0.63282 1.77539,0 0,11.62793 2.90039,0 0,1.49414 -7.55859,0 0,-1.49414" />
          <path
             inkscape:connector-curvature="0"
             id="path3409"
             style="font-size:18px;fill:#81d727;fill-opacity:1"
             d="m 35.277344,394.01082 1.40625,0 c 0.878902,1.38283 1.535152,2.73634 1.96875,4.06055 0.439448,1.32423 0.659174,2.63965 0.659179,3.94629 -5e-6,1.3125 -0.219731,2.63379 -0.659179,3.96386 -0.433598,1.33008 -1.089848,2.6836 -1.96875,4.06055 l -1.40625,0 c 0.779294,-1.3418 1.359372,-2.6748 1.740234,-3.99902 0.386715,-1.33008 0.580074,-2.67187 0.580078,-4.02539 -4e-6,-1.35351 -0.193363,-2.68945 -0.580078,-4.00781 -0.380862,-1.31835 -0.96094,-2.65136 -1.740234,-3.99903" />
          <path
             inkscape:connector-curvature="0"
             id="path3411"
             style="font-size:18px;fill:#e7f225"
             d="m 22.972656,417.04695 1.792969,0 2.759766,11.0918 2.750976,-11.0918 1.995117,0 2.759766,11.0918 2.750977,-11.0918 1.801757,0 -3.295898,13.12207 -2.232422,0 -2.768555,-11.39062 -2.794922,11.39062 -2.232421,0 -3.28711,-13.12207" />
          <path
             inkscape:connector-curvature="0"
             id="path3413"
             style="font-size:18px;fill:#e7f225"
             d="m 45.745117,416.51082 c -0.785161,1.34767 -1.368168,2.68068 -1.749023,3.99903 -0.380863,1.31836 -0.571293,2.6543 -0.571289,4.00781 -4e-6,1.35352 0.190426,2.69531 0.571289,4.02539 0.386714,1.32422 0.969722,2.65722 1.749023,3.99902 l -1.40625,0 c -0.878909,-1.37695 -1.538088,-2.73047 -1.977539,-4.06055 -0.433595,-1.33007 -0.650392,-2.65136 -0.650391,-3.96386 -1e-6,-1.30664 0.216796,-2.62206 0.650391,-3.94629 0.433591,-1.32421 1.09277,-2.67772 1.977539,-4.06055 l 1.40625,0" />
          <path
             inkscape:connector-curvature="0"
             id="path3415"
             style="font-size:18px;fill:#e7f225"
             d="m 57.074219,420.32527 -3.559571,4.79004 3.744141,5.05371 -1.907227,0 -2.865234,-3.86718 -2.865234,3.86718 -1.907227,0 3.823242,-5.15039 -3.498047,-4.69336 1.907227,0 2.610352,3.50684 2.610351,-3.50684 1.907227,0" />
          <path
             inkscape:connector-curvature="0"
             id="path3417"
             style="font-size:18px;fill:#e7f225"
             d="m 59.289062,416.51082 1.40625,0 c 0.878903,1.38283 1.535152,2.73634 1.96875,4.06055 0.439448,1.32423 0.659175,2.63965 0.65918,3.94629 -5e-6,1.3125 -0.219732,2.63379 -0.65918,3.96386 -0.433598,1.33008 -1.089847,2.6836 -1.96875,4.06055 l -1.40625,0 c 0.779295,-1.3418 1.359373,-2.6748 1.740235,-3.99902 0.386715,-1.33008 0.580074,-2.67187 0.580078,-4.02539 -4e-6,-1.35351 -0.193363,-2.68945 -0.580078,-4.00781 -0.380862,-1.31835 -0.96094,-2.65136 -1.740235,-3.99903" />
          <path
             inkscape:connector-curvature="0"
             id="path3419"
             style="font-size:18px;fill:#e7f225"
             d="m 66.786133,421.9952 11.267578,0 0,1.47656 -11.267578,0 0,-1.47656 m 0,3.58593 11.267578,0 0,1.49414 -11.267578,0 0,-1.49414" />
          <path
             inkscape:connector-curvature="0"
             id="path3421"
             style="font-size:18px;fill:#e7f225"
             d="m 85.541992,416.51082 c -0.785161,1.34767 -1.368168,2.68068 -1.749023,3.99903 -0.380863,1.31836 -0.571293,2.6543 -0.571289,4.00781 -4e-6,1.35352 0.190426,2.69531 0.571289,4.02539 0.386714,1.32422 0.969722,2.65722 1.749023,3.99902 l -1.40625,0 c -0.878909,-1.37695 -1.538088,-2.73047 -1.977539,-4.06055 -0.433595,-1.33007 -0.650392,-2.65136 -0.650391,-3.96386 -10e-7,-1.30664 0.216796,-2.62206 0.650391,-3.94629 0.433591,-1.32421 1.09277,-2.67772 1.977539,-4.06055 l 1.40625,0" />
          <path
             inkscape:connector-curvature="0"
             id="path3423"
             style="font-size:18px;fill:#e7f225"
             d="m 92.573242,416.51082 c -0.785161,1.34767 -1.368168,2.68068 -1.749023,3.99903 -0.380863,1.31836 -0.571293,2.6543 -0.571289,4.00781 -4e-6,1.35352 0.190426,2.69531 0.571289,4.02539 0.386714,1.32422 0.969722,2.65722 1.749023,3.99902 l -1.40625,0 c -0.878909,-1.37695 -1.538088,-2.73047 -1.977539,-4.06055 -0.433595,-1.33007 -0.650392,-2.65136 -0.650391,-3.96386 -10e-7,-1.30664 0.216796,-2.62206 0.650391,-3.94629 0.433591,-1.32421 1.09277,-2.67772 1.977539,-4.06055 l 1.40625,0" />
          <path
             inkscape:connector-curvature="0"
             id="path3425"
             style="font-size:18px;fill:#e7f225"
             d="m 95.5,417.04695 8.4375,0 0,0.75586 -4.763672,12.36621 -1.854492,0 4.482424,-11.62792 -6.30176,0 0,-1.49415" />
          <path
             inkscape:connector-curvature="0"
             id="path3427"
             style="font-size:18px;fill:#e7f225"
             d="m 115.36328,420.32527 -3.55957,4.79004 3.74414,5.05371 -1.90722,0 -2.86524,-3.86718 -2.86523,3.86718 -1.90723,0 3.82324,-5.15039 -3.49804,-4.69336 1.90722,0 2.61035,3.50684 2.61035,-3.50684 1.90723,0" />
          <path
             inkscape:connector-curvature="0"
             id="path3429"
             style="font-size:18px;fill:#e7f225"
             d="m 124.41602,418.88387 0,4.89551 4.8955,0 0,1.49414 -4.8955,0 0,4.8955 -1.47657,0 0,-4.8955 -4.8955,0 0,-1.49414 4.8955,0 0,-4.89551 1.47657,0" />
          <path
             inkscape:connector-curvature="0"
             id="path3431"
             style="font-size:18px;fill:#e7f225"
             d="m 138.52246,423.09383 c 0.8496,0.18165 1.51171,0.55958 1.98633,1.13379 0.48046,0.57422 0.72069,1.28321 0.7207,2.12695 -1e-5,1.29493 -0.44532,2.29688 -1.33594,3.00586 -0.89063,0.70899 -2.15625,1.06348 -3.79687,1.06348 -0.55079,0 -1.11914,-0.0557 -1.70508,-0.16699 -0.58008,-0.10547 -1.18066,-0.26661 -1.80176,-0.4834 l 0,-1.71387 c 0.49219,0.28711 1.03125,0.50391 1.61719,0.65039 0.58594,0.14649 1.19824,0.21973 1.83692,0.21973 1.11327,0 1.95995,-0.21973 2.54003,-0.65918 0.58593,-0.43945 0.8789,-1.07812 0.87891,-1.91602 -10e-6,-0.77343 -0.27247,-1.37695 -0.81738,-1.81055 -0.53907,-0.43944 -1.292,-0.65917 -2.25879,-0.65917 l -1.5293,0 0,-1.45899 1.59961,0 c 0.87304,10e-6 1.54101,-0.17284 2.00391,-0.51855 0.46288,-0.35156 0.69433,-0.85546 0.69433,-1.51172 0,-0.67382 -0.24024,-1.18944 -0.7207,-1.54688 -0.47462,-0.36327 -1.15723,-0.54491 -2.04785,-0.54492 -0.48633,1e-5 -1.00782,0.0528 -1.56445,0.1582 -0.55665,0.10548 -1.16895,0.26955 -1.83692,0.49219 l 0,-1.58203 c 0.67383,-0.18749 1.30371,-0.32811 1.88965,-0.42188 0.59179,-0.0937 1.14843,-0.14061 1.66992,-0.14062 1.34765,1e-5 2.41406,0.30763 3.19922,0.92285 0.78515,0.60939 1.17773,1.43556 1.17773,2.47852 0,0.72657 -0.20801,1.3418 -0.62402,1.8457 -0.41602,0.49805 -1.00782,0.84376 -1.77539,1.03711" />
          <path
             inkscape:connector-curvature="0"
             id="path3433"
             style="font-size:18px;fill:#e7f225"
             d="m 144.12109,416.51082 1.40625,0 c 0.87891,1.38283 1.53516,2.73634 1.96875,4.06055 0.43945,1.32423 0.65918,2.63965 0.65918,3.94629 0,1.3125 -0.21973,2.63379 -0.65918,3.96386 -0.43359,1.33008 -1.08984,2.6836 -1.96875,4.06055 l -1.40625,0 c 0.7793,-1.3418 1.35938,-2.6748 1.74024,-3.99902 0.38671,-1.33008 0.58007,-2.67187 0.58008,-4.02539 -1e-5,-1.35351 -0.19337,-2.68945 -0.58008,-4.00781 -0.38086,-1.31835 -0.96094,-2.65136 -1.74024,-3.99903" />
          <path
             inkscape:connector-curvature="0"
             id="path3435"
             style="font-size:18px;fill:#e7f225"
             d="m 159.58984,420.32527 -3.55957,4.79004 3.74414,5.05371 -1.90722,0 -2.86524,-3.86718 -2.86523,3.86718 -1.90723,0 3.82324,-5.15039 -3.49804,-4.69336 1.90722,0 2.61036,3.50684 2.61035,-3.50684 1.90722,0" />
          <path
             inkscape:connector-curvature="0"
             id="path3437"
             style="font-size:18px;fill:#e7f225"
             d="m 168.64258,418.88387 0,4.89551 4.89551,0 0,1.49414 -4.89551,0 0,4.8955 -1.47656,0 0,-4.8955 -4.89551,0 0,-1.49414 4.89551,0 0,-4.89551 1.47656,0" />
          <path
             inkscape:connector-curvature="0"
             id="path3439"
             style="font-size:18px;fill:#e7f225"
             d="m 177.3877,417.04695 6.96972,0 0,1.49415 -5.34375,0 0,3.21679 c 0.25781,-0.0879 0.51562,-0.15233 0.77344,-0.19336 0.25781,-0.0469 0.51562,-0.0703 0.77344,-0.0703 1.46483,10e-6 2.62499,0.40138 3.48047,1.2041 0.85545,0.80274 1.28319,1.88966 1.2832,3.26074 -1e-5,1.41212 -0.43946,2.51075 -1.31836,3.2959 -0.87891,0.7793 -2.11817,1.16895 -3.71777,1.16895 -0.55079,0 -1.11329,-0.0469 -1.6875,-0.14063 -0.56837,-0.0937 -1.15723,-0.23437 -1.76661,-0.42187 l 0,-1.78418 c 0.52735,0.28711 1.07227,0.50098 1.63477,0.6416 0.5625,0.14063 1.15722,0.21094 1.78418,0.21094 1.01367,0 1.8164,-0.2666 2.4082,-0.79981 0.59179,-0.5332 0.88769,-1.25683 0.8877,-2.1709 -1e-5,-0.91405 -0.29591,-1.63769 -0.8877,-2.17089 -0.5918,-0.5332 -1.39453,-0.7998 -2.4082,-0.79981 -0.47461,1e-5 -0.94922,0.0527 -1.42383,0.1582 -0.46875,0.10548 -0.94922,0.26954 -1.4414,0.49219 l 0,-6.5918" />
          <path
             inkscape:connector-curvature="0"
             id="path3441"
             style="font-size:18px;fill:#e7f225"
             d="m 188.34766,416.51082 1.40625,0 c 0.8789,1.38283 1.53515,2.73634 1.96875,4.06055 0.43944,1.32423 0.65917,2.63965 0.65918,3.94629 -1e-5,1.3125 -0.21974,2.63379 -0.65918,3.96386 -0.4336,1.33008 -1.08985,2.6836 -1.96875,4.06055 l -1.40625,0 c 0.77929,-1.3418 1.35937,-2.6748 1.74023,-3.99902 0.38672,-1.33008 0.58007,-2.67187 0.58008,-4.02539 -1e-5,-1.35351 -0.19336,-2.68945 -0.58008,-4.00781 -0.38086,-1.31835 -0.96094,-2.65136 -1.74023,-3.99903" />
          <path
             inkscape:connector-curvature="0"
             id="path3443"
             style="font-size:18px;fill:#e7f225"
             d="m 203.81641,420.32527 -3.55957,4.79004 3.74414,5.05371 -1.90723,0 -2.86523,-3.86718 -2.86524,3.86718 -1.90723,0 3.82325,-5.15039 -3.49805,-4.69336 1.90723,0 2.61035,3.50684 2.61035,-3.50684 1.90723,0" />
          <path
             inkscape:connector-curvature="0"
             id="path3445"
             style="font-size:18px;fill:#e7f225"
             d="m 212.86914,418.88387 0,4.89551 4.89551,0 0,1.49414 -4.89551,0 0,4.8955 -1.47656,0 0,-4.8955 -4.89551,0 0,-1.49414 4.89551,0 0,-4.89551 1.47656,0" />
          <path
             inkscape:connector-curvature="0"
             id="path3447"
             style="font-size:18px;fill:#e7f225"
             d="m 221.64941,429.89656 0,-1.61718 c 0.44531,0.21094 0.89649,0.37207 1.35352,0.48339 0.45703,0.11133 0.90527,0.167 1.34473,0.167 1.17187,0 2.06542,-0.39258 2.68066,-1.17774 0.62109,-0.79101 0.97558,-1.98925 1.06348,-3.59472 -0.33985,0.50391 -0.77052,0.89063 -1.292,1.16015 -0.52149,0.26954 -1.09863,0.4043 -1.73144,0.4043 -1.3125,0 -2.35254,-0.3955 -3.12012,-1.18652 -0.76172,-0.79687 -1.14258,-1.88379 -1.14258,-3.26075 0,-1.34764 0.39844,-2.4287 1.19532,-3.24316 0.79687,-0.81444 1.85741,-1.22167 3.18164,-1.22168 1.51757,1e-5 2.67479,0.58302 3.47168,1.74902 0.80272,1.16017 1.20409,2.84767 1.2041,5.0625 -10e-6,2.06837 -0.4922,3.72071 -1.47656,4.95703 -0.97853,1.23047 -2.29689,1.84571 -3.95508,1.84571 -0.44532,0 -0.89649,-0.0439 -1.35352,-0.13184 -0.45703,-0.0879 -0.93164,-0.21972 -1.42383,-0.39551 m 3.53321,-5.56347 c 0.79687,0 1.42675,-0.27246 1.88965,-0.81739 0.46874,-0.54491 0.70311,-1.29198 0.70312,-2.24121 -10e-6,-0.94335 -0.23438,-1.68749 -0.70312,-2.23242 -0.4629,-0.55077 -1.09278,-0.82616 -1.88965,-0.82617 -0.79688,1e-5 -1.42969,0.2754 -1.89844,0.82617 -0.46289,0.54493 -0.69434,1.28907 -0.69434,2.23242 0,0.94923 0.23145,1.6963 0.69434,2.24121 0.46875,0.54493 1.10156,0.81739 1.89844,0.81739" />
          <path
             inkscape:connector-curvature="0"
             id="path3449"
             style="font-size:18px;fill:#e7f225"
             d="m 232.57422,416.51082 1.40625,0 c 0.8789,1.38283 1.53515,2.73634 1.96875,4.06055 0.43945,1.32423 0.65917,2.63965 0.65918,3.94629 -10e-6,1.3125 -0.21973,2.63379 -0.65918,3.96386 -0.4336,1.33008 -1.08985,2.6836 -1.96875,4.06055 l -1.40625,0 c 0.77929,-1.3418 1.35937,-2.6748 1.74023,-3.99902 0.38672,-1.33008 0.58008,-2.67187 0.58008,-4.02539 0,-1.35351 -0.19336,-2.68945 -0.58008,-4.00781 -0.38086,-1.31835 -0.96094,-2.65136 -1.74023,-3.99903" />
          <path
             inkscape:connector-curvature="0"
             id="path3451"
             style="font-size:18px;fill:#e7f225"
             d="m 248.04297,420.32527 -3.55957,4.79004 3.74414,5.05371 -1.90723,0 -2.86523,-3.86718 -2.86524,3.86718 -1.90722,0 3.82324,-5.15039 -3.49805,-4.69336 1.90723,0 2.61035,3.50684 2.61035,-3.50684 1.90723,0" />
          <path
             inkscape:connector-curvature="0"
             id="path3453"
             style="font-size:18px;fill:#e7f225"
             d="m 257.0957,418.88387 0,4.89551 4.89551,0 0,1.49414 -4.89551,0 0,4.8955 -1.47656,0 0,-4.8955 -4.89551,0 0,-1.49414 4.89551,0 0,-4.89551 1.47656,0" />
          <path
             inkscape:connector-curvature="0"
             id="path3455"
             style="font-size:18px;fill:#e7f225"
             d="m 266.13086,428.67488 2.90039,0 0,-10.01074 -3.15527,0.63281 0,-1.61718 3.13769,-0.63282 1.77539,0 0,11.62793 2.90039,0 0,1.49414 -7.55859,0 0,-1.49414" />
          <flowRoot
             transform="translate(0,173.14578)"
             style="font-size:40px;font-style:normal;font-weight:normal;line-height:125%;letter-spacing:0px;word-spacing:0px;fill:#000000;fill-opacity:1;stroke:none;font-family:Sans"
             id="flowRoot3649"
             xml:space="preserve"><flowRegion
               id="flowRegion3651"><rect
                 y="136.18925"
                 x="4.4757032"
                 height="40.28133"
                 width="41.176472"
                 id="rect3653" /></flowRegion><flowPara
               id="flowPara3655">1</flowPara></flowRoot>          <g
             id="text3657"
             style="font-size:21.35092735px;fill:#81d727;fill-opacity:1;font-family:Sans">
            <path
               style="fill:#81d727;fill-opacity:1"
               inkscape:connector-curvature="0"
               id="path3694"
               d="m 23.463979,340.90449 3.440335,0 0,-11.87436 -3.742667,0.75061 0,-1.91824 3.721817,-0.75062 2.105902,0 0,13.79261 3.440335,0 0,1.7723 -8.965722,0 0,-1.7723" />
          </g>
          <g
             id="flowRoot3661"
             style="fill:#81d727;fill-opacity:1;font-family:Sans"
             transform="matrix(0.52233244,0,0,0.52233244,10.004069,280.57893)">
            <path
               style="fill:#81d727;fill-opacity:1"
               inkscape:connector-curvature="0"
               id="path3691"
               d="m 30.050781,243.4559 13.769531,0 0,3.32032 -18.515625,0 0,-3.32032 c 1.497392,-1.54947 3.53515,-3.62629 6.113282,-6.23046 2.591134,-2.61718 4.218736,-4.30338 4.882812,-5.0586 1.263006,-1.41925 2.141911,-2.61717 2.636719,-3.59375 0.507795,-0.98956 0.761701,-1.95961 0.761719,-2.91015 -1.8e-5,-1.54946 -0.546892,-2.81248 -1.640625,-3.78907 -1.080744,-0.97653 -2.493503,-1.46481 -4.238282,-1.46484 -1.236989,3e-5 -2.545581,0.21487 -3.925781,0.64453 -1.367193,0.42971 -2.832036,1.08075 -4.394531,1.95313 l 0,-3.98438 c 1.588537,-0.63799 3.07291,-1.11976 4.453125,-1.44531 1.380199,-0.32549 2.643219,-0.48825 3.789062,-0.48828 3.020819,3e-5 5.429671,0.75523 7.226563,2.26562 1.796855,1.51044 2.695291,3.52867 2.695312,6.05469 -2.1e-5,1.19794 -0.227885,2.33726 -0.683593,3.41797 -0.442729,1.06772 -1.25653,2.33074 -2.441407,3.78906 -0.325538,0.37762 -1.360693,1.47137 -3.105468,3.28125 -1.744805,1.79688 -4.20574,4.31641 -7.382813,7.55859" />
          </g>
          <g
             id="text3657-0"
             style="font-size:21.35092735px;font-style:normal;font-weight:normal;line-height:125%;letter-spacing:0px;word-spacing:0px;fill:#81d727;fill-opacity:1;stroke:none;font-family:Sans"
             transform="matrix(1.2271506,0,0,1.2271506,30.080906,-167.92815)">
            <path
               style="fill:#81d727;fill-opacity:1"
               inkscape:connector-curvature="0"
               id="path3694-4"
               d="m 23.463979,340.90449 3.440335,0 0,-11.87436 -3.742667,0.75061 0,-1.91824 3.721817,-0.75062 2.105902,0 0,13.79261 3.440335,0 0,1.7723 -8.965722,0 0,-1.7723" />
          </g>
          <path
             inkscape:connector-curvature="0"
             id="path3405-0"
             style="font-size:18px;font-style:normal;font-weight:normal;line-height:125%;letter-spacing:0px;word-spacing:0px;fill:#e7f225;fill-opacity:1;stroke:none;font-family:Sans"
             d="m 48.720892,495.83984 2.90039,0 0,-10.01074 -3.15528,0.63281 0,-1.61718 3.1377,-0.63282 1.77539,0 0,11.62793 2.90039,0 0,1.49415 -7.55859,0 0,-1.49415" />
          <path
             inkscape:connector-curvature="0"
             id="path3405-0-9"
             style="font-size:18px;font-style:normal;font-weight:normal;line-height:125%;letter-spacing:0px;word-spacing:0px;fill:#81d727;fill-opacity:1;stroke:none;font-family:Sans"
             d="m 48.720895,539.47069 2.90039,0 0,-10.01074 -3.15528,0.63281 0,-1.61718 3.1377,-0.63282 1.77539,0 0,11.62793 2.90039,0 0,1.49415 -7.55859,0 0,-1.49415" />
        </g>
        <g
           transform="matrix(0.60178067,0,0,0.60178067,24.476515,21.576015)"
           style="font-size:40px;font-style:normal;font-weight:normal;line-height:125%;letter-spacing:0px;word-spacing:0px;fill:#81d727;fill-opacity:1;stroke:none;font-family:Sans"
           id="flowRoot3476">
          <path
             inkscape:connector-curvature="0"
             d="m 21.046875,28.869966 -7.910156,10.644532 8.320312,11.230468 -4.238281,0 -6.367187,-8.59375 -6.367188,8.59375 -4.23828125,0 L 8.7421875,39.299654 0.96875,28.869966 l 4.2382812,0 5.8007818,7.792969 5.800781,-7.792969 4.238281,0"
             id="path3564" />
          <path
             inkscape:connector-curvature="0"
             d="m 27.003906,32.580904 25.039063,0 0,3.28125 -25.039063,0 0,-3.28125 m 0,7.96875 25.039063,0 0,3.320312 -25.039063,0 0,-3.320312"
             id="path3566" />
        </g>
      </g>
    </g>
    <path
       id="path4514"
       style="font-size:18px;font-style:normal;font-weight:normal;line-height:125%;letter-spacing:0px;word-spacing:0px;fill:#81d727;fill-opacity:1;stroke:none;font-family:Sans"
       d="m 38.959961,296.92879 c 0.849601,0.18165 1.51171,0.55958 1.986328,1.13379 0.480459,0.57422 0.720693,1.28321 0.720703,2.12695 -1e-5,1.29493 -0.445322,2.29688 -1.335937,3.00586 -0.890633,0.70899 -2.156257,1.06348 -3.796875,1.06348 -0.550786,0 -1.119145,-0.0557 -1.705078,-0.16699 -0.580081,-0.10547 -1.180666,-0.26661 -1.801758,-0.4834 l 0,-1.71387 c 0.492185,0.28711 1.031247,0.50391 1.617187,0.65039 0.585934,0.14649 1.198238,0.21973 1.836914,0.21973 1.113276,0 1.959954,-0.21973 2.540039,-0.65918 0.58593,-0.43945 0.878898,-1.07812 0.878907,-1.91602 -9e-6,-0.77343 -0.272469,-1.37695 -0.817383,-1.81055 -0.53907,-0.43944 -1.291999,-0.65917 -2.258789,-0.65917 l -1.529297,0 0,-1.45899 1.599609,0 c 0.873041,10e-6 1.541009,-0.17284 2.003906,-0.51855 0.462883,-0.35156 0.694329,-0.85546 0.694336,-1.51172 -7e-6,-0.67382 -0.240242,-1.18944 -0.720703,-1.54688 -0.474616,-0.36327 -1.157232,-0.54491 -2.047851,-0.54492 -0.486333,10e-6 -1.007817,0.0528 -1.564453,0.1582 -0.556644,0.10548 -1.168948,0.26955 -1.836914,0.49219 l 0,-1.58203 c 0.673825,-0.18749 1.303707,-0.32811 1.889648,-0.42188 0.591793,-0.0937 1.148433,-0.14061 1.669922,-0.14062 1.347649,10e-6 2.414055,0.30763 3.199219,0.92285 0.785147,0.60939 1.177724,1.43556 1.177734,2.47852 -1e-5,0.72657 -0.208017,1.3418 -0.624023,1.8457 -0.416025,0.49805 -1.007821,0.84376 -1.775391,1.03711"
       transform="translate(-9.502649,-0.63296003)"
       inkscape:connector-curvature="0" />
    <path
       id="path4516"
       style="font-size:18px;font-style:normal;font-weight:normal;line-height:125%;letter-spacing:0px;word-spacing:0px;fill:#81d727;fill-opacity:1;stroke:none;font-family:Sans"
       d="m 44.558594,290.34578 1.40625,0 c 0.878902,1.38283 1.535152,2.73634 1.96875,4.06055 0.439448,1.32423 0.659174,2.63965 0.659179,3.94629 -5e-6,1.3125 -0.219731,2.63379 -0.659179,3.96386 -0.433598,1.33008 -1.089848,2.6836 -1.96875,4.06055 l -1.40625,0 c 0.779294,-1.3418 1.359372,-2.6748 1.740234,-3.99902 0.386715,-1.33008 0.580074,-2.67187 0.580078,-4.02539 -4e-6,-1.35351 -0.193363,-2.68945 -0.580078,-4.00781 -0.380862,-1.31835 -0.96094,-2.65136 -1.740234,-3.99903"
       transform="translate(-9.502649,-0.63296003)"
       inkscape:connector-curvature="0" />
    <path
       id="path4518"
       style="font-size:18px;font-style:normal;font-weight:normal;line-height:125%;letter-spacing:0px;word-spacing:0px;fill:#e7f225;fill-opacity:1;stroke:none;font-family:Sans"
       d="m 32.253906,313.38191 1.792969,0 2.759766,11.0918 2.750976,-11.0918 1.995117,0 2.759766,11.0918 2.750977,-11.0918 1.801757,0 -3.295898,13.12207 -2.232422,0 -2.768555,-11.39062 -2.794922,11.39062 -2.232421,0 -3.28711,-13.12207"
       transform="translate(-9.502649,-0.63296003)"
       inkscape:connector-curvature="0" />
    <path
       id="path4520"
       style="font-size:18px;font-style:normal;font-weight:normal;line-height:125%;letter-spacing:0px;word-spacing:0px;fill:#e7f225;fill-opacity:1;stroke:none;font-family:Sans"
       d="m 55.026367,312.84578 c -0.785161,1.34767 -1.368168,2.68068 -1.749023,3.99903 -0.380863,1.31836 -0.571293,2.6543 -0.571289,4.00781 -4e-6,1.35352 0.190426,2.69531 0.571289,4.02539 0.386714,1.32422 0.969722,2.65722 1.749023,3.99902 l -1.40625,0 c -0.878909,-1.37695 -1.538088,-2.73047 -1.977539,-4.06055 -0.433595,-1.33007 -0.650392,-2.65136 -0.650391,-3.96386 -1e-6,-1.30664 0.216796,-2.62206 0.650391,-3.94629 0.433591,-1.32421 1.09277,-2.67772 1.977539,-4.06055 l 1.40625,0"
       transform="translate(-9.502649,-0.63296003)"
       inkscape:connector-curvature="0" />
    <path
       id="path4524"
       style="font-size:18px;font-style:normal;font-weight:normal;line-height:125%;letter-spacing:0px;word-spacing:0px;fill:#e7f225;fill-opacity:1;stroke:none;font-family:Sans"
       d="m 68.570312,312.84578 1.40625,0 c 0.878903,1.38283 1.535152,2.73634 1.96875,4.06055 0.439448,1.32423 0.659175,2.63965 0.65918,3.94629 -5e-6,1.3125 -0.219732,2.63379 -0.65918,3.96386 -0.433598,1.33008 -1.089847,2.6836 -1.96875,4.06055 l -1.40625,0 c 0.779295,-1.3418 1.359373,-2.6748 1.740235,-3.99902 0.386715,-1.33008 0.580074,-2.67187 0.580078,-4.02539 -4e-6,-1.35351 -0.193363,-2.68945 -0.580078,-4.00781 -0.380862,-1.31835 -0.96094,-2.65136 -1.740235,-3.99903"
       transform="translate(-9.502649,-0.63296003)"
       inkscape:connector-curvature="0" />
    <path
       id="path4526"
       style="font-size:18px;font-style:normal;font-weight:normal;line-height:125%;letter-spacing:0px;word-spacing:0px;fill:#e7f225;fill-opacity:1;stroke:none;font-family:Sans"
       d="m 76.067383,318.33016 11.267578,0 0,1.47656 -11.267578,0 0,-1.47656 m 0,3.58593 11.267578,0 0,1.49414 -11.267578,0 0,-1.49414"
       transform="translate(-9.502649,-0.63296003)"
       inkscape:connector-curvature="0" />
    <path
       id="path4528"
       style="font-size:18px;font-style:normal;font-weight:normal;line-height:125%;letter-spacing:0px;word-spacing:0px;fill:#e7f225;fill-opacity:1;stroke:none;font-family:Sans"
       d="m 94.823242,312.84578 c -0.785161,1.34767 -1.368168,2.68068 -1.749023,3.99903 -0.380863,1.31836 -0.571293,2.6543 -0.571289,4.00781 -4e-6,1.35352 0.190426,2.69531 0.571289,4.02539 0.386714,1.32422 0.969722,2.65722 1.749023,3.99902 l -1.40625,0 c -0.878909,-1.37695 -1.538088,-2.73047 -1.977539,-4.06055 -0.433595,-1.33007 -0.650392,-2.65136 -0.650391,-3.96386 -10e-7,-1.30664 0.216796,-2.62206 0.650391,-3.94629 0.433591,-1.32421 1.09277,-2.67772 1.977539,-4.06055 l 1.40625,0"
       transform="translate(-9.502649,-0.63296003)"
       inkscape:connector-curvature="0" />
    <path
       id="path4530"
       style="font-size:18px;font-style:normal;font-weight:normal;line-height:125%;letter-spacing:0px;word-spacing:0px;fill:#e7f225;fill-opacity:1;stroke:none;font-family:Sans"
       d="m 101.85449,312.84578 c -0.78516,1.34767 -1.36817,2.68068 -1.74902,3.99903 -0.380864,1.31836 -0.571294,2.6543 -0.57129,4.00781 -4e-6,1.35352 0.190426,2.69531 0.57129,4.02539 0.38671,1.32422 0.96972,2.65722 1.74902,3.99902 l -1.40625,0 c -0.878907,-1.37695 -1.538086,-2.73047 -1.977537,-4.06055 -0.433595,-1.33007 -0.650392,-2.65136 -0.650391,-3.96386 -10e-7,-1.30664 0.216796,-2.62206 0.650391,-3.94629 0.433591,-1.32421 1.09277,-2.67772 1.977537,-4.06055 l 1.40625,0"
       transform="translate(-9.502649,-0.63296003)"
       inkscape:connector-curvature="0" />
    <path
       id="path4532"
       style="font-size:18px;font-style:normal;font-weight:normal;line-height:125%;letter-spacing:0px;word-spacing:0px;fill:#e7f225;fill-opacity:1;stroke:none;font-family:Sans"
       d="m 104.78125,313.38191 8.4375,0 0,0.75586 -4.76367,12.36621 -1.85449,0 4.48242,-11.62792 -6.30176,0 0,-1.49415"
       transform="translate(-9.502649,-0.63296003)"
       inkscape:connector-curvature="0" />
    <path
       id="path4536"
       style="font-size:18px;font-style:normal;font-weight:normal;line-height:125%;letter-spacing:0px;word-spacing:0px;fill:#e7f225;fill-opacity:1;stroke:none;font-family:Sans"
       d="m 125.99805,325.00984 2.90039,0 0,-10.01074 -3.15528,0.63281 0,-1.61718 3.1377,-0.63282 1.77539,0 0,11.62793 2.90039,0 0,1.49414 -7.55859,0 0,-1.49414"
       transform="translate(-9.502649,-0.63296003)"
       inkscape:connector-curvature="0" />
    <path
       id="path4538"
       style="font-size:18px;font-style:normal;font-weight:normal;line-height:125%;letter-spacing:0px;word-spacing:0px;fill:#e7f225;fill-opacity:1;stroke:none;font-family:Sans"
       d="m 143.50586,315.21883 0,4.89551 4.89551,0 0,1.49414 -4.89551,0 0,4.8955 -1.47656,0 0,-4.8955 -4.89551,0 0,-1.49414 4.89551,0 0,-4.89551 1.47656,0"
       transform="translate(-9.502649,-0.63296003)"
       inkscape:connector-curvature="0" />
    <path
       id="path4540"
       style="font-size:18px;font-style:normal;font-weight:normal;line-height:125%;letter-spacing:0px;word-spacing:0px;fill:#e7f225;fill-opacity:1;stroke:none;font-family:Sans"
       d="m 157.6123,319.42879 c 0.84961,0.18165 1.51171,0.55958 1.98633,1.13379 0.48046,0.57422 0.7207,1.28321 0.72071,2.12695 -1e-5,1.29493 -0.44533,2.29688 -1.33594,3.00586 -0.89063,0.70899 -2.15626,1.06348 -3.79688,1.06348 -0.55078,0 -1.11914,-0.0557 -1.70507,-0.16699 -0.58009,-0.10547 -1.18067,-0.26661 -1.80176,-0.4834 l 0,-1.71387 c 0.49218,0.28711 1.03125,0.50391 1.61718,0.65039 0.58594,0.14649 1.19824,0.21973 1.83692,0.21973 1.11327,0 1.95995,-0.21973 2.54004,-0.65918 0.58593,-0.43945 0.8789,-1.07812 0.8789,-1.91602 0,-0.77343 -0.27246,-1.37695 -0.81738,-1.81055 -0.53907,-0.43944 -1.292,-0.65917 -2.25879,-0.65917 l -1.52929,0 0,-1.45899 1.5996,0 c 0.87305,10e-6 1.54101,-0.17284 2.00391,-0.51855 0.46288,-0.35156 0.69433,-0.85546 0.69434,-1.51172 -10e-6,-0.67382 -0.24024,-1.18944 -0.72071,-1.54688 -0.47461,-0.36327 -1.15723,-0.54491 -2.04785,-0.54492 -0.48633,10e-6 -1.00781,0.0528 -1.56445,0.1582 -0.55664,0.10548 -1.16895,0.26955 -1.83691,0.49219 l 0,-1.58203 c 0.67382,-0.18749 1.3037,-0.32811 1.88964,-0.42188 0.5918,-0.0937 1.14844,-0.14061 1.66993,-0.14062 1.34765,10e-6 2.41405,0.30763 3.19921,0.92285 0.78515,0.60939 1.17773,1.43556 1.17774,2.47852 -1e-5,0.72657 -0.20802,1.3418 -0.62402,1.8457 -0.41603,0.49805 -1.00783,0.84376 -1.7754,1.03711"
       transform="translate(-9.502649,-0.63296003)"
       inkscape:connector-curvature="0" />
    <path
       id="path4542"
       style="font-size:18px;font-style:normal;font-weight:normal;line-height:125%;letter-spacing:0px;word-spacing:0px;fill:#e7f225;fill-opacity:1;stroke:none;font-family:Sans"
       d="m 163.21094,312.84578 1.40625,0 c 0.8789,1.38283 1.53515,2.73634 1.96875,4.06055 0.43945,1.32423 0.65917,2.63965 0.65918,3.94629 -10e-6,1.3125 -0.21973,2.63379 -0.65918,3.96386 -0.4336,1.33008 -1.08985,2.6836 -1.96875,4.06055 l -1.40625,0 c 0.77929,-1.3418 1.35937,-2.6748 1.74023,-3.99902 0.38672,-1.33008 0.58008,-2.67187 0.58008,-4.02539 0,-1.35351 -0.19336,-2.68945 -0.58008,-4.00781 -0.38086,-1.31835 -0.96094,-2.65136 -1.74023,-3.99903"
       transform="translate(-9.502649,-0.63296003)"
       inkscape:connector-curvature="0" />
    <path
       id="path4546"
       style="font-size:18px;font-style:normal;font-weight:normal;line-height:125%;letter-spacing:0px;word-spacing:0px;fill:#e7f225;fill-opacity:1;stroke:none;font-family:Sans"
       d="m 180.0332,325.00984 2.90039,0 0,-10.01074 -3.15527,0.63281 0,-1.61718 3.1377,-0.63282 1.77539,0 0,11.62793 2.90039,0 0,1.49414 -7.5586,0 0,-1.49414"
       transform="translate(-9.502649,-0.63296003)"
       inkscape:connector-curvature="0" />
    <path
       id="path4548"
       style="font-size:18px;font-style:normal;font-weight:normal;line-height:125%;letter-spacing:0px;word-spacing:0px;fill:#e7f225;fill-opacity:1;stroke:none;font-family:Sans"
       d="m 197.54102,315.21883 0,4.89551 4.8955,0 0,1.49414 -4.8955,0 0,4.8955 -1.47657,0 0,-4.8955 -4.8955,0 0,-1.49414 4.8955,0 0,-4.89551 1.47657,0"
       transform="translate(-9.502649,-0.63296003)"
       inkscape:connector-curvature="0" />
    <path
       id="path4550"
       style="font-size:18px;font-style:normal;font-weight:normal;line-height:125%;letter-spacing:0px;word-spacing:0px;fill:#e7f225;fill-opacity:1;stroke:none;font-family:Sans"
       d="m 206.28613,313.38191 6.96973,0 0,1.49415 -5.34375,0 0,3.21679 c 0.25781,-0.0879 0.51562,-0.15233 0.77344,-0.19336 0.2578,-0.0469 0.51562,-0.0703 0.77343,-0.0703 1.46484,1e-5 2.625,0.40138 3.48047,1.2041 0.85546,0.80274 1.2832,1.88966 1.28321,3.26074 -1e-5,1.41212 -0.43947,2.51075 -1.31836,3.2959 -0.87892,0.7793 -2.11817,1.16895 -3.71778,1.16895 -0.55078,0 -1.11328,-0.0469 -1.6875,-0.14063 -0.56836,-0.0937 -1.15723,-0.23437 -1.7666,-0.42187 l 0,-1.78418 c 0.52734,0.28711 1.07227,0.50098 1.63477,0.6416 0.56249,0.14063 1.15722,0.21094 1.78418,0.21094 1.01366,0 1.8164,-0.2666 2.4082,-0.79981 0.59179,-0.5332 0.88769,-1.25683 0.8877,-2.1709 -1e-5,-0.91405 -0.29591,-1.63769 -0.8877,-2.17089 -0.5918,-0.5332 -1.39454,-0.7998 -2.4082,-0.79981 -0.47462,10e-6 -0.94923,0.0527 -1.42383,0.1582 -0.46875,0.10548 -0.94922,0.26954 -1.44141,0.49219 l 0,-6.5918"
       transform="translate(-9.502649,-0.63296003)"
       inkscape:connector-curvature="0" />
    <path
       id="path4552"
       style="font-size:18px;font-style:normal;font-weight:normal;line-height:125%;letter-spacing:0px;word-spacing:0px;fill:#e7f225;fill-opacity:1;stroke:none;font-family:Sans"
       d="m 217.24609,312.84578 1.40625,0 c 0.87891,1.38283 1.53516,2.73634 1.96875,4.06055 0.43945,1.32423 0.65918,2.63965 0.65918,3.94629 0,1.3125 -0.21973,2.63379 -0.65918,3.96386 -0.43359,1.33008 -1.08984,2.6836 -1.96875,4.06055 l -1.40625,0 c 0.7793,-1.3418 1.35938,-2.6748 1.74024,-3.99902 0.38671,-1.33008 0.58007,-2.67187 0.58008,-4.02539 -1e-5,-1.35351 -0.19337,-2.68945 -0.58008,-4.00781 -0.38086,-1.31835 -0.96094,-2.65136 -1.74024,-3.99903"
       transform="translate(-9.502649,-0.63296003)"
       inkscape:connector-curvature="0" />
    <path
       id="path4556"
       style="font-size:18px;font-style:normal;font-weight:normal;line-height:125%;letter-spacing:0px;word-spacing:0px;fill:#e7f225;fill-opacity:1;stroke:none;font-family:Sans"
       d="m 234.06836,325.00984 2.90039,0 0,-10.01074 -3.15527,0.63281 0,-1.61718 3.13769,-0.63282 1.77539,0 0,11.62793 2.90039,0 0,1.49414 -7.55859,0 0,-1.49414"
       transform="translate(-9.502649,-0.63296003)"
       inkscape:connector-curvature="0" />
    <path
       id="path4558"
       style="font-size:18px;font-style:normal;font-weight:normal;line-height:125%;letter-spacing:0px;word-spacing:0px;fill:#e7f225;fill-opacity:1;stroke:none;font-family:Sans"
       d="m 251.57617,315.21883 0,4.89551 4.89551,0 0,1.49414 -4.89551,0 0,4.8955 -1.47656,0 0,-4.8955 -4.89551,0 0,-1.49414 4.89551,0 0,-4.89551 1.47656,0"
       transform="translate(-9.502649,-0.63296003)"
       inkscape:connector-curvature="0" />
    <path
       id="path4560"
       style="font-size:18px;font-style:normal;font-weight:normal;line-height:125%;letter-spacing:0px;word-spacing:0px;fill:#e7f225;fill-opacity:1;stroke:none;font-family:Sans"
       d="m 260.35645,326.23152 0,-1.61718 c 0.44531,0.21094 0.89648,0.37207 1.35351,0.48339 0.45703,0.11133 0.90527,0.167 1.34473,0.167 1.17187,0 2.06542,-0.39258 2.68066,-1.17774 0.62109,-0.79101 0.97558,-1.98925 1.06348,-3.59472 -0.33985,0.50391 -0.77052,0.89063 -1.29199,1.16015 -0.5215,0.26954 -1.09864,0.4043 -1.73145,0.4043 -1.3125,0 -2.35254,-0.3955 -3.12012,-1.18652 -0.76172,-0.79687 -1.14258,-1.88379 -1.14257,-3.26075 -10e-6,-1.34764 0.39843,-2.4287 1.19531,-3.24316 0.79687,-0.81444 1.85742,-1.22167 3.18164,-1.22168 1.51757,10e-6 2.67479,0.58302 3.47168,1.74902 0.80272,1.16017 1.20409,2.84767 1.2041,5.0625 -10e-6,2.06837 -0.4922,3.72071 -1.47656,4.95703 -0.97853,1.23047 -2.29688,1.84571 -3.95508,1.84571 -0.44532,0 -0.89649,-0.0439 -1.35352,-0.13184 -0.45703,-0.0879 -0.93164,-0.21972 -1.42382,-0.39551 m 3.5332,-5.56347 c 0.79687,0 1.42675,-0.27246 1.88965,-0.81739 0.46874,-0.54491 0.70311,-1.29198 0.70312,-2.24121 -10e-6,-0.94335 -0.23438,-1.68749 -0.70312,-2.23242 -0.4629,-0.55077 -1.09278,-0.82616 -1.88965,-0.82617 -0.79688,10e-6 -1.42969,0.2754 -1.89844,0.82617 -0.46289,0.54493 -0.69434,1.28907 -0.69434,2.23242 0,0.94923 0.23145,1.6963 0.69434,2.24121 0.46875,0.54493 1.10156,0.81739 1.89844,0.81739"
       transform="translate(-9.502649,-0.63296003)"
       inkscape:connector-curvature="0" />
    <path
       id="path4562"
       style="font-size:18px;font-style:normal;font-weight:normal;line-height:125%;letter-spacing:0px;word-spacing:0px;fill:#e7f225;fill-opacity:1;stroke:none;font-family:Sans"
       d="m 271.28125,312.84578 1.40625,0 c 0.8789,1.38283 1.53515,2.73634 1.96875,4.06055 0.43945,1.32423 0.65917,2.63965 0.65918,3.94629 -10e-6,1.3125 -0.21973,2.63379 -0.65918,3.96386 -0.4336,1.33008 -1.08985,2.6836 -1.96875,4.06055 l -1.40625,0 c 0.77929,-1.3418 1.35937,-2.6748 1.74023,-3.99902 0.38672,-1.33008 0.58008,-2.67187 0.58008,-4.02539 0,-1.35351 -0.19336,-2.68945 -0.58008,-4.00781 -0.38086,-1.31835 -0.96094,-2.65136 -1.74023,-3.99903"
       transform="translate(-9.502649,-0.63296003)"
       inkscape:connector-curvature="0" />
    <path
       id="path4566"
       style="font-size:18px;font-style:normal;font-weight:normal;line-height:125%;letter-spacing:0px;word-spacing:0px;fill:#e7f225;fill-opacity:1;stroke:none;font-family:Sans"
       d="m 288.10352,325.00984 2.90039,0 0,-10.01074 -3.15528,0.63281 0,-1.61718 3.1377,-0.63282 1.77539,0 0,11.62793 2.90039,0 0,1.49414 -7.55859,0 0,-1.49414"
       transform="translate(-9.502649,-0.63296003)"
       inkscape:connector-curvature="0" />
    <path
       id="path4568"
       style="font-size:18px;font-style:normal;font-weight:normal;line-height:125%;letter-spacing:0px;word-spacing:0px;fill:#e7f225;fill-opacity:1;stroke:none;font-family:Sans"
       d="m 305.61133,315.21883 0,4.89551 4.89551,0 0,1.49414 -4.89551,0 0,4.8955 -1.47656,0 0,-4.8955 -4.89551,0 0,-1.49414 4.89551,0 0,-4.89551 1.47656,0"
       transform="translate(-9.502649,-0.63296003)"
       inkscape:connector-curvature="0" />
    <path
       id="path4570"
       style="font-size:18px;font-style:normal;font-weight:normal;line-height:125%;letter-spacing:0px;word-spacing:0px;fill:#e7f225;fill-opacity:1;stroke:none;font-family:Sans"
       d="m 314.64648,325.00984 2.90039,0 0,-10.01074 -3.15527,0.63281 0,-1.61718 3.1377,-0.63282 1.77539,0 0,11.62793 2.90039,0 0,1.49414 -7.5586,0 0,-1.49414"
       transform="translate(-9.502649,-0.63296003)"
       inkscape:connector-curvature="0" />
    <g
       id="flowRoot3714"
       style="font-size:40px;font-style:normal;font-weight:normal;line-height:125%;letter-spacing:0px;word-spacing:0px;fill:#81d727;fill-opacity:1;stroke:none;font-family:Sans"
       transform="translate(1.903601,18.355841)">
      <path
         id="path4573"
         style="font-size:18px;fill:#81d727"
         d="m 20.847656,337.72566 1.792969,0 2.759766,11.0918 2.750976,-11.0918 1.995117,0 2.759766,11.0918 2.750977,-11.0918 1.801757,0 -3.295898,13.12207 -2.232422,0 -2.768555,-11.39062 -2.794922,11.39062 -2.232421,0 -3.28711,-13.12207"
         inkscape:connector-curvature="0" />
      <path
         id="path4575"
         style="font-size:18px;fill:#81d727"
         d="m 43.620117,337.18953 c -0.785161,1.34767 -1.368168,2.68068 -1.749023,3.99903 -0.380863,1.31836 -0.571293,2.6543 -0.571289,4.00781 -4e-6,1.35352 0.190426,2.69531 0.571289,4.02539 0.386714,1.32422 0.969722,2.65722 1.749023,3.99902 l -1.40625,0 c -0.878909,-1.37695 -1.538088,-2.73047 -1.977539,-4.06055 -0.433595,-1.33007 -0.650392,-2.65136 -0.650391,-3.96386 -1e-6,-1.30664 0.216796,-2.62206 0.650391,-3.94629 0.433591,-1.32421 1.09277,-2.67772 1.977539,-4.06055 l 1.40625,0"
         inkscape:connector-curvature="0" />
      <path
         id="path4579"
         style="font-size:18px;fill:#81d727"
         d="m 57.164062,337.18953 1.40625,0 c 0.878903,1.38283 1.535152,2.73634 1.96875,4.06055 0.439448,1.32423 0.659175,2.63965 0.65918,3.94629 -5e-6,1.3125 -0.219732,2.63379 -0.65918,3.96386 -0.433598,1.33008 -1.089847,2.6836 -1.96875,4.06055 l -1.40625,0 c 0.779295,-1.3418 1.359373,-2.6748 1.740235,-3.99902 0.386715,-1.33008 0.580074,-2.67187 0.580078,-4.02539 -4e-6,-1.35351 -0.193363,-2.68945 -0.580078,-4.00781 -0.380862,-1.31835 -0.96094,-2.65136 -1.740235,-3.99903"
         inkscape:connector-curvature="0" />
      <path
         id="path4581"
         style="font-size:18px;fill:#81d727"
         d="m 64.661133,342.67391 11.267578,0 0,1.47656 -11.267578,0 0,-1.47656 m 0,3.58593 11.267578,0 0,1.49414 -11.267578,0 0,-1.49414"
         inkscape:connector-curvature="0" />
      <path
         id="path4583"
         style="font-size:18px;fill:#81d727"
         d="m 87.020508,349.35359 6.196289,0 0,1.49414 -8.332031,0 0,-1.49414 c 0.673826,-0.69726 1.590817,-1.63183 2.750976,-2.80371 1.166011,-1.17773 1.898432,-1.93651 2.197266,-2.27636 0.568352,-0.63867 0.96386,-1.17773 1.186523,-1.61719 0.228508,-0.44531 0.342766,-0.88183 0.342774,-1.30957 -8e-6,-0.69726 -0.246102,-1.26562 -0.738282,-1.70508 -0.486334,-0.43944 -1.122076,-0.65917 -1.907226,-0.65918 -0.556645,10e-6 -1.145512,0.0967 -1.766602,0.29004 -0.615237,0.19337 -1.274416,0.48634 -1.977539,0.87891 l 0,-1.79297 c 0.714842,-0.2871 1.38281,-0.5039 2.003906,-0.65039 0.62109,-0.14647 1.189449,-0.21972 1.705079,-0.21973 1.359368,10e-6 2.443351,0.33986 3.251953,1.01953 0.808584,0.6797 1.212881,1.5879 1.21289,2.72461 -9e-6,0.53907 -0.102548,1.05177 -0.307617,1.53809 -0.199228,0.48047 -0.565438,1.04883 -1.098633,1.70507 -0.146492,0.16993 -0.612312,0.66212 -1.397461,1.47657 -0.785162,0.80859 -1.892583,1.94238 -3.322265,3.40136"
         inkscape:connector-curvature="0" />
      <path
         id="path4585"
         style="font-size:18px;fill:#81d727"
         d="m 96.969727,337.72566 6.969723,0 0,1.49415 -5.343747,0 0,3.21679 c 0.257809,-0.0879 0.515621,-0.15233 0.773438,-0.19336 0.257808,-0.0469 0.51562,-0.0703 0.773439,-0.0703 1.46484,1e-5 2.62499,0.40138 3.48047,1.2041 0.85546,0.80274 1.28319,1.88966 1.2832,3.26074 -1e-5,1.41212 -0.43946,2.51075 -1.31836,3.2959 -0.87891,0.7793 -2.11817,1.16895 -3.717773,1.16895 -0.550785,0 -1.113285,-0.0469 -1.6875,-0.14063 -0.568362,-0.0937 -1.157228,-0.23437 -1.766601,-0.42187 l 0,-1.78418 c 0.527341,0.28711 1.072263,0.50098 1.634765,0.6416 0.562497,0.14063 1.157223,0.21094 1.78418,0.21094 1.013669,0 1.816399,-0.2666 2.408199,-0.79981 0.59179,-0.5332 0.88769,-1.25683 0.8877,-2.1709 -1e-5,-0.91405 -0.29591,-1.63769 -0.8877,-2.17089 -0.5918,-0.5332 -1.39453,-0.7998 -2.408199,-0.79981 -0.474614,10e-6 -0.949223,0.0527 -1.423828,0.1582 -0.468753,0.10548 -0.949221,0.26954 -1.441406,0.49219 l 0,-6.5918"
         inkscape:connector-curvature="0" />
    </g>
    <path
       sodipodi:type="arc"
       style="fill:#e7f225;fill-opacity:1;fill-rule:nonzero;stroke:none"
       id="path3126"
       sodipodi:cx="-54.60358"
       sodipodi:cy="252.94118"
       sodipodi:rx="1.7902813"
       sodipodi:ry="1.7902813"
       d="m -52.813299,252.94118 a 1.7902813,1.7902813 0 1 1 -3.580563,0 1.7902813,1.7902813 0 1 1 3.580563,0 z"
       transform="matrix(1.1683297,0,0,1.1683297,172.70355,24.098058)" />
    <path
       sodipodi:type="arc"
       style="fill:#e7f225;fill-opacity:1;fill-rule:nonzero;stroke:none"
       id="path3126-2"
       sodipodi:cx="-54.60358"
       sodipodi:cy="252.94118"
       sodipodi:rx="1.7902813"
       sodipodi:ry="1.7902813"
       d="m -52.813299,252.94118 a 1.7902813,1.7902813 0 1 1 -3.580563,0 1.7902813,1.7902813 0 1 1 3.580563,0 z"
       transform="matrix(1.1683297,0,0,1.1683297,227.60907,24.620969)" />
    <path
       sodipodi:type="arc"
       style="fill:#e7f225;fill-opacity:1;fill-rule:nonzero;stroke:none"
       id="path3126-2-5"
       sodipodi:cx="-54.60358"
       sodipodi:cy="252.94118"
       sodipodi:rx="1.7902813"
       sodipodi:ry="1.7902813"
       d="m -52.813299,252.94118 a 1.7902813,1.7902813 0 1 1 -3.580563,0 1.7902813,1.7902813 0 1 1 3.580563,0 z"
       transform="matrix(1.1683297,0,0,1.1683297,280.94586,24.09806)" />
    <path
       sodipodi:type="arc"
       style="fill:#e7f225;fill-opacity:1;fill-rule:nonzero;stroke:none"
       id="path3126-2-2"
       sodipodi:cx="-54.60358"
       sodipodi:cy="252.94118"
       sodipodi:rx="1.7902813"
       sodipodi:ry="1.7902813"
       d="m -52.813299,252.94118 a 1.7902813,1.7902813 0 1 1 -3.580563,0 1.7902813,1.7902813 0 1 1 3.580563,0 z"
       transform="matrix(1.1683297,0,0,1.1683297,335.85139,24.620969)" />
  </g>
</svg>
